# Blender 4.2.0
# www.blender.org
mtllib ammo.mtl
o Cube
v 0.157837 0.352982 -0.157837
v 0.157837 -0.157837 -0.157837
v 0.157837 0.352982 0.409283
v 0.157837 -0.157837 0.409283
v -0.157837 0.352982 -0.157837
v -0.157837 -0.157837 -0.157837
v -0.157837 0.352982 0.409283
v -0.157837 -0.157837 0.409283
vn -0.0000 1.0000 -0.0000
vn -0.0000 -0.0000 1.0000
vn -1.0000 -0.0000 -0.0000
vn -0.0000 -1.0000 -0.0000
vn 1.0000 -0.0000 -0.0000
vn -0.0000 -0.0000 -1.0000
vt 0.355684 0.505647
vt 0.605253 0.505647
vt 0.605253 0.954007
vt 0.355684 0.954007
vt 0.933378 0.517366
vt 0.933378 0.921215
vt 0.683809 0.921215
vt 0.683809 0.517366
vt 0.714457 0.037074
vt 0.716303 0.440918
vt 0.267948 0.442968
vt 0.266101 0.039123
vt 0.050997 0.507600
vt 0.300566 0.507600
vt 0.300566 0.955961
vt 0.050997 0.955961
s 0
usemtl ammo
f 1/1/1 5/2/1 7/3/1 3/4/1
f 4/5/2 3/6/2 7/7/2 8/8/2
f 8/9/3 7/10/3 5/11/3 6/12/3
f 6/13/4 2/14/4 4/15/4 8/16/4
f 2/9/5 1/10/5 3/11/5 4/12/5
f 6/5/6 5/6/6 1/7/6 2/8/6
