# Blender 4.2.0
# www.blender.org
mtllib base.mtl
o Cube
v 1.000000 1.000000 -0.294783
v 0.294783 1.000000 -1.000000
v 0.294783 -1.000000 -1.000000
v 1.000000 -1.000000 -0.294783
v 0.294783 1.000000 1.000000
v 1.000000 1.000000 0.294783
v 1.000000 -1.000000 0.294783
v 0.294783 -1.000000 1.000000
v -0.294783 1.000000 -1.000000
v -1.000000 1.000000 -0.294783
v -1.000000 -1.000000 -0.294783
v -0.294783 -1.000000 -1.000000
v -1.000000 1.000000 0.294783
v -0.294783 1.000000 1.000000
v -0.294783 -1.000000 1.000000
v -1.000000 -1.000000 0.294783
v 1.000000 0.600000 -0.294783
v 1.000000 0.200000 -0.294783
v 1.000000 -0.200000 -0.294783
v 1.000000 -0.600000 -0.294783
v 0.294783 -0.600000 -1.000000
v 0.294783 -0.200000 -1.000000
v 0.294783 0.200000 -1.000000
v 0.294783 0.600000 -1.000000
v -0.294783 -0.600000 1.000000
v -0.294783 -0.200000 1.000000
v -0.294783 0.200000 1.000000
v -0.294783 0.600000 1.000000
v -1.000000 0.600000 0.294783
v -1.000000 0.200000 0.294783
v -1.000000 -0.200000 0.294783
v -1.000000 -0.600000 0.294783
v 0.294783 0.600000 1.000000
v 0.294783 0.200000 1.000000
v 0.294783 -0.200000 1.000000
v 0.294783 -0.600000 1.000000
v 1.000000 -0.600000 0.294783
v 1.000000 -0.200000 0.294783
v 1.000000 0.200000 0.294783
v 1.000000 0.600000 0.294783
v -0.294783 0.600000 -1.000000
v -0.294783 0.200000 -1.000000
v -0.294783 -0.200000 -1.000000
v -0.294783 -0.600000 -1.000000
v -1.000000 -0.600000 -0.294783
v -1.000000 -0.200000 -0.294783
v -1.000000 0.200000 -0.294783
v -1.000000 0.600000 -0.294783
vn -1.0000 -0.0000 -0.0000
vn -0.0000 -0.0000 1.0000
vn 1.0000 -0.0000 -0.0000
vn 0.7071 -0.0000 -0.7071
vn -0.7071 -0.0000 0.7071
vn 0.7071 -0.0000 0.7071
vn -0.7071 -0.0000 -0.7071
vn -0.0000 -0.0000 -1.0000
vt 0.972625 0.776929
vt 0.972736 0.815186
vt 0.968665 0.814950
vt 0.968554 0.776694
vt 0.983583 0.777565
vt 0.983694 0.815822
vt 0.979623 0.815585
vt 0.979512 0.777329
vt 0.950710 0.775659
vt 0.950821 0.813915
vt 0.946750 0.813679
vt 0.946639 0.775423
vt 0.961668 0.776294
vt 0.961779 0.814550
vt 0.957708 0.814314
vt 0.957597 0.776058
vt 0.939863 0.813280
vt 0.939753 0.775024
s 0
usemtl Material
f 29/1/1 13/2/1 10/3/1 48/4/1
f 33/5/2 5/6/2 14/7/2 28/8/2
f 17/9/3 1/10/3 6/11/3 40/12/3
f 20/1/4 4/2/4 3/3/4 21/4/4
f 28/8/5 14/7/5 13/2/5 29/1/5
f 36/5/6 8/6/6 7/7/6 37/8/6
f 44/13/7 12/14/7 11/15/7 45/16/7
f 41/13/8 9/14/8 2/15/8 24/16/8
f 12/14/8 44/13/8 21/4/8 3/3/8
f 44/13/8 43/14/8 22/15/8 21/16/8
f 43/13/8 42/14/8 23/15/8 22/16/8
f 42/13/8 41/14/8 24/15/8 23/16/8
f 9/14/7 41/13/7 48/4/7 10/3/7
f 41/14/7 42/13/7 47/4/7 48/3/7
f 42/14/7 43/13/7 46/4/7 47/3/7
f 43/14/7 44/13/7 45/4/7 46/3/7
f 5/17/6 33/18/6 40/12/6 6/11/6
f 33/17/6 34/18/6 39/12/6 40/11/6
f 34/17/6 35/18/6 38/12/6 39/11/6
f 35/17/6 36/18/6 37/12/6 38/11/6
f 15/11/5 25/12/5 32/9/5 16/10/5
f 25/8/5 26/7/5 31/2/5 32/1/5
f 26/8/5 27/7/5 30/2/5 31/1/5
f 27/8/5 28/7/5 29/2/5 30/1/5
f 1/10/4 17/9/4 24/16/4 2/15/4
f 17/10/4 18/9/4 23/16/4 24/15/4
f 18/10/4 19/9/4 22/16/4 23/15/4
f 19/10/4 20/9/4 21/16/4 22/15/4
f 4/2/3 20/1/3 37/8/3 7/7/3
f 20/9/3 19/10/3 38/11/3 37/12/3
f 19/9/3 18/10/3 39/11/3 38/12/3
f 18/9/3 17/10/3 40/11/3 39/12/3
f 8/17/2 36/18/2 25/12/2 15/11/2
f 36/5/2 35/6/2 26/7/2 25/8/2
f 35/5/2 34/6/2 27/7/2 26/8/2
f 34/5/2 33/6/2 28/7/2 27/8/2
f 16/10/1 32/9/1 45/16/1 11/15/1
f 32/1/1 31/2/1 46/3/1 45/4/1
f 31/1/1 30/2/1 47/3/1 46/4/1
f 30/1/1 29/2/1 48/3/1 47/4/1
