# Blender 5.0.1
# www.blender.org
mtllib bear.mtl
o Cube
v -0.567549 -9.201914 3.552297
v -1.103347 4.274073 0.996369
v 2.769684 -7.642243 4.121851
v 1.631102 4.632598 1.091005
v -1.200632 3.662176 2.203243
v -1.633760 2.234533 2.568736
v -1.673428 -0.149262 2.246087
v -1.804277 -0.903794 2.385829
v -2.096212 -2.792582 2.689392
v -1.515073 -8.708479 2.869993
v 2.335798 2.409294 2.496328
v 2.970902 -0.051949 2.210173
v 3.328287 -0.728393 2.264883
v 3.912460 -2.334374 2.422093
v 3.973884 -5.021456 3.721487
v 1.450217 3.884811 2.330407
v 0.169167 0.954807 4.824017
v -0.049677 0.902598 3.898181
v 1.563347 1.898034 4.338755
v 1.364994 1.234674 3.501354
v 1.540893 -1.118335 4.404216
v 0.790192 -0.957434 3.331389
v 2.928222 -0.471793 4.067864
v 3.673296 -0.650658 3.504801
v 1.149375 -3.829942 3.063760
v 0.675197 -3.380277 2.291070
v 2.958195 -3.967849 3.342573
v 3.740412 -3.635310 2.751523
v 0.415854 -1.835944 2.088418
v 4.073486 -2.120905 2.689105
v 0.545324 -2.579517 3.918298
v 3.521588 -2.595349 4.261584
v -1.084003 4.848973 1.135098
v 1.630242 5.099073 1.215230
v -0.641320 8.555002 1.465044
v 1.582720 8.637257 0.786155
v 1.704588 5.355224 1.448558
v 2.068106 5.744457 1.768489
v 2.163860 7.232302 1.465668
v 2.066031 8.356613 1.008784
v -1.076883 8.085602 1.973465
v -1.347633 6.917955 2.271206
v -1.247583 5.671761 2.338896
v -1.052685 5.225592 1.422826
v -0.518192 -9.143538 1.157449
v -1.096626 4.276667 0.442865
v 2.955481 -7.777270 0.988699
v 1.688393 4.685424 0.464949
v 4.076726 -5.288957 0.919353
v 4.061819 -2.302148 0.491553
v 3.579899 -0.671450 0.526524
v 3.236440 0.051289 0.512422
v 2.822465 2.700626 0.436363
v 1.866445 4.163475 0.460062
v -2.066850 -8.713622 1.185213
v -2.037830 -2.771424 0.530869
v -1.804277 -0.913539 0.448742
v -1.673428 -0.149262 0.439630
v -1.630774 2.227071 0.439630
v -1.182978 3.675357 0.438727
v -1.080046 4.852309 0.440355
v 1.692302 5.154353 0.462225
v -0.641320 8.555002 0.439630
v 1.582720 8.637257 0.439630
v -1.052671 5.225604 0.439630
v -1.076883 8.085602 0.439630
v 1.789958 5.437559 0.458276
v 2.136946 5.849662 0.723059
v 2.220618 7.391997 0.810373
v 2.085212 8.226118 0.439630
v 3.511204 6.019902 0.723670
v 3.770347 6.938156 0.663175
v 2.089258 7.756910 1.493167
v -1.183767 7.518921 2.029262
v 2.204603 7.775239 0.542674
v -1.183767 7.518921 0.439630
v 4.048980 7.067245 0.001261
v 2.418615 7.391737 0.000065
v -1.290651 6.952242 0.439630
v 2.174529 7.875059 0.000065
v 2.071672 8.282846 0.000065
v 1.629994 8.518438 0.000065
v 3.707495 5.790202 0.002757
v 2.201744 5.739311 0.009974
v 1.854628 5.361213 0.011873
v 1.761846 5.100682 0.011730
v -0.465407 8.502676 0.000065
v -1.122959 8.056362 0.000065
v -0.646704 7.973709 1.037507
v -0.193398 7.973709 1.037507
v -0.646704 8.397614 2.250236
v -0.646704 9.186438 2.026633
v -0.193398 9.186438 2.026633
v -0.193398 8.397614 2.250236
v -0.646704 9.186438 1.175384
v -0.646704 8.700037 1.037507
v -0.193398 8.700037 1.037507
v -0.193398 9.186438 1.175384
v -0.646704 7.973709 2.161777
v -0.646704 8.285772 2.250236
v -0.193398 8.285772 2.250236
v -0.193398 7.973709 2.161777
v -1.194548 7.518921 0.000065
v -1.335634 6.847640 0.000065
v -1.164067 5.728111 0.439630
v -1.237543 5.800590 0.000065
v -1.111378 5.200791 0.003732
v -1.163731 4.848045 0.009692
v -1.357783 4.298015 0.011327
v -1.451916 3.701911 -0.005080
v -1.848050 2.222171 -0.006710
v -1.658709 -0.185844 0.000065
v -1.768871 -0.834906 0.000065
v -2.005165 -2.760062 0.000065
v -1.989310 -8.679303 0.049227
v 1.937810 4.708754 0.008364
v 1.980939 4.179789 -0.005054
v 2.924019 2.624327 -0.037422
v 3.341251 -0.086727 -0.036441
v 3.667270 -0.769677 -0.027777
v 4.245623 -2.522829 -0.030477
v 4.081366 -5.251184 -0.078530
v 3.031977 -7.793934 -0.110519
v 3.949336 -10.857388 3.870088
v 0.952901 -11.024966 3.311738
v 4.098910 -11.142172 0.682431
v 1.091306 -11.044443 0.790858
v -0.175224 -15.365427 3.089927
v -1.469611 -15.611463 2.638392
v -0.130184 -15.507682 0.798496
v -1.373553 -15.589165 0.790005
v 4.229669 -9.162204 0.966899
v 4.098841 -8.916152 3.580742
v 0.813299 -10.271161 0.821657
v 0.681628 -10.272742 3.250171
v -0.613875 -12.895115 2.548693
v -0.517553 -12.896839 0.970989
v 1.592961 -12.880914 3.023056
v 1.673607 -13.117638 1.045291
v 3.462080 -16.021118 1.084422
v 3.420237 -15.828168 3.395287
v 4.504779 -13.833796 3.373722
v 4.558495 -14.116479 1.010686
v -0.335059 -8.530473 0.016604
v -2.628313 -9.066817 0.875319
v -3.003206 -7.141451 0.871101
v -2.799180 -9.275763 0.027293
v -3.291420 -6.822573 0.019156
v -1.665713 -9.277102 1.153028
v -2.070601 -7.566202 0.916449
v -1.059452 -8.467395 0.014002
v -1.439984 -7.205335 0.009770
v 2.839315 7.248304 0.599719
v 2.769648 5.978841 0.544373
v 3.080488 7.260047 0.000065
v 2.813004 5.760082 0.005629
v 2.334714 7.369005 0.643985
v 2.280138 5.878864 0.682702
v 2.568403 7.361935 0.000065
v 2.340083 5.743991 0.009143
v -0.510333 -9.234326 -3.457394
v -1.116820 4.379193 -0.950344
v 2.682380 -7.541629 -4.329287
v 1.624432 4.684002 -1.070611
v -1.240284 3.950691 -2.222373
v -1.634804 2.459873 -2.245524
v -1.665966 -0.057125 -2.063254
v -1.798235 -0.861779 -2.267773
v -2.101628 -2.800254 -2.677588
v -1.444435 -8.769960 -2.734097
v 2.346091 2.595984 -2.671772
v 2.955628 0.032184 -2.246377
v 3.298475 -0.683265 -2.338173
v 3.857429 -2.298939 -2.505295
v 3.816550 -4.908560 -3.991871
v 1.464850 4.115914 -2.364271
v -0.566968 1.145481 -4.637024
v -0.448324 0.969950 -3.805288
v 1.202178 1.404272 -4.631708
v 1.077662 1.134600 -3.695658
v -0.326751 -1.325929 -4.386506
v -0.928982 -1.108857 -3.275038
v 1.455908 -1.115292 -4.294354
v 2.131556 -0.874280 -3.261018
v -0.078210 -3.975401 -4.759748
v -0.785507 -4.083300 -4.013025
v 1.699213 -3.878284 -4.513903
v 2.283020 -3.884102 -3.641981
v -1.469928 -2.835664 -2.887673
v 2.365832 -2.576647 -2.737288
v -0.744225 -2.496554 -4.927423
v 2.139108 -2.381092 -4.581894
v -1.089338 4.893229 -1.093728
v 1.626092 5.132349 -1.189306
v -0.641320 8.555002 -1.464915
v 1.582720 8.637257 -0.786026
v 1.701357 5.381648 -1.425847
v 2.065679 5.764573 -1.749709
v 2.163567 7.235299 -1.458343
v 2.066031 8.356613 -1.008655
v -1.076883 8.085602 -1.973336
v -1.348031 6.921535 -2.265607
v -1.250432 5.695196 -2.318484
v -1.055908 5.252705 -1.394489
v -0.371550 -9.135936 -1.082198
v -1.101480 4.316247 -0.406477
v 3.069204 -7.645433 -1.216689
v 1.686083 4.703497 -0.447623
v 4.058613 -5.251323 -1.086293
v 4.054301 -2.299363 -0.544271
v 3.574410 -0.661644 -0.585685
v 3.234736 0.061499 -0.586901
v 2.818046 2.743328 -0.509262
v 1.862129 4.195138 -0.468839
v -1.972322 -8.750716 -1.043696
v -2.033192 -2.767401 -0.531514
v -1.804277 -0.913539 -0.448612
v -1.673428 -0.149262 -0.439501
v -1.635362 2.304327 -0.441119
v -1.189931 3.724902 -0.459570
v -1.081017 4.862167 -0.415870
v 1.690844 5.166214 -0.437482
v -0.641320 8.555002 -0.439501
v 1.582720 8.637257 -0.439501
v -1.052970 5.229408 -0.425539
v -1.076883 8.085602 -0.439501
v 1.788853 5.446614 -0.433382
v 2.136105 5.856946 -0.705807
v 2.220611 7.392142 -0.809462
v 2.085212 8.226118 -0.439501
v 3.510809 6.023059 -0.716601
v 3.770266 6.938920 -0.659831
v 2.089258 7.756910 -1.493038
v -1.183767 7.518921 -2.029133
v 2.204603 7.775239 -0.542545
v -1.183767 7.518921 -0.439501
v -1.290651 6.952242 -0.439501
v -0.646704 7.973709 -1.037378
v -0.193398 7.973709 -1.037378
v -0.646704 8.397614 -2.250106
v -0.646704 9.186438 -2.026504
v -0.193398 9.186438 -2.026504
v -0.193398 8.397614 -2.250106
v -0.646704 9.186438 -1.175255
v -0.646704 8.700037 -1.037378
v -0.193398 8.700037 -1.037378
v -0.193398 9.186438 -1.175255
v -0.646704 7.973709 -2.161648
v -0.646704 8.285772 -2.250106
v -0.193398 8.285772 -2.250106
v -0.193398 7.973709 -2.161648
v -1.164086 5.728500 -0.437328
v 3.978528 -10.668439 -4.151914
v 1.069791 -10.928041 -3.285279
v 4.477888 -10.935208 -0.997447
v 1.475699 -10.952214 -0.795024
v 0.094921 -15.296007 -2.968214
v -1.136048 -15.582351 -2.382907
v 0.378129 -15.443906 -0.698530
v -0.844453 -15.561109 -0.555127
v 4.477975 -8.919381 -1.288405
v 4.110093 -8.731953 -3.884436
v 1.134822 -10.191471 -0.812311
v 0.800772 -10.222712 -3.221336
v -0.352512 -12.846137 -2.371147
v -0.079975 -12.856614 -0.814308
v 1.784653 -12.758907 -3.076405
v 2.093129 -13.006085 -1.118841
v 3.948759 -15.865167 -1.388970
v 3.642441 -15.666175 -3.676855
v 4.626454 -13.499945 -3.723458
v 4.964471 -13.886128 -1.384853
v -2.638108 -9.077207 -0.823883
v -3.014974 -7.151448 -0.831859
v -1.679091 -9.291251 -1.109834
v -2.087774 -7.577191 -0.882546
v 2.839311 7.248542 -0.597746
v 2.769228 5.982467 -0.532619
v 2.334711 7.369122 -0.642987
v 2.279402 5.885244 -0.666581
vn -0.9460 0.2053 0.2507
vn -0.6645 0.5961 0.4507
vn -0.8711 0.2907 0.3958
vn -0.9679 0.1192 0.2214
vn 0.4106 0.7208 0.5585
vn 0.7818 0.2505 0.5710
vn 0.6722 -0.4389 0.5963
vn -0.7675 -0.2405 0.5942
vn -0.4997 -0.4123 0.7618
vn 0.3311 0.1054 0.9377
vn 0.6469 -0.0300 0.7620
vn -0.7005 -0.4372 0.5641
vn 0.7210 0.2055 0.6618
vn -0.7104 0.1278 0.6921
vn 0.6199 0.3364 0.7089
vn -0.6864 0.2033 0.6983
vn 0.5982 0.2249 0.7691
vn -0.7173 0.0803 0.6921
vn 0.8601 0.0940 0.5014
vn -0.8798 -0.0489 0.4727
vn -0.2639 -0.9140 -0.3082
vn -0.8047 -0.5908 -0.0578
vn -0.9984 0.0557 -0.0059
vn -0.9886 0.1478 -0.0304
vn -0.9957 0.0796 0.0477
vn -0.9731 0.1383 0.1841
vn 0.5859 -0.0130 -0.8102
vn -0.8442 -0.5108 -0.1626
vn -0.4026 0.0508 0.9140
vn -0.2911 -0.1051 0.9509
vn 0.6570 0.3252 0.6802
vn 0.4603 0.4961 0.7362
vn 0.8682 0.1777 -0.4632
vn 0.6853 -0.5769 -0.4444
vn -0.5672 -0.5100 -0.6467
vn -0.6430 0.2581 -0.7211
vn 0.7555 0.5924 -0.2797
vn -0.8383 0.2914 -0.4607
vn 0.2463 -0.9344 0.2574
vn -0.4168 -0.8963 0.1512
vn -0.7184 -0.2016 0.6658
vn 0.5079 -0.2619 0.8207
vn 0.8533 0.5213 -0.0145
vn 0.2715 0.9580 -0.0924
vn 0.2703 0.9277 0.2577
vn 0.7037 0.5780 0.4131
vn 0.9604 0.1367 0.2429
vn 0.9774 -0.1350 0.1626
vn -0.2632 0.9040 0.3370
vn -0.5115 0.6071 0.6081
vn 0.4701 -0.7801 0.4128
vn -0.6499 -0.6288 0.4269
vn 0.6789 -0.3965 0.6180
vn -0.5393 -0.3770 0.7530
vn 0.7793 0.1020 0.6183
vn -0.6512 0.1489 0.7441
vn 0.6333 0.2819 0.7208
vn -0.6304 0.3562 0.6897
vn 0.8439 -0.5226 0.1213
vn 0.8751 -0.4790 0.0687
vn 0.9870 0.1180 0.1092
vn 0.9665 0.2394 0.0920
vn -0.8759 0.4814 -0.0318
vn -0.9813 0.1911 0.0208
vn -0.9972 0.0702 0.0274
vn -0.9837 -0.1728 0.0500
vn -0.9948 -0.0784 0.0648
vn -0.9864 0.0995 0.1305
vn -0.4133 0.9060 -0.0919
vn 0.9074 0.3686 0.2019
vn 0.8976 0.3586 0.2563
vn 0.9426 0.2957 0.1553
vn 0.9186 0.3774 0.1172
vn 0.9775 0.1769 0.1149
vn 0.9753 -0.2097 0.0696
vn 0.8621 -0.2860 -0.4183
vn 0.7486 0.2642 0.6081
vn 0.5830 -0.3121 0.7502
vn 0.6879 -0.3496 -0.6361
vn 0.7426 0.3053 -0.5961
vn 0.0757 -0.6100 0.7888
vn 0.3535 -0.4980 0.7919
vn 0.5571 0.3711 0.7429
vn 0.1847 0.6658 0.7229
vn 0.8033 0.5956 -0.0000
vn 0.3177 0.9482 -0.0000
vn 0.9588 0.2842 -0.0000
vn 0.9449 0.3273 -0.0000
vn 0.2371 0.9715 -0.0000
vn 0.8684 0.4959 -0.0005
vn 0.6171 -0.7869 -0.0019
vn -0.9797 0.0964 -0.1760
vn -0.9951 0.0992 0.0011
vn -0.9951 0.0992 -0.0009
vn 0.8558 -0.5174 -0.0054
vn 0.7165 -0.6975 -0.0061
vn 0.9987 -0.0517 -0.0018
vn 0.1530 -0.9882 -0.0036
vn 0.3693 -0.6243 0.6883
vn 0.4933 -0.6136 0.6165
vn 0.1447 -0.9895 -0.0037
vn -0.2901 0.9570 -0.0000
vn 0.5933 0.6422 -0.4854
vn -0.5933 0.6422 -0.4854
vn -0.5933 0.6422 0.4854
vn 0.5933 0.6422 0.4854
vn -0.5774 -0.5774 -0.5774
vn -0.6774 0.1013 -0.7286
vn 0.6774 0.1013 -0.7286
vn 0.5774 -0.5774 -0.5774
vn 0.6774 -0.1013 0.7286
vn 0.6774 0.1013 0.7286
vn -0.6774 0.1013 0.7286
vn -0.6774 -0.1013 0.7286
vn 0.5933 -0.6422 0.4854
vn -0.5933 -0.6422 0.4854
vn -0.8822 0.4709 -0.0000
vn -0.9840 0.1781 -0.0000
vn -0.9996 0.0276 -0.0001
vn -0.9889 -0.1486 -0.0008
vn -0.9989 -0.0465 -0.0008
vn -0.9889 0.1486 0.0020
vn -0.9847 0.1740 0.0106
vn -0.9745 0.2241 0.0136
vn -0.9945 0.1042 0.0146
vn -0.9972 0.0752 -0.0000
vn -0.9891 0.1474 -0.0009
vn -0.9981 0.0593 -0.0156
vn -0.7493 -0.6618 -0.0233
vn 0.9789 0.2042 0.0034
vn 0.9210 0.3894 0.0109
vn 0.9475 0.3197 0.0066
vn 0.9469 0.3214 0.0008
vn 0.9350 0.3546 -0.0023
vn 0.9951 0.0986 -0.0060
vn 0.9790 -0.2041 -0.0014
vn 0.6708 -0.7416 0.0042
vn -0.6441 0.3687 -0.6702
vn -0.6063 -0.5204 -0.6013
vn -0.6887 -0.5456 0.4775
vn -0.7642 0.3868 0.5161
vn -0.5118 0.0760 -0.8557
vn -0.5372 -0.2531 -0.8046
vn -0.6236 0.0115 0.7816
vn -0.5825 -0.4715 0.6621
vn 0.0195 -0.6712 -0.7410
vn -0.1824 -0.5626 0.8064
vn 0.1613 -0.0306 0.9864
vn 0.3002 0.0182 -0.9537
vn 0.3820 -0.7415 -0.5516
vn 0.3250 -0.6693 0.6681
vn 0.7318 0.3539 0.5825
vn 0.7825 0.2539 -0.5685
vn 0.1340 -0.9910 -0.0027
vn -0.9512 -0.1877 0.2447
vn -0.0058 -0.0047 -1.0000
vn 0.7590 0.2492 0.6015
vn -0.1577 0.0315 0.9870
vn 0.2319 -0.9440 -0.2346
vn 0.2517 0.8852 0.3912
vn 0.0799 -0.9968 -0.0033
vn 0.2245 0.9745 -0.0000
vn 0.4167 0.7218 0.5526
vn 0.6412 0.1987 0.7412
vn 0.2355 0.9719 -0.0000
vn -0.9537 0.2159 -0.2092
vn -0.9682 0.1389 -0.2080
vn -0.8927 0.3091 -0.3281
vn -0.6567 0.6272 -0.4187
vn 0.7992 0.2882 -0.5275
vn 0.4248 0.7374 -0.5252
vn -0.7748 -0.2459 -0.5825
vn 0.6656 -0.4588 -0.5886
vn -0.5354 -0.4457 -0.7174
vn -0.7147 -0.4637 -0.5237
vn 0.5979 -0.0155 -0.8014
vn 0.2458 0.1128 -0.9627
vn -0.7205 0.1289 -0.6814
vn 0.7085 0.2098 -0.6738
vn -0.6952 0.2240 -0.6831
vn 0.5997 0.3515 -0.7189
vn -0.7410 0.0919 -0.6651
vn 0.5892 0.2394 -0.7717
vn -0.9478 -0.0921 -0.3054
vn 0.8359 0.0884 -0.5417
vn -0.1974 -0.9271 0.3185
vn -0.7819 -0.6202 0.0632
vn -0.9987 0.0505 -0.0087
vn -0.9888 0.1461 0.0305
vn -0.9958 0.0786 -0.0477
vn -0.9755 0.1378 -0.1715
vn -0.8573 -0.2126 0.4689
vn 0.8382 -0.0980 0.5365
vn -0.5300 0.1928 -0.8258
vn 0.4364 0.3081 -0.8454
vn 0.5791 0.2263 -0.7832
vn -0.5322 0.2010 -0.8224
vn 0.7166 -0.1103 0.6887
vn -0.8045 -0.1559 0.5731
vn -0.5768 -0.8117 0.0915
vn 0.6683 -0.7072 0.2309
vn 0.7532 0.4001 0.5221
vn -0.7680 0.3388 0.5435
vn -0.2106 -0.6813 -0.7011
vn 0.4514 -0.6429 -0.6188
vn -0.5444 0.0907 -0.8339
vn 0.6824 0.1255 -0.7202
vn 0.8533 0.5213 0.0145
vn 0.7037 0.5780 -0.4131
vn 0.2703 0.9277 -0.2577
vn 0.2715 0.9580 0.0924
vn 0.9592 0.1526 -0.2381
vn 0.9759 -0.1381 -0.1690
vn -0.5115 0.6071 -0.6081
vn -0.2632 0.9040 -0.3370
vn -0.6432 -0.6422 -0.4171
vn 0.4599 -0.7895 -0.4065
vn -0.5402 -0.3823 -0.7497
vn 0.6759 -0.4009 -0.6185
vn -0.6506 0.1436 -0.7457
vn 0.7802 0.0960 -0.6181
vn 0.6323 0.2784 -0.7230
vn -0.6297 0.3528 -0.6921
vn 0.8387 -0.5284 -0.1320
vn 0.8702 -0.4868 -0.0755
vn 0.9871 0.1166 -0.1098
vn 0.9666 0.2393 -0.0921
vn -0.9813 0.1914 -0.0207
vn -0.8759 0.4814 0.0318
vn -0.9833 -0.1747 -0.0505
vn -0.9971 0.0704 -0.0272
vn -0.9950 -0.0770 -0.0636
vn -0.9870 0.1051 -0.1213
vn -0.4133 0.9060 0.0919
vn 0.8971 0.3789 -0.2270
vn 0.9116 0.3725 -0.1738
vn 0.9457 0.2882 -0.1504
vn 0.9214 0.3695 -0.1204
vn 0.9759 0.1736 -0.1324
vn 0.9762 -0.1958 -0.0933
vn 0.9012 -0.2138 0.3771
vn 0.6799 0.2966 -0.6707
vn 0.7744 0.3572 0.5222
vn 0.7628 -0.3226 0.5604
vn 0.5125 -0.2943 -0.8066
vn 0.0705 -0.6111 -0.7884
vn 0.1832 0.6633 -0.7256
vn 0.5560 0.3697 -0.7445
vn 0.3512 -0.4986 -0.7925
vn -0.9792 0.0989 0.1769
vn 0.4870 -0.6157 -0.6195
vn 0.3621 -0.6260 -0.6907
vn -0.5774 -0.5774 0.5774
vn 0.5774 -0.5774 0.5774
vn 0.6774 -0.1013 -0.7286
vn -0.6774 -0.1013 -0.7286
vn 0.5933 -0.6422 -0.4854
vn -0.5933 -0.6422 -0.4854
vn -0.5777 0.3473 0.7387
vn -0.8260 0.3664 -0.4283
vn -0.7204 -0.5644 -0.4030
vn -0.5237 -0.5376 0.6609
vn -0.4493 -0.2652 0.8531
vn -0.4149 0.0604 0.9078
vn -0.6069 -0.5153 -0.6050
vn -0.7039 -0.0174 -0.7101
vn -0.2534 -0.5646 -0.7855
vn 0.1170 -0.6728 0.7305
vn 0.0493 -0.0195 -0.9986
vn 0.3928 0.0248 0.9193
vn 0.2787 -0.6500 -0.7069
vn 0.4722 -0.7311 0.4924
vn 0.6405 0.4131 -0.6474
vn 0.8273 0.2784 0.4879
vn -0.9542 -0.1902 -0.2307
vn 0.7488 0.2447 -0.6159
vn -0.1680 0.0231 -0.9855
vn 0.2343 -0.9412 0.2436
vn 0.2472 0.8797 -0.4062
vn 0.4173 0.7188 -0.5560
vn 0.6403 0.1921 -0.7437
vt 0.946880 0.937810
vt 0.919434 0.936800
vt 0.938104 0.947008
vt 0.946823 0.947233
vt 0.902512 0.975844
vt 0.921459 0.986961
vt 0.412622 0.893558
vt 0.412838 0.898115
vt 0.342891 0.898933
vt 0.342124 0.893558
vt 0.776904 0.744979
vt 0.853234 0.762706
vt 0.888829 0.817801
vt 0.758152 0.763123
vt 0.884777 0.893110
vt 0.758152 0.879224
vt 0.868209 0.928456
vt 0.760110 0.918086
vt 0.858615 0.942592
vt 0.761666 0.934102
vt 0.841434 0.991265
vt 0.758868 0.983615
vt 0.930981 0.729092
vt 0.893777 0.734052
vt 0.906578 0.749093
vt 0.933539 0.752885
vt 0.911225 0.835178
vt 0.945340 0.834443
vt 0.916689 0.864199
vt 0.947078 0.863521
vt 0.919097 0.876164
vt 0.947481 0.875740
vt 0.914150 0.913353
vt 0.948122 0.913750
vt 0.480187 0.853538
vt 0.470642 0.825237
vt 0.451391 0.824376
vt 0.443023 0.852368
vt 0.439396 0.821013
vt 0.433652 0.793543
vt 0.417459 0.798285
vt 0.419918 0.819809
vt 0.429704 0.855654
vt 0.408193 0.848513
vt 0.498358 0.854314
vt 0.483227 0.822651
vt 0.482646 0.783112
vt 0.484222 0.769201
vt 0.456954 0.761715
vt 0.448373 0.774928
vt 0.491967 0.801895
vt 0.479589 0.797176
vt 0.447509 0.791825
vt 0.480326 0.760643
vt 0.464514 0.756339
vt 0.437906 0.765095
vt 0.429449 0.765183
vt 0.431146 0.778703
vt 0.421804 0.769008
vt 0.408193 0.774714
vt 0.409021 0.787978
vt 0.497715 0.789220
vt 0.501183 0.775778
vt 0.492456 0.774321
vt 0.263573 0.776783
vt 0.265258 0.797489
vt 0.278727 0.796484
vt 0.286137 0.776555
vt 0.264846 0.722431
vt 0.264922 0.727535
vt 0.294261 0.726073
vt 0.289287 0.721061
vt 0.434371 0.940390
vt 0.425068 0.950594
vt 0.365578 0.956683
vt 0.350203 0.948576
vt 0.415049 0.904222
vt 0.344063 0.906639
vt 0.424835 0.912296
vt 0.340093 0.930202
vt 0.431244 0.924003
vt 0.339836 0.939643
vt 0.430111 0.928126
vt 0.346422 0.945150
vt 0.264569 0.732427
vt 0.303281 0.730415
vt 0.274152 0.747350
vt 0.315193 0.745981
vt 0.277570 0.764741
vt 0.303229 0.762773
vt 0.267066 0.769376
vt 0.304655 0.769224
vt 0.223642 0.942670
vt 0.226104 0.964569
vt 0.284653 0.963794
vt 0.284283 0.941726
vt 0.210712 0.871788
vt 0.213997 0.919244
vt 0.284010 0.919609
vt 0.283240 0.872467
vt 0.245511 0.853169
vt 0.282862 0.852864
vt 0.256409 0.838630
vt 0.282904 0.838684
vt 0.245677 0.988585
vt 0.284619 0.988278
vt 0.428420 0.958681
vt 0.375496 0.980613
vt 0.261626 0.816695
vt 0.282808 0.816855
vt 0.575491 0.956650
vt 0.599158 0.961944
vt 0.596106 0.981010
vt 0.576168 0.976670
vt 0.582006 0.929800
vt 0.600605 0.932298
vt 0.582634 0.920670
vt 0.601694 0.923066
vt 0.583120 0.899782
vt 0.604214 0.902047
vt 0.571761 0.860796
vt 0.601389 0.863522
vt 0.569436 0.825463
vt 0.603885 0.825463
vt 0.205581 0.968755
vt 0.209328 0.957825
vt 0.158077 0.962301
vt 0.163502 0.972449
vt 0.595460 0.987094
vt 0.588528 0.986018
vt 0.349805 0.816373
vt 0.357530 0.846922
vt 0.368700 0.854477
vt 0.365970 0.817102
vt 0.246346 0.779248
vt 0.248020 0.796904
vt 0.245762 0.773177
vt 0.244545 0.762193
vt 0.389258 0.827670
vt 0.392689 0.861930
vt 0.382588 0.876203
vt 0.359552 0.863813
vt 0.086522 0.951258
vt 0.103731 0.955513
vt 0.106736 0.923055
vt 0.086522 0.923045
vt 0.247072 0.733190
vt 0.246005 0.747580
vt 0.247269 0.728529
vt 0.323610 0.806436
vt 0.346644 0.793976
vt 0.344940 0.788362
vt 0.321510 0.801704
vt 0.383932 0.989146
vt 0.433802 0.968506
vt 0.484381 0.993122
vt 0.506630 0.972547
vt 0.470983 0.940131
vt 0.445743 0.951342
vt 0.536560 0.912129
vt 0.528741 0.946900
vt 0.556664 0.958597
vt 0.567895 0.903589
vt 0.448678 0.882915
vt 0.445743 0.891194
vt 0.476433 0.900321
vt 0.479030 0.893742
vt 0.634885 0.876833
vt 0.741156 0.876833
vt 0.749518 0.906331
vt 0.749518 0.916903
vt 0.728382 0.991466
vt 0.647917 0.991466
vt 0.634885 0.945489
vt 0.536222 0.992824
vt 0.511914 0.853819
vt 0.491847 0.876391
vt 0.459907 0.859131
vt 0.301437 0.961954
vt 0.302320 0.992184
vt 0.301013 0.941404
vt 0.300829 0.915364
vt 0.300255 0.875298
vt 0.299689 0.851957
vt 0.299954 0.838393
vt 0.302320 0.816287
vt 0.954863 0.946934
vt 0.954880 0.937456
vt 0.955898 0.913220
vt 0.954428 0.874961
vt 0.954123 0.864657
vt 0.953536 0.834452
vt 0.951365 0.751461
vt 0.244545 0.720831
vt 0.601416 0.981180
vt 0.601253 0.987052
vt 0.604426 0.961310
vt 0.606762 0.931057
vt 0.607808 0.922220
vt 0.610441 0.899426
vt 0.611767 0.864618
vt 0.613842 0.825515
vt 0.596408 0.803939
vt 0.634505 0.805321
vt 0.634503 0.780434
vt 0.596248 0.782681
vt 0.644010 0.817842
vt 0.660068 0.821381
vt 0.658356 0.848675
vt 0.648363 0.850555
vt 0.546979 0.807726
vt 0.562841 0.808059
vt 0.562340 0.774124
vt 0.546907 0.775081
vt 0.651770 0.806110
vt 0.652467 0.775150
vt 0.675625 0.863864
vt 0.699255 0.872623
vt 0.698062 0.860367
vt 0.676686 0.843922
vt 0.703045 0.805085
vt 0.703744 0.773870
vt 0.634435 0.857800
vt 0.628625 0.824790
vt 0.522328 0.802499
vt 0.523524 0.770272
vt 0.204602 0.984452
vt 0.155068 0.988711
vt 0.198219 0.917473
vt 0.166484 0.920679
vt 0.195400 0.872910
vt 0.192133 0.857655
vt 0.155068 0.861556
vt 0.157514 0.876918
vt 0.680554 0.819935
vt 0.698331 0.826636
vt 0.951074 0.724793
vt 0.955898 0.673917
vt 0.942220 0.672521
vt 0.336814 0.752915
vt 0.333959 0.767710
vt 0.325972 0.780805
vt 0.325972 0.741484
vt 0.104622 0.968282
vt 0.076452 0.966869
vt 0.089316 0.897387
vt 0.104622 0.891843
vt 0.362570 0.746022
vt 0.358784 0.774760
vt 0.342588 0.765848
vt 0.343084 0.755044
vt 0.330899 0.856463
vt 0.328326 0.822215
vt 0.390967 0.809974
vt 0.366282 0.791368
vt 0.361389 0.783948
vt 0.392689 0.804585
vt 0.575762 0.958856
vt 0.576457 0.979410
vt 0.596928 0.983866
vt 0.600061 0.964291
vt 0.582451 0.931288
vt 0.601546 0.933853
vt 0.583095 0.921914
vt 0.602664 0.924375
vt 0.583595 0.900469
vt 0.605252 0.902794
vt 0.571932 0.860442
vt 0.602351 0.863240
vt 0.569546 0.824166
vt 0.604915 0.824166
vt 0.589147 0.989008
vt 0.596264 0.990113
vt 0.086549 0.894833
vt 0.103762 0.890594
vt 0.602212 0.990070
vt 0.602380 0.984041
vt 0.605470 0.963640
vt 0.607868 0.932579
vt 0.608943 0.923506
vt 0.611646 0.900104
vt 0.613006 0.864366
vt 0.615137 0.824219
s 1
usemtl global
f 60/1/1 5/2/2 2/3/3 46/4/4
f 5/2/2 16/5/5 4/6/6 2/3/3
f 4/7/6 34/8/7 33/9/8 2/10/3
f 1/11/9 3/12/10 15/13/11 10/14/12
f 10/14/12 15/13/11 14/15/13 9/16/14
f 9/16/14 14/15/13 13/17/15 8/18/16
f 8/18/16 13/17/15 12/19/17 7/20/18
f 7/20/18 12/19/17 11/21/19 6/22/20
f 45/23/21 1/24/9 10/25/12 55/26/22
f 55/26/22 10/25/12 9/27/14 56/28/23
f 56/28/23 9/27/14 8/29/16 57/30/24
f 57/30/24 8/29/16 7/31/18 58/32/25
f 58/32/25 7/31/18 6/33/20 59/34/26
f 59/34/26 6/33/20 5/2/2 60/1/1
f 11/35/19 20/36/27 18/37/28 6/38/20
f 17/39/29 21/40/30 23/41/31 19/42/32
f 6/38/20 18/37/28 17/39/29 5/43/2
f 5/43/2 17/39/29 19/42/32 16/44/5
f 16/45/5 19/46/32 20/36/27 11/35/19
f 30/47/33 28/48/34 26/49/35 29/50/36
f 19/46/32 23/51/31 24/52/37 20/36/27
f 20/36/27 24/52/37 22/53/38 18/37/28
f 18/37/28 22/53/38 21/40/30 17/39/29
f 26/49/35 28/48/34 27/54/39 25/55/40
f 29/50/36 26/56/35 25/57/40 31/58/41
f 31/58/41 25/59/40 27/60/39 32/61/42
f 32/62/42 27/63/39 28/64/34 30/47/33
f 23/51/31 32/62/42 30/47/33 24/52/37
f 21/40/30 31/58/41 32/61/42 23/41/31
f 22/53/38 29/50/36 31/58/41 21/40/30
f 24/52/37 30/47/33 29/50/36 22/53/38
f 70/65/43 64/66/44 36/67/45 40/68/46
f 48/69/47 62/70/48 34/71/7 4/72/6
f 40/73/46 36/74/45 35/75/49 41/76/50
f 34/8/7 37/77/51 44/78/52 33/9/8
f 37/77/51 38/79/53 43/80/54 44/78/52
f 38/79/53 39/81/55 42/82/56 43/80/54
f 73/83/57 40/73/46 41/76/50 74/84/58
f 62/70/48 67/85/59 37/86/51 34/71/7
f 67/85/59 68/87/60 38/88/53 37/86/51
f 68/87/60 69/89/61 39/90/55 38/88/53
f 75/91/62 70/65/43 40/68/46 73/92/57
f 74/93/58 41/94/50 66/95/63 76/96/64
f 43/97/54 42/98/56 79/99/65 105/100/66
f 44/101/52 43/97/54 105/100/66 65/102/67
f 33/103/8 44/101/52 65/102/67 61/104/68
f 41/94/50 35/105/49 63/106/69 66/95/63
f 36/74/45 64/107/44 63/108/69 35/75/49
f 2/109/3 33/103/8 61/104/68 46/110/4
f 11/111/19 53/112/70 54/113/71 16/114/5
f 12/115/17 52/116/72 53/112/70 11/111/19
f 13/117/15 51/118/73 52/116/72 12/115/17
f 14/119/13 50/120/74 51/118/73 13/117/15
f 15/121/11 49/122/75 50/120/74 14/119/13
f 3/123/10 47/124/76 49/122/75 15/121/11
f 133/125/77 124/126/78 126/127/79 132/128/80
f 16/114/5 54/113/71 48/129/47 4/130/6
f 154/131/81 71/132/82 72/133/83 153/134/84
f 42/98/56 74/93/58 76/96/64 79/99/65
f 69/89/61 75/91/62 73/92/57 39/90/55
f 39/81/55 73/83/57 74/84/58 42/82/56
f 64/66/44 70/65/43 81/135/85 82/136/86
f 81/135/85 70/65/43 75/91/62 80/137/87
f 80/137/87 75/91/62 69/89/61 78/138/88
f 155/139/89 153/134/84 72/133/83 77/140/90
f 83/141/91 77/140/90 72/133/83 71/142/82
f 68/143/92 69/144/92 78/145/93 84/146/94
f 85/147/95 84/148/96 68/87/60 67/85/59
f 86/149/97 85/147/95 67/85/59 62/70/48
f 160/150/98 158/151/99 68/152/100 84/153/101
f 87/154/102 63/108/69 64/107/44 82/155/86
f 98/156/103 95/157/104 92/158/105 93/159/106
f 89/160/107 96/161/108 97/162/109 90/163/110
f 101/164/111 94/165/112 91/166/113 100/167/114
f 93/159/106 92/158/105 91/166/113 94/165/112
f 90/168/110 97/169/109 98/170/103 93/171/106 94/172/112 101/173/111 102/174/115
f 95/157/104 98/175/103 97/162/109 96/161/108
f 89/160/107 90/163/110 102/176/115 99/177/116
f 99/177/116 102/178/115 101/164/111 100/167/114
f 99/177/116 100/167/114 91/166/113 92/158/105 95/157/104 96/161/108 89/160/107
f 88/179/117 66/95/63 63/106/69 87/180/102
f 103/181/118 76/96/64 66/95/63 88/179/117
f 103/181/118 104/182/119 79/99/65 76/96/64
f 104/182/119 106/183/120 105/100/66 79/99/65
f 106/183/120 107/184/121 65/102/67 105/100/66
f 108/185/122 61/104/68 65/102/67 107/184/121
f 109/186/123 46/110/4 61/104/68 108/185/122
f 60/1/1 46/4/4 109/187/123 110/188/124
f 59/34/26 60/1/1 110/188/124 111/189/125
f 58/32/25 59/34/26 111/189/125 112/190/126
f 57/30/24 58/32/25 112/190/126 113/191/127
f 56/28/23 57/30/24 113/191/127 114/192/128
f 55/26/22 56/28/23 114/192/128 115/193/129
f 116/194/130 86/149/97 62/70/48 48/69/47
f 54/113/71 117/195/131 116/196/130 48/129/47
f 53/112/70 118/197/132 117/195/131 54/113/71
f 52/116/72 119/198/133 118/197/132 53/112/70
f 51/118/73 120/199/134 119/198/133 52/116/72
f 50/120/74 121/200/135 120/199/134 51/118/73
f 49/122/75 122/201/136 121/200/135 50/120/74
f 47/124/76 123/202/137 122/201/136 49/122/75
f 137/203/138 131/204/139 129/205/140 136/206/141
f 132/207/80 126/208/79 127/209/142 134/210/143
f 134/211/143 127/212/142 125/213/144 135/214/145
f 135/210/145 125/209/144 124/208/78 133/207/77
f 129/205/140 131/204/139 130/215/146 128/216/147
f 136/217/141 129/218/140 128/219/147 138/220/148
f 139/220/149 130/219/146 131/218/139 137/217/138
f 130/215/146 140/221/150 141/222/151 128/216/147
f 1/223/9 135/210/145 133/207/77 3/224/10
f 45/225/21 134/211/143 135/214/145 1/226/9
f 47/224/76 132/207/80 134/210/143 45/223/21
f 3/227/10 133/125/77 132/128/80 47/228/76
f 124/126/78 138/229/148 139/230/149 126/127/79
f 126/208/79 139/220/149 137/217/138 127/209/142
f 125/209/144 136/217/141 138/220/148 124/208/78
f 127/212/142 137/203/138 136/206/141 125/213/144
f 142/231/152 141/232/151 140/233/150 143/234/153
f 139/220/149 143/235/153 140/236/150 130/219/146
f 128/219/147 141/236/151 142/235/152 138/220/148
f 138/229/148 142/231/152 143/234/153 139/230/149
f 45/23/21 55/26/22 115/193/129 144/237/154
f 45/23/21 144/237/154 123/238/137 47/239/76
s 0
f 145/240/155 146/241/155 148/242/155 147/243/155
f 147/244/156 148/245/156 152/246/156 151/247/156
f 151/248/157 152/249/157 150/250/157 149/251/157
f 149/251/158 150/250/158 146/241/158 145/240/158
f 147/243/159 151/248/159 149/251/159 145/240/159
f 152/249/160 148/242/160 146/241/160 150/250/160
s 1
f 83/252/91 71/132/82 154/131/81 156/253/161
f 159/254/162 157/255/163 153/134/84 155/139/89
f 158/151/99 154/131/81 153/134/84 157/255/163
f 68/152/100 158/151/99 157/255/163 69/256/164
f 78/257/165 69/256/164 157/255/163 159/254/162
f 156/253/161 154/131/81 158/151/99 160/150/98
f 220/1/166 206/4/167 162/3/168 165/2/169
f 165/2/169 162/3/168 164/6/170 176/5/171
f 164/7/170 162/10/168 193/9/172 194/8/173
f 161/11/174 170/14/175 175/13/176 163/12/177
f 170/14/175 169/16/178 174/15/179 175/13/176
f 169/16/178 168/18/180 173/17/181 174/15/179
f 168/18/180 167/20/182 172/19/183 173/17/181
f 167/20/182 166/22/184 171/21/185 172/19/183
f 205/23/186 215/26/187 170/25/175 161/24/174
f 215/26/187 216/28/188 169/27/178 170/25/175
f 216/28/188 217/30/189 168/29/180 169/27/178
f 217/30/189 218/32/190 167/31/182 168/29/180
f 218/32/190 219/34/191 166/33/184 167/31/182
f 219/34/191 220/1/166 165/2/169 166/33/184
f 171/35/185 166/38/184 178/37/192 180/36/193
f 177/39/194 179/42/195 183/41/196 181/40/197
f 166/38/184 165/43/169 177/39/194 178/37/192
f 165/43/169 176/44/171 179/42/195 177/39/194
f 176/45/171 171/35/185 180/36/193 179/46/195
f 190/47/198 189/50/199 186/49/200 188/48/201
f 179/46/195 180/36/193 184/52/202 183/51/196
f 180/36/193 178/37/192 182/53/203 184/52/202
f 178/37/192 177/39/194 181/40/197 182/53/203
f 186/49/200 185/55/204 187/54/205 188/48/201
f 189/50/199 191/58/206 185/57/204 186/56/200
f 191/58/206 192/61/207 187/60/205 185/59/204
f 192/62/207 190/47/198 188/64/201 187/63/205
f 183/51/196 184/52/202 190/47/198 192/62/207
f 181/40/197 183/41/196 192/61/207 191/58/206
f 182/53/203 181/40/197 191/58/206 189/50/199
f 184/52/202 182/53/203 189/50/199 190/47/198
f 230/65/208 200/68/209 196/67/210 224/66/211
f 208/69/212 164/72/170 194/71/173 222/70/213
f 200/73/209 201/76/214 195/75/215 196/74/210
f 194/8/173 193/9/172 204/78/216 197/77/217
f 197/77/217 204/78/216 203/80/218 198/79/219
f 198/79/219 203/80/218 202/82/220 199/81/221
f 233/83/222 234/84/223 201/76/214 200/73/209
f 222/70/213 194/71/173 197/86/217 227/85/224
f 227/85/224 197/86/217 198/88/219 228/87/225
f 228/87/225 198/88/219 199/90/221 229/89/226
f 235/91/227 233/92/222 200/68/209 230/65/208
f 234/101/223 236/102/228 226/104/229 201/103/214
f 203/98/218 252/99/230 237/100/231 202/97/220
f 204/93/216 225/96/232 252/99/230 203/98/218
f 193/94/172 221/95/233 225/96/232 204/93/216
f 201/103/214 226/104/229 223/110/234 195/109/215
f 196/74/210 195/75/215 223/108/234 224/107/211
f 162/105/168 206/106/167 221/95/233 193/94/172
f 171/258/185 176/259/171 214/260/235 213/261/236
f 172/262/183 171/258/185 213/261/236 212/263/237
f 173/264/181 172/262/183 212/263/237 211/265/238
f 174/266/179 173/264/181 211/265/238 210/267/239
f 175/268/176 174/266/179 210/267/239 209/269/240
f 163/270/177 175/268/176 209/269/240 207/271/241
f 262/128/242 261/125/243 255/126/244 253/127/245
f 176/259/171 164/272/170 208/273/212 214/260/235
f 278/131/246 277/134/247 232/133/248 231/132/249
f 202/97/220 237/100/231 236/102/228 234/101/223
f 229/89/226 199/90/221 233/92/222 235/91/227
f 199/81/221 202/82/220 234/84/223 233/83/222
f 224/66/211 82/136/86 81/135/85 230/65/208
f 81/135/85 80/137/87 235/91/227 230/65/208
f 80/137/87 78/138/88 229/89/226 235/91/227
f 155/139/89 77/140/90 232/133/248 277/134/247
f 83/141/91 231/142/249 232/133/248 77/140/90
f 228/274/250 84/146/94 78/145/93 229/275/250
f 85/147/95 227/85/224 228/87/225 84/148/96
f 86/149/97 222/70/213 227/85/224 85/147/95
f 160/150/98 84/153/101 228/152/251 280/151/252
f 87/154/102 82/155/86 224/107/211 223/108/234
f 247/156/106 242/159/103 241/158/104 244/157/105
f 238/160/253 239/163/254 246/162/112 245/161/113
f 250/164/255 249/167/256 240/166/108 243/165/109
f 242/159/103 243/165/109 240/166/108 241/158/104
f 239/168/254 251/169/257 250/170/255 243/171/109 242/172/103 247/173/106 246/174/112
f 244/157/105 245/161/113 246/162/112 247/175/106
f 238/160/253 248/177/258 251/176/257 239/163/254
f 248/177/258 249/167/256 250/164/255 251/178/257
f 248/177/258 238/160/253 245/161/113 244/157/105 241/158/104 240/166/108 249/167/256
f 88/185/117 87/186/102 223/110/234 226/104/229
f 103/184/118 88/185/117 226/104/229 236/102/228
f 103/184/118 236/102/228 237/100/231 104/183/119
f 104/183/119 237/100/231 252/99/230 106/182/120
f 106/182/120 252/99/230 225/96/232 107/181/121
f 108/179/122 107/181/121 225/96/232 221/95/233
f 109/180/123 108/179/122 221/95/233 206/106/167
f 220/1/166 110/188/124 109/187/123 206/4/167
f 219/34/191 111/189/125 110/188/124 220/1/166
f 218/32/190 112/190/126 111/189/125 219/34/191
f 217/30/189 113/191/127 112/190/126 218/32/190
f 216/28/188 114/192/128 113/191/127 217/30/189
f 215/26/187 115/193/129 114/192/128 216/28/188
f 116/194/130 208/69/212 222/70/213 86/149/97
f 214/260/235 208/273/212 116/276/130 117/277/131
f 213/261/236 214/260/235 117/277/131 118/278/132
f 212/263/237 213/261/236 118/278/132 119/279/133
f 211/265/238 212/263/237 119/279/133 120/280/134
f 210/267/239 211/265/238 120/280/134 121/281/135
f 209/269/240 210/267/239 121/281/135 122/282/136
f 207/271/241 209/269/240 122/282/136 123/283/137
f 266/206/259 265/203/260 258/204/261 260/205/262
f 261/207/243 263/210/263 256/209/264 255/208/244
f 263/214/263 264/211/265 254/212/266 256/213/264
f 264/210/265 262/207/242 253/208/245 254/209/266
f 258/204/261 257/215/267 259/216/268 260/205/262
f 265/217/260 267/220/269 257/219/267 258/218/261
f 268/220/270 266/217/259 260/218/262 259/219/268
f 259/216/268 257/215/267 270/221/271 269/222/272
f 161/223/174 163/224/177 262/207/242 264/210/265
f 205/226/186 161/225/174 264/211/265 263/214/263
f 207/224/241 205/223/186 263/210/263 261/207/243
f 163/228/177 207/227/241 261/125/243 262/128/242
f 253/127/245 255/126/244 268/229/270 267/230/269
f 255/208/244 256/209/264 266/217/259 268/220/270
f 254/209/266 253/208/245 267/220/269 265/217/260
f 256/213/264 254/212/266 265/203/260 266/206/259
f 271/234/273 272/231/274 269/232/272 270/233/271
f 268/220/270 259/219/268 269/236/272 272/235/274
f 257/219/267 267/220/269 271/235/273 270/236/271
f 267/230/269 268/229/270 272/231/274 271/234/273
f 205/23/186 144/237/154 115/193/129 215/26/187
f 205/23/186 207/239/241 123/238/137 144/237/154
s 0
f 273/240/275 147/241/275 148/242/275 274/243/275
f 151/250/276 275/251/276 276/248/276 152/249/276
f 275/251/277 273/240/277 274/243/277 276/248/277
f 147/241/278 273/240/278 275/251/278 151/250/278
f 152/249/279 276/248/279 274/243/279 148/242/279
s 1
f 83/252/91 156/253/161 278/131/246 231/132/249
f 159/254/162 155/139/89 277/134/247 279/255/280
f 280/151/252 279/255/280 277/134/247 278/131/246
f 228/152/251 229/256/281 279/255/280 280/151/252
f 78/257/165 159/254/162 279/255/280 229/256/281
f 156/253/161 160/150/98 280/151/252 278/131/246
