# Blender 4.2.0
# www.blender.org
mtllib casset.mtl
o Cube
v -0.616464 0.369433 -1.000000
v -0.616464 -1.000000 -1.000000
v -0.616464 0.369433 1.000000
v -0.616464 -1.000000 1.000000
v -1.000000 0.369433 -1.000000
v -1.000000 -1.000000 -1.000000
v -1.000000 0.369433 1.000000
v -1.000000 -1.000000 1.000000
vn -0.0000 1.0000 -0.0000
vn -0.0000 -0.0000 1.0000
vn -1.0000 -0.0000 -0.0000
vn -0.0000 -1.0000 -0.0000
vn 1.0000 -0.0000 -0.0000
vn -0.0000 -0.0000 -1.0000
vt 0.760492 0.807582
vt 0.752207 0.821917
vt 0.752207 0.757977
vt 0.758532 0.768278
vt 0.777182 0.770911
vt 0.785467 0.756576
vt 0.678354 0.850229
vt 0.678732 0.703744
vt 0.853955 0.703652
vt 0.854833 0.850137
vt 0.785467 0.820516
vt 0.779142 0.810216
vt 0.852375 0.851251
vt 0.853340 0.994676
vt 0.676618 0.997258
vt 0.676631 0.852607
s 0
usemtl Material
f 1/1/1 5/2/1 7/3/1 3/4/1
f 4/5/2 3/4/2 7/3/2 8/6/2
f 8/7/3 7/8/3 5/9/3 6/10/3
f 6/11/4 2/12/4 4/5/4 8/6/4
f 2/13/5 1/14/5 3/15/5 4/16/5
f 6/11/6 5/2/6 1/1/6 2/12/6
