# Blender 4.2.0
# www.blender.org
mtllib game_chair.mtl
o Cube
v -0.233159 2.049106 -0.653556
v 0.146349 -1.205616 -1.676388
v -0.233159 2.049106 0.653556
v 0.146349 -1.205616 1.676388
v -0.916870 2.049106 -0.653556
v -0.537362 -1.205616 -1.676388
v -0.916870 2.049106 0.653556
v -0.537362 -1.205616 1.676388
v -0.488815 -3.387159 -0.981795
v -0.488815 -3.387159 0.981795
v 0.194896 -3.387159 -0.981795
v 0.194896 -3.387159 0.981795
v 0.062239 -0.040476 -1.508565
v -0.724968 -0.040476 1.508565
v 0.062239 -0.040476 1.508565
v -0.724968 -0.040476 -1.508565
v -0.742038 1.017796 0.840997
v -0.167485 1.017796 -0.840997
v -0.167485 1.017796 0.840997
v -0.742038 1.017796 -0.840997
v -0.488815 -3.964665 -0.981795
v -0.488815 -3.964665 0.981795
v 0.194896 -3.964665 -0.981795
v 0.194896 -3.964665 0.981795
v 2.982721 -3.618653 1.305408
v 2.982721 -3.618653 -1.305408
v 2.982721 -4.196159 1.305408
v 2.982721 -4.196159 -1.305408
v 1.803990 -2.907526 -1.768449
v 1.803989 -4.133757 -1.768449
v 1.803989 -4.133757 1.768449
v 1.803990 -2.907526 1.768449
v 2.082492 -3.075546 -1.659045
v 2.082492 -3.075546 1.659045
v 2.082491 -4.148501 -1.659045
v 2.082491 -4.148501 1.659045
v 2.066099 -4.458138 -1.659045
v 1.787597 -4.443394 -1.768449
v 2.066099 -4.458138 1.659045
v 1.787597 -4.443394 1.768449
v 2.082491 -4.148501 -1.659045
v 1.803989 -4.133757 -1.768449
v 2.066099 -4.458138 -1.659045
v 1.787597 -4.443394 -1.768449
v 2.314348 -4.160775 -2.250919
v 2.035846 -4.146031 -2.360323
v 2.297956 -4.470412 -2.250919
v 2.019454 -4.455668 -2.360323
v 2.295511 -4.159778 2.202834
v 2.017009 -4.145034 2.312238
v 2.279119 -4.469415 2.202834
v 2.000618 -4.454671 2.312238
v 1.800861 -1.815237 1.642801
v 1.501617 -1.801224 1.645407
v 1.805339 -1.828188 2.226774
v 1.506095 -1.814176 2.229379
v 1.648199 -1.849365 -1.626027
v 1.351391 -1.822523 -1.595462
v 1.585637 -1.821387 -2.258108
v 1.288829 -1.794545 -2.227543
v 1.618179 -2.168615 -1.637187
v 1.321370 -2.141773 -1.606622
v 1.555617 -2.140636 -2.269268
v 1.258808 -2.113795 -2.238702
v 1.485660 -2.140618 1.638002
v 1.784904 -2.154630 1.635397
v 1.490138 -2.153569 2.221974
v 1.789382 -2.167582 2.219369
v 2.726323 -1.871314 2.218756
v 2.721846 -1.858363 1.634783
v 2.710366 -2.210708 2.211351
v 2.705889 -2.197757 1.627378
v 0.308851 -1.745371 1.655791
v 0.313329 -1.758323 2.239763
v 0.292894 -2.084765 1.648386
v 0.297372 -2.097717 2.232358
v 2.543724 -1.930352 -1.718249
v 2.481162 -1.902373 -2.350330
v 2.513703 -2.249601 -1.729409
v 2.451141 -2.221623 -2.361490
v 0.288140 -1.704048 -2.124491
v 0.350702 -1.732027 -1.492410
v 0.258120 -2.023298 -2.135651
v 0.320682 -2.051276 -1.503570
v 2.085555 -5.983333 -0.981795
v 2.085555 -5.983333 0.981795
v 2.769265 -5.983333 -0.981795
v 2.769265 -5.983333 0.981795
v 2.085555 -6.595738 -0.981795
v 2.085555 -6.595738 0.981795
v 2.769265 -6.595738 -0.981795
v 2.769265 -6.595738 0.981795
v -0.829040 -5.983333 -0.981795
v -0.829040 -5.983333 0.981795
v -0.829040 -6.595738 -0.981795
v -0.829040 -6.595738 0.981795
vn -0.0000 1.0000 -0.0000
vn -0.0000 0.1788 0.9839
vn -0.9859 -0.1671 -0.0000
vn -0.0000 -0.3034 0.9529
vn 0.9980 0.0636 -0.0000
vn -0.0000 0.1788 -0.9839
vn 0.3656 -0.0000 -0.9308
vn -0.9998 -0.0222 -0.0000
vn 0.9998 0.0222 -0.0000
vn -0.0000 -0.3034 -0.9529
vn -0.0000 0.1426 -0.9898
vn 0.9974 0.0720 -0.0000
vn -0.9873 -0.1590 -0.0000
vn -0.0000 0.1426 0.9898
vn -0.0000 0.5335 -0.8458
vn 0.9772 0.2121 -0.0000
vn -0.9999 -0.0161 -0.0000
vn -0.0000 0.5335 0.8458
vn -0.0000 -0.0000 1.0000
vn -0.0000 -0.0000 -1.0000
vn -1.0000 -0.0000 -0.0000
vn 1.0000 -0.0000 -0.0000
vn -0.0529 -0.9986 -0.0000
vn 0.5166 0.8562 -0.0000
vn 0.3656 -0.0000 0.9308
vn -0.4392 -0.0000 0.8984
vn -0.2857 0.9583 -0.0000
vn -0.1045 -0.9945 -0.0000
vn -0.4392 -0.0000 -0.8984
vn -0.0077 0.0222 -0.9997
vn 0.9986 -0.0529 -0.0000
vn -0.9986 0.0529 -0.0000
vn 0.0984 -0.0440 0.9942
vn 0.3647 -0.0193 -0.9309
vn -0.9296 0.0492 -0.3652
vn 0.9296 -0.0492 0.3652
vn 0.3647 -0.0193 0.9309
vn -0.9296 0.0492 0.3652
vn 0.9296 -0.0492 -0.3652
vn 0.0470 0.9987 0.0218
vn -0.0470 -0.9987 -0.0218
vn 0.0077 -0.0222 0.9997
vn 0.0936 0.9950 0.0348
vn -0.0984 0.0440 -0.9942
vn -0.0936 -0.9950 -0.0348
vn -0.9483 -0.2873 -0.1349
vn 0.1409 0.0786 -0.9869
vn 0.9476 0.2896 0.1348
vn -0.1410 -0.0792 0.9868
vn 0.9640 0.1941 -0.1817
vn 0.1932 0.0682 0.9788
vn -0.9639 -0.1944 0.1817
vn -0.1931 -0.0677 -0.9788
vn 0.9989 -0.0468 -0.0087
vn -0.9989 0.0468 0.0087
vn 0.9907 -0.0896 -0.1020
vn -0.9907 0.0896 0.1020
vn -0.6171 -0.7869 -0.0000
vn 0.6171 0.7869 -0.0000
vn -0.0000 -1.0000 -0.0000
vt 0.875696 0.162336
vt 0.918102 0.162433
vt 0.918102 0.244477
vt 0.875696 0.244380
vt 0.447178 0.069263
vt 0.450125 0.004638
vt 0.492977 0.004320
vt 0.483189 0.068996
vt 0.659548 0.317485
vt 0.647682 0.382644
vt 0.565636 0.382644
vt 0.553971 0.317485
vt 0.431524 0.208351
vt 0.474377 0.208033
vt 0.470032 0.345500
vt 0.427179 0.345818
vt 0.659798 0.668538
vt 0.648048 0.733397
vt 0.566002 0.733397
vt 0.554221 0.668538
vt 0.234871 0.484456
vt 0.245045 0.549704
vt 0.202133 0.549269
vt 0.198809 0.484090
vt 0.061476 0.156645
vt 0.060831 0.223946
vt 0.004320 0.190150
vt 0.004667 0.153926
vt 0.712068 0.177484
vt 0.501617 0.177484
vt 0.545180 0.040538
vt 0.668433 0.040538
vt 0.712068 0.528228
vt 0.501617 0.528228
vt 0.545254 0.391284
vt 0.668507 0.391284
vt 0.224155 0.342867
vt 0.181242 0.342431
vt 0.178849 0.207220
vt 0.221761 0.207656
vt 0.235069 0.416471
vt 0.185661 0.415969
vt 0.701559 0.601531
vt 0.512176 0.601531
vt 0.701428 0.251070
vt 0.512045 0.251070
vt 0.435626 0.135303
vt 0.484965 0.134936
vt 0.427471 0.382067
vt 0.470324 0.381749
vt 0.309991 0.509654
vt 0.267139 0.509973
vt 0.179196 0.170996
vt 0.222109 0.171432
vt 0.545160 0.004320
vt 0.668413 0.004320
vt 0.684965 0.742056
vt 0.684965 0.905935
vt 0.648749 0.905915
vt 0.648749 0.742037
vt 0.214922 0.558344
vt 0.214922 0.766601
vt 0.159283 0.744590
vt 0.159283 0.580725
vt 0.367741 0.772073
vt 0.367741 0.563806
vt 0.428835 0.585637
vt 0.428835 0.749510
vt 0.311058 0.326637
vt 0.311601 0.393984
vt 0.253977 0.397655
vt 0.253685 0.361407
vt 0.329427 0.392848
vt 0.328808 0.315880
vt 0.253685 0.729013
vt 0.253685 0.605764
vt 0.348840 0.557052
vt 0.348840 0.779053
vt 0.953273 0.706393
vt 0.953273 0.829636
vt 0.852587 0.879248
vt 0.852587 0.657258
vt 0.078313 0.234402
vt 0.079051 0.157486
vt 0.128313 0.917120
vt 0.128313 0.898319
vt 0.149644 0.898311
vt 0.149644 0.917112
vt 0.437475 0.778715
vt 0.449518 0.557052
vt 0.466336 0.564785
vt 0.455039 0.772735
vt 0.847684 0.246976
vt 0.846567 0.038705
vt 0.865939 0.038625
vt 0.867056 0.246896
vt 0.474976 0.557052
vt 0.130149 0.780350
vt 0.131269 0.558344
vt 0.150643 0.558419
vt 0.149522 0.780425
vt 0.768454 0.975547
vt 0.787240 0.975547
vt 0.787266 0.995680
vt 0.768480 0.995680
vt 0.622176 0.887714
vt 0.639761 0.887141
vt 0.640109 0.906588
vt 0.622523 0.907161
vt 0.877589 0.150268
vt 0.878625 0.130922
vt 0.915465 0.134351
vt 0.914428 0.153696
vt 0.926742 0.162336
vt 0.945252 0.162502
vt 0.945252 0.202363
vt 0.926742 0.202197
vt 0.883314 0.504762
vt 0.883552 0.485392
vt 0.920538 0.484387
vt 0.920299 0.503757
vt 0.851919 0.503850
vt 0.834057 0.504015
vt 0.833930 0.484552
vt 0.851792 0.484387
vt 0.150643 0.814729
vt 0.131269 0.814654
vt 0.847684 0.004400
vt 0.867056 0.004320
vt 0.466336 0.807485
vt 0.448773 0.813465
vt 0.159283 0.868461
vt 0.159283 0.849764
vt 0.195950 0.849788
vt 0.195950 0.868485
vt 0.960773 0.077939
vt 0.924105 0.077951
vt 0.924105 0.004333
vt 0.960773 0.004320
vt 0.795598 0.627287
vt 0.814384 0.627287
vt 0.814370 0.648619
vt 0.795585 0.648619
vt 0.872199 0.627287
vt 0.872186 0.648619
vt 0.244497 0.838555
vt 0.244497 0.857323
vt 0.204590 0.857289
vt 0.204590 0.838520
vt 0.583277 0.764126
vt 0.583748 0.743991
vt 0.640109 0.745340
vt 0.639637 0.765475
vt 0.564597 0.763679
vt 0.565068 0.743544
vt 0.892498 0.950640
vt 0.852587 0.950651
vt 0.852587 0.887899
vt 0.892498 0.887888
vt 0.875696 0.004320
vt 0.915465 0.004569
vt 0.920538 0.632570
vt 0.880839 0.630200
vt 0.810429 0.853704
vt 0.827511 0.854412
vt 0.720708 0.041027
vt 0.721336 0.004364
vt 0.004960 0.808010
vt 0.004320 0.771348
vt 0.004320 0.941756
vt 0.004687 0.924340
vt 0.223562 0.737615
vt 0.223562 0.700947
vt 0.244807 0.700958
vt 0.244807 0.737626
vt 0.195950 0.926027
vt 0.159283 0.926003
vt 0.149644 0.974978
vt 0.128313 0.974986
vt 0.924105 0.086604
vt 0.960773 0.086591
vt 0.960773 0.143435
vt 0.924105 0.143448
vt 0.223562 0.692307
vt 0.223562 0.655640
vt 0.244809 0.655629
vt 0.244809 0.692297
vt 0.720708 0.648619
vt 0.720722 0.627287
vt 0.128313 0.823376
vt 0.149644 0.823369
vt 0.159283 0.775241
vt 0.195950 0.775265
vt 0.223562 0.646989
vt 0.223562 0.607219
vt 0.243511 0.606986
vt 0.243511 0.646756
vt 0.843920 0.975547
vt 0.843947 0.995680
vt 0.244497 0.913953
vt 0.204590 0.913918
vt 0.901138 0.887899
vt 0.941049 0.887888
vt 0.941049 0.944045
vt 0.901138 0.944056
vt 0.243513 0.558577
vt 0.243513 0.598346
vt 0.223562 0.598114
vt 0.223562 0.558344
vt 0.705143 0.995680
vt 0.705117 0.975547
vt 0.501617 0.762172
vt 0.502089 0.742037
vt 0.204590 0.775241
vt 0.244497 0.775275
vt 0.310301 0.548094
vt 0.267448 0.548412
vt 0.720708 0.658268
vt 0.843947 0.657258
vt 0.843947 0.844055
vt 0.720708 0.845064
vt 0.975835 0.435851
vt 0.852590 0.434841
vt 0.852590 0.255616
vt 0.975835 0.256627
vt 0.018833 0.042733
vt 0.061745 0.043169
vt 0.843950 0.434021
vt 0.843950 0.475747
vt 0.720708 0.475214
vt 0.720708 0.433489
vt 0.376934 0.968464
vt 0.253685 0.968746
vt 0.253685 0.787975
vt 0.376934 0.787693
vt 0.475880 0.822126
vt 0.475880 0.945380
vt 0.437475 0.945358
vt 0.437475 0.822105
vt 0.019201 0.004320
vt 0.062114 0.004756
vt 0.423981 0.787693
vt 0.423981 0.910947
vt 0.385574 0.910967
vt 0.385574 0.787714
vt 0.245045 0.006613
vt 0.244677 0.045027
vt 0.492668 0.508298
vt 0.492977 0.546738
vt 0.720708 0.255616
vt 0.843950 0.256148
s 0
usemtl Material
f 1/1/1 5/2/1 7/3/1 3/4/1
f 19/5/2 3/6/2 7/7/2 17/8/2
f 17/9/3 7/10/3 5/11/3 20/12/3
f 4/13/4 8/14/4 10/15/4 12/16/4
f 18/17/5 1/18/5 3/19/5 19/20/5
f 20/21/6 5/22/6 1/23/6 18/24/6
f 35/25/7 33/26/7 26/27/7 28/28/7
f 8/29/8 6/30/8 9/31/8 10/32/8
f 2/33/9 4/34/9 12/35/9 11/36/9
f 6/37/10 2/38/10 11/39/10 9/40/10
f 6/37/11 16/41/11 13/42/11 2/38/11
f 2/33/12 13/43/12 15/44/12 4/34/12
f 8/29/13 14/45/13 16/46/13 6/30/13
f 4/13/14 15/47/14 14/48/14 8/14/14
f 16/41/15 20/21/15 18/24/15 13/42/15
f 13/43/16 18/17/16 19/20/16 15/44/16
f 14/45/17 17/9/17 20/12/17 16/46/17
f 15/47/18 19/5/18 17/8/18 14/48/18
f 24/49/19 22/50/19 86/51/19 88/52/19
f 9/40/20 11/39/20 23/53/20 21/54/20
f 12/16/19 10/15/19 22/50/19 24/49/19
f 10/32/21 9/31/21 21/55/21 22/56/21
f 26/57/22 25/58/22 27/59/22 28/60/22
f 36/61/23 35/62/23 28/63/23 27/64/23
f 33/65/24 34/66/24 25/67/24 26/68/24
f 34/69/25 36/70/25 27/71/25 25/72/25
f 12/16/26 24/49/26 31/73/26 32/74/26
f 11/75/27 12/76/27 32/77/27 29/78/27
f 24/79/28 23/80/28 30/81/28 31/82/28
f 23/53/29 11/39/29 29/83/29 30/84/29
f 32/74/25 31/73/25 36/70/25 34/69/25
f 29/78/24 32/77/24 34/66/24 33/65/24
f 66/85/30 65/86/30 54/87/30 53/88/30
f 30/84/7 29/83/7 33/26/7 35/25/7
f 40/89/23 38/90/23 37/91/23 39/92/23
f 35/93/31 36/94/31 39/95/31 37/96/31
f 35/97/1 37/97/1 43/97/1 41/97/1
f 31/98/32 30/99/32 38/100/32 40/101/32
f 62/102/33 61/103/33 57/104/33 58/105/33
f 37/97/1 38/97/1 44/97/1 43/97/1
f 30/97/1 35/97/1 41/97/1 42/97/1
f 38/97/1 30/97/1 42/97/1 44/97/1
f 46/106/34 45/107/34 47/108/34 48/109/34
f 44/110/35 42/111/35 46/112/35 48/113/35
f 43/114/23 44/115/23 48/116/23 47/117/23
f 41/118/36 43/119/36 47/120/36 45/121/36
f 49/122/37 50/123/37 52/124/37 51/125/37
f 31/98/38 40/101/38 52/126/38 50/127/38
f 39/95/39 36/94/39 49/128/39 51/129/39
f 40/89/23 39/92/23 51/130/23 52/131/23
f 53/132/40 54/133/40 56/134/40 55/135/40
f 65/136/41 67/137/41 76/138/41 75/139/41
f 67/140/42 68/141/42 55/142/42 56/143/42
f 55/142/42 68/141/42 71/144/42 69/145/42
f 58/146/43 57/147/43 59/148/43 60/149/43
f 63/150/44 59/151/44 78/152/44 80/153/44
f 63/150/44 64/154/44 60/155/44 59/151/44
f 64/156/45 62/157/45 84/158/45 83/159/45
f 46/112/46 42/111/46 62/160/46 64/161/46
f 45/107/47 46/106/47 64/154/47 63/150/47
f 41/118/48 45/121/48 63/162/48 61/163/48
f 42/164/49 41/165/49 61/103/49 62/102/49
f 49/128/50 36/94/50 66/166/50 68/167/50
f 50/123/51 49/122/51 68/141/51 67/140/51
f 31/98/52 50/127/52 67/168/52 65/169/52
f 36/170/53 31/171/53 65/86/53 66/85/53
f 71/172/54 72/173/54 70/174/54 69/175/54
f 53/132/40 55/135/40 69/176/40 70/177/40
f 66/85/30 53/88/30 70/178/30 72/179/30
f 68/180/41 66/181/41 72/182/41 71/183/41
f 75/184/55 76/185/55 74/186/55 73/187/55
f 67/140/42 56/143/42 74/188/42 76/189/42
f 54/87/30 65/86/30 75/190/30 73/191/30
f 56/134/40 54/133/40 73/192/40 74/193/40
f 79/194/56 80/195/56 78/196/56 77/197/56
f 57/104/33 61/103/33 79/198/33 77/199/33
f 59/148/43 57/147/43 77/200/43 78/201/43
f 61/202/45 63/203/45 80/204/45 79/205/45
f 83/206/57 84/207/57 82/208/57 81/209/57
f 62/102/33 58/105/33 82/210/33 84/211/33
f 60/155/44 64/154/44 83/212/44 81/213/44
f 58/146/43 60/149/43 81/214/43 82/215/43
f 88/52/19 86/51/19 90/216/19 92/217/19
f 22/218/58 21/219/58 85/220/58 86/221/58
f 23/222/59 24/223/59 88/224/59 87/225/59
f 21/54/20 23/53/20 87/226/20 85/227/20
f 89/228/60 91/229/60 92/230/60 90/231/60
f 86/232/1 85/233/1 93/234/1 94/235/1
f 87/236/22 88/237/22 92/238/22 91/239/22
f 85/227/20 87/226/20 91/240/20 89/241/20
f 94/242/21 93/243/21 95/244/21 96/245/21
f 85/227/20 89/241/20 95/246/20 93/247/20
f 90/216/19 86/51/19 94/248/19 96/249/19
f 89/228/60 90/231/60 96/250/60 95/251/60
