{"accessors":[{"bufferView":0,"byteOffset":0,"componentType":5126,"count":20,"max":[0.115000002086163,0.0850000008940697,0.377499997615814],"min":[-0.11500000208616,-0.08500000089407,-0.37749999761581],"normalized":false,"type":"VEC3"},{"bufferView":1,"byteOffset":0,"componentType":5126,"count":20,"max":[1,0,1,1],"min":[-1,-0.00001525925472,-1,1],"normalized":false,"type":"VEC4"},{"bufferView":2,"byteOffset":0,"componentType":5126,"count":20,"max":[0.828292369842529,0.560296177864075,1],"min":[-0.82830882072449,-1,-1],"normalized":false,"type":"VEC3"},{"bufferView":3,"byteOffset":0,"componentType":5126,"count":20,"max":[1,1],"min":[0,0],"normalized":false,"type":"VEC2"},{"bufferView":4,"byteOffset":0,"componentType":5123,"count":24,"max":[19],"min":[2],"normalized":false,"type":"SCALAR"}],"asset":{"generator":"Redot Engine v4.3.1.stable.official@6b2a15678b53c3343ff7c988b7cdeb2ba51b4ffb","version":"2.0"},"bufferViews":[{"buffer":0,"byteLength":240,"byteOffset":0,"byteStride":12,"target":34962},{"buffer":0,"byteLength":320,"byteOffset":240,"byteStride":16,"target":34962},{"buffer":0,"byteLength":240,"byteOffset":560,"byteStride":12,"target":34962},{"buffer":0,"byteLength":160,"byteOffset":800,"byteStride":8,"target":34962},{"buffer":0,"byteLength":48,"byteOffset":960,"target":34963}],"buffers":[{"byteLength":1008,"uri":"gun0.bin"}],"extensionsUsed":["GODOT_single_root"],"materials":[{"extensions":{},"pbrMetallicRoughness":{"baseColorFactor":[1,1,1,1],"metallicFactor":0,"roughnessFactor":1}}],"meshes":[{"extras":{"targetNames":[]},"primitives":[{"attributes":{"NORMAL":2,"POSITION":0,"TANGENT":1,"TEXCOORD_0":3},"indices":4,"material":0,"mode":4}]}],"nodes":[{"mesh":0,"name":"MeshInstance3D"}],"scene":0,"scenes":[{"nodes":[0]}]}