# Blender 5.0.1
# www.blender.org
mtllib lite_brite.mtl
o Cube
v 1.000000 1.000000 -1.000000
v 0.869003 -0.904902 0.880857
v 1.000000 -1.000000 -1.000000
v 0.835501 0.856493 0.880857
v 1.000000 1.000000 1.000000
v 0.869003 -0.904902 -0.880857
v 1.000000 -1.000000 1.000000
v 0.835501 0.856493 -0.880857
v -1.097895 -0.143977 -0.953656
v -1.430024 -1.147437 -1.105196
v -1.097895 -0.143977 0.953656
v -1.430024 -1.147437 1.105196
v 1.000000 0.859621 -0.880857
v 1.000000 -0.902410 0.880857
v 1.000000 0.859621 0.880857
v 1.000000 -0.902410 -0.880857
v -0.924590 -0.816721 2.562576
v -0.901955 -0.752259 2.609540
v -0.933388 -0.797258 2.540102
v -0.910753 -0.732796 2.587066
v -0.822967 -0.820829 2.519236
v -0.800332 -0.756367 2.566200
v -0.831766 -0.801366 2.496762
v -0.809131 -0.736903 2.543725
v -1.124450 -0.928108 2.684642
v -1.057546 -0.737572 2.823456
v -1.168200 -0.831326 2.572886
v -1.101296 -0.640791 2.711700
v -0.906799 -0.936905 2.591818
v -0.839896 -0.746370 2.730632
v -0.950549 -0.840124 2.480062
v -0.883646 -0.649588 2.618876
v -0.887702 -0.865244 2.635910
v -0.865067 -0.800782 2.682874
v -0.896501 -0.845781 2.613436
v -0.873866 -0.781318 2.660399
v -0.786080 -0.869352 2.592570
v -0.763445 -0.804889 2.639534
v -0.794878 -0.849888 2.570095
v -0.772244 -0.785426 2.617059
v -1.102414 -0.869894 2.741149
v -1.129954 -0.826194 2.673830
v -1.132453 -0.806804 2.669614
v -1.119906 -0.734163 2.711635
v -1.092367 -0.777863 2.778955
v -1.089868 -0.797253 2.783171
v -1.281819 -1.136868 1.038706
v -1.284948 -1.076868 1.098624
v -1.284948 -1.056868 1.098624
v -1.281819 -0.996868 1.038706
v -1.278690 -1.056868 0.978787
v -1.278690 -1.076868 0.978787
v -1.281819 -1.136868 1.038706
v -1.284948 -1.076868 1.098624
v -1.284948 -1.056868 1.098624
v -1.281819 -0.996868 1.038706
v -1.278690 -1.056868 0.978787
v -1.278690 -1.076868 0.978787
v -1.373626 -1.136455 1.025283
v -1.385943 -1.076418 1.083967
v -1.385781 -1.056418 1.083988
v -1.372493 -0.996460 1.025436
v -1.360175 -1.056498 0.966752
v -1.360337 -1.076497 0.966731
v -1.470410 -1.135267 0.996950
v -1.488908 -1.075155 1.053910
v -1.488618 -1.055158 1.053968
v -1.468376 -0.995282 0.997354
v -1.449877 -1.055393 0.940394
v -1.450168 -1.075391 0.940336
v -1.570917 -1.133373 0.957662
v -1.592970 -1.073196 1.013271
v -1.592578 -1.053200 1.013368
v -1.568170 -0.993402 0.958337
v -1.546117 -1.053579 0.902728
v -1.546509 -1.073575 0.902631
v -1.673913 -1.130847 0.911349
v -1.697628 -1.070629 0.966225
v -1.697149 -1.050635 0.966360
v -1.670558 -0.990890 0.912291
v -1.646843 -1.051108 0.857414
v -1.647322 -1.071101 0.857279
v -1.778150 -1.127756 0.861927
v -1.802000 -1.067535 0.916740
v -1.801441 -1.047544 0.916912
v -1.774235 -0.987816 0.863130
v -1.750385 -1.048038 0.808317
v -1.750944 -1.068029 0.808145
v -1.882377 -1.124173 0.813312
v -1.904901 -1.063997 0.868734
v -1.904261 -1.044008 0.868942
v -1.877899 -0.984252 0.814774
v -1.855375 -1.044428 0.759353
v -1.856015 -1.064417 0.759144
v -1.985345 -1.120165 0.769420
v -2.004866 -1.060106 0.826093
v -2.004138 -1.040121 0.826339
v -1.980248 -0.980268 0.771140
v -1.960726 -1.040328 0.714467
v -1.961455 -1.060313 0.714221
v -2.085807 -1.115802 0.734172
v -2.100118 -1.055970 0.792613
v -2.099285 -1.035989 0.792894
v -2.079976 -0.975937 0.736141
v -2.065665 -1.035769 0.677700
v -2.066497 -1.055750 0.677419
v -2.182523 -1.111151 0.711504
v -2.188533 -1.051719 0.771768
v -2.187568 -1.031745 0.772078
v -2.175770 -0.971331 0.713675
v -2.169760 -1.030763 0.653411
v -2.170725 -1.050737 0.653101
v -2.274248 -1.106280 0.705380
v -2.267907 -1.047507 0.766253
v -2.266774 -1.027541 0.766571
v -2.266322 -0.966523 0.707609
v -2.272664 -1.025296 0.646737
v -2.273796 -1.045262 0.646418
v -2.359683 -1.101260 0.719803
v -2.337193 -1.043437 0.777688
v -2.335864 -1.023483 0.777970
v -2.350382 -0.961583 0.721777
v -2.372872 -1.019406 0.663892
v -2.374201 -1.039360 0.663610
v -2.437360 -1.096171 0.758729
v -2.395397 -1.039604 0.806050
v -2.393898 -1.019661 0.806239
v -2.426863 -0.956571 0.760055
v -2.468826 -1.013139 0.712734
v -2.470325 -1.033082 0.712544
v -2.473589 -1.093621 0.803646
v -2.417783 -1.038012 0.835164
v -2.416199 -1.018075 0.835256
v -2.462498 -0.954063 0.804293
v -2.518304 -1.009671 0.772774
v -2.519888 -1.029608 0.772682
v -2.507711 -1.091092 0.881133
v -2.446739 -1.035866 0.901929
v -2.445124 -1.015931 0.901957
v -2.496402 -0.951550 0.881327
v -2.557374 -1.006776 0.860531
v -2.558989 -1.026711 0.860503
v -2.538419 -1.088584 0.984658
v -2.475559 -1.033512 0.999344
v -2.473926 -1.013578 0.999316
v -2.526987 -0.949052 0.984457
v -2.589847 -1.004124 0.969771
v -2.591480 -1.024057 0.969800
v -2.564298 -1.086103 1.107646
v -2.500487 -1.031122 1.117904
v -2.498841 -1.011190 1.117815
v -2.552776 -0.946579 1.107025
v -2.616588 -1.001560 1.096768
v -2.618234 -1.021492 1.096856
v -2.583909 -1.083657 1.243505
v -2.519533 -1.028747 1.249880
v -2.517877 -1.008816 1.249721
v -2.572315 -0.944142 1.242391
v -2.636691 -0.999052 1.236016
v -2.638347 -1.018983 1.236175
v -2.595803 -1.081254 1.385647
v -2.531100 -1.026411 1.388054
v -2.529437 -1.006482 1.387806
v -2.584159 -0.941750 1.383910
v -2.648862 -0.996592 1.381503
v -2.650526 -1.016521 1.381751
v -2.598526 -1.078902 1.527495
v -2.533750 -1.024137 1.525301
v -2.532085 -1.004209 1.524933
v -2.586868 -0.939412 1.524925
v -2.651645 -0.994177 1.527119
v -2.653310 -1.014104 1.527486
v -2.590605 -1.076608 1.662503
v -2.526218 -1.021945 1.654358
v -2.524564 -1.002021 1.653822
v -2.579024 -0.937138 1.658750
v -2.643411 -0.991801 1.666894
v -2.645065 -1.011725 1.667431
v -2.570517 -1.074378 1.784180
v -2.507641 -1.019874 1.767568
v -2.506032 -0.999954 1.766778
v -2.559254 -0.934942 1.778644
v -2.622130 -0.989446 1.795255
v -2.623739 -1.009366 1.796046
v -2.536587 -1.072213 1.886123
v -2.478368 -1.017992 1.856618
v -2.476904 -0.998081 1.855426
v -2.526340 -0.932839 1.877776
v -2.584559 -0.987060 1.907281
v -2.586023 -1.006971 1.908473
v -2.486746 -1.070107 1.961851
v -2.441840 -1.016427 1.913873
v -2.440799 -0.996533 1.912094
v -2.479460 -0.930853 1.949395
v -2.524366 -0.984533 1.997373
v -2.525407 -1.004426 1.999153
v -2.419900 -1.068068 2.003697
v -2.386591 -1.014882 1.946586
v -2.386150 -0.995014 1.944334
v -2.416813 -0.928992 1.987934
v -2.450122 -0.982179 2.045046
v -2.450563 -1.002047 2.047298
v -2.354664 -1.063609 2.045401
v -2.312189 -1.009711 1.995491
v -2.312011 -0.989864 1.993033
v -2.353415 -0.924676 2.028193
v -2.395890 -0.978573 2.078103
v -2.396068 -0.998421 2.080561
v -2.303974 -1.054677 2.120129
v -2.250973 -0.999127 2.084003
v -2.250851 -0.979288 2.081472
v -2.303116 -0.915806 2.102410
v -2.356117 -0.971357 2.138535
v -2.356239 -0.991195 2.141067
v -2.260497 -1.041903 2.219604
v -2.204622 -0.985574 2.189522
v -2.204564 -0.965752 2.186856
v -2.260089 -0.903154 2.200940
v -2.315964 -0.959483 2.231021
v -2.316022 -0.979305 2.233688
v -2.217652 -1.025988 2.334819
v -2.161646 -0.969612 2.305069
v -2.161660 -0.949816 2.302218
v -2.217753 -0.887417 2.314864
v -2.273760 -0.943793 2.344614
v -2.273746 -0.963589 2.347465
v -2.168792 -1.007622 2.456831
v -2.114422 -0.951837 2.423187
v -2.114537 -0.932077 2.420098
v -2.169596 -0.869305 2.435203
v -2.223966 -0.925091 2.468847
v -2.223851 -0.944850 2.471936
v -2.107220 -0.987492 2.576703
v -2.056906 -0.932988 2.535497
v -2.057182 -0.913280 2.532107
v -2.109153 -0.849532 2.552970
v -2.159467 -0.904036 2.594175
v -2.159190 -0.923744 2.597566
v -2.026193 -0.966288 2.685417
v -1.983926 -0.913834 2.633821
v -1.984471 -0.894194 2.630085
v -2.030005 -0.828807 2.659257
v -2.072273 -0.881261 2.710853
v -2.071728 -0.900901 2.714590
v -1.919028 -0.944730 2.773776
v -1.890065 -0.894909 2.711494
v -1.891014 -0.875349 2.707432
v -1.925677 -0.807810 2.745338
v -1.954641 -0.857630 2.807620
v -1.953691 -0.877190 2.811683
v -1.779321 -0.923579 2.832479
v -1.767444 -0.876341 2.762998
v -1.768886 -0.856855 2.758729
v -1.789410 -0.787179 2.802591
v -1.801287 -0.834417 2.872072
v -1.799846 -0.853903 2.876341
v -1.600904 -0.903593 2.852452
v -1.605698 -0.858246 2.780893
v -1.607599 -0.838812 2.776567
v -1.614212 -0.767558 2.822164
v -1.609419 -0.812905 2.893723
v -1.607517 -0.832339 2.898049
v -1.377471 -0.885474 2.824926
v -1.395422 -0.841218 2.754789
v -1.397673 -0.821814 2.750500
v -1.393229 -0.749643 2.794903
v -1.375278 -0.793899 2.865039
v -1.373027 -0.813303 2.869328
v -1.102414 -0.869894 2.741149
v -1.129954 -0.826194 2.673830
v -1.132453 -0.806804 2.669614
v -1.119906 -0.734163 2.711635
v -1.092367 -0.777863 2.778955
v -1.089868 -0.797253 2.783171
vn -0.4787 0.8780 -0.0000
vn -0.0014 0.0505 0.9987
vn -0.9494 0.3142 -0.0000
vn 0.0606 -0.9982 -0.0000
vn 1.0000 -0.0000 -0.0000
vn -0.0014 0.0505 -0.9987
vn 0.9998 0.0190 -0.0000
vn -0.0000 -0.0000 1.0000
vn -0.0000 -0.0000 -1.0000
vn -0.0190 0.9998 -0.0000
vn 0.0190 -0.9998 -0.0000
vn -0.9192 0.0372 0.3920
vn -0.2838 0.6277 -0.7249
vn 0.9192 -0.0372 -0.3920
vn 0.2838 -0.6277 0.7249
vn -0.2730 -0.7775 -0.5665
vn 0.2730 0.7775 0.5665
vn 0.9342 0.0434 -0.3540
vn 0.9986 -0.0000 0.0522
vn -0.0099 -0.9991 0.0412
vn -0.0143 -0.9995 0.0296
vn 0.1942 -0.3902 -0.9000
vn 0.1324 -0.3909 -0.9109
vn -0.1350 -0.3746 0.9173
vn -0.1999 -0.3769 0.9044
vn -0.1318 0.3730 0.9184
vn -0.1940 0.3766 0.9058
vn -0.0010 0.9991 0.0420
vn 0.0019 0.9995 0.0319
vn 0.1361 0.3888 -0.9112
vn 0.2007 0.3874 -0.8998
vn -0.0206 -0.9997 0.0159
vn 0.2925 -0.3888 -0.8737
vn -0.3038 -0.3777 0.8747
vn -0.2930 0.3800 0.8773
vn 0.0084 0.9997 0.0217
vn 0.3039 0.3840 -0.8719
vn -0.0238 -0.9997 0.0056
vn 0.3499 -0.3882 -0.8526
vn -0.3653 -0.3780 0.8507
vn -0.3505 0.3828 0.8547
vn 0.0154 0.9998 0.0152
vn 0.3652 0.3813 -0.8493
vn -0.0258 -0.9997 -0.0026
vn 0.3779 -0.3875 -0.8408
vn -0.3965 -0.3785 0.8364
vn -0.3783 0.3849 0.8419
vn 0.0221 0.9997 0.0109
vn 0.3965 0.3793 -0.8360
vn -0.0274 -0.9996 -0.0099
vn 0.3823 -0.3865 -0.8393
vn -0.4037 -0.3794 0.8325
vn -0.3824 0.3861 0.8394
vn 0.0286 0.9996 0.0073
vn 0.4039 0.3780 -0.8331
vn -0.0290 -0.9994 -0.0173
vn 0.3642 -0.3847 -0.8481
vn -0.3884 -0.3811 0.8390
vn -0.3640 0.3867 0.8473
vn 0.0350 0.9994 0.0035
vn 0.3888 0.3773 -0.8405
vn -0.0313 -0.9992 -0.0260
vn 0.3205 -0.3817 -0.8670
vn -0.3480 -0.3841 0.8552
vn -0.3201 0.3863 0.8650
vn 0.0416 0.9991 -0.0015
vn 0.3483 0.3775 -0.8580
vn -0.0353 -0.9987 -0.0372
vn 0.2430 -0.3766 -0.8939
vn -0.2750 -0.3892 0.8792
vn -0.2429 0.3846 0.8905
vn 0.0480 0.9988 -0.0092
vn 0.2746 0.3788 -0.8838
vn -0.0436 -0.9977 -0.0518
vn 0.1182 -0.3684 -0.9221
vn -0.1568 -0.3975 0.9041
vn -0.1194 0.3810 0.9169
vn 0.0528 0.9984 -0.0210
vn 0.1545 0.3821 -0.9111
vn -0.0604 -0.9959 -0.0680
vn -0.0684 -0.3558 -0.9321
vn 0.0207 -0.4104 0.9117
vn 0.0651 0.3742 0.9250
vn 0.0527 0.9979 -0.0365
vn -0.0261 0.3888 -0.9209
vn -0.0893 -0.9931 -0.0760
vn -0.3143 -0.3385 -0.8869
vn 0.2521 -0.4262 0.8688
vn 0.3047 0.3621 0.8809
vn 0.0431 0.9979 -0.0483
vn -0.2654 0.3998 -0.8773
vn -0.1330 -0.9875 -0.0850
vn -0.6069 -0.3166 -0.7290
vn 0.5429 -0.4559 0.7053
vn 0.6046 0.3539 0.7136
vn 0.0158 0.9976 -0.0667
vn -0.5522 0.4160 -0.7225
vn -0.1266 -0.9912 -0.0395
vn -0.8164 -0.3057 -0.4900
vn 0.7562 -0.4569 0.4685
vn 0.8188 0.3266 0.4720
vn 0.0316 0.9990 -0.0303
vn -0.7579 0.4344 -0.4867
vn -0.1068 -0.9942 -0.0125
vn -0.8962 -0.3054 -0.3219
vn 0.8316 -0.4571 0.3156
vn 0.8945 0.3157 0.3167
vn 0.0547 0.9985 -0.0097
vn -0.8355 0.4460 -0.3210
vn -0.0992 -0.9951 -0.0032
vn -0.9247 -0.3053 -0.2275
vn 0.8595 -0.4578 0.2273
vn 0.9228 0.3118 0.2263
vn 0.0641 0.9979 -0.0061
vn -0.8630 0.4505 -0.2287
vn -0.0964 -0.9953 0.0019
vn -0.9388 -0.3048 -0.1606
vn 0.8735 -0.4585 0.1635
vn 0.9372 0.3097 0.1601
vn 0.0682 0.9976 -0.0070
vn -0.8765 0.4526 -0.1640
vn -0.0961 -0.9954 0.0064
vn -0.9471 -0.3040 -0.1026
vn 0.8816 -0.4594 0.1084
vn 0.9457 0.3084 0.1023
vn 0.0695 0.9975 -0.0095
vn -0.8845 0.4537 -0.1087
vn -0.0975 -0.9952 0.0117
vn -0.9520 -0.3029 -0.0438
vn 0.8860 -0.4606 0.0533
vn 0.9505 0.3075 0.0438
vn 0.0688 0.9975 -0.0131
vn -0.8892 0.4543 -0.0533
vn -0.1006 -0.9948 0.0188
vn -0.9532 -0.3014 0.0240
vn 0.8866 -0.4624 -0.0096
vn 0.9515 0.3068 -0.0237
vn 0.0659 0.9977 -0.0179
vn -0.8906 0.4547 0.0100
vn -0.1059 -0.9939 0.0296
vn -0.9477 -0.2990 0.1114
vn 0.8807 -0.4652 -0.0896
vn 0.9456 0.3061 -0.1104
vn 0.0594 0.9979 -0.0240
vn -0.8860 0.4546 0.0911
vn -0.1141 -0.9923 0.0488
vn -0.9259 -0.2949 0.2360
vn 0.8594 -0.4698 -0.2016
vn 0.9234 0.3054 -0.2325
vn 0.0465 0.9985 -0.0302
vn -0.8668 0.4539 0.2065
vn -0.1232 -0.9885 0.0873
vn -0.8574 -0.2873 0.4270
vn 0.7973 -0.4782 -0.3684
vn 0.8572 0.3043 -0.4154
vn 0.0224 0.9993 -0.0313
vn -0.8053 0.4523 0.3833
vn -0.1191 -0.9808 0.1543
vn -0.6679 -0.2770 0.6908
vn 0.6107 -0.5021 -0.6123
vn 0.6564 0.3069 -0.6892
vn -0.0186 0.9996 -0.0197
vn -0.6314 0.4556 0.6275
vn -0.0209 -0.9937 0.1099
vn -0.5004 -0.2815 0.8187
vn 0.4829 -0.4770 -0.7343
vn 0.4996 0.2737 -0.8219
vn 0.0235 0.9929 -0.1163
vn -0.4844 0.4724 0.7363
vn 0.0559 -0.9967 0.0585
vn -0.6409 -0.3171 0.6991
vn 0.6477 -0.4535 -0.6123
vn 0.6542 0.2788 -0.7030
vn 0.0738 0.9797 -0.1863
vn -0.6339 0.4882 0.5999
vn 0.0283 -0.9942 0.1041
vn -0.8128 -0.3267 0.4823
vn 0.8090 -0.4334 -0.3971
vn 0.8140 0.3087 -0.4920
vn 0.0407 0.9880 -0.1489
vn -0.8086 0.4459 0.3840
vn 0.0085 -0.9917 0.1282
vn -0.8579 -0.3342 0.3902
vn 0.8569 -0.4259 -0.2903
vn 0.8599 0.3273 -0.3918
vn 0.0144 0.9903 -0.1385
vn -0.8564 0.4286 0.2878
vn -0.0043 -0.9895 0.1445
vn -0.8627 -0.3324 0.3811
vn 0.8625 -0.4272 -0.2712
vn 0.8629 0.3322 -0.3808
vn -0.0058 0.9901 -0.1405
vn -0.8642 0.4229 0.2726
vn -0.0129 -0.9865 0.1631
vn -0.8410 -0.3217 0.4350
vn 0.8429 -0.4370 -0.3140
vn 0.8396 0.3268 -0.4339
vn -0.0245 0.9890 -0.1457
vn -0.8465 0.4266 0.3184
vn -0.0169 -0.9819 0.1888
vn -0.7835 -0.3008 0.5438
vn 0.7901 -0.4568 -0.4087
vn 0.7809 0.3112 -0.5416
vn -0.0448 0.9877 -0.1498
vn -0.7953 0.4399 0.4171
vn -0.0108 -0.9749 0.2226
vn -0.6672 -0.2686 0.6948
vn 0.6834 -0.4876 -0.5433
vn 0.6638 0.2846 -0.6917
vn -0.0658 0.9865 -0.1500
vn -0.6890 0.4640 0.5567
vn 0.0138 -0.9665 0.2562
vn -0.4736 -0.2286 0.8505
vn 0.5056 -0.5255 -0.6843
vn 0.4694 0.2485 -0.8473
vn -0.0816 0.9856 -0.1481
vn -0.5100 0.4976 0.7016
vn 0.0546 -0.9606 0.2726
vn -0.2239 -0.1908 0.9558
vn 0.2760 -0.5598 -0.7813
vn 0.2195 0.2107 -0.9526
vn -0.0896 0.9843 -0.1524
vn -0.2779 0.5329 0.7992
vn 0.0937 -0.9591 0.2670
vn 0.0209 -0.1644 0.9862
vn 0.0508 -0.5825 -0.8113
vn -0.0240 0.1810 -0.9832
vn -0.0962 0.9817 -0.1644
vn -0.0500 0.5608 0.8264
vn 0.1195 -0.9605 0.2515
vn 0.2149 -0.1502 0.9650
vn -0.1280 -0.5942 -0.7941
vn -0.2161 0.1628 -0.9627
vn -0.1054 0.9786 -0.1768
vn 0.1306 0.5784 0.8052
vn 0.1277 -0.9621 0.2408
vn 0.2956 -0.1457 0.9441
vn -0.2031 -0.5961 -0.7768
vn -0.2961 0.1555 -0.9424
vn -0.1116 0.9765 -0.1844
vn 0.2059 0.5840 0.7852
vt 0.531392 0.643273
vt 0.482051 0.657570
vt 0.471896 0.617540
vt 0.520206 0.603204
vt 0.523685 0.724294
vt 0.529498 0.766111
vt 0.481931 0.747843
vt 0.471896 0.727146
vt 0.543946 0.603204
vt 0.566373 0.606418
vt 0.566371 0.646886
vt 0.543946 0.650099
vt 0.471998 0.679069
vt 0.523006 0.682856
vt 0.584309 0.690071
vt 0.586379 0.692599
vt 0.543946 0.692599
vt 0.543946 0.650166
vt 0.586379 0.650166
vt 0.584309 0.652694
vt 0.546925 0.652694
vt 0.546925 0.690071
vt 0.602270 0.693779
vt 0.602203 0.656402
vt 0.639580 0.656335
vt 0.639647 0.693712
vt 0.535084 0.640619
vt 0.531592 0.640588
vt 0.532074 0.603204
vt 0.534853 0.603245
vt 0.534475 0.715343
vt 0.531695 0.715376
vt 0.531458 0.677983
vt 0.534949 0.677978
vt 0.532305 0.752757
vt 0.535084 0.752707
vt 0.571743 0.603204
vt 0.577046 0.603204
vt 0.577046 0.608508
vt 0.571743 0.608508
vt 0.577046 0.613811
vt 0.571743 0.613811
vt 0.577046 0.619115
vt 0.571743 0.619115
vt 0.577046 0.624418
vt 0.571743 0.624418
vt 0.566439 0.613811
vt 0.566439 0.619115
vt 0.582350 0.613811
vt 0.582350 0.619115
vt 0.569710 0.635015
vt 0.569710 0.640215
vt 0.566439 0.640215
vt 0.566439 0.635015
vt 0.571463 0.624485
vt 0.571463 0.629684
vt 0.566439 0.629684
vt 0.566439 0.624485
vt 0.539497 0.697937
vt 0.539497 0.692738
vt 0.542768 0.692738
vt 0.542768 0.697937
vt 0.571463 0.629750
vt 0.571463 0.634949
vt 0.566439 0.634949
vt 0.566439 0.629750
vt 0.566439 0.645305
vt 0.566439 0.640281
vt 0.569710 0.640281
vt 0.569710 0.645305
vt 0.538421 0.697721
vt 0.538421 0.702745
vt 0.535150 0.702745
vt 0.535150 0.697721
vt 0.538487 0.699480
vt 0.538487 0.697721
vt 0.539145 0.697721
vt 0.539145 0.699480
vt 0.566439 0.645371
vt 0.568198 0.645371
vt 0.568198 0.647716
vt 0.566439 0.647716
vt 0.568265 0.647130
vt 0.568265 0.645371
vt 0.568923 0.645371
vt 0.568923 0.647130
vt 0.539497 0.698003
vt 0.541256 0.698003
vt 0.541256 0.700349
vt 0.539497 0.700349
vt 0.542834 0.695083
vt 0.542834 0.692738
vt 0.543492 0.692738
vt 0.543492 0.695083
vt 0.543492 0.695150
vt 0.543492 0.697495
vt 0.542834 0.697495
vt 0.542834 0.695150
vt 0.566439 0.648084
vt 0.568240 0.649884
vt 0.566439 0.649884
vt 0.566739 0.647784
vt 0.568539 0.647783
vt 0.568540 0.649583
vt 0.541622 0.700104
vt 0.543423 0.698303
vt 0.543423 0.700104
vt 0.541322 0.699804
vt 0.543123 0.698003
vt 0.541322 0.698003
vt 0.594345 0.663862
vt 0.594381 0.664461
vt 0.593823 0.664481
vt 0.593814 0.663945
vt 0.598000 0.697331
vt 0.598007 0.696432
vt 0.598762 0.696426
vt 0.598771 0.697269
vt 0.597816 0.697328
vt 0.597831 0.696430
vt 0.597048 0.697243
vt 0.597076 0.696410
vt 0.593692 0.663948
vt 0.593690 0.664481
vt 0.593133 0.664467
vt 0.593161 0.663874
vt 0.594377 0.665099
vt 0.593824 0.665098
vt 0.598015 0.695493
vt 0.598770 0.695502
vt 0.597837 0.695492
vt 0.597081 0.695492
vt 0.593693 0.665099
vt 0.593141 0.665102
vt 0.594374 0.665782
vt 0.593825 0.665779
vt 0.598019 0.694511
vt 0.598776 0.694519
vt 0.597841 0.694510
vt 0.597084 0.694513
vt 0.593695 0.665780
vt 0.593146 0.665784
vt 0.594374 0.666505
vt 0.593825 0.666502
vt 0.598022 0.693494
vt 0.598779 0.693501
vt 0.597843 0.693494
vt 0.597086 0.693498
vt 0.593696 0.666502
vt 0.593147 0.666506
vt 0.594375 0.667249
vt 0.593826 0.667246
vt 0.598023 0.692464
vt 0.598780 0.692470
vt 0.597844 0.692464
vt 0.597088 0.692467
vt 0.593696 0.667246
vt 0.593148 0.667250
vt 0.594376 0.667997
vt 0.593827 0.667994
vt 0.598024 0.691444
vt 0.598780 0.691451
vt 0.597846 0.691444
vt 0.597090 0.691448
vt 0.593697 0.667994
vt 0.593148 0.667998
vt 0.594377 0.668731
vt 0.593828 0.668728
vt 0.598026 0.690461
vt 0.598781 0.690470
vt 0.597848 0.690460
vt 0.597093 0.690465
vt 0.593698 0.668728
vt 0.593149 0.668734
vt 0.594378 0.669438
vt 0.593829 0.669433
vt 0.598030 0.689536
vt 0.598783 0.689549
vt 0.597852 0.689535
vt 0.597098 0.689542
vt 0.593699 0.669434
vt 0.593151 0.669442
vt 0.594379 0.670109
vt 0.593831 0.670103
vt 0.598033 0.688689
vt 0.598785 0.688707
vt 0.597856 0.688688
vt 0.597103 0.688700
vt 0.593702 0.670103
vt 0.593154 0.670113
vt 0.594380 0.670745
vt 0.593833 0.670739
vt 0.598037 0.687927
vt 0.598791 0.687949
vt 0.597859 0.687926
vt 0.597105 0.687943
vt 0.593704 0.670739
vt 0.593157 0.670748
vt 0.594382 0.671360
vt 0.593835 0.671356
vt 0.598041 0.687234
vt 0.598802 0.687254
vt 0.597860 0.687233
vt 0.597098 0.687252
vt 0.593705 0.671356
vt 0.593157 0.671361
vt 0.594392 0.671995
vt 0.593832 0.671996
vt 0.598044 0.686575
vt 0.598850 0.686577
vt 0.597857 0.686576
vt 0.597052 0.686580
vt 0.593708 0.671996
vt 0.593148 0.671994
vt 0.594382 0.672430
vt 0.593834 0.672451
vt 0.598041 0.686194
vt 0.598814 0.686135
vt 0.597858 0.686194
vt 0.597085 0.686140
vt 0.593704 0.672451
vt 0.593156 0.672427
vt 0.594383 0.673023
vt 0.593834 0.673038
vt 0.598035 0.685483
vt 0.598784 0.685451
vt 0.597859 0.685483
vt 0.597111 0.685454
vt 0.593702 0.673038
vt 0.593153 0.673022
vt 0.594383 0.673749
vt 0.593833 0.673755
vt 0.598035 0.684539
vt 0.598786 0.684530
vt 0.597858 0.684539
vt 0.597107 0.684531
vt 0.593702 0.673755
vt 0.593153 0.673750
vt 0.594383 0.674580
vt 0.593833 0.674582
vt 0.598036 0.683437
vt 0.598792 0.683435
vt 0.597858 0.683436
vt 0.597103 0.683433
vt 0.593703 0.674582
vt 0.593154 0.674581
vt 0.594382 0.675481
vt 0.593835 0.675482
vt 0.598040 0.682230
vt 0.598792 0.682232
vt 0.597861 0.682229
vt 0.597108 0.682227
vt 0.593705 0.675482
vt 0.593158 0.675484
vt 0.594387 0.676416
vt 0.593837 0.676417
vt 0.598044 0.680975
vt 0.598801 0.680981
vt 0.597865 0.680975
vt 0.597108 0.680973
vt 0.593708 0.676418
vt 0.593158 0.676421
vt 0.594391 0.677347
vt 0.593841 0.677349
vt 0.598050 0.679732
vt 0.598806 0.679739
vt 0.597872 0.679731
vt 0.597116 0.679728
vt 0.593712 0.677350
vt 0.593162 0.677354
vt 0.594397 0.678239
vt 0.593847 0.678240
vt 0.598060 0.678555
vt 0.598814 0.678567
vt 0.597882 0.678553
vt 0.597127 0.678551
vt 0.593717 0.678241
vt 0.593169 0.678249
vt 0.594404 0.679060
vt 0.593855 0.679059
vt 0.598072 0.677497
vt 0.598825 0.677518
vt 0.597894 0.677494
vt 0.597139 0.677496
vt 0.593725 0.679061
vt 0.593178 0.679074
vt 0.594409 0.679791
vt 0.593864 0.679791
vt 0.598086 0.676610
vt 0.598852 0.676631
vt 0.597904 0.676608
vt 0.597137 0.676612
vt 0.593735 0.679793
vt 0.593190 0.679805
vt 0.594411 0.680422
vt 0.593867 0.680450
vt 0.598098 0.675953
vt 0.598895 0.675903
vt 0.597903 0.675953
vt 0.597109 0.675904
vt 0.593745 0.680451
vt 0.593199 0.680423
vt 0.594414 0.680948
vt 0.593867 0.681005
vt 0.598084 0.675354
vt 0.598831 0.675254
vt 0.597905 0.675357
vt 0.597155 0.675278
vt 0.593735 0.681003
vt 0.593190 0.680932
vt 0.594440 0.681418
vt 0.593864 0.681435
vt 0.598065 0.674584
vt 0.598811 0.674545
vt 0.597898 0.674586
vt 0.597148 0.674566
vt 0.593723 0.681432
vt 0.593149 0.681399
vt 0.594407 0.681957
vt 0.593855 0.681937
vt 0.598063 0.673671
vt 0.598814 0.673686
vt 0.597885 0.673671
vt 0.597135 0.673691
vt 0.593723 0.681936
vt 0.593170 0.681947
vt 0.594396 0.682631
vt 0.593850 0.682617
vt 0.598064 0.672664
vt 0.598819 0.672682
vt 0.597885 0.672664
vt 0.597130 0.672678
vt 0.593721 0.682617
vt 0.593175 0.682628
vt 0.594396 0.683421
vt 0.593850 0.683414
vt 0.598068 0.671561
vt 0.598824 0.671575
vt 0.597889 0.671560
vt 0.597134 0.671567
vt 0.593721 0.683415
vt 0.593174 0.683422
vt 0.594399 0.684286
vt 0.593852 0.684281
vt 0.598074 0.670402
vt 0.598829 0.670413
vt 0.597895 0.670401
vt 0.597140 0.670405
vt 0.593722 0.684282
vt 0.593175 0.684289
vt 0.594402 0.685188
vt 0.593854 0.685184
vt 0.598080 0.669233
vt 0.598835 0.669243
vt 0.597902 0.669232
vt 0.597147 0.669236
vt 0.593725 0.685185
vt 0.593178 0.685190
vt 0.594403 0.686109
vt 0.593856 0.686108
vt 0.598084 0.668081
vt 0.598841 0.668086
vt 0.597905 0.668081
vt 0.597148 0.668085
vt 0.593726 0.686108
vt 0.593179 0.686108
vt 0.594412 0.687067
vt 0.593853 0.687062
vt 0.598082 0.666920
vt 0.598860 0.666918
vt 0.597903 0.666921
vt 0.597126 0.666929
vt 0.593724 0.687061
vt 0.593164 0.687061
vt 0.594392 0.688110
vt 0.593844 0.688100
vt 0.598070 0.665654
vt 0.598827 0.665649
vt 0.597890 0.665657
vt 0.597133 0.665669
vt 0.593715 0.688099
vt 0.593167 0.688099
vt 0.594380 0.689322
vt 0.593832 0.689315
vt 0.598047 0.664133
vt 0.598802 0.664125
vt 0.597868 0.664135
vt 0.597112 0.664150
vt 0.593702 0.689314
vt 0.593155 0.689312
vt 0.594368 0.690817
vt 0.593821 0.690813
vt 0.598017 0.662189
vt 0.598772 0.662178
vt 0.597837 0.662192
vt 0.597081 0.662203
vt 0.593692 0.690813
vt 0.593145 0.690811
vt 0.594361 0.692695
vt 0.593812 0.692719
vt 0.597976 0.659689
vt 0.598726 0.659635
vt 0.597799 0.659693
vt 0.597048 0.659666
vt 0.593681 0.692718
vt 0.593133 0.692685
s 0
usemtl thing
f 1/1/1 9/2/1 11/3/1 5/4/1
f 7/5/2 5/6/2 11/7/2 12/8/2
f 12/9/3 11/10/3 9/11/3 10/12/3
f 10/13/4 3/14/4 7/5/4 12/8/4
f 16/15/5 3/16/5 1/17/5 5/18/5 7/19/5 14/20/5 15/21/5 13/22/5
f 14/20/5 7/19/5 3/16/5 16/15/5
f 10/13/6 9/2/6 1/1/6 3/14/6
f 4/23/7 2/24/7 6/25/7 8/26/7
f 13/27/8 8/28/8 6/29/8 16/30/8
f 14/31/9 2/32/9 4/33/9 15/34/9
f 6/35/10 2/32/10 14/31/10 16/36/10
f 4/33/11 8/28/11 13/27/11 15/34/11
f 17/37/12 18/38/12 20/39/12 19/40/12
f 19/40/13 20/39/13 24/41/13 23/42/13
f 23/42/14 24/41/14 22/43/14 21/44/14
f 21/44/15 22/43/15 18/45/15 17/46/15
f 19/47/16 23/42/16 21/44/16 17/48/16
f 24/41/17 20/49/17 18/50/17 22/43/17
f 25/51/12 26/52/12 28/53/12 27/54/12
f 27/55/13 28/56/13 32/57/13 31/58/13
f 31/59/14 32/60/14 30/61/14 29/62/14
f 29/63/15 30/64/15 26/65/15 25/66/15
f 27/67/16 31/68/16 29/69/16 25/70/16
f 32/71/17 28/72/17 26/73/17 30/74/17
f 33/75/12 34/76/12 36/77/12 35/78/12
f 35/79/13 36/80/13 40/81/13 39/82/13
f 39/83/14 40/84/14 38/85/14 37/86/14
f 37/87/15 38/88/15 34/89/15 33/90/15
f 35/91/16 39/92/16 37/93/16 33/94/16
f 40/95/17 36/96/17 34/97/17 38/98/17
s 1
f 42/99/18 46/100/18 41/101/18
f 43/102/18 46/100/18 42/99/18
f 44/103/18 46/100/18 43/102/18
f 44/103/18 45/104/18 46/100/18
f 52/105/19 48/106/19 47/107/19
f 51/108/19 48/106/19 52/105/19
f 51/108/19 49/109/19 48/106/19
f 50/110/19 49/109/19 51/108/19
f 53/111/20 59/112/21 64/113/22 58/114/23
f 54/115/24 60/116/25 59/117/21 53/118/20
f 55/119/26 61/120/27 60/116/25 54/115/24
f 56/121/28 62/122/29 61/120/27 55/119/26
f 57/123/30 63/124/31 62/125/29 56/126/28
f 58/114/23 64/113/22 63/124/31 57/123/30
f 59/112/21 65/127/32 70/128/33 64/113/22
f 60/116/25 66/129/34 65/130/32 59/117/21
f 61/120/27 67/131/35 66/129/34 60/116/25
f 62/122/29 68/132/36 67/131/35 61/120/27
f 63/124/31 69/133/37 68/134/36 62/125/29
f 64/113/22 70/128/33 69/133/37 63/124/31
f 65/127/32 71/135/38 76/136/39 70/128/33
f 66/129/34 72/137/40 71/138/38 65/130/32
f 67/131/35 73/139/41 72/137/40 66/129/34
f 68/132/36 74/140/42 73/139/41 67/131/35
f 69/133/37 75/141/43 74/142/42 68/134/36
f 70/128/33 76/136/39 75/141/43 69/133/37
f 71/135/38 77/143/44 82/144/45 76/136/39
f 72/137/40 78/145/46 77/146/44 71/138/38
f 73/139/41 79/147/47 78/145/46 72/137/40
f 74/140/42 80/148/48 79/147/47 73/139/41
f 75/141/43 81/149/49 80/150/48 74/142/42
f 76/136/39 82/144/45 81/149/49 75/141/43
f 77/143/44 83/151/50 88/152/51 82/144/45
f 78/145/46 84/153/52 83/154/50 77/146/44
f 79/147/47 85/155/53 84/153/52 78/145/46
f 80/148/48 86/156/54 85/155/53 79/147/47
f 81/149/49 87/157/55 86/158/54 80/150/48
f 82/144/45 88/152/51 87/157/55 81/149/49
f 83/151/50 89/159/56 94/160/57 88/152/51
f 84/153/52 90/161/58 89/162/56 83/154/50
f 85/155/53 91/163/59 90/161/58 84/153/52
f 86/156/54 92/164/60 91/163/59 85/155/53
f 87/157/55 93/165/61 92/166/60 86/158/54
f 88/152/51 94/160/57 93/165/61 87/157/55
f 89/159/56 95/167/62 100/168/63 94/160/57
f 90/161/58 96/169/64 95/170/62 89/162/56
f 91/163/59 97/171/65 96/169/64 90/161/58
f 92/164/60 98/172/66 97/171/65 91/163/59
f 93/165/61 99/173/67 98/174/66 92/166/60
f 94/160/57 100/168/63 99/173/67 93/165/61
f 95/167/62 101/175/68 106/176/69 100/168/63
f 96/169/64 102/177/70 101/178/68 95/170/62
f 97/171/65 103/179/71 102/177/70 96/169/64
f 98/172/66 104/180/72 103/179/71 97/171/65
f 99/173/67 105/181/73 104/182/72 98/174/66
f 100/168/63 106/176/69 105/181/73 99/173/67
f 101/175/68 107/183/74 112/184/75 106/176/69
f 102/177/70 108/185/76 107/186/74 101/178/68
f 103/179/71 109/187/77 108/185/76 102/177/70
f 104/180/72 110/188/78 109/187/77 103/179/71
f 105/181/73 111/189/79 110/190/78 104/182/72
f 106/176/69 112/184/75 111/189/79 105/181/73
f 107/183/74 113/191/80 118/192/81 112/184/75
f 108/185/76 114/193/82 113/194/80 107/186/74
f 109/187/77 115/195/83 114/193/82 108/185/76
f 110/188/78 116/196/84 115/195/83 109/187/77
f 111/189/79 117/197/85 116/198/84 110/190/78
f 112/184/75 118/192/81 117/197/85 111/189/79
f 113/191/80 119/199/86 124/200/87 118/192/81
f 114/193/82 120/201/88 119/202/86 113/194/80
f 115/195/83 121/203/89 120/201/88 114/193/82
f 116/196/84 122/204/90 121/203/89 115/195/83
f 117/197/85 123/205/91 122/206/90 116/198/84
f 118/192/81 124/200/87 123/205/91 117/197/85
f 119/199/86 125/207/92 130/208/93 124/200/87
f 120/201/88 126/209/94 125/210/92 119/202/86
f 121/203/89 127/211/95 126/209/94 120/201/88
f 122/204/90 128/212/96 127/211/95 121/203/89
f 123/205/91 129/213/97 128/214/96 122/206/90
f 124/200/87 130/208/93 129/213/97 123/205/91
f 125/207/92 131/215/98 136/216/99 130/208/93
f 126/209/94 132/217/100 131/218/98 125/210/92
f 127/211/95 133/219/101 132/217/100 126/209/94
f 128/212/96 134/220/102 133/219/101 127/211/95
f 129/213/97 135/221/103 134/222/102 128/214/96
f 130/208/93 136/216/99 135/221/103 129/213/97
f 131/215/98 137/223/104 142/224/105 136/216/99
f 132/217/100 138/225/106 137/226/104 131/218/98
f 133/219/101 139/227/107 138/225/106 132/217/100
f 134/220/102 140/228/108 139/227/107 133/219/101
f 135/221/103 141/229/109 140/230/108 134/222/102
f 136/216/99 142/224/105 141/229/109 135/221/103
f 137/223/104 143/231/110 148/232/111 142/224/105
f 138/225/106 144/233/112 143/234/110 137/226/104
f 139/227/107 145/235/113 144/233/112 138/225/106
f 140/228/108 146/236/114 145/235/113 139/227/107
f 141/229/109 147/237/115 146/238/114 140/230/108
f 142/224/105 148/232/111 147/237/115 141/229/109
f 143/231/110 149/239/116 154/240/117 148/232/111
f 144/233/112 150/241/118 149/242/116 143/234/110
f 145/235/113 151/243/119 150/241/118 144/233/112
f 146/236/114 152/244/120 151/243/119 145/235/113
f 147/237/115 153/245/121 152/246/120 146/238/114
f 148/232/111 154/240/117 153/245/121 147/237/115
f 149/239/116 155/247/122 160/248/123 154/240/117
f 150/241/118 156/249/124 155/250/122 149/242/116
f 151/243/119 157/251/125 156/249/124 150/241/118
f 152/244/120 158/252/126 157/251/125 151/243/119
f 153/245/121 159/253/127 158/254/126 152/246/120
f 154/240/117 160/248/123 159/253/127 153/245/121
f 155/247/122 161/255/128 166/256/129 160/248/123
f 156/249/124 162/257/130 161/258/128 155/250/122
f 157/251/125 163/259/131 162/257/130 156/249/124
f 158/252/126 164/260/132 163/259/131 157/251/125
f 159/253/127 165/261/133 164/262/132 158/254/126
f 160/248/123 166/256/129 165/261/133 159/253/127
f 161/255/128 167/263/134 172/264/135 166/256/129
f 162/257/130 168/265/136 167/266/134 161/258/128
f 163/259/131 169/267/137 168/265/136 162/257/130
f 164/260/132 170/268/138 169/267/137 163/259/131
f 165/261/133 171/269/139 170/270/138 164/262/132
f 166/256/129 172/264/135 171/269/139 165/261/133
f 167/263/134 173/271/140 178/272/141 172/264/135
f 168/265/136 174/273/142 173/274/140 167/266/134
f 169/267/137 175/275/143 174/273/142 168/265/136
f 170/268/138 176/276/144 175/275/143 169/267/137
f 171/269/139 177/277/145 176/278/144 170/270/138
f 172/264/135 178/272/141 177/277/145 171/269/139
f 173/271/140 179/279/146 184/280/147 178/272/141
f 174/273/142 180/281/148 179/282/146 173/274/140
f 175/275/143 181/283/149 180/281/148 174/273/142
f 176/276/144 182/284/150 181/283/149 175/275/143
f 177/277/145 183/285/151 182/286/150 176/278/144
f 178/272/141 184/280/147 183/285/151 177/277/145
f 179/279/146 185/287/152 190/288/153 184/280/147
f 180/281/148 186/289/154 185/290/152 179/282/146
f 181/283/149 187/291/155 186/289/154 180/281/148
f 182/284/150 188/292/156 187/291/155 181/283/149
f 183/285/151 189/293/157 188/294/156 182/286/150
f 184/280/147 190/288/153 189/293/157 183/285/151
f 185/287/152 191/295/158 196/296/159 190/288/153
f 186/289/154 192/297/160 191/298/158 185/290/152
f 187/291/155 193/299/161 192/297/160 186/289/154
f 188/292/156 194/300/162 193/299/161 187/291/155
f 189/293/157 195/301/163 194/302/162 188/294/156
f 190/288/153 196/296/159 195/301/163 189/293/157
f 191/295/158 197/303/164 202/304/165 196/296/159
f 192/297/160 198/305/166 197/306/164 191/298/158
f 193/299/161 199/307/167 198/305/166 192/297/160
f 194/300/162 200/308/168 199/307/167 193/299/161
f 195/301/163 201/309/169 200/310/168 194/302/162
f 196/296/159 202/304/165 201/309/169 195/301/163
f 197/303/164 203/311/170 208/312/171 202/304/165
f 198/305/166 204/313/172 203/314/170 197/306/164
f 199/307/167 205/315/173 204/313/172 198/305/166
f 200/308/168 206/316/174 205/315/173 199/307/167
f 201/309/169 207/317/175 206/318/174 200/310/168
f 202/304/165 208/312/171 207/317/175 201/309/169
f 203/311/170 209/319/176 214/320/177 208/312/171
f 204/313/172 210/321/178 209/322/176 203/314/170
f 205/315/173 211/323/179 210/321/178 204/313/172
f 206/316/174 212/324/180 211/323/179 205/315/173
f 207/317/175 213/325/181 212/326/180 206/318/174
f 208/312/171 214/320/177 213/325/181 207/317/175
f 209/319/176 215/327/182 220/328/183 214/320/177
f 210/321/178 216/329/184 215/330/182 209/322/176
f 211/323/179 217/331/185 216/329/184 210/321/178
f 212/324/180 218/332/186 217/331/185 211/323/179
f 213/325/181 219/333/187 218/334/186 212/326/180
f 214/320/177 220/328/183 219/333/187 213/325/181
f 215/327/182 221/335/188 226/336/189 220/328/183
f 216/329/184 222/337/190 221/338/188 215/330/182
f 217/331/185 223/339/191 222/337/190 216/329/184
f 218/332/186 224/340/192 223/339/191 217/331/185
f 219/333/187 225/341/193 224/342/192 218/334/186
f 220/328/183 226/336/189 225/341/193 219/333/187
f 221/335/188 227/343/194 232/344/195 226/336/189
f 222/337/190 228/345/196 227/346/194 221/338/188
f 223/339/191 229/347/197 228/345/196 222/337/190
f 224/340/192 230/348/198 229/347/197 223/339/191
f 225/341/193 231/349/199 230/350/198 224/342/192
f 226/336/189 232/344/195 231/349/199 225/341/193
f 227/343/194 233/351/200 238/352/201 232/344/195
f 228/345/196 234/353/202 233/354/200 227/346/194
f 229/347/197 235/355/203 234/353/202 228/345/196
f 230/348/198 236/356/204 235/355/203 229/347/197
f 231/349/199 237/357/205 236/358/204 230/350/198
f 232/344/195 238/352/201 237/357/205 231/349/199
f 233/351/200 239/359/206 244/360/207 238/352/201
f 234/353/202 240/361/208 239/362/206 233/354/200
f 235/355/203 241/363/209 240/361/208 234/353/202
f 236/356/204 242/364/210 241/363/209 235/355/203
f 237/357/205 243/365/211 242/366/210 236/358/204
f 238/352/201 244/360/207 243/365/211 237/357/205
f 239/359/206 245/367/212 250/368/213 244/360/207
f 240/361/208 246/369/214 245/370/212 239/362/206
f 241/363/209 247/371/215 246/369/214 240/361/208
f 242/364/210 248/372/216 247/371/215 241/363/209
f 243/365/211 249/373/217 248/374/216 242/366/210
f 244/360/207 250/368/213 249/373/217 243/365/211
f 245/367/212 251/375/218 256/376/219 250/368/213
f 246/369/214 252/377/220 251/378/218 245/370/212
f 247/371/215 253/379/221 252/377/220 246/369/214
f 248/372/216 254/380/222 253/379/221 247/371/215
f 249/373/217 255/381/223 254/382/222 248/374/216
f 250/368/213 256/376/219 255/381/223 249/373/217
f 251/375/218 257/383/224 262/384/225 256/376/219
f 252/377/220 258/385/226 257/386/224 251/378/218
f 253/379/221 259/387/227 258/385/226 252/377/220
f 254/380/222 260/388/228 259/387/227 253/379/221
f 255/381/223 261/389/229 260/390/228 254/382/222
f 256/376/219 262/384/225 261/389/229 255/381/223
f 257/383/224 263/391/230 268/392/231 262/384/225
f 258/385/226 264/393/232 263/394/230 257/386/224
f 259/387/227 265/395/233 264/393/232 258/385/226
f 260/388/228 266/396/234 265/395/233 259/387/227
f 261/389/229 267/397/235 266/398/234 260/390/228
f 262/384/225 268/392/231 267/397/235 261/389/229
f 263/391/230 269/399/236 274/400/237 268/392/231
f 264/393/232 270/401/238 269/402/236 263/394/230
f 265/395/233 271/403/239 270/401/238 264/393/232
f 266/396/234 272/404/240 271/403/239 265/395/233
f 267/397/235 273/405/241 272/406/240 266/398/234
f 268/392/231 274/400/237 273/405/241 267/397/235
