# Blender 5.0.1
# www.blender.org
mtllib mallow.mtl
o Cube
v 0.716446 -0.000844 -0.717322
v 0.603117 -0.620402 -0.801386
v 0.642086 0.339520 0.797246
v 0.664092 -0.645085 0.860935
v -0.726636 0.146644 -0.550671
v -0.593371 -0.534600 -0.683252
v -0.551331 0.361804 0.595771
v -0.555258 -0.492396 0.609979
v -0.597414 -0.523744 -0.347585
v -0.603160 -0.521747 0.017396
v -0.567612 -0.496836 0.313009
v 0.347251 -0.614968 -0.761562
v -0.041287 -0.579482 -0.717184
v -0.379124 -0.583311 -0.751310
v 0.827562 -0.097346 -1.040434
v 0.834870 -0.300396 -1.261645
v 0.744952 -0.521381 -1.084859
v -0.750023 -0.368849 0.797080
v -0.867358 -0.117953 0.856411
v -0.714983 0.210672 0.745352
v 0.923152 -0.013598 0.989051
v 0.984079 -0.342771 1.372710
v 0.858231 -0.559499 1.195568
v -0.826856 0.041934 -0.746487
v -0.866223 -0.209078 -0.916364
v -0.753676 -0.426496 -0.854692
v 0.364137 0.406167 0.882270
v -0.054456 0.443193 0.847942
v -0.376014 0.418625 0.743770
v 0.694962 0.196258 -0.415142
v 0.580611 0.393260 -0.014278
v 0.582470 0.390453 0.377996
v -0.393534 -0.588320 0.764658
v -0.051616 -0.637639 0.858790
v 0.382140 -0.671622 0.902748
v -0.616055 0.382600 0.313932
v -0.657095 0.398862 0.017793
v -0.681140 0.310557 -0.304206
v -0.573877 0.056391 -0.598077
v -0.249204 -0.002493 -0.624408
v 0.338581 -0.017722 -0.685479
v 0.647269 -0.569744 0.417662
v 0.627282 -0.537991 -0.015257
v 0.637097 -0.601909 -0.466772
v 0.257629 0.229423 -0.298242
v -0.150846 0.241341 -0.277006
v -0.456711 0.282681 -0.285740
v 0.256997 0.446723 0.028520
v -0.097122 0.421370 0.036430
v -0.412525 0.436351 0.029756
v 0.255241 0.442482 0.350582
v -0.076478 0.449072 0.370266
v -0.382416 0.438446 0.345286
v 0.385224 -0.515641 1.345126
v 0.391764 -0.263756 1.422405
v 0.521960 -0.003798 1.134979
v -0.342165 -0.514904 1.421061
v -0.457472 -0.244574 1.654036
v -0.388401 0.020812 1.101889
v -0.735041 -0.491986 1.285082
v -0.906878 -0.248014 1.488986
v -0.759632 0.026300 0.942429
v -0.728263 -0.294153 0.325398
v -0.786959 -0.016331 0.343594
v -0.748942 0.230905 0.327950
v -0.781011 -0.307162 0.002816
v -0.846503 -0.017579 -0.005995
v -0.803739 0.240362 0.005330
v -0.798427 -0.354061 -0.421972
v -0.902067 -0.110345 -0.430039
v -0.842009 0.174563 -0.367278
v -0.319368 -0.607940 -0.318213
v 0.010565 -0.622262 -0.303862
v 0.340578 -0.623780 -0.336845
v -0.321419 -0.621182 0.031822
v 0.014482 -0.641031 0.039315
v 0.344862 -0.621182 0.031822
v -0.307387 -0.596757 0.347232
v 0.009721 -0.624934 0.373812
v 0.341046 -0.614757 0.371596
v 0.858881 -0.486243 -0.690195
v 0.978582 -0.280169 -0.803521
v 0.954881 -0.051930 -0.638658
v 0.834422 -0.366314 -0.072872
v 0.913563 -0.083979 -0.100355
v 0.832318 0.195784 -0.091219
v 0.882635 -0.426833 0.559622
v 0.981540 -0.148826 0.627872
v 0.854351 0.204756 0.521411
v -0.520694 -0.442393 -1.126057
v -0.616549 -0.187375 -1.284927
v -0.595351 0.047880 -1.029540
v -0.137490 -0.410273 -1.082334
v -0.199178 -0.125996 -1.225662
v -0.238620 -0.011766 -1.017261
v 0.370521 -0.475072 -1.129281
v 0.405418 -0.227889 -1.278275
v 0.431966 -0.044108 -1.117434
vn -0.0350 0.8504 -0.5249
vn 0.0911 0.8738 -0.4778
vn -0.0287 0.9990 -0.0349
vn 0.0094 0.9989 -0.0466
vn -0.0835 0.8320 -0.5485
vn -0.0232 0.8314 -0.5551
vn 0.1092 0.7923 -0.6003
vn 0.1970 0.7760 -0.5992
vn 0.0039 0.9348 -0.3552
vn -0.1953 0.9797 0.0454
vn -0.3003 0.9498 0.0881
vn -0.0624 0.9976 0.0313
vn 0.0573 0.9978 0.0343
vn 0.1972 0.9788 0.0549
vn 0.1602 0.9870 0.0097
vn -0.0051 0.8686 -0.4954
vn 0.1623 -0.4788 0.8628
vn 0.0820 0.8360 0.5426
vn -0.2532 -0.7045 0.6630
vn -0.1598 0.8981 0.4097
vn 0.0502 -0.9573 0.2849
vn 0.1038 -0.4970 0.8615
vn 0.1946 0.7271 0.6584
vn 0.3163 0.6067 0.7293
vn -0.0190 0.5228 0.8523
vn -0.2870 0.6458 0.7075
vn -0.4638 0.7594 0.4563
vn -0.8289 0.5458 0.1228
vn -0.8838 -0.4518 -0.1214
vn -0.5283 -0.8374 -0.1402
vn -0.1344 -0.9836 0.1205
vn -0.0217 -0.9650 0.2615
vn -0.9628 -0.2135 0.1654
vn -0.9733 0.1571 0.1675
vn -0.9463 -0.2960 0.1301
vn -0.9813 0.1748 0.0808
vn -0.6965 -0.7137 -0.0738
vn -0.9444 -0.2924 -0.1504
vn -0.9499 0.3126 -0.0065
vn -0.6696 0.7299 0.1373
vn -0.7351 0.6631 0.1414
vn -0.6749 0.7308 -0.1016
vn -0.3972 0.8366 -0.3772
vn -0.9658 0.2306 -0.1186
vn -0.9054 -0.4245 -0.0003
vn -0.6277 -0.7772 0.0444
vn -0.7173 -0.6947 0.0536
vn -0.7684 -0.6226 0.1479
vn -0.0497 -0.9977 -0.0459
vn 0.0263 -0.9994 -0.0230
vn -0.0765 -0.9951 0.0631
vn 0.0458 -0.9984 0.0339
vn -0.2605 -0.9655 0.0016
vn -0.0100 -0.9969 -0.0781
vn -0.0576 -0.9966 -0.0583
vn 0.0333 -0.9994 0.0115
vn 0.2018 -0.9761 0.0805
vn 0.2126 -0.9765 -0.0365
vn 0.1206 -0.9827 -0.1405
vn -0.0273 -0.9973 -0.0688
vn -0.1126 -0.9934 -0.0231
vn -0.4112 -0.9112 -0.0261
vn -0.3515 -0.9304 0.1037
vn -0.3103 -0.9504 -0.0183
vn 0.9303 -0.3373 0.1438
vn 0.9811 0.1734 0.0856
vn 0.9497 -0.2939 -0.1082
vn 0.9509 0.3051 -0.0511
vn 0.4750 -0.8794 -0.0317
vn 0.8134 -0.5423 -0.2105
vn 0.8899 0.3382 -0.3063
vn 0.3054 0.8852 -0.3509
vn 0.5564 0.7970 -0.2348
vn 0.5920 0.8057 -0.0190
vn 0.6490 0.7490 0.1335
vn 0.9546 0.2946 0.0440
vn 0.9214 -0.3811 -0.0756
vn 0.5882 -0.7948 -0.1491
vn 0.5896 -0.8006 -0.1071
vn 0.6171 -0.7719 0.1526
vn 0.1652 -0.4450 -0.8802
vn 0.0536 0.7985 -0.5996
vn -0.1495 -0.4823 -0.8632
vn 0.0067 0.7783 -0.6279
vn -0.3168 -0.9169 -0.2429
vn -0.6720 -0.5353 -0.5117
vn -0.6982 0.5186 -0.4936
vn 0.0539 0.9808 -0.1875
vn 0.1709 0.9850 -0.0235
vn 0.0328 0.9987 -0.0390
vn 0.0549 0.9878 -0.1459
vn 0.1844 0.6860 -0.7039
vn -0.0213 -0.5672 -0.8233
vn -0.0737 -0.9301 -0.3599
vn -0.1406 -0.9172 -0.3729
vn 0.0895 -0.9080 -0.4093
vt 0.619429 0.732215
vt 0.620024 0.743062
vt 0.609682 0.743008
vt 0.608625 0.733907
vt 0.620377 0.751378
vt 0.610333 0.751213
vt 0.600309 0.743315
vt 0.599949 0.734813
vt 0.601400 0.751243
vt 0.630736 0.717025
vt 0.632039 0.727545
vt 0.620460 0.720004
vt 0.632367 0.743853
vt 0.631720 0.753240
vt 0.629513 0.758220
vt 0.620808 0.757536
vt 0.611266 0.757699
vt 0.602569 0.757684
vt 0.594206 0.756294
vt 0.590244 0.751393
vt 0.587131 0.743088
vt 0.584503 0.731418
vt 0.597684 0.725950
vt 0.584766 0.723628
vt 0.608854 0.725473
vt 0.642878 0.728188
vt 0.651717 0.726806
vt 0.654138 0.753330
vt 0.644010 0.748197
vt 0.558401 0.725768
vt 0.569422 0.723131
vt 0.574776 0.752961
vt 0.557203 0.755381
vt 0.651532 0.770147
vt 0.642550 0.761480
vt 0.580549 0.764066
vt 0.562836 0.769404
vt 0.627770 0.721519
vt 0.638583 0.715429
vt 0.628456 0.728970
vt 0.647906 0.705725
vt 0.557712 0.705175
vt 0.573739 0.711460
vt 0.588674 0.761522
vt 0.581819 0.769996
vt 0.626435 0.770316
vt 0.624785 0.761983
vt 0.623728 0.750044
vt 0.619105 0.755321
vt 0.626738 0.740569
vt 0.610417 0.762806
vt 0.610572 0.771186
vt 0.600018 0.771468
vt 0.600488 0.762915
vt 0.600583 0.770837
vt 0.601965 0.763468
vt 0.612481 0.763530
vt 0.614038 0.770914
vt 0.586855 0.768898
vt 0.587870 0.761339
vt 0.624265 0.762489
vt 0.629601 0.769498
vt 0.610260 0.755282
vt 0.638899 0.762089
vt 0.650469 0.767790
vt 0.563150 0.767650
vt 0.575041 0.757500
vt 0.590808 0.754193
vt 0.581262 0.752813
vt 0.601441 0.755204
vt 0.592236 0.746423
vt 0.592845 0.737548
vt 0.602971 0.738271
vt 0.602384 0.747198
vt 0.591880 0.728184
vt 0.603106 0.729395
vt 0.612657 0.738829
vt 0.611606 0.747504
vt 0.612925 0.729869
vt 0.579445 0.746430
vt 0.579838 0.736780
vt 0.578271 0.724965
vt 0.576888 0.717308
vt 0.587523 0.718915
vt 0.601957 0.721018
vt 0.614769 0.721392
vt 0.579974 0.709964
vt 0.576164 0.702271
vt 0.600027 0.704574
vt 0.600449 0.713044
vt 0.634510 0.703999
vt 0.627823 0.710336
vt 0.610559 0.716786
vt 0.610871 0.708509
vt 0.621583 0.704749
vt 0.619391 0.713487
vt 0.591084 0.716602
vt 0.584047 0.705659
vt 0.567825 0.710515
vt 0.560418 0.704370
vt 0.652425 0.703906
vt 0.641994 0.710248
vt 0.568300 0.749787
vt 0.560655 0.754093
vt 0.557912 0.739124
vt 0.567206 0.737563
vt 0.654755 0.753391
vt 0.645745 0.753639
vt 0.644986 0.741621
vt 0.652601 0.739310
vt 0.556921 0.718028
vt 0.565748 0.720976
vt 0.645270 0.722366
vt 0.653397 0.720788
s 0
usemtl Material
f 45/1/1 46/2/1 49/3/1 48/4/1
f 46/2/2 47/5/2 50/6/2 49/3/2
f 48/4/3 49/3/3 52/7/3 51/8/3
f 49/3/4 50/6/4 53/9/4 52/7/4
f 1/10/5 41/11/5 45/1/5 30/12/5
f 41/11/6 40/13/6 46/2/6 45/1/6
f 40/13/7 39/14/7 47/5/7 46/2/7
f 39/14/8 5/15/8 38/16/8 47/5/8
f 47/5/9 38/16/9 37/17/9 50/6/9
f 50/6/10 37/17/10 36/18/10 53/9/10
f 53/9/11 36/18/11 7/19/11 29/20/11
f 52/7/12 53/9/12 29/20/12 28/21/12
f 51/8/13 52/7/13 28/21/13 27/22/13
f 32/23/14 51/8/14 27/22/14 3/24/14
f 31/25/15 48/4/15 51/8/15 32/23/15
f 30/12/16 45/1/16 48/4/16 31/25/16
f 54/26/17 55/27/17 58/28/17 57/29/17
f 55/30/18 56/31/18 59/32/18 58/33/18
f 57/29/19 58/28/19 61/34/19 60/35/19
f 58/33/20 59/32/20 62/36/20 61/37/20
f 4/38/21 23/39/21 54/26/21 35/40/21
f 23/39/22 22/41/22 55/27/22 54/26/22
f 22/42/23 21/43/23 56/31/23 55/30/23
f 21/43/24 3/24/24 27/22/24 56/31/24
f 56/31/25 27/22/25 28/21/25 59/32/25
f 59/32/26 28/21/26 29/20/26 62/36/26
f 62/36/27 29/20/27 7/19/27 20/44/27
f 61/37/28 62/36/28 20/44/28 19/45/28
f 60/35/29 61/34/29 19/46/29 18/47/29
f 33/48/30 60/35/30 18/47/30 8/49/30
f 34/50/31 57/29/31 60/35/31 33/48/31
f 35/40/32 54/26/32 57/29/32 34/50/32
f 63/51/33 64/52/33 67/53/33 66/54/33
f 64/55/34 65/56/34 68/57/34 67/58/34
f 66/54/35 67/53/35 70/59/35 69/60/35
f 67/58/36 68/57/36 71/61/36 70/62/36
f 8/49/37 18/47/37 63/51/37 11/63/37
f 18/47/38 19/46/38 64/52/38 63/51/38
f 19/45/39 20/44/39 65/56/39 64/55/39
f 20/44/40 7/19/40 36/18/40 65/56/40
f 65/56/41 36/18/41 37/17/41 68/57/41
f 68/57/42 37/17/42 38/16/42 71/61/42
f 71/61/43 38/16/43 5/15/43 24/64/43
f 70/62/44 71/61/44 24/64/44 25/65/44
f 69/60/45 70/59/45 25/66/45 26/67/45
f 9/68/46 69/60/46 26/67/46 6/69/46
f 10/70/47 66/54/47 69/60/47 9/68/47
f 11/63/48 63/51/48 66/54/48 10/70/48
f 72/71/49 73/72/49 76/73/49 75/74/49
f 73/72/50 74/75/50 77/76/50 76/73/50
f 75/74/51 76/73/51 79/77/51 78/78/51
f 76/73/52 77/76/52 80/79/52 79/77/52
f 6/69/53 14/80/53 72/71/53 9/68/53
f 14/80/54 13/81/54 73/72/54 72/71/54
f 13/81/55 12/82/55 74/75/55 73/72/55
f 12/82/56 2/83/56 44/84/56 74/75/56
f 74/75/57 44/84/57 43/85/57 77/76/57
f 77/76/58 43/85/58 42/86/58 80/79/58
f 80/79/59 42/86/59 4/38/59 35/40/59
f 79/77/60 80/79/60 35/40/60 34/50/60
f 78/78/61 79/77/61 34/50/61 33/48/61
f 11/63/62 78/78/62 33/48/62 8/49/62
f 10/70/63 75/74/63 78/78/63 11/63/63
f 9/68/64 72/71/64 75/74/64 10/70/64
f 81/87/65 82/88/65 85/89/65 84/90/65
f 82/91/66 83/92/66 86/93/66 85/94/66
f 84/90/67 85/89/67 88/95/67 87/96/67
f 85/94/68 86/93/68 89/97/68 88/98/68
f 2/83/69 17/99/69 81/87/69 44/84/69
f 17/99/70 16/100/70 82/88/70 81/87/70
f 16/101/71 15/102/71 83/92/71 82/91/71
f 15/102/72 1/10/72 30/12/72 83/92/72
f 83/92/73 30/12/73 31/25/73 86/93/73
f 86/93/74 31/25/74 32/23/74 89/97/74
f 89/97/75 32/23/75 3/24/75 21/43/75
f 88/98/76 89/97/76 21/43/76 22/42/76
f 87/96/77 88/95/77 22/41/77 23/39/77
f 42/86/78 87/96/78 23/39/78 4/38/78
f 43/85/79 84/90/79 87/96/79 42/86/79
f 44/84/80 81/87/80 84/90/80 43/85/80
f 90/103/81 91/104/81 94/105/81 93/106/81
f 91/107/82 92/108/82 95/109/82 94/110/82
f 93/106/83 94/105/83 97/111/83 96/112/83
f 94/110/84 95/109/84 98/113/84 97/114/84
f 6/69/85 26/67/85 90/103/85 14/80/85
f 26/67/86 25/66/86 91/104/86 90/103/86
f 25/65/87 24/64/87 92/108/87 91/107/87
f 24/64/88 5/15/88 39/14/88 92/108/88
f 92/108/89 39/14/89 40/13/89 95/109/89
f 95/109/90 40/13/90 41/11/90 98/113/90
f 98/113/91 41/11/91 1/10/91 15/102/91
f 97/114/92 98/113/92 15/102/92 16/101/92
f 96/112/93 97/111/93 16/100/93 17/99/93
f 12/82/94 96/112/94 17/99/94 2/83/94
f 13/81/95 93/106/95 96/112/95 12/82/95
f 14/80/96 90/103/96 93/106/96 13/81/96
