# Blender 5.0.1
# www.blender.org
mtllib stars_stun.mtl
o Cube.002
v -0.960148 2.003311 -6.445720
v -1.155566 0.114797 -6.249054
v -3.217347 2.003311 -4.174112
v -3.021929 0.114797 -4.370778
v -2.390582 0.507224 -5.006155
v -2.390675 2.073673 -5.006061
v -2.088748 3.390498 -5.309916
v -1.786820 2.073673 -5.613771
v -2.088748 0.708333 -5.309916
v -1.786913 0.507224 -5.613678
v -1.418201 1.642052 -5.984743
v -1.690944 1.359623 -5.710259
v -1.567866 1.062490 -5.834123
v -2.759294 1.642052 -4.635089
v -2.486551 1.359623 -4.909574
v -2.609629 1.062490 -4.785710
v -2.088748 2.385472 -5.309916
v -2.088748 1.199610 -5.309916
v -2.088748 0.942300 -5.309916
v -1.764020 1.845019 -5.636716
v -1.796439 1.263592 -5.604091
v -1.787887 0.663076 -5.612697
v -2.413475 1.845019 -4.983116
v -2.381056 1.263592 -5.015742
v -2.389608 0.663076 -5.007135
v -4.503178 2.003311 -1.559812
v -4.503178 0.114797 -1.282565
v -4.503177 2.003311 1.642555
v -4.503177 0.114797 1.365309
v -4.503177 0.507224 0.469595
v -4.503177 2.073673 0.469727
v -4.503178 3.390498 0.041372
v -4.503178 2.073673 -0.386984
v -4.503178 0.708333 0.041372
v -4.503178 0.507224 -0.386852
v -4.503178 1.642052 -0.909956
v -4.503178 1.359623 -0.523005
v -4.503177 1.062490 -0.697621
v -4.503178 1.642052 0.992699
v -4.503178 1.359623 0.605749
v -4.503178 1.062490 0.780364
v -4.503178 2.385472 0.041372
v -4.503178 1.199610 0.041372
v -4.503178 0.942300 0.041372
v -4.503178 1.845019 -0.419331
v -4.503178 1.263592 -0.373337
v -4.503178 0.663076 -0.385470
v -4.503178 1.845019 0.502074
v -4.503178 1.263592 0.456080
v -4.503177 0.663076 0.468213
v 5.085318 2.003311 3.942084
v 4.824992 0.114797 4.037458
v 2.078398 2.003311 5.043715
v 2.338725 0.114797 4.948342
v 3.179771 0.507224 4.640212
v 3.179646 2.073673 4.640256
v 3.581859 3.390498 4.492900
v 3.984069 2.073673 4.345543
v 3.581859 0.708333 4.492900
v 3.983947 0.507224 4.345588
v 4.475124 1.642052 4.165639
v 4.111791 1.359623 4.298752
v 4.275748 1.062490 4.238682
v 2.688593 1.642052 4.820161
v 3.051927 1.359623 4.687049
v 2.887968 1.062490 4.747116
v 3.581859 2.385472 4.492900
v 3.581859 1.199610 4.492900
v 3.581859 0.942300 4.492900
v 4.014442 1.845019 4.334416
v 3.971257 1.263592 4.350238
v 3.982648 0.663076 4.346064
v 3.149274 1.845019 4.651385
v 3.192461 1.263592 4.635561
v 3.181067 0.663076 4.639735
v 5.233546 1.539393 -1.731779
v 5.233546 -0.349121 -1.454532
v 5.233546 1.539393 1.470588
v 5.233546 -0.349121 1.193342
v 5.233546 0.043305 0.297628
v 5.233546 1.609755 0.297760
v 5.233547 2.926579 -0.130595
v 5.233546 1.609755 -0.558950
v 5.233547 0.244415 -0.130595
v 5.233546 0.043305 -0.558818
v 5.233546 1.178134 -1.081923
v 5.233545 0.895705 -0.694973
v 5.233546 0.598572 -0.869588
v 5.233546 1.178134 0.820732
v 5.233546 0.895705 0.433782
v 5.233547 0.598572 0.608398
v 5.233547 1.921554 -0.130595
v 5.233547 0.735692 -0.130595
v 5.233547 0.478381 -0.130595
v 5.233546 1.381101 -0.591298
v 5.233546 0.799674 -0.545303
v 5.233546 0.199157 -0.557437
v 5.233546 1.381101 0.330107
v 5.233546 0.799674 0.284113
v 5.233546 0.199157 0.296247
v -1.500675 2.003311 4.524206
v -1.697174 0.114797 4.328619
v -3.770353 2.003311 2.265065
v -3.573854 0.114797 2.460651
v -2.939017 0.507224 3.092541
v -2.939110 2.073673 3.092448
v -2.635514 3.390498 3.394635
v -2.331917 2.073673 3.696823
v -2.635514 0.708333 3.394635
v -2.332010 0.507224 3.696730
v -1.961261 1.642052 4.065759
v -2.235512 1.359623 3.792781
v -2.111753 1.062490 3.915965
v -3.309767 1.642052 2.723512
v -3.035516 1.359623 2.996490
v -3.159275 1.062490 2.873306
v -2.635514 2.385472 3.394635
v -2.635514 1.199610 3.394635
v -2.635514 0.942300 3.394635
v -2.308991 1.845019 3.719642
v -2.341588 1.263592 3.687196
v -2.332990 0.663076 3.695755
v -2.962037 1.845019 3.069628
v -2.929438 1.263592 3.102075
v -2.938038 0.663076 3.093516
v 3.877827 2.003311 -4.255854
v 3.646812 0.114797 -4.409144
v 1.209460 2.003311 -6.026440
v 1.440476 0.114797 -5.873151
v 2.186827 0.507224 -5.377912
v 2.186718 2.073673 -5.377985
v 2.543644 3.390498 -5.141147
v 2.900570 2.073673 -4.904310
v 2.543644 0.708333 -5.141147
v 2.900460 0.507224 -4.904383
v 3.336336 1.642052 -4.615159
v 3.013910 1.359623 -4.829103
v 3.159408 1.062490 -4.732559
v 1.750952 1.642052 -5.667135
v 2.073378 1.359623 -5.453191
v 1.927879 1.062490 -5.549736
v 2.543644 2.385472 -5.141147
v 2.543644 1.199610 -5.141147
v 2.543644 0.942300 -5.141147
v 2.927523 1.845019 -4.886425
v 2.889199 1.263592 -4.911855
v 2.899308 0.663076 -4.905147
v 2.159764 1.845019 -5.395869
v 2.198089 1.263592 -5.370439
v 2.187979 0.663076 -5.377148
vn 0.7094 -0.0000 0.7049
vn 1.0000 -0.0000 -0.0000
vn 0.3440 -0.0000 0.9390
vn -0.7055 -0.0000 0.7087
vn -0.7055 -0.0000 0.7088
vn -0.5529 -0.0000 0.8332
vt 0.767682 0.676969
vt 0.767746 0.680666
vt 0.766086 0.675850
vt 0.765953 0.675011
vt 0.771134 0.674174
vt 0.773547 0.675461
vt 0.769238 0.675795
vt 0.769342 0.674952
vt 0.765987 0.670088
vt 0.766002 0.670661
vt 0.764879 0.672150
vt 0.762667 0.668702
vt 0.761768 0.675665
vt 0.764135 0.674295
vt 0.766085 0.672869
vt 0.765541 0.673232
vt 0.769137 0.670033
vt 0.769142 0.670607
vt 0.767590 0.671661
vt 0.767575 0.670800
vt 0.769136 0.672816
vt 0.767606 0.672607
vt 0.772407 0.668533
vt 0.770316 0.672056
vt 0.769692 0.673160
vt 0.767821 0.676977
vt 0.767627 0.680669
vt 0.766308 0.675749
vt 0.766233 0.674902
vt 0.771459 0.674429
vt 0.773777 0.675882
vt 0.769455 0.675914
vt 0.769618 0.675080
vt 0.766610 0.669994
vt 0.766585 0.670567
vt 0.765362 0.671974
vt 0.763396 0.668380
vt 0.762013 0.675264
vt 0.764470 0.674062
vt 0.766514 0.672775
vt 0.765946 0.673099
vt 0.769757 0.670159
vt 0.769722 0.670732
vt 0.768100 0.671675
vt 0.768145 0.670816
vt 0.769561 0.672935
vt 0.768050 0.672620
vt 0.773123 0.668891
vt 0.770791 0.672259
vt 0.770092 0.673317
vt 0.768033 0.676841
vt 0.768326 0.680527
vt 0.766372 0.675823
vt 0.766187 0.674993
vt 0.771306 0.673839
vt 0.773794 0.674975
vt 0.769514 0.675574
vt 0.769566 0.674726
vt 0.765917 0.670078
vt 0.765967 0.670649
vt 0.764939 0.672205
vt 0.762518 0.668899
vt 0.762050 0.675906
vt 0.764329 0.674392
vt 0.766186 0.672848
vt 0.765666 0.673244
vt 0.769058 0.669829
vt 0.769098 0.670401
vt 0.767614 0.671549
vt 0.767546 0.670691
vt 0.769228 0.672607
vt 0.767689 0.672493
vt 0.772228 0.668130
vt 0.770359 0.671775
vt 0.769805 0.672915
vt 0.767927 0.677018
vt 0.767927 0.680716
vt 0.766351 0.675871
vt 0.766232 0.675030
vt 0.771427 0.674284
vt 0.773817 0.675613
vt 0.769503 0.675871
vt 0.769622 0.675030
vt 0.766352 0.670109
vt 0.766357 0.670682
vt 0.765208 0.672152
vt 0.763057 0.668665
vt 0.762037 0.675613
vt 0.764427 0.674284
vt 0.766401 0.672891
vt 0.765851 0.673245
vt 0.769502 0.670109
vt 0.769497 0.670682
vt 0.767927 0.671709
vt 0.767927 0.670849
vt 0.769453 0.672891
vt 0.767927 0.672656
vt 0.772797 0.668665
vt 0.770645 0.672152
vt 0.770003 0.673245
vt 0.768089 0.677417
vt 0.768285 0.681109
vt 0.766455 0.676355
vt 0.766291 0.675521
vt 0.771439 0.674501
vt 0.773897 0.675701
vt 0.769602 0.676188
vt 0.769676 0.675342
vt 0.766150 0.670601
vt 0.766185 0.671173
vt 0.765117 0.672701
vt 0.762783 0.669333
vt 0.762132 0.676325
vt 0.764449 0.674871
vt 0.766347 0.673376
vt 0.765816 0.673758
vt 0.769296 0.670434
vt 0.769321 0.671007
vt 0.767808 0.672115
vt 0.767762 0.671256
vt 0.769394 0.673215
vt 0.767858 0.673061
vt 0.772510 0.668818
vt 0.770546 0.672413
vt 0.769962 0.673539
vt 0.767658 0.677096
vt 0.767658 0.680794
vt 0.766082 0.675949
vt 0.765963 0.675108
vt 0.771157 0.674362
vt 0.773548 0.675691
vt 0.769233 0.675949
vt 0.769352 0.675108
vt 0.766082 0.670187
vt 0.766087 0.670760
vt 0.764939 0.672230
vt 0.762787 0.668743
vt 0.761767 0.675691
vt 0.764158 0.674362
vt 0.766132 0.672969
vt 0.765581 0.673323
vt 0.769233 0.670187
vt 0.769228 0.670760
vt 0.767658 0.671788
vt 0.767658 0.670927
vt 0.769183 0.672969
vt 0.767658 0.672734
vt 0.772528 0.668743
vt 0.770376 0.672230
vt 0.769734 0.673323
s 0
usemtl Material.001
f 17/1/1 7/2/1 6/3/1 23/4/1
f 11/5/1 1/6/1 8/7/1 20/8/1
f 5/9/1 25/10/1 16/11/1 4/12/1
f 20/8/1 8/7/1 7/2/1 17/1/1
f 23/4/1 6/3/1 3/13/1 14/14/1
f 25/10/1 24/15/1 15/16/1 16/11/1
f 24/15/1 23/4/1 14/14/1 15/16/1
f 10/17/1 22/18/1 19/19/1 9/20/1
f 22/18/1 21/21/1 18/22/1 19/19/1
f 21/21/1 20/8/1 17/1/1 18/22/1
f 2/23/1 13/24/1 22/18/1 10/17/1
f 13/24/1 12/25/1 21/21/1 22/18/1
f 12/25/1 11/5/1 20/8/1 21/21/1
f 9/20/1 19/19/1 25/10/1 5/9/1
f 19/19/1 18/22/1 24/15/1 25/10/1
f 18/22/1 17/1/1 23/4/1 24/15/1
f 42/26/2 32/27/2 31/28/2 48/29/2
f 36/30/2 26/31/2 33/32/2 45/33/2
f 30/34/2 50/35/2 41/36/2 29/37/2
f 45/33/2 33/32/2 32/27/2 42/26/2
f 48/29/2 31/28/2 28/38/2 39/39/2
f 50/35/2 49/40/2 40/41/2 41/36/2
f 49/40/2 48/29/2 39/39/2 40/41/2
f 35/42/2 47/43/2 44/44/2 34/45/2
f 47/43/2 46/46/2 43/47/2 44/44/2
f 46/46/2 45/33/2 42/26/2 43/47/2
f 27/48/2 38/49/2 47/43/2 35/42/2
f 38/49/2 37/50/2 46/46/2 47/43/2
f 37/50/2 36/30/2 45/33/2 46/46/2
f 34/45/2 44/44/2 50/35/2 30/34/2
f 44/44/2 43/47/2 49/40/2 50/35/2
f 43/47/2 42/26/2 48/29/2 49/40/2
f 67/51/3 57/52/3 56/53/3 73/54/3
f 61/55/3 51/56/3 58/57/3 70/58/3
f 55/59/3 75/60/3 66/61/3 54/62/3
f 70/58/3 58/57/3 57/52/3 67/51/3
f 73/54/3 56/53/3 53/63/3 64/64/3
f 75/60/3 74/65/3 65/66/3 66/61/3
f 74/65/3 73/54/3 64/64/3 65/66/3
f 60/67/3 72/68/3 69/69/3 59/70/3
f 72/68/3 71/71/3 68/72/3 69/69/3
f 71/71/3 70/58/3 67/51/3 68/72/3
f 52/73/3 63/74/3 72/68/3 60/67/3
f 63/74/3 62/75/3 71/71/3 72/68/3
f 62/75/3 61/55/3 70/58/3 71/71/3
f 59/70/3 69/69/3 75/60/3 55/59/3
f 69/69/3 68/72/3 74/65/3 75/60/3
f 68/72/3 67/51/3 73/54/3 74/65/3
f 92/76/2 82/77/2 81/78/2 98/79/2
f 86/80/2 76/81/2 83/82/2 95/83/2
f 80/84/2 100/85/2 91/86/2 79/87/2
f 95/83/2 83/82/2 82/77/2 92/76/2
f 98/79/2 81/78/2 78/88/2 89/89/2
f 100/85/2 99/90/2 90/91/2 91/86/2
f 99/90/2 98/79/2 89/89/2 90/91/2
f 85/92/2 97/93/2 94/94/2 84/95/2
f 97/93/2 96/96/2 93/97/2 94/94/2
f 96/96/2 95/83/2 92/76/2 93/97/2
f 77/98/2 88/99/2 97/93/2 85/92/2
f 88/99/2 87/100/2 96/96/2 97/93/2
f 87/100/2 86/80/2 95/83/2 96/96/2
f 84/95/2 94/94/2 100/85/2 80/84/2
f 94/94/2 93/97/2 99/90/2 100/85/2
f 93/97/2 92/76/2 98/79/2 99/90/2
f 117/101/4 107/102/4 106/103/4 123/104/4
f 111/105/5 101/106/5 108/107/5 120/108/5
f 105/109/5 125/110/5 116/111/5 104/112/5
f 120/108/4 108/107/4 107/102/4 117/101/4
f 123/104/5 106/103/5 103/113/5 114/114/5
f 125/110/5 124/115/5 115/116/5 116/111/5
f 124/115/4 123/104/4 114/114/4 115/116/4
f 110/117/5 122/118/5 119/119/5 109/120/5
f 122/118/5 121/121/5 118/122/5 119/119/5
f 121/121/5 120/108/5 117/101/5 118/122/5
f 102/123/4 113/124/4 122/118/4 110/117/4
f 113/124/4 112/125/4 121/121/4 122/118/4
f 112/125/4 111/105/4 120/108/4 121/121/4
f 109/120/4 119/119/4 125/110/4 105/109/4
f 119/119/4 118/122/4 124/115/4 125/110/4
f 118/122/4 117/101/4 123/104/4 124/115/4
f 142/126/6 132/127/6 131/128/6 148/129/6
f 136/130/6 126/131/6 133/132/6 145/133/6
f 130/134/6 150/135/6 141/136/6 129/137/6
f 145/133/6 133/132/6 132/127/6 142/126/6
f 148/129/6 131/128/6 128/138/6 139/139/6
f 150/135/6 149/140/6 140/141/6 141/136/6
f 149/140/6 148/129/6 139/139/6 140/141/6
f 135/142/6 147/143/6 144/144/6 134/145/6
f 147/143/6 146/146/6 143/147/6 144/144/6
f 146/146/6 145/133/6 142/126/6 143/147/6
f 127/148/6 138/149/6 147/143/6 135/142/6
f 138/149/6 137/150/6 146/146/6 147/143/6
f 137/150/6 136/130/6 145/133/6 146/146/6
f 134/145/6 144/144/6 150/135/6 130/134/6
f 144/144/6 143/147/6 149/140/6 150/135/6
f 143/147/6 142/126/6 148/129/6 149/140/6
