# Blender 5.0.1
# www.blender.org
mtllib toilet_paper.mtl
o Cube
v 1.447473 1.005045 -0.118926
v 1.526958 1.010527 -0.594203
v 1.658988 1.014728 -0.950114
v 1.474670 1.016371 -1.134858
v 1.476212 -0.983535 -1.154186
v 1.660530 -0.985178 -0.969442
v 0.957001 1.000632 0.083690
v 0.960787 -0.999426 0.086474
v 0.901419 1.001357 -0.412314
v 0.370110 1.000000 -1.000000
v 0.370110 -1.000000 -1.000000
v 0.902648 -0.998652 -0.413151
v 0.370110 1.000000 1.000000
v 0.992358 1.000140 0.360819
v 0.995575 -0.999914 0.363810
v 0.370110 -1.000000 1.000000
v -0.370110 1.000000 -1.000000
v -1.000000 1.000000 -0.370109
v -1.000000 -1.000000 -0.370109
v -0.370110 -1.000000 -1.000000
v -1.000000 1.000000 0.370109
v -0.370110 1.000000 1.000000
v -0.370110 -1.000000 1.000000
v -1.000000 -1.000000 0.370109
v 1.270034 1.001357 0.236914
v 1.352874 -0.987676 -0.825760
v 1.291401 -0.992984 -0.416012
v 1.170768 -0.997244 -0.072023
v 1.164164 1.002829 -0.071758
v 1.285839 1.007031 -0.407764
v 1.350119 1.012262 -0.809506
v 1.277601 -0.998742 0.239300
v 1.453183 -0.994976 -0.126498
v 1.529737 -0.989411 -0.610425
vn -0.9351 0.0021 -0.3545
vn 0.9935 0.0012 -0.1135
vn 0.4057 0.0023 0.9140
vn 0.0029 -0.9999 -0.0111
vn -0.0029 0.9999 0.0111
vn 0.7079 0.0074 -0.7062
vn 0.7412 0.0004 -0.6713
vn -0.7071 -0.0000 0.7071
vn 0.7148 0.0011 0.6993
vn -0.7071 -0.0000 -0.7071
vn -0.0000 -0.0000 -1.0000
vn 0.9386 -0.0021 0.3450
vn -0.0003 1.0000 0.0001
vn 0.0003 -1.0000 -0.0001
vn -0.0000 -0.0000 1.0000
vn -1.0000 -0.0000 -0.0000
vn 0.8983 0.0024 0.4395
vn 0.9870 0.0011 0.1606
vn -0.0045 1.0000 0.0044
vn -0.0064 0.9999 0.0086
vn -0.0058 0.9999 0.0113
vn 0.0043 -1.0000 -0.0044
vn 0.0064 -0.9999 -0.0087
vn 0.0058 -0.9999 -0.0113
vn -0.6013 -0.0021 -0.7990
vn -0.9420 -0.0022 -0.3357
vn -0.9882 -0.0011 -0.1532
vt 0.396057 0.625457
vt 0.362561 0.623412
vt 0.362968 0.617545
vt 0.396463 0.619610
vt 0.394464 0.651016
vt 0.361027 0.649277
vt 0.361484 0.640765
vt 0.395022 0.642724
vt 0.361304 0.746725
vt 0.394786 0.744568
vt 0.395160 0.749643
vt 0.361679 0.751909
vt 0.424602 0.677649
vt 0.425877 0.670916
vt 0.418873 0.665727
vt 0.417576 0.671939
vt 0.427689 0.670986
vt 0.426108 0.677621
vt 0.419389 0.671699
vt 0.420968 0.665578
vt 0.363296 0.613167
vt 0.396788 0.615247
vt 0.393894 0.664091
vt 0.360377 0.662798
vt 0.393486 0.717783
vt 0.359865 0.718714
vt 0.359645 0.703409
vt 0.393210 0.703150
vt 0.360280 0.731448
vt 0.394009 0.729915
vt 0.359951 0.675455
vt 0.393490 0.676294
vt 0.393235 0.690973
vt 0.359666 0.690708
vt 0.362804 0.766804
vt 0.396263 0.764479
vt 0.396788 0.770856
vt 0.363332 0.773176
vt 0.450805 0.701908
vt 0.464869 0.715510
vt 0.464338 0.733508
vt 0.448791 0.748454
vt 0.430948 0.748220
vt 0.415911 0.732995
vt 0.415900 0.715230
vt 0.431172 0.700096
vt 0.438522 0.699947
vt 0.450396 0.748267
vt 0.465387 0.732653
vt 0.465194 0.714580
vt 0.450561 0.701475
vt 0.438074 0.699940
vt 0.430702 0.700413
vt 0.416077 0.716272
vt 0.416801 0.734088
vt 0.432493 0.748751
vt 0.395642 0.756346
vt 0.362173 0.758664
vt 0.431531 0.694715
vt 0.437006 0.689779
vt 0.430260 0.687402
vt 0.433103 0.680046
vt 0.436106 0.689694
vt 0.430781 0.694924
vt 0.431735 0.679933
vt 0.429264 0.687480
vt 0.361744 0.636359
vt 0.395273 0.638376
vt 0.362113 0.630293
vt 0.395623 0.632339
s 0
usemtl toilet_paper
f 26/1/1 31/2/1 4/3/1 5/4/1
f 12/5/2 9/6/2 7/7/2 8/8/2
f 14/9/3 15/10/3 32/11/3 25/12/3
f 34/13/4 26/14/4 5/15/4 6/16/4
f 31/17/5 2/18/5 3/19/5 4/20/5
f 5/4/6 4/3/6 3/21/6 6/22/6
f 9/6/7 12/5/7 11/23/7 10/24/7
f 23/25/8 22/26/8 21/27/8 24/28/8
f 13/29/9 16/30/9 15/10/9 14/9/9
f 17/31/10 20/32/10 19/33/10 18/34/10
f 20/32/11 17/31/11 10/24/11 11/23/11
f 2/35/12 34/36/12 6/37/12 3/38/12
f 9/39/13 10/40/13 17/41/13 18/42/13 21/43/13 22/44/13 13/45/13 14/46/13 7/47/13
f 19/48/14 20/49/14 11/50/14 12/51/14 8/52/14 15/53/14 16/54/14 23/55/14 24/56/14
f 16/30/15 13/29/15 22/26/15 23/25/15
f 24/28/16 21/27/16 18/34/16 19/33/16
f 25/12/17 32/11/17 33/57/17 1/58/17
f 1/58/18 33/57/18 34/36/18 2/35/18
f 7/47/19 14/46/19 25/59/19 29/60/19
f 29/60/20 25/59/20 1/61/20 30/62/20
f 30/62/21 1/61/21 2/18/21 31/17/21
f 15/53/22 8/52/22 28/63/22 32/64/22
f 32/64/23 28/63/23 27/65/23 33/66/23
f 33/66/24 27/65/24 26/14/24 34/13/24
f 8/8/25 7/7/25 29/67/25 28/68/25
f 28/68/26 29/67/26 30/69/26 27/70/26
f 27/70/27 30/69/27 31/2/27 26/1/27
