# Blender 4.2.0
# www.blender.org
mtllib Gold_local.mtl
o Cube
v -0.925908 0.436237 0.642400
v -0.825663 0.422906 -0.375481
v 0.952230 0.454041 0.536869
v 1.078312 0.499526 -0.779534
v -0.589879 -0.000000 1.105651
v -0.585253 0.153275 0.932328
v -0.849841 0.286812 0.874520
v -0.979304 0.379743 0.691173
v -0.987564 0.462545 0.563717
v -1.165047 0.516285 0.426001
v -1.364971 0.579507 0.241100
v -1.462985 0.604349 0.058435
v -1.431649 0.593868 -0.102634
v -1.338803 0.560539 -0.256763
v -1.084865 0.488461 -0.343371
v -0.893624 0.371104 -0.425728
v -0.914260 0.275051 -0.471186
v -0.905379 0.148802 -0.497732
v -0.909351 -0.000000 -0.513083
v -0.589641 0.444069 -0.377089
v -0.370198 0.483762 -0.410363
v -0.138341 0.510859 -0.445306
v 0.075892 0.527094 -0.476053
v 0.336629 0.522999 -0.534226
v 0.707684 0.537599 -0.718661
v 0.959939 0.530490 -0.796987
v 1.121120 0.418850 -0.816587
v 1.160366 0.296650 -0.858318
v 1.178353 0.153401 -0.887378
v 1.177503 -0.000000 -0.897577
v 1.108918 0.530005 -0.668832
v 1.131101 0.552207 -0.474282
v 1.096392 0.551496 -0.181443
v 1.111836 0.561299 0.041503
v 1.134034 0.553377 0.198578
v 1.101192 0.526738 0.341215
v 1.027496 0.488248 0.459625
v 1.026046 0.396999 0.582816
v 0.933984 0.296558 0.858683
v 0.616358 0.153401 0.932246
v 0.629257 -0.000000 1.105651
v 0.782315 0.466307 0.558375
v 0.543112 0.493622 0.582173
v 0.275820 0.525305 0.603501
v -0.041448 0.535676 0.634264
v -0.344456 0.523459 0.657531
v -0.589095 0.490684 0.663017
v -0.791835 0.456941 0.655356
v -1.020031 -0.000000 0.882531
v -1.098572 0.156091 0.837541
v -1.166288 0.292625 0.657081
v -1.105312 0.395882 0.602963
v -1.378108 -0.000000 0.503697
v -1.369306 0.161915 0.496983
v -1.341131 0.312194 0.480235
v -1.270327 0.431600 0.448583
v -1.598962 0.000000 0.276996
v -1.587374 0.167582 0.273527
v -1.550743 0.328070 0.265785
v -1.486184 0.472996 0.257580
v -1.719068 0.000000 0.069002
v -1.704624 0.170115 0.069002
v -1.661390 0.333140 0.069002
v -1.589510 0.481988 0.069002
v -1.675854 0.000000 -0.111593
v -1.662456 0.167582 -0.108768
v -1.621795 0.328070 -0.102460
v -1.553135 0.474400 -0.095996
v -1.559885 0.000000 -0.300911
v -1.548025 0.161915 -0.293834
v -1.513097 0.316157 -0.278100
v -1.452680 0.455188 -0.260373
v -1.374252 0.000000 -0.468184
v -1.360936 0.156091 -0.453126
v -1.335852 0.302983 -0.425957
v -1.221966 0.418627 -0.370929
v -0.529265 -0.000000 -0.769376
v -0.528735 0.156091 -0.765194
v -0.528433 0.292711 -0.626654
v -0.542810 0.375528 -0.451839
v -0.297896 -0.000000 -1.184765
v -0.303334 0.161915 -1.166999
v -0.310047 0.316157 -0.953207
v -0.321379 0.426585 -0.612191
v -0.069700 -0.000000 -1.232386
v -0.078884 0.167582 -1.213917
v -0.084181 0.328070 -0.989388
v -0.092044 0.442650 -0.632503
v 0.141111 0.000000 -1.042904
v 0.135967 0.170115 -1.019831
v 0.129961 0.333140 -0.880541
v 0.117579 0.444998 -0.628857
v 0.362720 0.000000 -0.798995
v 0.364540 0.167523 -0.776286
v 0.376911 0.315045 -0.717710
v 0.376554 0.430064 -0.628438
v 0.717210 0.000000 -0.889297
v 0.718382 0.161915 -0.876232
v 0.718022 0.314776 -0.842746
v 0.717020 0.442070 -0.792525
v 0.993094 0.000000 -0.962126
v 0.994899 0.156091 -0.950703
v 0.985543 0.302983 -0.916382
v 0.968300 0.431759 -0.862905
v 1.385765 -0.000000 -0.785584
v 1.384132 0.156091 -0.777001
v 1.349838 0.302983 -0.756525
v 1.271177 0.431759 -0.730772
v 1.404993 -0.000000 -0.400298
v 1.404083 0.161915 -0.399728
v 1.371909 0.316157 -0.412942
v 1.295627 0.454641 -0.455713
v 1.487328 -0.000000 -0.102662
v 1.477273 0.167582 -0.099707
v 1.406508 0.328070 -0.096927
v 1.261155 0.464913 -0.110330
v 1.615491 0.000000 0.079036
v 1.602285 0.170115 0.079162
v 1.519886 0.333140 0.075172
v 1.346854 0.478852 0.064243
v 1.645436 0.000000 0.253671
v 1.631235 0.167582 0.251139
v 1.546685 0.328070 0.241181
v 1.370949 0.472494 0.224248
v 1.602202 0.000000 0.416697
v 1.548379 0.161915 0.407508
v 1.474502 0.316157 0.392089
v 1.318121 0.451709 0.368874
v 1.193040 0.000000 0.886585
v 1.291723 0.156091 0.772940
v 1.313978 0.302983 0.542413
v 1.199271 0.422094 0.489797
v 0.501677 -0.000000 1.370379
v 0.494089 0.156091 1.221224
v 0.596530 0.301109 0.898574
v 0.821128 0.396066 0.652465
v 0.352829 -0.000000 1.442259
v 0.347759 0.161915 1.263495
v 0.409868 0.315697 0.924415
v 0.579102 0.411214 0.683439
v 0.189804 -0.000000 1.485493
v 0.187271 0.167582 1.278107
v 0.209705 0.328070 0.975384
v 0.310870 0.437193 0.709398
v 0.019689 0.000000 1.499937
v 0.019689 0.170115 1.279754
v -0.008262 0.333140 0.986539
v -0.012480 0.445694 0.739792
v -0.150426 0.000000 1.485493
v -0.147893 0.167582 1.278107
v -0.213248 0.327811 0.978438
v -0.332216 0.434924 0.760124
v -0.313452 0.000000 1.442259
v -0.308381 0.161915 1.263495
v -0.397230 0.313051 0.930801
v -0.593411 0.406215 0.753244
v -0.462299 0.000000 1.370379
v -0.454711 0.156091 1.221224
v -0.565212 0.294352 0.904678
v -0.803312 0.385313 0.742520
v 0.937984 0.583689 -0.660560
v 0.664017 0.585052 -0.577253
v 0.280558 0.577089 -0.401669
v 0.019664 0.592117 -0.374283
v -0.213303 0.580993 -0.340914
v -0.459778 0.544812 -0.311779
v -0.755824 0.497616 -0.310734
v 0.871126 0.581364 -0.430670
v 0.595303 0.594227 -0.376718
v 0.259520 0.619264 -0.274275
v -0.028636 0.634073 -0.251484
v -0.293643 0.622363 -0.218876
v -0.558780 0.583984 -0.192128
v -1.001846 0.573794 -0.231473
v 0.818700 0.575303 -0.179414
v 0.545317 0.608925 -0.164401
v 0.261721 0.651345 -0.141767
v -0.062487 0.665546 -0.113028
v -0.360776 0.651345 -0.080019
v -0.648006 0.608925 -0.056862
v -1.089636 0.616904 -0.085169
v 0.840378 0.588439 0.012201
v 0.561081 0.622312 -0.004316
v 0.270245 0.665546 0.004252
v -0.076082 0.679989 0.035859
v -0.397197 0.665546 0.070149
v -0.674179 0.622312 0.098792
v -1.108988 0.626990 0.075647
v 0.860944 0.578167 0.171490
v 0.573848 0.608925 0.155045
v 0.271100 0.651345 0.160838
v -0.084132 0.665546 0.193902
v -0.412102 0.651345 0.228578
v -0.679803 0.608925 0.258144
v -1.065702 0.602213 0.244232
v 0.844593 0.552237 0.320253
v 0.569425 0.582559 0.312667
v 0.272477 0.622551 0.321473
v -0.076889 0.636017 0.354706
v -0.400029 0.622433 0.387941
v -0.659405 0.582184 0.411836
v -0.927474 0.547491 0.420218
v 0.806350 0.516118 0.451043
v 0.552971 0.548200 0.457577
v 0.272411 0.584665 0.472957
v -0.059969 0.596827 0.505307
v -0.370394 0.583594 0.532795
v -0.617609 0.546453 0.546380
v -0.823652 0.505115 0.553451
v -0.651166 0.008652 -0.676100
v -0.655441 0.047007 -0.675672
v -0.655441 0.047007 -0.817927
v -0.651166 0.008474 -0.819295
v -0.513185 0.047007 -0.817927
v -0.517460 0.008474 -0.819295
v -0.513185 0.047007 -0.675672
v -0.517460 0.008652 -0.676100
v -0.669376 0.008335 -0.707344
v -0.675541 0.047007 -0.707927
v -0.675541 0.008134 -0.746800
v -0.682272 0.047007 -0.746800
v -0.669376 0.008157 -0.785742
v -0.675541 0.047007 -0.785672
v -0.621204 0.008335 -0.838274
v -0.623186 0.047007 -0.838028
v -0.584313 0.008134 -0.844183
v -0.584313 0.047007 -0.844758
v -0.547422 0.008335 -0.838274
v -0.545441 0.047007 -0.838028
v -0.499251 0.008157 -0.785742
v -0.493085 0.047007 -0.785672
v -0.493085 0.008134 -0.746800
v -0.486355 0.047007 -0.746800
v -0.499251 0.008335 -0.707344
v -0.493085 0.047007 -0.707927
v -0.547422 0.008335 -0.655325
v -0.545441 0.047007 -0.655571
v -0.584313 0.008134 -0.649929
v -0.584313 0.047007 -0.648841
v -0.621204 0.008335 -0.655325
v -0.623186 0.047007 -0.655571
v -0.534455 0.047007 -0.798563
v -0.584313 0.047007 -0.802879
v -0.634171 0.047007 -0.798563
v -0.530777 0.047007 -0.746800
v -0.584313 0.047007 -0.746800
v -0.637849 0.047007 -0.746800
v -0.534455 0.047007 -0.695037
v -0.584313 0.047007 -0.690721
v -0.634171 0.047007 -0.695037
v -0.537374 0.007743 -0.797247
v -0.584313 0.007436 -0.801170
v -0.631253 0.007743 -0.797247
v -0.533971 0.007559 -0.745575
v -0.584313 0.007209 -0.745924
v -0.634655 0.007559 -0.745575
v -0.537374 0.007835 -0.693556
v -0.584313 0.007534 -0.690285
v -0.631253 0.007835 -0.693556
v 0.283147 0.008652 -1.040710
v 0.278873 0.047007 -1.040282
v 0.278873 0.047007 -1.182538
v 0.283147 0.008474 -1.183905
v 0.421128 0.047007 -1.182538
v 0.416854 0.008474 -1.183905
v 0.421128 0.047007 -1.040282
v 0.416853 0.008652 -1.040710
v 0.264938 0.008335 -1.071954
v 0.258772 0.047007 -1.072537
v 0.258772 0.008134 -1.111410
v 0.252042 0.047007 -1.111410
v 0.264938 0.008157 -1.150352
v 0.258772 0.047007 -1.150283
v 0.313109 0.008335 -1.202884
v 0.311128 0.047007 -1.202638
v 0.350000 0.008134 -1.208793
v 0.350000 0.047007 -1.209368
v 0.386891 0.008335 -1.202884
v 0.388873 0.047007 -1.202638
v 0.435063 0.008157 -1.150352
v 0.441229 0.047007 -1.150283
v 0.441229 0.008134 -1.111410
v 0.447959 0.047007 -1.111410
v 0.435063 0.008335 -1.071954
v 0.441229 0.047007 -1.072537
v 0.386891 0.008335 -1.019935
v 0.388873 0.047007 -1.020182
v 0.350000 0.008134 -1.014539
v 0.350000 0.047007 -1.013451
v 0.313109 0.008335 -1.019935
v 0.311128 0.047007 -1.020182
v 0.399858 0.047007 -1.163173
v 0.350000 0.047007 -1.167489
v 0.300142 0.047007 -1.163173
v 0.403536 0.047007 -1.111410
v 0.350000 0.047007 -1.111410
v 0.296464 0.047007 -1.111410
v 0.399858 0.047007 -1.059647
v 0.350000 0.047007 -1.055331
v 0.300142 0.047007 -1.059647
v 0.396940 0.007743 -1.161857
v 0.350000 0.007436 -1.165780
v 0.303061 0.007743 -1.161857
v 0.400342 0.007559 -1.110185
v 0.350000 0.007209 -1.110534
v 0.299659 0.007559 -1.110185
v 0.396940 0.007835 -1.058166
v 0.350000 0.007534 -1.054895
v 0.303061 0.007835 -1.058166
v 0.640795 0.008652 -1.062865
v 0.636520 0.047007 -1.062437
v 0.636520 0.047007 -1.204693
v 0.640795 0.008474 -1.206060
v 0.778775 0.047007 -1.204693
v 0.774501 0.008474 -1.206060
v 0.778775 0.047007 -1.062437
v 0.774501 0.008652 -1.062865
v 0.622585 0.008335 -1.094109
v 0.616419 0.047007 -1.094692
v 0.616419 0.008134 -1.133565
v 0.609689 0.047007 -1.133565
v 0.622585 0.008157 -1.172508
v 0.616419 0.047007 -1.172438
v 0.670757 0.008335 -1.225039
v 0.668775 0.047007 -1.224793
v 0.707648 0.008134 -1.230948
v 0.707648 0.047007 -1.231523
v 0.744539 0.008335 -1.225039
v 0.746520 0.047007 -1.224793
v 0.792710 0.008157 -1.172508
v 0.798876 0.047007 -1.172438
v 0.798876 0.008134 -1.133565
v 0.805606 0.047007 -1.133565
v 0.792710 0.008335 -1.094109
v 0.798876 0.047007 -1.094692
v 0.744539 0.008335 -1.042091
v 0.746520 0.047007 -1.042337
v 0.707648 0.008134 -1.036695
v 0.707648 0.047007 -1.035607
v 0.670757 0.008335 -1.042091
v 0.668775 0.047007 -1.042337
v 0.757506 0.047007 -1.185328
v 0.707648 0.047007 -1.189644
v 0.657790 0.047007 -1.185328
v 0.761184 0.047007 -1.133565
v 0.707648 0.047007 -1.133565
v 0.654112 0.047007 -1.133565
v 0.757506 0.047007 -1.081802
v 0.707648 0.047007 -1.077486
v 0.657790 0.047007 -1.081802
v 0.754587 0.007743 -1.184012
v 0.707648 0.007436 -1.187935
v 0.660708 0.007743 -1.184012
v 0.757989 0.007559 -1.132340
v 0.707648 0.007209 -1.132689
v 0.657306 0.007559 -1.132340
v 0.754587 0.007835 -1.080321
v 0.707648 0.007534 -1.077050
v 0.660708 0.007835 -1.080321
v 0.425573 0.008652 -0.746363
v 0.421299 0.047007 -0.745935
v 0.421299 0.047007 -0.888191
v 0.425573 0.008474 -0.889558
v 0.563554 0.047007 -0.888191
v 0.559279 0.008474 -0.889558
v 0.563554 0.047007 -0.745935
v 0.559279 0.008652 -0.746363
v 0.407364 0.008335 -0.777607
v 0.401198 0.047007 -0.778190
v 0.401198 0.008134 -0.817063
v 0.394468 0.047007 -0.817063
v 0.407364 0.008157 -0.856006
v 0.401198 0.047007 -0.855936
v 0.455535 0.008335 -0.908537
v 0.453554 0.047007 -0.908291
v 0.492426 0.008134 -0.914446
v 0.492426 0.047007 -0.915021
v 0.529317 0.008335 -0.908537
v 0.531299 0.047007 -0.908291
v 0.577489 0.008157 -0.856006
v 0.583655 0.047007 -0.855936
v 0.583655 0.008134 -0.817063
v 0.590385 0.047007 -0.817063
v 0.577489 0.008335 -0.777607
v 0.583655 0.047007 -0.778190
v 0.529317 0.008335 -0.725589
v 0.531299 0.047007 -0.725835
v 0.492426 0.008134 -0.720193
v 0.492426 0.047007 -0.719105
v 0.455535 0.008335 -0.725589
v 0.453554 0.047007 -0.725835
v 0.542284 0.047007 -0.868826
v 0.492426 0.047007 -0.873142
v 0.442568 0.047007 -0.868826
v 0.545962 0.047007 -0.817063
v 0.492426 0.047007 -0.817063
v 0.438890 0.047007 -0.817063
v 0.542284 0.047007 -0.765300
v 0.492426 0.047007 -0.760984
v 0.442568 0.047007 -0.765300
v 0.539366 0.007743 -0.867511
v 0.492426 0.007436 -0.871433
v 0.445487 0.007743 -0.867511
v 0.542768 0.007559 -0.815838
v 0.492426 0.007209 -0.816188
v 0.442085 0.007559 -0.815838
v 0.539366 0.007835 -0.763819
v 0.492426 0.007534 -0.760548
v 0.445487 0.007835 -0.763819
v 1.058577 0.008652 -0.872964
v 1.054302 0.047007 -0.872536
v 1.054302 0.047007 -1.014792
v 1.058577 0.008474 -1.016159
v 1.196558 0.047007 -1.014792
v 1.192283 0.008474 -1.016159
v 1.196558 0.047007 -0.872536
v 1.192283 0.008652 -0.872964
v 1.040367 0.008335 -0.904208
v 1.034202 0.047007 -0.904791
v 1.034202 0.008134 -0.943664
v 1.027472 0.047007 -0.943664
v 1.040367 0.008157 -0.982607
v 1.034202 0.047007 -0.982537
v 1.088539 0.008335 -1.035138
v 1.086557 0.047007 -1.034892
v 1.125430 0.008134 -1.041047
v 1.125430 0.047007 -1.041622
v 1.162321 0.008335 -1.035138
v 1.164303 0.047007 -1.034892
v 1.210493 0.008157 -0.982607
v 1.216658 0.047007 -0.982537
v 1.216658 0.008134 -0.943664
v 1.223388 0.047007 -0.943664
v 1.210493 0.008335 -0.904208
v 1.216658 0.047007 -0.904791
v 1.162321 0.008335 -0.852189
v 1.164303 0.047007 -0.852436
v 1.125430 0.008134 -0.846793
v 1.125430 0.047007 -0.845705
v 1.088539 0.008335 -0.852189
v 1.086557 0.047007 -0.852436
v 1.175288 0.047007 -0.995427
v 1.125430 0.047007 -0.999743
v 1.075572 0.047007 -0.995427
v 1.178966 0.047007 -0.943664
v 1.125430 0.047007 -0.943664
v 1.071894 0.047007 -0.943664
v 1.175288 0.047007 -0.891901
v 1.125430 0.047007 -0.887585
v 1.075572 0.047007 -0.891901
v 1.172370 0.007743 -0.994111
v 1.125430 0.007436 -0.998034
v 1.078491 0.007743 -0.994111
v 1.175772 0.007559 -0.942439
v 1.125430 0.007209 -0.942788
v 1.075088 0.007559 -0.942439
v 1.172370 0.007835 -0.890420
v 1.125430 0.007534 -0.887149
v 1.078491 0.007835 -0.890420
v 1.425719 0.008652 -0.160834
v 1.421445 0.047007 -0.160407
v 1.421445 0.047007 -0.302662
v 1.425719 0.008474 -0.304030
v 1.563700 0.047007 -0.302662
v 1.559425 0.008474 -0.304030
v 1.563700 0.047007 -0.160407
v 1.559425 0.008652 -0.160834
v 1.407510 0.008335 -0.192079
v 1.401344 0.047007 -0.192662
v 1.401344 0.008134 -0.231535
v 1.394614 0.047007 -0.231535
v 1.407510 0.008157 -0.270477
v 1.401344 0.047007 -0.270407
v 1.455681 0.008335 -0.323009
v 1.453699 0.047007 -0.322763
v 1.492572 0.008134 -0.328918
v 1.492572 0.047007 -0.329493
v 1.529463 0.008335 -0.323009
v 1.531445 0.047007 -0.322763
v 1.577635 0.008157 -0.270477
v 1.583800 0.047007 -0.270407
v 1.583800 0.008134 -0.231535
v 1.590531 0.047007 -0.231535
v 1.577635 0.008335 -0.192079
v 1.583800 0.047007 -0.192662
v 1.529463 0.008335 -0.140060
v 1.531445 0.047007 -0.140306
v 1.492572 0.008134 -0.134664
v 1.492572 0.047007 -0.133576
v 1.455681 0.008335 -0.140060
v 1.453699 0.047007 -0.140306
v 1.542430 0.047007 -0.283298
v 1.492572 0.047007 -0.287614
v 1.442714 0.047007 -0.283298
v 1.546109 0.047007 -0.231535
v 1.492572 0.047007 -0.231535
v 1.439036 0.047007 -0.231535
v 1.542430 0.047007 -0.179772
v 1.492572 0.047007 -0.175455
v 1.442714 0.047007 -0.179772
v 1.539512 0.007743 -0.281982
v 1.492572 0.007436 -0.285905
v 1.445633 0.007743 -0.281982
v 1.542914 0.007559 -0.230310
v 1.492572 0.007209 -0.230659
v 1.442231 0.007559 -0.230310
v 1.539512 0.007835 -0.178291
v 1.492572 0.007534 -0.175020
v 1.445633 0.007835 -0.178291
v 0.946622 0.008652 1.256771
v 0.942347 0.047007 1.257198
v 0.942347 0.047007 1.114943
v 0.946622 0.008474 1.113575
v 1.084602 0.047007 1.114943
v 1.080328 0.008474 1.113575
v 1.084602 0.047007 1.257198
v 1.080328 0.008652 1.256771
v 0.928412 0.008335 1.225526
v 0.922246 0.047007 1.224943
v 0.922246 0.008134 1.186071
v 0.915516 0.047007 1.186071
v 0.928412 0.008157 1.147128
v 0.922246 0.047007 1.147198
v 0.976584 0.008335 1.094596
v 0.974602 0.047007 1.094842
v 1.013475 0.008134 1.088687
v 1.013475 0.047007 1.088112
v 1.050366 0.008335 1.094596
v 1.052347 0.047007 1.094842
v 1.098537 0.008157 1.147128
v 1.104703 0.047007 1.147198
v 1.104703 0.008134 1.186071
v 1.111433 0.047007 1.186071
v 1.098537 0.008335 1.225526
v 1.104703 0.047007 1.224943
v 1.050366 0.008335 1.277545
v 1.052347 0.047007 1.277299
v 1.013475 0.008134 1.282941
v 1.013475 0.047007 1.284029
v 0.976584 0.008335 1.277545
v 0.974602 0.047007 1.277299
v 1.063333 0.047007 1.134308
v 1.013475 0.047007 1.129991
v 0.963617 0.047007 1.134308
v 1.067011 0.047007 1.186071
v 1.013475 0.047007 1.186071
v 0.959939 0.047007 1.186071
v 1.063333 0.047007 1.237833
v 1.013475 0.047007 1.242149
v 0.963617 0.047007 1.237833
v 1.060414 0.007743 1.135623
v 1.013475 0.007436 1.131700
v 0.966535 0.007743 1.135623
v 1.063816 0.007559 1.187295
v 1.013475 0.007209 1.186946
v 0.963133 0.007559 1.187295
v 1.060414 0.007835 1.239314
v 1.013475 0.007534 1.242585
v 0.966535 0.007835 1.239314
v -1.009148 0.008652 1.263333
v -1.013423 0.047007 1.263761
v -1.013423 0.047007 1.121506
v -1.009148 0.008474 1.120138
v -0.871167 0.047007 1.121506
v -0.875442 0.008474 1.120138
v -0.871167 0.047007 1.263761
v -0.875442 0.008652 1.263333
v -1.027358 0.008335 1.232089
v -1.033523 0.047007 1.231506
v -1.033523 0.008134 1.192633
v -1.040253 0.047007 1.192633
v -1.027358 0.008157 1.153690
v -1.033523 0.047007 1.153761
v -0.979186 0.008335 1.101159
v -0.981168 0.047007 1.101405
v -0.942295 0.008134 1.095250
v -0.942295 0.047007 1.094675
v -0.905404 0.008335 1.101159
v -0.903422 0.047007 1.101405
v -0.857232 0.008157 1.153690
v -0.851067 0.047007 1.153761
v -0.851067 0.008134 1.192633
v -0.844337 0.047007 1.192633
v -0.857232 0.008335 1.232089
v -0.851067 0.047007 1.231506
v -0.905404 0.008335 1.284108
v -0.903422 0.047007 1.283861
v -0.942295 0.008134 1.289504
v -0.942295 0.047007 1.290592
v -0.979186 0.008335 1.284108
v -0.981168 0.047007 1.283861
v -0.892437 0.047007 1.140870
v -0.942295 0.047007 1.136554
v -0.992153 0.047007 1.140870
v -0.888759 0.047007 1.192633
v -0.942295 0.047007 1.192633
v -0.995831 0.047007 1.192633
v -0.892437 0.047007 1.244396
v -0.942295 0.047007 1.248712
v -0.992153 0.047007 1.244396
v -0.895356 0.007743 1.142186
v -0.942295 0.007436 1.138263
v -0.989235 0.007743 1.142186
v -0.891953 0.007559 1.193858
v -0.942295 0.007209 1.193509
v -0.992637 0.007559 1.193858
v -0.895356 0.007835 1.245877
v -0.942295 0.007534 1.249148
v -0.989235 0.007835 1.245877
v -0.636837 0.237326 0.953617
v -0.649037 0.272340 0.964328
v -0.650478 0.311897 0.827690
v -0.638250 0.276977 0.816028
v -0.511379 0.340881 0.834615
v -0.507510 0.304219 0.822536
v -0.509938 0.301324 0.971252
v -0.506097 0.264568 0.960125
v -0.654892 0.242006 0.922633
v -0.669019 0.277214 0.932368
v -0.661279 0.251533 0.884381
v -0.675993 0.286652 0.894703
v -0.655649 0.263640 0.847282
v -0.669806 0.298833 0.857693
v -0.609116 0.288229 0.799219
v -0.619142 0.324059 0.809954
v -0.573061 0.297200 0.795284
v -0.581200 0.333850 0.805382
v -0.536971 0.303262 0.802810
v -0.543122 0.339899 0.813738
v -0.489298 0.298302 0.855563
v -0.491398 0.336007 0.866574
v -0.482870 0.288708 0.893262
v -0.484423 0.326569 0.904239
v -0.488542 0.276668 0.930914
v -0.490610 0.314388 0.941249
v -0.535118 0.252389 0.978534
v -0.541274 0.289162 0.988989
v -0.571093 0.243183 0.981866
v -0.579216 0.279371 0.993561
v -0.607263 0.237356 0.974942
v -0.617294 0.273322 0.985204
v -0.531981 0.331163 0.852179
v -0.580776 0.322205 0.845607
v -0.629484 0.310846 0.847326
v -0.527860 0.317518 0.902077
v -0.580208 0.306610 0.899471
v -0.632556 0.295703 0.896865
v -0.530932 0.302375 0.951617
v -0.579640 0.291016 0.953336
v -0.628436 0.282058 0.946763
v -0.526606 0.293345 0.842544
v -0.572479 0.284584 0.836407
v -0.618402 0.274218 0.837974
v -0.522717 0.279498 0.892291
v -0.571872 0.269009 0.889409
v -0.621167 0.258984 0.887390
v -0.525575 0.264598 0.942165
v -0.571377 0.253842 0.942940
v -0.617371 0.245470 0.937596
v -0.662224 0.484055 0.618654
v -0.674425 0.519069 0.629365
v -0.675866 0.558627 0.492728
v -0.663638 0.523707 0.481065
v -0.536767 0.587610 0.499652
v -0.532898 0.550949 0.487573
v -0.535326 0.548053 0.636289
v -0.531485 0.511297 0.625162
v -0.680280 0.488735 0.587671
v -0.694406 0.523943 0.597405
v -0.686667 0.498262 0.549418
v -0.701381 0.533381 0.559740
v -0.681037 0.510369 0.512320
v -0.695194 0.545562 0.522730
v -0.634503 0.534958 0.464256
v -0.644530 0.570788 0.474991
v -0.598449 0.543930 0.460321
v -0.606588 0.580579 0.470419
v -0.562358 0.549991 0.467847
v -0.568510 0.586628 0.478775
v -0.514686 0.545031 0.520600
v -0.516786 0.582737 0.531611
v -0.508258 0.535437 0.558299
v -0.509811 0.573298 0.569276
v -0.513929 0.523398 0.595951
v -0.515998 0.561118 0.606286
v -0.560505 0.499118 0.643571
v -0.566662 0.535892 0.654026
v -0.596481 0.489913 0.646903
v -0.604604 0.526100 0.658598
v -0.632650 0.484085 0.639979
v -0.642682 0.520051 0.650241
v -0.557369 0.577892 0.517216
v -0.606164 0.568934 0.510644
v -0.654872 0.557575 0.512363
v -0.553248 0.564247 0.567114
v -0.605596 0.553340 0.564508
v -0.657944 0.542432 0.561903
v -0.556320 0.549104 0.616654
v -0.605028 0.537746 0.618373
v -0.653823 0.528787 0.611800
v -0.551993 0.540074 0.507581
v -0.597867 0.531314 0.501444
v -0.643790 0.520947 0.503011
v -0.548105 0.526227 0.557328
v -0.597260 0.515738 0.554446
v -0.646555 0.505713 0.552427
v -0.550962 0.511327 0.607202
v -0.596764 0.500571 0.607977
v -0.642758 0.492199 0.602633
v 0.256790 0.554927 0.518452
v 0.265832 0.590241 0.531128
v 0.280127 0.633258 0.396287
v 0.271118 0.598070 0.382664
v 0.413087 0.582719 0.394260
v 0.396088 0.550569 0.380759
v 0.398793 0.539703 0.529100
v 0.381759 0.507426 0.516546
v 0.242801 0.570563 0.488994
v 0.250287 0.607136 0.500840
v 0.240935 0.584507 0.451620
v 0.247902 0.621281 0.464090
v 0.250619 0.594113 0.414626
v 0.258099 0.630645 0.427147
v 0.300982 0.593041 0.364203
v 0.312294 0.627877 0.376775
v 0.335988 0.581545 0.358012
v 0.349303 0.616102 0.369842
v 0.369943 0.566829 0.363152
v 0.384960 0.600257 0.375667
v 0.409627 0.533673 0.412202
v 0.428633 0.565825 0.424547
v 0.411469 0.519687 0.449020
v 0.431017 0.551679 0.461298
v 0.401810 0.510124 0.486570
v 0.420821 0.542316 0.498240
v 0.351559 0.511508 0.536564
v 0.366625 0.545084 0.548613
v 0.316468 0.522805 0.542140
v 0.329616 0.556859 0.555546
v 0.282598 0.537720 0.537615
v 0.293960 0.572704 0.549720
v 0.391261 0.584420 0.412918
v 0.345095 0.603438 0.409538
v 0.298061 0.619845 0.414339
v 0.389498 0.567461 0.461931
v 0.339460 0.586480 0.462694
v 0.289422 0.605500 0.463457
v 0.380858 0.553115 0.511048
v 0.333825 0.569523 0.515850
v 0.287658 0.588540 0.512469
v 0.375010 0.550330 0.401708
v 0.331428 0.567921 0.398561
v 0.287266 0.583681 0.403046
v 0.372935 0.533334 0.450580
v 0.325799 0.551014 0.450855
v 0.278831 0.569103 0.452015
v 0.364622 0.519056 0.500024
v 0.320319 0.534477 0.503697
v 0.276877 0.552408 0.501362
v -0.868806 0.588499 -0.097707
v -0.877410 0.621857 -0.115109
v -0.858062 0.559175 -0.241336
v -0.849310 0.525246 -0.224687
v -0.718049 0.582270 -0.231343
v -0.717713 0.546953 -0.215295
v -0.737398 0.644952 -0.105116
v -0.737209 0.610206 -0.088315
v -0.882443 0.571496 -0.126566
v -0.892806 0.604381 -0.145142
v -0.883123 0.552932 -0.161918
v -0.894143 0.586160 -0.180107
v -0.871760 0.536794 -0.196050
v -0.882232 0.570124 -0.214127
v -0.817224 0.521625 -0.239360
v -0.823581 0.555554 -0.256906
v -0.780088 0.524833 -0.241920
v -0.784406 0.558900 -0.260147
v -0.744605 0.533603 -0.234177
v -0.747062 0.568176 -0.251445
v -0.704318 0.564413 -0.184099
v -0.702653 0.599745 -0.201311
v -0.703544 0.582554 -0.149101
v -0.701316 0.617966 -0.166345
v -0.715001 0.599115 -0.114616
v -0.713227 0.634002 -0.132325
v -0.769488 0.614216 -0.071842
v -0.771878 0.648572 -0.089546
v -0.806508 0.610427 -0.069554
v -0.811053 0.645227 -0.086305
v -0.842106 0.602237 -0.077025
v -0.848397 0.635950 -0.095008
v -0.741618 0.587349 -0.215654
v -0.790102 0.577353 -0.222986
v -0.839761 0.571161 -0.222659
v -0.745038 0.610755 -0.169465
v -0.797730 0.602063 -0.173226
v -0.850422 0.593372 -0.176987
v -0.755698 0.632966 -0.123793
v -0.805357 0.626773 -0.123466
v -0.853842 0.616777 -0.130798
v -0.740228 0.552789 -0.196797
v -0.785859 0.543170 -0.203435
v -0.832627 0.537548 -0.203392
v -0.743887 0.575948 -0.150624
v -0.793348 0.567312 -0.154311
v -0.842983 0.559602 -0.157697
v -0.754342 0.598560 -0.104831
v -0.800952 0.592116 -0.105089
v -0.846740 0.583319 -0.111425
vn -0.7519 -0.0581 0.6567
vn -0.7066 0.3322 0.6248
vn -0.5302 0.5593 0.6373
vn -0.7140 0.0657 0.6970
vn -0.6961 0.1995 0.6897
vn -0.5995 0.4106 0.6871
vn -0.8643 0.0717 0.4978
vn -0.8464 0.2205 0.4848
vn -0.8009 0.3848 0.4588
vn -0.9694 0.0819 -0.2315
vn -0.9419 0.2487 -0.2259
vn -0.8800 0.4237 -0.2146
vn -0.8483 0.0808 -0.5233
vn -0.8217 0.2338 -0.5197
vn -0.7678 0.3904 -0.5080
vn -0.6545 0.1039 -0.7489
vn -0.6202 0.2304 -0.7499
vn -0.4181 0.5024 -0.7568
vn -0.2733 0.5102 0.8155
vn -0.3238 0.3698 0.8708
vn -0.4156 0.6387 0.6475
vn -0.2956 0.7923 0.5338
vn -0.3257 0.7269 0.6045
vn -0.4243 0.6346 0.6459
vn -0.6016 0.6972 0.3898
vn -0.6929 0.6976 -0.1825
vn -0.6109 0.6332 -0.4752
vn -0.2340 0.4851 -0.8425
vn -0.0156 0.5573 -0.8302
vn -0.0711 0.4642 -0.8829
vn -0.0920 0.1974 -0.9760
vn -0.0954 0.1041 -0.9900
vn -0.8728 0.0202 -0.4877
vn -0.7444 0.5082 -0.4331
vn -0.4971 0.8041 -0.3260
vn -0.2046 0.0980 -0.9739
vn -0.1384 0.8027 -0.5801
vn -0.0964 0.9465 -0.3078
vn 0.6643 0.1190 -0.7380
vn 0.4106 0.6877 -0.5987
vn 0.0753 0.9354 -0.3455
vn 0.7313 0.0987 -0.6749
vn 0.5998 0.4212 -0.6804
vn 0.2255 0.8150 -0.5339
vn -0.2571 0.1066 -0.9605
vn -0.2925 0.2909 -0.9110
vn -0.3524 0.4654 -0.8119
vn -0.2561 0.0766 -0.9636
vn -0.2508 0.2058 -0.9459
vn -0.2367 0.3502 -0.9063
vn -0.5684 0.0610 -0.8205
vn -0.4405 0.4671 -0.7667
vn -0.1752 0.7667 -0.6176
vn -0.0640 0.7243 -0.6865
vn -0.3765 0.7874 -0.4881
vn -0.1273 0.9345 -0.3323
vn -0.0664 0.9061 -0.4178
vn -0.0354 0.8099 -0.5856
vn -0.3819 0.5575 -0.7371
vn -0.2175 0.5570 -0.8016
vn 0.2745 0.5364 -0.7981
vn 0.2997 0.3966 -0.8677
vn 0.3174 0.2308 -0.9198
vn 0.3281 0.0630 -0.9425
vn 0.9986 0.0095 -0.0514
vn 0.9743 0.2166 -0.0625
vn 0.8639 0.4949 -0.0938
vn 0.9671 0.0349 -0.2520
vn 0.9379 0.3010 -0.1727
vn 0.7809 0.6243 -0.0211
vn 0.8166 0.0615 -0.5739
vn 0.7676 0.3615 -0.5292
vn 0.6262 0.6714 -0.3964
vn 0.9829 0.0786 -0.1664
vn 0.8828 0.4497 -0.1355
vn 0.6413 0.7638 -0.0733
vn 0.9100 0.2008 0.3628
vn 0.7941 0.4340 0.4255
vn 0.5850 0.7411 0.3294
vn 0.7749 0.1296 0.6186
vn 0.6399 0.5489 0.5378
vn 0.4637 0.6672 0.5829
vn 0.4722 0.0546 -0.8798
vn 0.4563 0.2290 -0.8598
vn 0.4219 0.4150 -0.8061
vn 0.3972 0.7488 -0.5305
vn 0.4966 0.8579 -0.1317
vn 0.4796 0.8766 0.0389
vn 0.4159 0.8953 -0.1593
vn 0.3275 0.9448 -0.0053
vn 0.2902 0.9265 0.2395
vn 0.2469 0.8615 0.4438
vn 0.2125 0.7840 0.5832
vn 0.3309 0.7949 0.5085
vn 0.3673 0.4328 0.8233
vn 0.2260 0.6280 0.7447
vn 0.2708 0.6963 0.6648
vn 0.1438 0.8880 0.4367
vn 0.1205 0.8876 0.4445
vn 0.1281 0.7557 0.6423
vn 0.1260 0.8843 0.4496
vn 0.1443 0.8885 0.4356
vn 0.0354 0.7844 0.6193
vn 0.0332 0.8785 0.4766
vn 0.0540 0.9128 0.4048
vn -0.0354 0.7844 0.6193
vn -0.0311 0.8755 0.4822
vn -0.0176 0.9023 0.4308
vn -0.1281 0.7557 0.6423
vn -0.1358 0.8753 0.4641
vn -0.1469 0.8306 0.5371
vn -0.2708 0.6963 0.6648
vn -0.1652 0.8810 0.4434
vn -0.1411 0.7836 0.6051
vn 0.8203 0.4378 0.3680
vn 0.5653 0.2547 0.7846
vn 0.0858 0.9149 0.3945
vn 0.1666 0.7927 0.5865
vn 0.1367 0.8053 0.5769
vn 0.1378 0.7874 0.6008
vn 0.0827 0.7744 0.6273
vn 0.0174 0.7606 0.6490
vn -0.0917 0.7393 0.6671
vn -0.1282 0.7502 0.6487
vn -0.1934 0.7584 0.6225
vn -0.1232 0.8157 0.5652
vn -0.5959 0.2351 0.7678
vn -0.8197 0.4285 0.3800
vn 0.0238 0.9997 -0.0084
vn -0.0405 0.9854 -0.1654
vn 0.0230 0.9495 -0.3129
vn -0.0906 0.9273 -0.3632
vn -0.1759 0.8874 -0.4262
vn -0.0365 0.8357 -0.5479
vn 0.0843 0.9964 0.0001
vn 0.0829 0.9890 -0.1227
vn 0.0272 0.9739 -0.2253
vn -0.0722 0.9687 -0.2375
vn -0.1636 0.9461 -0.2795
vn 0.0149 0.9740 -0.2261
vn 0.1210 0.9888 -0.0874
vn 0.1414 0.9849 -0.1000
vn 0.0339 0.9948 -0.0960
vn -0.0573 0.9929 -0.1047
vn -0.1598 0.9797 -0.1211
vn 0.0186 0.9973 -0.0713
vn 0.1096 0.9920 0.0622
vn 0.1443 0.9863 0.0799
vn 0.0491 0.9946 0.0917
vn -0.0346 0.9956 0.0876
vn -0.1470 0.9862 0.0761
vn -0.0077 0.9932 0.1165
vn 0.0990 0.9798 0.1739
vn 0.1382 0.9756 0.1704
vn 0.0552 0.9827 0.1768
vn -0.0231 0.9832 0.1809
vn -0.1337 0.9732 0.1869
vn -0.0631 0.9614 0.2679
vn 0.1125 0.9571 0.2670
vn 0.1373 0.9606 0.2418
vn 0.0598 0.9680 0.2436
vn -0.0162 0.9661 0.2577
vn -0.1241 0.9504 0.2854
vn -0.1376 0.9282 0.3456
vn 0.2756 0.9075 -0.3169
vn -0.0953 0.9285 -0.3589
vn -0.2215 0.8853 -0.4088
vn -0.0447 0.8817 -0.4696
vn -0.1344 0.7873 -0.6017
vn -0.1843 0.7506 -0.6345
vn -0.1617 0.6751 -0.7198
vn 0.0067 0.6513 -0.7588
vn 0.0274 0.7850 -0.6189
vn -0.0347 0.9633 -0.2660
vn -0.0617 0.9954 -0.0733
vn -0.0735 0.9830 0.1684
vn -0.0903 0.9185 0.3848
vn -0.1428 0.8768 0.4592
vn -0.1888 0.8696 0.4563
vn -0.1611 0.8733 0.4598
vn -0.1085 0.8864 0.4501
vn -0.0017 0.9021 0.4316
vn 0.0718 0.9069 0.4151
vn 0.1396 0.9028 0.4067
vn 0.1341 0.8962 0.4230
vn 0.1057 0.8824 0.4585
vn 0.0855 0.9433 0.3208
vn 0.0758 0.9790 0.1894
vn 0.0902 0.9949 0.0450
vn 0.0953 0.9934 -0.0635
vn 0.1004 0.9945 0.0285
vn 0.1856 0.9823 -0.0265
vn -0.9738 -0.1607 0.1607
vn -0.9736 -0.1614 -0.1614
vn -0.8504 -0.1142 0.5136
vn -0.8591 -0.1066 -0.5006
vn -0.1646 -0.0084 -0.9863
vn 0.1646 -0.0084 -0.9863
vn -0.5318 -0.0254 -0.8465
vn 0.5318 -0.0254 -0.8465
vn 0.9736 -0.1614 -0.1614
vn 0.9738 -0.1607 0.1607
vn 0.8591 -0.1066 -0.5006
vn 0.8504 -0.1142 0.5136
vn 0.1581 -0.0148 0.9873
vn -0.1581 -0.0148 0.9873
vn 0.5486 -0.0465 0.8348
vn -0.5486 -0.0465 0.8348
vn -0.0000 1.0000 -0.0000
vn 0.0164 -0.9997 -0.0184
vn 0.0130 -0.9999 -0.0036
vn 0.0149 -0.9999 0.0068
vn 0.0226 -0.9995 0.0210
vn 0.0080 -0.9998 -0.0163
vn 0.0069 -1.0000 -0.0041
vn 0.0069 -1.0000 0.0058
vn 0.0075 -0.9999 0.0150
vn -0.0080 -0.9998 -0.0163
vn -0.0069 -1.0000 -0.0041
vn -0.0069 -1.0000 0.0058
vn -0.0075 -0.9999 0.0150
vn -0.0164 -0.9997 -0.0184
vn -0.0130 -0.9999 -0.0036
vn -0.0149 -0.9999 0.0068
vn -0.0226 -0.9995 0.0210
vn -0.9170 -0.3940 0.0630
vn -0.9199 -0.3050 -0.2466
vn -0.8024 -0.4233 0.4206
vn -0.8228 -0.1359 -0.5519
vn -0.1691 0.2329 -0.9577
vn 0.1527 0.2999 -0.9417
vn -0.5232 0.1032 -0.8459
vn 0.5167 0.3199 -0.7942
vn 0.9841 0.0917 -0.1518
vn 0.9875 0.0028 0.1578
vn 0.8573 0.2142 -0.4682
vn 0.8606 -0.0768 0.5034
vn 0.1676 -0.2562 0.9520
vn -0.1415 -0.3206 0.9366
vn 0.5547 -0.1640 0.8157
vn -0.5183 -0.3876 0.7623
vn -0.2092 0.9387 0.2740
vn 0.2250 -0.9300 -0.2907
vn 0.2219 -0.9350 -0.2768
vn 0.2238 -0.9374 -0.2667
vn 0.2315 -0.9395 -0.2526
vn 0.2168 -0.9324 -0.2892
vn 0.2160 -0.9361 -0.2775
vn 0.2160 -0.9389 -0.2681
vn 0.2167 -0.9412 -0.2592
vn 0.2013 -0.9356 -0.2900
vn 0.2024 -0.9390 -0.2782
vn 0.2026 -0.9417 -0.2687
vn 0.2020 -0.9443 -0.2599
vn 0.1930 -0.9366 -0.2923
vn 0.1965 -0.9403 -0.2781
vn 0.1947 -0.9435 -0.2682
vn 0.1872 -0.9487 -0.2548
vn 0.8572 0.2142 -0.4682
vn -0.9812 0.1552 0.1151
vn -0.9488 0.2519 -0.1905
vn -0.8854 0.0458 0.4626
vn -0.7890 0.3623 -0.4962
vn -0.0576 0.3493 -0.9352
vn 0.2501 0.2324 -0.9399
vn -0.4206 0.4224 -0.8029
vn 0.5734 0.0446 -0.8180
vn 0.8712 -0.4398 -0.2182
vn 0.8392 -0.5367 0.0873
vn 0.8169 -0.2481 -0.5207
vn 0.7042 -0.5585 0.4384
vn 0.0435 -0.3678 0.9289
vn -0.2520 -0.2555 0.9334
vn 0.4130 -0.4885 0.7686
vn -0.6125 -0.0987 0.7843
vn 0.3411 0.8845 0.3183
vn -0.3238 -0.8845 -0.3359
vn -0.3285 -0.8879 -0.3219
vn -0.3278 -0.8917 -0.3121
vn -0.3218 -0.8985 -0.2986
vn -0.3319 -0.8823 -0.3338
vn -0.3342 -0.8857 -0.3223
vn -0.3352 -0.8887 -0.3129
vn -0.3355 -0.8916 -0.3042
vn -0.3468 -0.8766 -0.3336
vn -0.3471 -0.8808 -0.3221
vn -0.3480 -0.8838 -0.3127
vn -0.3495 -0.8862 -0.3040
vn -0.3544 -0.8729 -0.3354
vn -0.3528 -0.8787 -0.3216
vn -0.3556 -0.8811 -0.3117
vn -0.3642 -0.8824 -0.2980
vn -0.9621 -0.2292 0.1475
vn -0.9180 -0.3717 -0.1380
vn -0.8939 -0.0126 0.4481
vn -0.7654 -0.4542 -0.4560
vn -0.0269 -0.4687 -0.8829
vn 0.2971 -0.4153 -0.8598
vn -0.4054 -0.4818 -0.7769
vn 0.6414 -0.3091 -0.7022
vn 0.9985 -0.0555 -0.0013
vn 0.9548 0.0870 0.2843
vn 0.9257 -0.1752 -0.3353
vn 0.7800 0.2635 0.5675
vn 0.0230 0.4477 0.8939
vn -0.2882 0.3964 0.8717
vn 0.4317 0.4158 0.8004
vn -0.6483 0.2377 0.7234
vn -0.1131 0.8829 -0.4558
vn 0.1317 -0.8881 0.4405
vn 0.1264 -0.8823 0.4534
vn 0.1268 -0.8774 0.4627
vn 0.1325 -0.8696 0.4757
vn 0.1231 -0.8886 0.4418
vn 0.1205 -0.8835 0.4526
vn 0.1191 -0.8792 0.4614
vn 0.1185 -0.8750 0.4695
vn 0.1075 -0.8912 0.4407
vn 0.1068 -0.8858 0.4517
vn 0.1056 -0.8814 0.4604
vn 0.1036 -0.8774 0.4684
vn 0.0995 -0.8934 0.4382
vn 0.1008 -0.8865 0.4516
vn 0.0975 -0.8822 0.4607
vn 0.0879 -0.8769 0.4726
vt 0.439553 0.023798
vt 0.401578 0.062092
vt 0.280727 0.051492
vt 0.280725 0.000139
vt 0.348224 0.097694
vt 0.281101 0.094903
vt 0.344420 0.133029
vt 0.285496 0.131298
vt 0.192722 0.060804
vt 0.177878 0.012334
vt 0.206083 0.100778
vt 0.218568 0.134280
vt 0.134845 0.084594
vt 0.107633 0.044275
vt 0.157707 0.117849
vt 0.177016 0.145949
vt 0.099328 0.116433
vt 0.062682 0.083222
vt 0.128811 0.144304
vt 0.152960 0.168735
vt 0.066921 0.164892
vt 0.023106 0.143568
vt 0.102497 0.183789
vt 0.131346 0.201700
vt 0.046874 0.229240
vt 0.000139 0.221334
vt 0.086455 0.236021
vt 0.121217 0.257431
vt 0.583805 0.072823
vt 0.535026 0.125127
vt 0.447091 0.124730
vt 0.385094 0.140878
vt 0.382843 0.165419
vt 0.355420 0.168781
vt 0.296500 0.163485
vt 0.233332 0.164737
vt 0.194365 0.174024
vt 0.172377 0.195199
vt 0.153268 0.224022
vt 0.147923 0.284450
vt 0.155787 0.356753
vt 0.128298 0.346651
vt 0.095741 0.351420
vt 0.057535 0.360544
vt 0.011905 0.363496
vt 0.012683 0.506254
vt 0.061860 0.507312
vt 0.051124 0.633392
vt 0.006889 0.646553
vt 0.117786 0.479949
vt 0.102484 0.595319
vt 0.167116 0.444278
vt 0.178917 0.529083
vt 0.070253 0.683337
vt 0.034914 0.710297
vt 0.129767 0.649261
vt 0.217395 0.587924
vt 0.133042 0.725388
vt 0.099468 0.766555
vt 0.185324 0.688843
vt 0.255313 0.640966
vt 0.225667 0.780272
vt 0.188777 0.822522
vt 0.266964 0.743169
vt 0.304599 0.710505
vt 0.305156 0.869286
vt 0.271691 0.907842
vt 0.335032 0.835251
vt 0.360200 0.808280
vt 0.368181 0.922821
vt 0.345072 0.963034
vt 0.386452 0.886873
vt 0.401568 0.856763
vt 0.188668 0.418076
vt 0.221465 0.478480
vt 0.257570 0.540986
vt 0.291377 0.598148
vt 0.329612 0.673586
vt 0.380822 0.783654
vt 0.415893 0.834513
vt 0.435771 0.852501
vt 0.433459 0.874467
vt 0.427824 0.906051
vt 0.418003 0.943626
vt 0.403561 0.987754
vt 0.479451 0.999861
vt 0.480430 0.952951
vt 0.580812 0.922510
vt 0.598469 0.970877
vt 0.478346 0.915271
vt 0.558155 0.882035
vt 0.470411 0.881557
vt 0.527781 0.851034
vt 0.666511 0.879500
vt 0.692923 0.928453
vt 0.636985 0.834753
vt 0.599213 0.791336
vt 0.724187 0.848099
vt 0.757996 0.889244
vt 0.689720 0.812872
vt 0.647771 0.772647
vt 0.760608 0.816448
vt 0.799919 0.847590
vt 0.723800 0.787107
vt 0.681724 0.750092
vt 0.784707 0.773103
vt 0.830940 0.800367
vt 0.743851 0.750341
vt 0.703137 0.718271
vt 0.820998 0.655895
vt 0.872090 0.619161
vt 0.757457 0.693993
vt 0.714499 0.676461
vt 0.458909 0.839726
vt 0.497094 0.814477
vt 0.552465 0.762521
vt 0.600655 0.727679
vt 0.636199 0.706361
vt 0.661512 0.677612
vt 0.678418 0.643920
vt 0.687520 0.615110
vt 0.714230 0.623934
vt 0.766835 0.564854
vt 0.790370 0.465836
vt 0.854042 0.436545
vt 0.872090 0.341159
vt 0.810803 0.373928
vt 0.793113 0.329609
vt 0.858828 0.288106
vt 0.740933 0.466905
vt 0.710928 0.413881
vt 0.700654 0.566325
vt 0.671707 0.502188
vt 0.766340 0.286372
vt 0.836770 0.237250
vt 0.684041 0.355124
vt 0.630085 0.431836
vt 0.735002 0.243518
vt 0.806844 0.190070
vt 0.645669 0.299411
vt 0.578604 0.348500
vt 0.702820 0.201163
vt 0.770278 0.147743
vt 0.605830 0.249659
vt 0.524216 0.268326
vt 0.668949 0.162978
vt 0.727889 0.111846
vt 0.560840 0.210129
vt 0.472498 0.207531
vt 0.631368 0.133058
vt 0.680834 0.083661
vt 0.521563 0.170773
vt 0.428185 0.166065
vt 0.666725 0.572732
vt 0.632954 0.512471
vt 0.590010 0.445759
vt 0.540313 0.366249
vt 0.490927 0.292102
vt 0.447996 0.234430
vt 0.409435 0.191261
vt 0.434615 0.807514
vt 0.398453 0.746593
vt 0.423540 0.693838
vt 0.463936 0.757688
vt 0.351736 0.631050
vt 0.379113 0.600107
vt 0.310798 0.562649
vt 0.333019 0.528186
vt 0.276580 0.501465
vt 0.294288 0.460373
vt 0.237974 0.437079
vt 0.254178 0.392541
vt 0.189756 0.363323
vt 0.187421 0.290249
vt 0.458618 0.643297
vt 0.505022 0.704136
vt 0.410896 0.575010
vt 0.360256 0.495493
vt 0.316805 0.421025
vt 0.274635 0.349572
vt 0.210551 0.254686
vt 0.496167 0.617359
vt 0.548744 0.675286
vt 0.445476 0.550476
vt 0.392303 0.466498
vt 0.345777 0.387697
vt 0.306659 0.319677
vt 0.239416 0.231226
vt 0.533925 0.592495
vt 0.586426 0.653060
vt 0.481354 0.523312
vt 0.427054 0.437306
vt 0.378976 0.357505
vt 0.340860 0.292127
vt 0.277511 0.214668
vt 0.569490 0.564718
vt 0.617133 0.625341
vt 0.519012 0.495671
vt 0.465453 0.410627
vt 0.416931 0.332126
vt 0.378047 0.269588
vt 0.334986 0.210767
vt 0.601508 0.536411
vt 0.642217 0.595766
vt 0.555273 0.469023
vt 0.503892 0.387223
vt 0.455370 0.311967
vt 0.415307 0.253373
vt 0.381112 0.206429
vt 0.873630 0.753108
vt 0.849777 0.749564
vt 0.857286 0.723227
vt 0.878937 0.732794
vt 0.871700 0.699905
vt 0.890851 0.715581
vt 0.876037 0.771323
vt 0.852443 0.777179
vt 0.893465 0.682335
vt 0.906908 0.703267
vt 0.924734 0.699463
vt 0.921785 0.673857
vt 0.953819 0.677919
vt 0.943455 0.703588
vt 0.979605 0.697288
vt 0.959644 0.713525
vt 0.993796 0.723235
vt 0.969480 0.728253
vt 0.971744 0.748306
vt 0.996345 0.751421
vt 0.988972 0.778138
vt 0.967253 0.768679
vt 0.974402 0.801510
vt 0.955513 0.786007
vt 0.952098 0.818386
vt 0.939961 0.796794
vt 0.921340 0.800345
vt 0.923846 0.825912
vt 0.892271 0.821431
vt 0.902642 0.795866
vt 0.866586 0.802502
vt 0.886156 0.786316
vt 0.912376 0.987675
vt 0.928158 0.970222
vt 0.952723 0.974228
vt 0.934110 0.985635
vt 0.943345 0.944574
vt 0.966166 0.955986
vt 0.954752 0.917037
vt 0.972695 0.934287
vt 0.959247 0.893940
vt 0.970654 0.912552
vt 0.890676 0.981147
vt 0.901435 0.959632
vt 0.915841 0.930821
vt 0.930247 0.902011
vt 0.941005 0.880496
vt 0.872435 0.967703
vt 0.876929 0.944606
vt 0.888337 0.917069
vt 0.903524 0.891421
vt 0.919306 0.873968
vt 0.861028 0.949091
vt 0.858987 0.927357
vt 0.865516 0.905657
vt 0.878959 0.887416
vt 0.897572 0.876008
s 0
usemtl Material
f 49/1/1 50/2/1 54/3/1 53/4/1
f 50/2/2 51/5/2 55/6/2 54/3/2
f 51/5/3 52/7/3 56/8/3 55/6/3
f 53/4/4 54/3/4 58/9/4 57/10/4
f 54/3/5 55/6/5 59/11/5 58/9/5
f 55/6/6 56/8/6 60/12/6 59/11/6
f 57/10/7 58/9/7 62/13/7 61/14/7
f 58/9/8 59/11/8 63/15/8 62/13/8
f 59/11/9 60/12/9 64/16/9 63/15/9
f 61/14/10 62/13/10 66/17/10 65/18/10
f 62/13/11 63/15/11 67/19/11 66/17/11
f 63/15/12 64/16/12 68/20/12 67/19/12
f 65/18/13 66/17/13 70/21/13 69/22/13
f 66/17/14 67/19/14 71/23/14 70/21/14
f 67/19/15 68/20/15 72/24/15 71/23/15
f 69/22/16 70/21/16 74/25/16 73/26/16
f 70/21/17 71/23/17 75/27/17 74/25/17
f 71/23/18 72/24/18 76/28/18 75/27/18
f 5/29/19 6/30/19 50/2/19 49/1/19
f 6/30/20 7/31/20 51/5/20 50/2/20
f 7/31/21 8/32/21 52/7/21 51/5/21
f 8/32/22 1/33/22 9/34/22 52/7/22
f 52/7/23 9/34/23 10/35/23 56/8/23
f 56/8/24 10/35/24 11/36/24 60/12/24
f 60/12/25 11/36/25 12/37/25 64/16/25
f 64/16/26 12/37/26 13/38/26 68/20/26
f 68/20/27 13/38/27 14/39/27 72/24/27
f 72/24/28 14/39/28 15/40/28 76/28/28
f 76/28/29 15/40/29 2/41/29 16/42/29
f 75/27/30 76/28/30 16/42/30 17/43/30
f 74/25/31 75/27/31 17/43/31 18/44/31
f 73/26/32 74/25/32 18/44/32 19/45/32
f 77/46/33 78/47/33 82/48/33 81/49/33
f 78/47/34 79/50/34 83/51/34 82/48/34
f 79/50/35 80/52/35 84/53/35 83/51/35
f 81/49/36 82/48/36 86/54/36 85/55/36
f 82/48/37 83/51/37 87/56/37 86/54/37
f 83/51/38 84/53/38 88/57/38 87/56/38
f 85/55/39 86/54/39 90/58/39 89/59/39
f 86/54/40 87/56/40 91/60/40 90/58/40
f 87/56/41 88/57/41 92/61/41 91/60/41
f 89/59/42 90/58/42 94/62/42 93/63/42
f 90/58/43 91/60/43 95/64/43 94/62/43
f 91/60/44 92/61/44 96/65/44 95/64/44
f 93/63/45 94/62/45 98/66/45 97/67/45
f 94/62/46 95/64/46 99/68/46 98/66/46
f 95/64/47 96/65/47 100/69/47 99/68/47
f 97/67/48 98/66/48 102/70/48 101/71/48
f 98/66/49 99/68/49 103/72/49 102/70/49
f 99/68/50 100/69/50 104/73/50 103/72/50
f 19/45/51 18/44/51 78/47/51 77/46/51
f 18/44/52 17/43/52 79/50/52 78/47/52
f 17/43/53 16/42/53 80/52/53 79/50/53
f 16/42/54 2/41/54 20/74/54 80/52/54
f 80/52/55 20/74/55 21/75/55 84/53/55
f 84/53/56 21/75/56 22/76/56 88/57/56
f 88/57/57 22/76/57 23/77/57 92/61/57
f 92/61/58 23/77/58 24/78/58 96/65/58
f 96/65/59 24/78/59 25/79/59 100/69/59
f 100/69/60 25/79/60 26/80/60 104/73/60
f 104/73/61 26/80/61 4/81/61 27/82/61
f 103/72/62 104/73/62 27/82/62 28/83/62
f 102/70/63 103/72/63 28/83/63 29/84/63
f 101/71/64 102/70/64 29/84/64 30/85/64
f 105/86/65 106/87/65 110/88/65 109/89/65
f 106/87/66 107/90/66 111/91/66 110/88/66
f 107/90/67 108/92/67 112/93/67 111/91/67
f 109/89/68 110/88/68 114/94/68 113/95/68
f 110/88/69 111/91/69 115/96/69 114/94/69
f 111/91/70 112/93/70 116/97/70 115/96/70
f 113/95/71 114/94/71 118/98/71 117/99/71
f 114/94/72 115/96/72 119/100/72 118/98/72
f 115/96/73 116/97/73 120/101/73 119/100/73
f 117/99/74 118/98/74 122/102/74 121/103/74
f 118/98/75 119/100/75 123/104/75 122/102/75
f 119/100/76 120/101/76 124/105/76 123/104/76
f 121/103/77 122/102/77 126/106/77 125/107/77
f 122/102/78 123/104/78 127/108/78 126/106/78
f 123/104/79 124/105/79 128/109/79 127/108/79
f 125/107/80 126/106/80 130/110/80 129/111/80
f 126/106/81 127/108/81 131/112/81 130/110/81
f 127/108/82 128/109/82 132/113/82 131/112/82
f 30/85/83 29/84/83 106/87/83 105/86/83
f 29/84/84 28/83/84 107/90/84 106/87/84
f 28/83/85 27/82/85 108/92/85 107/90/85
f 27/82/86 4/81/86 31/114/86 108/92/86
f 108/92/87 31/114/87 32/115/87 112/93/87
f 112/93/88 32/115/88 33/116/88 116/97/88
f 116/97/89 33/116/89 34/117/89 120/101/89
f 120/101/90 34/117/90 35/118/90 124/105/90
f 124/105/91 35/118/91 36/119/91 128/109/91
f 128/109/92 36/119/92 37/120/92 132/113/92
f 132/113/93 37/120/93 3/121/93 38/122/93
f 131/112/94 132/113/94 38/122/94 39/123/94
f 130/110/95 131/112/95 39/123/95 40/124/95
f 129/111/96 130/110/96 40/124/96 41/125/96
f 133/126/97 134/127/97 138/128/97 137/129/97
f 134/127/98 135/130/98 139/131/98 138/128/98
f 135/130/99 136/132/99 140/133/99 139/131/99
f 137/129/100 138/128/100 142/134/100 141/135/100
f 138/128/101 139/131/101 143/136/101 142/134/101
f 139/131/102 140/133/102 144/137/102 143/136/102
f 141/135/103 142/134/103 146/138/103 145/139/103
f 142/134/104 143/136/104 147/140/104 146/138/104
f 143/136/105 144/137/105 148/141/105 147/140/105
f 145/139/106 146/138/106 150/142/106 149/143/106
f 146/138/107 147/140/107 151/144/107 150/142/107
f 147/140/108 148/141/108 152/145/108 151/144/108
f 149/143/109 150/142/109 154/146/109 153/147/109
f 150/142/110 151/144/110 155/148/110 154/146/110
f 151/144/111 152/145/111 156/149/111 155/148/111
f 153/147/112 154/146/112 158/150/112 157/151/112
f 154/146/113 155/148/113 159/152/113 158/150/113
f 155/148/114 156/149/114 160/153/114 159/152/114
f 41/125/115 40/124/115 134/127/115 133/126/115
f 40/124/116 39/123/116 135/130/116 134/127/116
f 39/123/117 38/122/117 136/132/117 135/130/117
f 38/122/118 3/121/118 42/154/118 136/132/118
f 136/132/119 42/154/119 43/155/119 140/133/119
f 140/133/120 43/155/120 44/156/120 144/137/120
f 144/137/121 44/156/121 45/157/121 148/141/121
f 148/141/122 45/157/122 46/158/122 152/145/122
f 152/145/123 46/158/123 47/159/123 156/149/123
f 156/149/124 47/159/124 48/160/124 160/153/124
f 160/153/125 48/160/125 1/33/125 8/32/125
f 159/152/126 160/153/126 8/32/126 7/31/126
f 158/150/127 159/152/127 7/31/127 6/30/127
f 157/151/128 158/150/128 6/30/128 5/29/128
f 161/161/129 162/162/129 169/163/129 168/164/129
f 162/162/130 163/165/130 170/166/130 169/163/130
f 163/165/131 164/167/131 171/168/131 170/166/131
f 164/167/132 165/169/132 172/170/132 171/168/132
f 165/169/133 166/171/133 173/172/133 172/170/133
f 166/171/134 167/173/134 174/174/134 173/172/134
f 168/164/135 169/163/135 176/175/135 175/176/135
f 169/163/136 170/166/136 177/177/136 176/175/136
f 170/166/137 171/168/137 178/178/137 177/177/137
f 171/168/138 172/170/138 179/179/138 178/178/138
f 172/170/139 173/172/139 180/180/139 179/179/139
f 173/172/140 174/174/140 181/181/140 180/180/140
f 175/176/141 176/175/141 183/182/141 182/183/141
f 176/175/142 177/177/142 184/184/142 183/182/142
f 177/177/143 178/178/143 185/185/143 184/184/143
f 178/178/144 179/179/144 186/186/144 185/185/144
f 179/179/145 180/180/145 187/187/145 186/186/145
f 180/180/146 181/181/146 188/188/146 187/187/146
f 182/183/147 183/182/147 190/189/147 189/190/147
f 183/182/148 184/184/148 191/191/148 190/189/148
f 184/184/149 185/185/149 192/192/149 191/191/149
f 185/185/150 186/186/150 193/193/150 192/192/150
f 186/186/151 187/187/151 194/194/151 193/193/151
f 187/187/152 188/188/152 195/195/152 194/194/152
f 189/190/153 190/189/153 197/196/153 196/197/153
f 190/189/154 191/191/154 198/198/154 197/196/154
f 191/191/155 192/192/155 199/199/155 198/198/155
f 192/192/156 193/193/156 200/200/156 199/199/156
f 193/193/157 194/194/157 201/201/157 200/200/157
f 194/194/158 195/195/158 202/202/158 201/201/158
f 196/197/159 197/196/159 204/203/159 203/204/159
f 197/196/160 198/198/160 205/205/160 204/203/160
f 198/198/161 199/199/161 206/206/161 205/205/161
f 199/199/162 200/200/162 207/207/162 206/206/162
f 200/200/163 201/201/163 208/208/163 207/207/163
f 201/201/164 202/202/164 209/209/164 208/208/164
f 4/81/165 26/80/165 161/161/165 31/114/165
f 26/80/166 25/79/166 162/162/166 161/161/166
f 25/79/167 24/78/167 163/165/167 162/162/167
f 24/78/168 23/77/168 164/167/168 163/165/168
f 23/77/169 22/76/169 165/169/169 164/167/169
f 22/76/170 21/75/170 166/171/170 165/169/170
f 21/75/171 20/74/171 167/173/171 166/171/171
f 20/74/172 2/41/172 15/40/172 167/173/172
f 167/173/173 15/40/173 14/39/173 174/174/173
f 174/174/174 14/39/174 13/38/174 181/181/174
f 181/181/175 13/38/175 12/37/175 188/188/175
f 188/188/176 12/37/176 11/36/176 195/195/176
f 195/195/177 11/36/177 10/35/177 202/202/177
f 202/202/178 10/35/178 9/34/178 209/209/178
f 209/209/179 9/34/179 1/33/179 48/160/179
f 208/208/180 209/209/180 48/160/180 47/159/180
f 207/207/181 208/208/181 47/159/181 46/158/181
f 206/206/182 207/207/182 46/158/182 45/157/182
f 205/205/183 206/206/183 45/157/183 44/156/183
f 204/203/184 205/205/184 44/156/184 43/155/184
f 203/204/185 204/203/185 43/155/185 42/154/185
f 37/120/186 203/204/186 42/154/186 3/121/186
f 36/119/187 196/197/187 203/204/187 37/120/187
f 35/118/188 189/190/188 196/197/188 36/119/188
f 34/117/189 182/183/189 189/190/189 35/118/189
f 33/116/190 175/176/190 182/183/190 34/117/190
f 32/115/191 168/164/191 175/176/191 33/116/191
f 31/114/192 161/161/192 168/164/192 32/115/192
f 218/210/193 219/211/193 221/212/193 220/213/193
f 220/213/194 221/212/194 223/214/194 222/215/194
f 210/216/195 211/217/195 219/211/195 218/210/195
f 222/215/196 223/214/196 212/218/196 213/219/196
f 224/220/197 225/221/197 227/222/197 226/223/197
f 226/223/198 227/222/198 229/224/198 228/225/198
f 213/219/199 212/218/199 225/221/199 224/220/199
f 228/225/200 229/224/200 214/226/200 215/227/200
f 230/228/201 231/229/201 233/230/201 232/231/201
f 232/231/202 233/230/202 235/232/202 234/233/202
f 215/227/203 214/226/203 231/229/203 230/228/203
f 234/233/204 235/232/204 216/234/204 217/235/204
f 236/236/205 237/237/205 239/238/205 238/239/205
f 238/239/206 239/238/206 241/240/206 240/241/206
f 217/235/207 216/234/207 237/237/207 236/236/207
f 240/241/208 241/240/208 211/217/208 210/216/208
f 229/242/209 242/243/209 231/244/209 214/245/209
f 242/243/209 245/246/209 233/247/209 231/244/209
f 245/246/209 248/248/209 235/249/209 233/247/209
f 248/248/209 237/250/209 216/251/209 235/249/209
f 227/252/209 243/253/209 242/243/209 229/242/209
f 243/253/209 246/254/209 245/246/209 242/243/209
f 246/254/209 249/255/209 248/248/209 245/246/209
f 249/255/209 239/256/209 237/250/209 248/248/209
f 225/257/209 244/258/209 243/253/209 227/252/209
f 244/258/209 247/259/209 246/254/209 243/253/209
f 247/259/209 250/260/209 249/255/209 246/254/209
f 250/260/209 241/261/209 239/256/209 249/255/209
f 212/262/209 223/263/209 244/258/209 225/257/209
f 223/263/209 221/264/209 247/259/209 244/258/209
f 221/264/209 219/265/209 250/260/209 247/259/209
f 219/265/209 211/266/209 241/261/209 250/260/209
f 215/245/210 230/242/210 251/243/210 228/244/210
f 230/242/211 232/252/211 254/253/211 251/243/211
f 232/252/212 234/257/212 257/258/212 254/253/212
f 234/257/213 217/262/213 236/263/213 257/258/213
f 228/244/214 251/243/214 252/246/214 226/247/214
f 251/243/215 254/253/215 255/254/215 252/246/215
f 254/253/216 257/258/216 258/259/216 255/254/216
f 257/258/217 236/263/217 238/264/217 258/259/217
f 226/247/218 252/246/218 253/248/218 224/249/218
f 252/246/219 255/254/219 256/255/219 253/248/219
f 255/254/220 258/259/220 259/260/220 256/255/220
f 258/259/221 238/264/221 240/265/221 259/260/221
f 224/249/222 253/248/222 222/250/222 213/251/222
f 253/248/223 256/255/223 220/256/223 222/250/223
f 256/255/224 259/260/224 218/261/224 220/256/224
f 259/260/225 240/265/225 210/266/225 218/261/225
f 268/210/193 269/211/193 271/212/193 270/213/193
f 270/213/194 271/212/194 273/214/194 272/215/194
f 260/216/195 261/217/195 269/211/195 268/210/195
f 272/215/196 273/214/196 262/218/196 263/219/196
f 274/220/197 275/221/197 277/222/197 276/223/197
f 276/223/198 277/222/198 279/224/198 278/225/198
f 263/219/199 262/218/199 275/221/199 274/220/199
f 278/225/200 279/224/200 264/226/200 265/227/200
f 280/228/201 281/229/201 283/230/201 282/231/201
f 282/231/202 283/230/202 285/232/202 284/233/202
f 265/227/203 264/226/203 281/229/203 280/228/203
f 284/233/204 285/232/204 266/234/204 267/235/204
f 286/236/205 287/237/205 289/238/205 288/239/205
f 288/239/206 289/238/206 291/240/206 290/241/206
f 267/235/207 266/234/207 287/237/207 286/236/207
f 290/241/208 291/240/208 261/217/208 260/216/208
f 279/242/209 292/243/209 281/244/209 264/245/209
f 292/243/209 295/246/209 283/247/209 281/244/209
f 295/246/209 298/248/209 285/249/209 283/247/209
f 298/248/209 287/250/209 266/251/209 285/249/209
f 277/252/209 293/253/209 292/243/209 279/242/209
f 293/253/209 296/254/209 295/246/209 292/243/209
f 296/254/209 299/255/209 298/248/209 295/246/209
f 299/255/209 289/256/209 287/250/209 298/248/209
f 275/257/209 294/258/209 293/253/209 277/252/209
f 294/258/209 297/259/209 296/254/209 293/253/209
f 297/259/209 300/260/209 299/255/209 296/254/209
f 300/260/209 291/261/209 289/256/209 299/255/209
f 262/262/209 273/263/209 294/258/209 275/257/209
f 273/263/209 271/264/209 297/259/209 294/258/209
f 271/264/209 269/265/209 300/260/209 297/259/209
f 269/265/209 261/266/209 291/261/209 300/260/209
f 265/245/210 280/242/210 301/243/210 278/244/210
f 280/242/211 282/252/211 304/253/211 301/243/211
f 282/252/212 284/257/212 307/258/212 304/253/212
f 284/257/213 267/262/213 286/263/213 307/258/213
f 278/244/214 301/243/214 302/246/214 276/247/214
f 301/243/215 304/253/215 305/254/215 302/246/215
f 304/253/216 307/258/216 308/259/216 305/254/216
f 307/258/217 286/263/217 288/264/217 308/259/217
f 276/247/218 302/246/218 303/248/218 274/249/218
f 302/246/219 305/254/219 306/255/219 303/248/219
f 305/254/220 308/259/220 309/260/220 306/255/220
f 308/259/221 288/264/221 290/265/221 309/260/221
f 274/249/222 303/248/222 272/250/222 263/251/222
f 303/248/223 306/255/223 270/256/223 272/250/223
f 306/255/224 309/260/224 268/261/224 270/256/224
f 309/260/225 290/265/225 260/266/225 268/261/225
f 318/210/193 319/211/193 321/212/193 320/213/193
f 320/213/194 321/212/194 323/214/194 322/215/194
f 310/216/195 311/217/195 319/211/195 318/210/195
f 322/215/196 323/214/196 312/218/196 313/219/196
f 324/220/197 325/221/197 327/222/197 326/223/197
f 326/223/198 327/222/198 329/224/198 328/225/198
f 313/219/199 312/218/199 325/221/199 324/220/199
f 328/225/200 329/224/200 314/226/200 315/227/200
f 330/228/201 331/229/201 333/230/201 332/231/201
f 332/231/202 333/230/202 335/232/202 334/233/202
f 315/227/203 314/226/203 331/229/203 330/228/203
f 334/233/204 335/232/204 316/234/204 317/235/204
f 336/236/205 337/237/205 339/238/205 338/239/205
f 338/239/206 339/238/206 341/240/206 340/241/206
f 317/235/207 316/234/207 337/237/207 336/236/207
f 340/241/208 341/240/208 311/217/208 310/216/208
f 329/242/209 342/243/209 331/244/209 314/245/209
f 342/243/209 345/246/209 333/247/209 331/244/209
f 345/246/209 348/248/209 335/249/209 333/247/209
f 348/248/209 337/250/209 316/251/209 335/249/209
f 327/252/209 343/253/209 342/243/209 329/242/209
f 343/253/209 346/254/209 345/246/209 342/243/209
f 346/254/209 349/255/209 348/248/209 345/246/209
f 349/255/209 339/256/209 337/250/209 348/248/209
f 325/257/209 344/258/209 343/253/209 327/252/209
f 344/258/209 347/259/209 346/254/209 343/253/209
f 347/259/209 350/260/209 349/255/209 346/254/209
f 350/260/209 341/261/209 339/256/209 349/255/209
f 312/262/209 323/263/209 344/258/209 325/257/209
f 323/263/209 321/264/209 347/259/209 344/258/209
f 321/264/209 319/265/209 350/260/209 347/259/209
f 319/265/209 311/266/209 341/261/209 350/260/209
f 315/245/210 330/242/210 351/243/210 328/244/210
f 330/242/211 332/252/211 354/253/211 351/243/211
f 332/252/212 334/257/212 357/258/212 354/253/212
f 334/257/213 317/262/213 336/263/213 357/258/213
f 328/244/214 351/243/214 352/246/214 326/247/214
f 351/243/215 354/253/215 355/254/215 352/246/215
f 354/253/216 357/258/216 358/259/216 355/254/216
f 357/258/217 336/263/217 338/264/217 358/259/217
f 326/247/218 352/246/218 353/248/218 324/249/218
f 352/246/219 355/254/219 356/255/219 353/248/219
f 355/254/220 358/259/220 359/260/220 356/255/220
f 358/259/221 338/264/221 340/265/221 359/260/221
f 324/249/222 353/248/222 322/250/222 313/251/222
f 353/248/223 356/255/223 320/256/223 322/250/223
f 356/255/224 359/260/224 318/261/224 320/256/224
f 359/260/225 340/265/225 310/266/225 318/261/225
f 368/210/193 369/211/193 371/217/193 370/216/193
f 370/216/194 371/217/194 373/240/194 372/241/194
f 360/213/195 361/212/195 369/211/195 368/210/195
f 372/241/196 373/240/196 362/238/196 363/239/196
f 374/236/197 375/237/197 377/234/197 376/235/197
f 376/235/198 377/234/198 379/232/198 378/233/198
f 363/239/199 362/238/199 375/237/199 374/236/199
f 378/233/200 379/232/200 364/230/200 365/231/200
f 380/228/201 381/229/201 383/226/201 382/227/201
f 382/227/202 383/226/202 385/224/202 384/225/202
f 365/231/203 364/230/203 381/229/203 380/228/203
f 384/225/204 385/224/204 366/222/204 367/223/204
f 386/220/205 387/221/205 389/218/205 388/219/205
f 388/219/206 389/218/206 391/214/206 390/215/206
f 367/223/207 366/222/207 387/221/207 386/220/207
f 390/215/208 391/214/208 361/212/208 360/213/208
f 379/242/209 392/243/209 381/244/209 364/245/209
f 392/243/209 395/246/209 383/247/209 381/244/209
f 395/246/209 398/248/209 385/249/209 383/247/209
f 398/248/209 387/250/209 366/251/209 385/249/209
f 377/252/209 393/253/209 392/243/209 379/242/209
f 393/253/209 396/254/209 395/246/209 392/243/209
f 396/254/209 399/255/209 398/248/209 395/246/209
f 399/255/209 389/256/209 387/250/209 398/248/209
f 375/257/209 394/258/209 393/253/209 377/252/209
f 394/258/209 397/259/209 396/254/209 393/253/209
f 397/259/209 400/260/209 399/255/209 396/254/209
f 400/260/209 391/261/209 389/256/209 399/255/209
f 362/262/209 373/263/209 394/258/209 375/257/209
f 373/263/209 371/264/209 397/259/209 394/258/209
f 371/264/209 369/265/209 400/260/209 397/259/209
f 369/265/209 361/266/209 391/261/209 400/260/209
f 365/245/210 380/242/210 401/243/210 378/244/210
f 380/242/211 382/252/211 404/253/211 401/243/211
f 382/252/212 384/257/212 407/258/212 404/253/212
f 384/257/213 367/262/213 386/263/213 407/258/213
f 378/244/214 401/243/214 402/246/214 376/247/214
f 401/243/215 404/253/215 405/254/215 402/246/215
f 404/253/216 407/258/216 408/259/216 405/254/216
f 407/258/217 386/263/217 388/264/217 408/259/217
f 376/247/218 402/246/218 403/248/218 374/249/218
f 402/246/219 405/254/219 406/255/219 403/248/219
f 405/254/220 408/259/220 409/260/220 406/255/220
f 408/259/221 388/264/221 390/265/221 409/260/221
f 374/249/222 403/248/222 372/250/222 363/251/222
f 403/248/223 406/255/223 370/256/223 372/250/223
f 406/255/224 409/260/224 368/261/224 370/256/224
f 409/260/225 390/265/225 360/266/225 368/261/225
f 418/210/193 419/211/193 421/212/193 420/213/193
f 420/213/194 421/212/194 423/214/194 422/215/194
f 410/216/195 411/217/195 419/211/195 418/210/195
f 422/215/196 423/214/196 412/218/196 413/219/196
f 424/220/197 425/221/197 427/222/197 426/223/197
f 426/223/198 427/222/198 429/224/198 428/225/198
f 413/219/199 412/218/199 425/221/199 424/220/199
f 428/225/200 429/224/200 414/226/200 415/227/200
f 430/228/201 431/229/201 433/230/201 432/231/201
f 432/231/202 433/230/202 435/232/202 434/233/202
f 415/227/203 414/226/203 431/229/203 430/228/203
f 434/233/204 435/232/204 416/234/204 417/235/204
f 436/236/205 437/237/205 439/238/205 438/239/205
f 438/239/206 439/238/206 441/240/206 440/241/206
f 417/235/207 416/234/207 437/237/207 436/236/207
f 440/241/208 441/240/208 411/217/208 410/216/208
f 429/242/209 442/243/209 431/244/209 414/245/209
f 442/243/209 445/246/209 433/247/209 431/244/209
f 445/246/209 448/248/209 435/249/209 433/247/209
f 448/248/209 437/250/209 416/251/209 435/249/209
f 427/252/209 443/253/209 442/243/209 429/242/209
f 443/253/209 446/254/209 445/246/209 442/243/209
f 446/254/209 449/255/209 448/248/209 445/246/209
f 449/255/209 439/256/209 437/250/209 448/248/209
f 425/257/209 444/258/209 443/253/209 427/252/209
f 444/258/209 447/259/209 446/254/209 443/253/209
f 447/259/209 450/260/209 449/255/209 446/254/209
f 450/260/209 441/261/209 439/256/209 449/255/209
f 412/262/209 423/263/209 444/258/209 425/257/209
f 423/263/209 421/264/209 447/259/209 444/258/209
f 421/264/209 419/265/209 450/260/209 447/259/209
f 419/265/209 411/266/209 441/261/209 450/260/209
f 415/245/210 430/242/210 451/243/210 428/244/210
f 430/242/211 432/252/211 454/253/211 451/243/211
f 432/252/212 434/257/212 457/258/212 454/253/212
f 434/257/213 417/262/213 436/263/213 457/258/213
f 428/244/214 451/243/214 452/246/214 426/247/214
f 451/243/215 454/253/215 455/254/215 452/246/215
f 454/253/216 457/258/216 458/259/216 455/254/216
f 457/258/217 436/263/217 438/264/217 458/259/217
f 426/247/218 452/246/218 453/248/218 424/249/218
f 452/246/219 455/254/219 456/255/219 453/248/219
f 455/254/220 458/259/220 459/260/220 456/255/220
f 458/259/221 438/264/221 440/265/221 459/260/221
f 424/249/222 453/248/222 422/250/222 413/251/222
f 453/248/223 456/255/223 420/256/223 422/250/223
f 456/255/224 459/260/224 418/261/224 420/256/224
f 459/260/225 440/265/225 410/266/225 418/261/225
f 468/210/193 469/211/193 471/212/193 470/213/193
f 470/213/194 471/212/194 473/214/194 472/215/194
f 460/216/195 461/217/195 469/211/195 468/210/195
f 472/215/196 473/214/196 462/218/196 463/219/196
f 474/220/197 475/221/197 477/222/197 476/223/197
f 476/223/198 477/222/198 479/224/198 478/225/198
f 463/219/199 462/218/199 475/221/199 474/220/199
f 478/225/200 479/224/200 464/226/200 465/227/200
f 480/228/201 481/229/201 483/230/201 482/231/201
f 482/231/202 483/230/202 485/232/202 484/233/202
f 465/227/203 464/226/203 481/229/203 480/228/203
f 484/233/204 485/232/204 466/234/204 467/235/204
f 486/236/205 487/237/205 489/238/205 488/239/205
f 488/239/206 489/238/206 491/240/206 490/241/206
f 467/235/207 466/234/207 487/237/207 486/236/207
f 490/241/208 491/240/208 461/217/208 460/216/208
f 479/242/209 492/243/209 481/244/209 464/245/209
f 492/243/209 495/246/209 483/247/209 481/244/209
f 495/246/209 498/248/209 485/249/209 483/247/209
f 498/248/209 487/250/209 466/251/209 485/249/209
f 477/252/209 493/253/209 492/243/209 479/242/209
f 493/253/209 496/254/209 495/246/209 492/243/209
f 496/254/209 499/255/209 498/248/209 495/246/209
f 499/255/209 489/256/209 487/250/209 498/248/209
f 475/257/209 494/258/209 493/253/209 477/252/209
f 494/258/209 497/259/209 496/254/209 493/253/209
f 497/259/209 500/260/209 499/255/209 496/254/209
f 500/260/209 491/261/209 489/256/209 499/255/209
f 462/262/209 473/263/209 494/258/209 475/257/209
f 473/263/209 471/264/209 497/259/209 494/258/209
f 471/264/209 469/265/209 500/260/209 497/259/209
f 469/265/209 461/266/209 491/261/209 500/260/209
f 465/245/210 480/242/210 501/243/210 478/244/210
f 480/242/211 482/252/211 504/253/211 501/243/211
f 482/252/212 484/257/212 507/258/212 504/253/212
f 484/257/213 467/262/213 486/263/213 507/258/213
f 478/244/214 501/243/214 502/246/214 476/247/214
f 501/243/215 504/253/215 505/254/215 502/246/215
f 504/253/216 507/258/216 508/259/216 505/254/216
f 507/258/217 486/263/217 488/264/217 508/259/217
f 476/247/218 502/246/218 503/248/218 474/249/218
f 502/246/219 505/254/219 506/255/219 503/248/219
f 505/254/220 508/259/220 509/260/220 506/255/220
f 508/259/221 488/264/221 490/265/221 509/260/221
f 474/249/222 503/248/222 472/250/222 463/251/222
f 503/248/223 506/255/223 470/256/223 472/250/223
f 506/255/224 509/260/224 468/261/224 470/256/224
f 509/260/225 490/265/225 460/266/225 468/261/225
f 518/210/193 519/211/193 521/212/193 520/213/193
f 520/213/194 521/212/194 523/214/194 522/215/194
f 510/216/195 511/217/195 519/211/195 518/210/195
f 522/215/196 523/214/196 512/218/196 513/219/196
f 524/220/197 525/221/197 527/222/197 526/223/197
f 526/223/198 527/222/198 529/224/198 528/225/198
f 513/219/199 512/218/199 525/221/199 524/220/199
f 528/225/200 529/224/200 514/226/200 515/227/200
f 530/228/201 531/229/201 533/230/201 532/231/201
f 532/231/202 533/230/202 535/232/202 534/233/202
f 515/227/203 514/226/203 531/229/203 530/228/203
f 534/233/204 535/232/204 516/234/204 517/235/204
f 536/236/205 537/237/205 539/238/205 538/239/205
f 538/239/206 539/238/206 541/240/206 540/241/206
f 517/235/207 516/234/207 537/237/207 536/236/207
f 540/241/208 541/240/208 511/217/208 510/216/208
f 529/242/209 542/243/209 531/244/209 514/245/209
f 542/243/209 545/246/209 533/247/209 531/244/209
f 545/246/209 548/248/209 535/249/209 533/247/209
f 548/248/209 537/250/209 516/251/209 535/249/209
f 527/252/209 543/253/209 542/243/209 529/242/209
f 543/253/209 546/254/209 545/246/209 542/243/209
f 546/254/209 549/255/209 548/248/209 545/246/209
f 549/255/209 539/256/209 537/250/209 548/248/209
f 525/257/209 544/258/209 543/253/209 527/252/209
f 544/258/209 547/259/209 546/254/209 543/253/209
f 547/259/209 550/260/209 549/255/209 546/254/209
f 550/260/209 541/261/209 539/256/209 549/255/209
f 512/262/209 523/263/209 544/258/209 525/257/209
f 523/263/209 521/264/209 547/259/209 544/258/209
f 521/264/209 519/265/209 550/260/209 547/259/209
f 519/265/209 511/266/209 541/261/209 550/260/209
f 515/245/210 530/242/210 551/243/210 528/244/210
f 530/242/211 532/252/211 554/253/211 551/243/211
f 532/252/212 534/257/212 557/258/212 554/253/212
f 534/257/213 517/262/213 536/263/213 557/258/213
f 528/244/214 551/243/214 552/246/214 526/247/214
f 551/243/215 554/253/215 555/254/215 552/246/215
f 554/253/216 557/258/216 558/259/216 555/254/216
f 557/258/217 536/263/217 538/264/217 558/259/217
f 526/247/218 552/246/218 553/248/218 524/249/218
f 552/246/219 555/254/219 556/255/219 553/248/219
f 555/254/220 558/259/220 559/260/220 556/255/220
f 558/259/221 538/264/221 540/265/221 559/260/221
f 524/249/222 553/248/222 522/250/222 513/251/222
f 553/248/223 556/255/223 520/256/223 522/250/223
f 556/255/224 559/260/224 518/261/224 520/256/224
f 559/260/225 540/265/225 510/266/225 518/261/225
f 568/210/193 569/211/193 571/212/193 570/213/193
f 570/213/194 571/212/194 573/214/194 572/215/194
f 560/216/195 561/217/195 569/211/195 568/210/195
f 572/215/196 573/214/196 562/218/196 563/219/196
f 574/220/197 575/221/197 577/222/197 576/223/197
f 576/223/198 577/222/198 579/224/198 578/225/198
f 563/219/199 562/218/199 575/221/199 574/220/199
f 578/225/200 579/224/200 564/226/200 565/227/200
f 580/228/201 581/229/201 583/230/201 582/231/201
f 582/231/202 583/230/202 585/232/202 584/233/202
f 565/227/203 564/226/203 581/229/203 580/228/203
f 584/233/204 585/232/204 566/234/204 567/235/204
f 586/236/205 587/237/205 589/238/205 588/239/205
f 588/239/206 589/238/206 591/240/206 590/241/206
f 567/235/207 566/234/207 587/237/207 586/236/207
f 590/241/208 591/240/208 561/217/208 560/216/208
f 579/242/209 592/243/209 581/244/209 564/245/209
f 592/243/209 595/246/209 583/247/209 581/244/209
f 595/246/209 598/248/209 585/249/209 583/247/209
f 598/248/209 587/250/209 566/251/209 585/249/209
f 577/252/209 593/253/209 592/243/209 579/242/209
f 593/253/209 596/254/209 595/246/209 592/243/209
f 596/254/209 599/255/209 598/248/209 595/246/209
f 599/255/209 589/256/209 587/250/209 598/248/209
f 575/257/209 594/258/209 593/253/209 577/252/209
f 594/258/209 597/259/209 596/254/209 593/253/209
f 597/259/209 600/260/209 599/255/209 596/254/209
f 600/260/209 591/261/209 589/256/209 599/255/209
f 562/262/209 573/263/209 594/258/209 575/257/209
f 573/263/209 571/264/209 597/259/209 594/258/209
f 571/264/209 569/265/209 600/260/209 597/259/209
f 569/265/209 561/266/209 591/261/209 600/260/209
f 565/245/210 580/242/210 601/243/210 578/244/210
f 580/242/211 582/252/211 604/253/211 601/243/211
f 582/252/212 584/257/212 607/258/212 604/253/212
f 584/257/213 567/262/213 586/263/213 607/258/213
f 578/244/214 601/243/214 602/246/214 576/247/214
f 601/243/215 604/253/215 605/254/215 602/246/215
f 604/253/216 607/258/216 608/259/216 605/254/216
f 607/258/217 586/263/217 588/264/217 608/259/217
f 576/247/218 602/246/218 603/248/218 574/249/218
f 602/246/219 605/254/219 606/255/219 603/248/219
f 605/254/220 608/259/220 609/260/220 606/255/220
f 608/259/221 588/264/221 590/265/221 609/260/221
f 574/249/222 603/248/222 572/250/222 563/251/222
f 603/248/223 606/255/223 570/256/223 572/250/223
f 606/255/224 609/260/224 568/261/224 570/256/224
f 609/260/225 590/265/225 560/266/225 568/261/225
f 618/210/226 619/211/226 621/212/226 620/213/226
f 620/213/227 621/212/227 623/214/227 622/215/227
f 610/216/228 611/217/228 619/211/228 618/210/228
f 622/215/229 623/214/229 612/218/229 613/219/229
f 624/220/230 625/221/230 627/222/230 626/223/230
f 626/223/231 627/222/231 629/224/231 628/225/231
f 613/219/232 612/218/232 625/221/232 624/220/232
f 628/225/233 629/224/233 614/226/233 615/227/233
f 630/228/234 631/229/234 633/230/234 632/231/234
f 632/231/235 633/230/235 635/232/235 634/233/235
f 615/227/236 614/226/236 631/229/236 630/228/236
f 634/233/237 635/232/237 616/234/237 617/235/237
f 636/236/238 637/237/238 639/238/238 638/239/238
f 638/239/239 639/238/239 641/240/239 640/241/239
f 617/235/240 616/234/240 637/237/240 636/236/240
f 640/241/241 641/240/241 611/217/241 610/216/241
f 629/242/242 642/243/242 631/244/242 614/245/242
f 642/243/242 645/246/242 633/247/242 631/244/242
f 645/246/242 648/248/242 635/249/242 633/247/242
f 648/248/242 637/250/242 616/251/242 635/249/242
f 627/252/242 643/253/242 642/243/242 629/242/242
f 643/253/242 646/254/242 645/246/242 642/243/242
f 646/254/242 649/255/242 648/248/242 645/246/242
f 649/255/242 639/256/242 637/250/242 648/248/242
f 625/257/242 644/258/242 643/253/242 627/252/242
f 644/258/242 647/259/242 646/254/242 643/253/242
f 647/259/242 650/260/242 649/255/242 646/254/242
f 650/260/242 641/261/242 639/256/242 649/255/242
f 612/262/242 623/263/242 644/258/242 625/257/242
f 623/263/242 621/264/242 647/259/242 644/258/242
f 621/264/242 619/265/242 650/260/242 647/259/242
f 619/265/242 611/266/242 641/261/242 650/260/242
f 615/245/243 630/242/243 651/243/243 628/244/243
f 630/242/244 632/252/244 654/253/244 651/243/244
f 632/252/245 634/257/245 657/258/245 654/253/245
f 634/257/246 617/262/246 636/263/246 657/258/246
f 628/244/247 651/243/247 652/246/247 626/247/247
f 651/243/248 654/253/248 655/254/248 652/246/248
f 654/253/249 657/258/249 658/259/249 655/254/249
f 657/258/250 636/263/250 638/264/250 658/259/250
f 626/247/251 652/246/251 653/248/251 624/249/251
f 652/246/252 655/254/252 656/255/252 653/248/252
f 655/254/253 658/259/253 659/260/253 656/255/253
f 658/259/254 638/264/254 640/265/254 659/260/254
f 624/249/255 653/248/255 622/250/255 613/251/255
f 653/248/256 656/255/256 620/256/256 622/250/256
f 656/255/257 659/260/257 618/261/257 620/256/257
f 659/260/258 640/265/258 610/266/258 618/261/258
f 668/210/226 669/211/226 671/212/226 670/213/226
f 670/213/227 671/212/227 673/214/227 672/215/227
f 660/216/228 661/217/228 669/211/228 668/210/228
f 672/215/229 673/214/229 662/218/229 663/219/229
f 674/220/230 675/221/230 677/222/230 676/223/230
f 676/223/231 677/222/231 679/224/231 678/225/231
f 663/219/232 662/218/232 675/221/232 674/220/232
f 678/225/233 679/224/233 664/226/233 665/227/233
f 680/228/234 681/229/234 683/230/234 682/231/234
f 682/231/235 683/230/235 685/232/235 684/233/235
f 665/227/259 664/226/259 681/229/259 680/228/259
f 684/233/237 685/232/237 666/234/237 667/235/237
f 686/236/238 687/237/238 689/238/238 688/239/238
f 688/239/239 689/238/239 691/240/239 690/241/239
f 667/235/240 666/234/240 687/237/240 686/236/240
f 690/241/241 691/240/241 661/217/241 660/216/241
f 679/242/242 692/243/242 681/244/242 664/245/242
f 692/243/242 695/246/242 683/247/242 681/244/242
f 695/246/242 698/248/242 685/249/242 683/247/242
f 698/248/242 687/250/242 666/251/242 685/249/242
f 677/252/242 693/253/242 692/243/242 679/242/242
f 693/253/242 696/254/242 695/246/242 692/243/242
f 696/254/242 699/255/242 698/248/242 695/246/242
f 699/255/242 689/256/242 687/250/242 698/248/242
f 675/257/242 694/258/242 693/253/242 677/252/242
f 694/258/242 697/259/242 696/254/242 693/253/242
f 697/259/242 700/260/242 699/255/242 696/254/242
f 700/260/242 691/261/242 689/256/242 699/255/242
f 662/262/242 673/263/242 694/258/242 675/257/242
f 673/263/242 671/264/242 697/259/242 694/258/242
f 671/264/242 669/265/242 700/260/242 697/259/242
f 669/265/242 661/266/242 691/261/242 700/260/242
f 665/245/243 680/242/243 701/243/243 678/244/243
f 680/242/244 682/252/244 704/253/244 701/243/244
f 682/252/245 684/257/245 707/258/245 704/253/245
f 684/257/246 667/262/246 686/263/246 707/258/246
f 678/244/247 701/243/247 702/246/247 676/247/247
f 701/243/248 704/253/248 705/254/248 702/246/248
f 704/253/249 707/258/249 708/259/249 705/254/249
f 707/258/250 686/263/250 688/264/250 708/259/250
f 676/247/251 702/246/251 703/248/251 674/249/251
f 702/246/252 705/254/252 706/255/252 703/248/252
f 705/254/253 708/259/253 709/260/253 706/255/253
f 708/259/254 688/264/254 690/265/254 709/260/254
f 674/249/255 703/248/255 672/250/255 663/251/255
f 703/248/256 706/255/256 670/256/256 672/250/256
f 706/255/257 709/260/257 668/261/257 670/256/257
f 709/260/258 690/265/258 660/266/258 668/261/258
f 718/210/260 719/211/260 721/217/260 720/216/260
f 720/216/261 721/217/261 723/240/261 722/241/261
f 710/213/262 711/212/262 719/211/262 718/210/262
f 722/241/263 723/240/263 712/238/263 713/239/263
f 724/236/264 725/237/264 727/234/264 726/235/264
f 726/235/265 727/234/265 729/232/265 728/233/265
f 713/239/266 712/238/266 725/237/266 724/236/266
f 728/233/267 729/232/267 714/230/267 715/231/267
f 730/228/268 731/229/268 733/226/268 732/227/268
f 732/227/269 733/226/269 735/224/269 734/225/269
f 715/231/270 714/230/270 731/229/270 730/228/270
f 734/225/271 735/224/271 716/222/271 717/223/271
f 736/220/272 737/221/272 739/218/272 738/219/272
f 738/219/273 739/218/273 741/214/273 740/215/273
f 717/223/274 716/222/274 737/221/274 736/220/274
f 740/215/275 741/214/275 711/212/275 710/213/275
f 729/242/276 742/243/276 731/244/276 714/245/276
f 742/243/276 745/246/276 733/247/276 731/244/276
f 745/246/276 748/248/276 735/249/276 733/247/276
f 748/248/276 737/250/276 716/251/276 735/249/276
f 727/252/276 743/253/276 742/243/276 729/242/276
f 743/253/276 746/254/276 745/246/276 742/243/276
f 746/254/276 749/255/276 748/248/276 745/246/276
f 749/255/276 739/256/276 737/250/276 748/248/276
f 725/257/276 744/258/276 743/253/276 727/252/276
f 744/258/276 747/259/276 746/254/276 743/253/276
f 747/259/276 750/260/276 749/255/276 746/254/276
f 750/260/276 741/261/276 739/256/276 749/255/276
f 712/262/276 723/263/276 744/258/276 725/257/276
f 723/263/276 721/264/276 747/259/276 744/258/276
f 721/264/276 719/265/276 750/260/276 747/259/276
f 719/265/276 711/266/276 741/261/276 750/260/276
f 715/245/277 730/242/277 751/243/277 728/244/277
f 730/242/278 732/252/278 754/253/278 751/243/278
f 732/252/279 734/257/279 757/258/279 754/253/279
f 734/257/280 717/262/280 736/263/280 757/258/280
f 728/244/281 751/243/281 752/246/281 726/247/281
f 751/243/282 754/253/282 755/254/282 752/246/282
f 754/253/283 757/258/283 758/259/283 755/254/283
f 757/258/284 736/263/284 738/264/284 758/259/284
f 726/247/285 752/246/285 753/248/285 724/249/285
f 752/246/286 755/254/286 756/255/286 753/248/286
f 755/254/287 758/259/287 759/260/287 756/255/287
f 758/259/288 738/264/288 740/265/288 759/260/288
f 724/249/289 753/248/289 722/250/289 713/251/289
f 753/248/290 756/255/290 720/256/290 722/250/290
f 756/255/291 759/260/291 718/261/291 720/256/291
f 759/260/292 740/265/292 710/266/292 718/261/292
f 768/210/293 769/211/293 771/212/293 770/213/293
f 770/213/294 771/212/294 773/214/294 772/215/294
f 760/216/295 761/217/295 769/211/295 768/210/295
f 772/215/296 773/214/296 762/218/296 763/219/296
f 774/220/297 775/221/297 777/222/297 776/223/297
f 776/223/298 777/222/298 779/224/298 778/225/298
f 763/219/299 762/218/299 775/221/299 774/220/299
f 778/225/300 779/224/300 764/226/300 765/227/300
f 780/228/301 781/229/301 783/230/301 782/231/301
f 782/231/302 783/230/302 785/232/302 784/233/302
f 765/227/303 764/226/303 781/229/303 780/228/303
f 784/233/304 785/232/304 766/234/304 767/235/304
f 786/236/305 787/237/305 789/238/305 788/239/305
f 788/239/306 789/238/306 791/240/306 790/241/306
f 767/235/307 766/234/307 787/237/307 786/236/307
f 790/241/308 791/240/308 761/217/308 760/216/308
f 779/242/309 792/243/309 781/244/309 764/245/309
f 792/243/309 795/246/309 783/247/309 781/244/309
f 795/246/309 798/248/309 785/249/309 783/247/309
f 798/248/309 787/250/309 766/251/309 785/249/309
f 777/252/309 793/253/309 792/243/309 779/242/309
f 793/253/309 796/254/309 795/246/309 792/243/309
f 796/254/309 799/255/309 798/248/309 795/246/309
f 799/255/309 789/256/309 787/250/309 798/248/309
f 775/257/309 794/258/309 793/253/309 777/252/309
f 794/258/309 797/259/309 796/254/309 793/253/309
f 797/259/309 800/260/309 799/255/309 796/254/309
f 800/260/309 791/261/309 789/256/309 799/255/309
f 762/262/309 773/263/309 794/258/309 775/257/309
f 773/263/309 771/264/309 797/259/309 794/258/309
f 771/264/309 769/265/309 800/260/309 797/259/309
f 769/265/309 761/266/309 791/261/309 800/260/309
f 765/245/310 780/242/310 801/243/310 778/244/310
f 780/242/311 782/252/311 804/253/311 801/243/311
f 782/252/312 784/257/312 807/258/312 804/253/312
f 784/257/313 767/262/313 786/263/313 807/258/313
f 778/244/314 801/243/314 802/246/314 776/247/314
f 801/243/315 804/253/315 805/254/315 802/246/315
f 804/253/316 807/258/316 808/259/316 805/254/316
f 807/258/317 786/263/317 788/264/317 808/259/317
f 776/247/318 802/246/318 803/248/318 774/249/318
f 802/246/319 805/254/319 806/255/319 803/248/319
f 805/254/320 808/259/320 809/260/320 806/255/320
f 808/259/321 788/264/321 790/265/321 809/260/321
f 774/249/322 803/248/322 772/250/322 763/251/322
f 803/248/323 806/255/323 770/256/323 772/250/323
f 806/255/324 809/260/324 768/261/324 770/256/324
f 809/260/325 790/265/325 760/266/325 768/261/325
