# Blender 4.2.0
# www.blender.org
mtllib Gold_local_2.mtl
o Cube
v -1.565310 0.436237 1.337534
v -1.107314 0.423020 -1.105652
v 1.136441 0.454616 0.848254
v 0.556696 0.530323 0.009683
v -1.082741 -0.000000 2.476469
v -1.131676 0.153275 2.286839
v -1.468855 0.286812 1.795741
v -1.673880 0.379743 1.373789
v -1.667893 0.462545 1.173457
v -1.902600 0.516285 0.988045
v -1.920661 0.579507 0.573941
v -1.775719 0.604349 0.097422
v -1.586988 0.593868 -0.354192
v -1.508525 0.560539 -0.699515
v -1.339832 0.488461 -1.008502
v -1.188705 0.371104 -1.195503
v -1.216158 0.275051 -1.258744
v -1.197669 0.148802 -1.260227
v -1.170693 -0.000000 -1.194843
v -0.881262 0.449811 -0.907997
v -0.716411 0.501865 -0.588904
v -0.558832 0.543942 -0.217972
v -0.384748 0.569480 0.021364
v -0.164837 0.568023 0.112716
v 0.150899 0.578495 0.065596
v 0.413086 0.565230 0.012638
v 0.604076 0.447874 -0.023384
v 0.665863 0.322763 -0.087763
v 0.734144 0.175551 -0.185714
v 0.808967 0.017291 -0.307574
v 0.620116 0.558974 0.069946
v 0.714536 0.577827 0.148561
v 0.790287 0.573396 0.253950
v 0.906387 0.578324 0.316858
v 0.996898 0.566246 0.381903
v 1.050441 0.535191 0.509729
v 1.105587 0.491615 0.683822
v 1.239445 0.396999 0.923856
v 1.382558 0.296558 1.575563
v 1.251114 0.153401 1.946670
v 1.331496 -0.000000 2.227922
v 1.017778 0.466705 0.946440
v 0.779026 0.494816 0.994445
v 0.406058 0.530185 0.955757
v -0.050813 0.541370 0.925079
v -0.446478 0.523864 0.974077
v -0.927402 0.490684 1.403413
v -1.342523 0.456941 1.500136
v -1.780270 -0.000000 1.586753
v -1.948638 0.156091 1.618567
v -2.132963 0.292625 1.539118
v -1.942973 0.395882 1.346764
v -2.676405 -0.000000 1.677538
v -2.608367 0.161915 1.598986
v -2.429512 0.312194 1.425248
v -2.179829 0.431600 1.198082
v -2.657933 0.000000 1.199525
v -2.582426 0.167582 1.109782
v -2.413574 0.328070 0.953814
v -2.190299 0.472996 0.775715
v -2.398666 0.000000 0.613951
v -2.327463 0.170115 0.526299
v -2.192003 0.333140 0.405955
v -2.014417 0.481988 0.274475
v -2.049592 0.000000 0.043608
v -1.984325 0.167582 -0.052815
v -1.885308 0.328070 -0.144761
v -1.760628 0.474400 -0.228765
v -1.693354 0.000000 -0.558045
v -1.680782 0.161915 -0.621763
v -1.654494 0.316157 -0.646961
v -1.603393 0.455188 -0.653538
v -1.550926 0.000000 -0.929073
v -1.564194 0.156091 -0.983367
v -1.552202 0.302983 -0.990349
v -1.461449 0.418627 -0.995666
v -0.719831 0.002169 -1.179687
v -0.743016 0.158415 -1.231169
v -0.784072 0.296211 -1.153422
v -0.831318 0.381201 -0.977406
v -0.399552 0.007081 -1.166489
v -0.433760 0.170592 -1.159930
v -0.519432 0.327709 -1.037002
v -0.632437 0.442820 -0.773793
v -0.187856 0.011276 -1.089247
v -0.233623 0.182044 -1.038706
v -0.341528 0.350084 -0.779505
v -0.476445 0.473591 -0.396733
v -0.070095 0.019608 -0.775107
v -0.133977 0.194980 -0.677294
v -0.225160 0.365682 -0.447405
v -0.319912 0.485181 -0.130911
v 0.018417 0.028630 -0.338254
v -0.056879 0.202598 -0.212580
v -0.101071 0.355225 -0.081229
v -0.127162 0.473460 0.034677
v 0.306222 0.026937 -0.286830
v 0.223154 0.195110 -0.155616
v 0.170951 0.352475 -0.054161
v 0.153459 0.482062 0.011443
v 0.591547 0.021651 -0.339659
v 0.509938 0.183417 -0.207465
v 0.447665 0.334613 -0.101635
v 0.412658 0.465869 -0.031655
v 1.106504 0.010415 -0.319011
v 1.043990 0.170201 -0.219045
v 0.958448 0.320969 -0.127198
v 0.833355 0.454232 -0.043845
v 1.211943 0.007655 -0.081065
v 1.165594 0.172314 -0.012184
v 1.087450 0.329859 0.039887
v 0.951813 0.473033 0.078323
v 1.414417 0.002993 0.017163
v 1.375267 0.172426 0.063182
v 1.262298 0.336241 0.123755
v 1.047886 0.479063 0.201049
v 1.605523 0.000303 0.096187
v 1.579883 0.171170 0.114993
v 1.468769 0.336359 0.151061
v 1.233626 0.487354 0.222386
v 1.645436 0.000000 0.253671
v 1.629643 0.167735 0.253118
v 1.531323 0.329464 0.260888
v 1.309775 0.478018 0.302939
v 1.602654 0.000000 0.417420
v 1.549917 0.162035 0.413491
v 1.468168 0.317241 0.413981
v 1.292239 0.455634 0.443385
v 1.544291 0.000000 1.447931
v 1.512833 0.156091 1.126303
v 1.404667 0.303026 0.688626
v 1.274837 0.423453 0.650701
v 1.099658 -0.000000 2.326210
v 1.125792 0.156091 2.231816
v 1.144222 0.301109 1.773858
v 1.149008 0.396066 1.176461
v 0.795331 -0.000000 2.219859
v 0.848374 0.161915 2.153329
v 0.912740 0.315697 1.732702
v 0.941969 0.411214 1.263347
v 0.364536 -0.000000 2.032570
v 0.424938 0.167582 1.977217
v 0.561450 0.328070 1.715412
v 0.605191 0.437200 1.180830
v -0.070436 0.000000 1.927865
v -0.048689 0.170115 1.825477
v 0.027255 0.333140 1.581303
v 0.082963 0.445900 1.157670
v -0.344343 0.000000 2.115724
v -0.360755 0.167582 1.969908
v -0.403473 0.327811 1.599229
v -0.483736 0.434924 1.242967
v -0.584951 0.000000 2.324634
v -0.593227 0.161915 2.189246
v -0.670428 0.313051 1.776042
v -1.020668 0.406215 1.723472
v -0.800634 0.000000 2.469967
v -0.795104 0.156091 2.325643
v -1.023224 0.294352 2.069120
v -1.400239 0.385313 1.674983
v 0.412826 0.618561 0.105991
v 0.129147 0.626695 0.159046
v -0.207385 0.622762 0.214312
v -0.442474 0.634079 0.099846
v -0.627171 0.612283 -0.168063
v -0.793504 0.560498 -0.554470
v -1.027589 0.499649 -0.938313
v 0.395934 0.615945 0.240994
v 0.102430 0.635928 0.277639
v -0.211430 0.664252 0.313684
v -0.479200 0.674693 0.199140
v -0.688348 0.651098 -0.098279
v -0.870395 0.597378 -0.468887
v -1.230194 0.573917 -0.822246
v 0.428101 0.607391 0.346123
v 0.110393 0.648720 0.391290
v -0.183166 0.694155 0.411401
v -0.481862 0.703646 0.318056
v -0.722989 0.677644 0.027787
v -0.925718 0.620764 -0.307441
v -1.265874 0.617163 -0.534264
v 0.534247 0.615738 0.408499
v 0.182399 0.658189 0.470609
v -0.134284 0.704474 0.507224
v -0.443230 0.714092 0.443173
v -0.709486 0.689241 0.203997
v -0.927430 0.633008 -0.028591
v -1.356190 0.626990 -0.132715
v 0.643712 0.599837 0.479836
v 0.269168 0.639087 0.558718
v -0.078383 0.684985 0.595619
v -0.384461 0.694110 0.553825
v -0.655041 0.670961 0.382453
v -0.930883 0.613767 0.263728
v -1.503585 0.602213 0.363924
v 0.766385 0.565957 0.600375
v 0.424216 0.602633 0.673362
v 0.037254 0.647940 0.695220
v -0.312253 0.658667 0.647346
v -0.565515 0.635257 0.568931
v -0.934384 0.582188 0.683566
v -1.471277 0.547491 0.829379
v 0.898773 0.521456 0.756366
v 0.608248 0.557109 0.808976
v 0.214958 0.599229 0.811181
v -0.202404 0.611865 0.759409
v -0.477601 0.588512 0.766124
v -0.918844 0.546453 1.084181
v -1.361746 0.505115 1.226321
v -0.085691 0.006944 2.213984
v -0.089966 0.045299 2.214412
v -0.089966 0.045299 2.072156
v -0.085691 0.006766 2.070789
v 0.052290 0.045299 2.072156
v 0.048015 0.006766 2.070789
v 0.052290 0.045299 2.214412
v 0.048015 0.006944 2.213984
v -0.103901 0.006627 2.182740
v -0.110066 0.045299 2.182157
v -0.110066 0.006426 2.143284
v -0.116797 0.045299 2.143284
v -0.103901 0.006448 2.104342
v -0.110066 0.045299 2.104412
v -0.055729 0.006627 2.051810
v -0.057711 0.045299 2.052056
v -0.018838 0.006426 2.045901
v -0.018838 0.045299 2.045326
v 0.018053 0.006627 2.051810
v 0.020034 0.045299 2.052056
v 0.066224 0.006448 2.104342
v 0.072390 0.045299 2.104412
v 0.072390 0.006426 2.143284
v 0.079120 0.045299 2.143284
v 0.066224 0.006627 2.182740
v 0.072390 0.045299 2.182157
v 0.018053 0.006627 2.234759
v 0.020034 0.045299 2.234513
v -0.018838 0.006426 2.240155
v -0.018838 0.045299 2.241243
v -0.055729 0.006627 2.234759
v -0.057711 0.045299 2.234513
v 0.031020 0.045299 2.091521
v -0.018838 0.045299 2.087205
v -0.068696 0.045299 2.091521
v 0.034698 0.045299 2.143284
v -0.018838 0.045299 2.143284
v -0.072374 0.045299 2.143284
v 0.031020 0.045299 2.195047
v -0.018838 0.045299 2.199363
v -0.068696 0.045299 2.195047
v 0.028101 0.006034 2.092837
v -0.018838 0.005728 2.088914
v -0.065778 0.006034 2.092837
v 0.031503 0.005851 2.144509
v -0.018838 0.005501 2.144160
v -0.069180 0.005851 2.144509
v 0.028101 0.006127 2.196528
v -0.018838 0.005826 2.199799
v -0.065778 0.006127 2.196528
v -2.144779 0.002767 1.992616
v -2.149054 0.041121 1.993043
v -2.149054 0.041121 1.850788
v -2.144779 0.002588 1.849420
v -2.006799 0.041121 1.850788
v -2.011073 0.002588 1.849420
v -2.006799 0.041121 1.993043
v -2.011073 0.002767 1.992616
v -2.162989 0.002449 1.961371
v -2.169154 0.041121 1.960788
v -2.169154 0.002249 1.921916
v -2.175884 0.041121 1.921916
v -2.162989 0.002271 1.882973
v -2.169154 0.041121 1.883043
v -2.114817 0.002449 1.830441
v -2.116799 0.041121 1.830687
v -2.077926 0.002249 1.824532
v -2.077926 0.041121 1.823957
v -2.041035 0.002449 1.830441
v -2.039053 0.041121 1.830687
v -1.992864 0.002271 1.882973
v -1.986698 0.041121 1.883043
v -1.986698 0.002249 1.921916
v -1.979968 0.041121 1.921916
v -1.992864 0.002449 1.961371
v -1.986698 0.041121 1.960788
v -2.041035 0.002449 2.013390
v -2.039053 0.041121 2.013144
v -2.077926 0.002249 2.018786
v -2.077926 0.041121 2.019874
v -2.114817 0.002449 2.013390
v -2.116799 0.041121 2.013144
v -2.028068 0.041121 1.870152
v -2.077926 0.041121 1.865836
v -2.127784 0.041121 1.870152
v -2.024390 0.041121 1.921916
v -2.077926 0.041121 1.921916
v -2.131462 0.041121 1.921916
v -2.028068 0.041121 1.973678
v -2.077926 0.041121 1.977994
v -2.127784 0.041121 1.973678
v -2.030987 0.001857 1.871468
v -2.077926 0.001551 1.867545
v -2.124866 0.001857 1.871468
v -2.027585 0.001674 1.923140
v -2.077926 0.001324 1.922791
v -2.128268 0.001674 1.923140
v -2.030987 0.001949 1.975160
v -2.077926 0.001649 1.978430
v -2.124866 0.001949 1.975160
v -0.367900 0.006944 2.437126
v -0.372174 0.045299 2.437554
v -0.372174 0.045299 2.295298
v -0.367900 0.006766 2.293930
v -0.229919 0.045299 2.295298
v -0.234194 0.006766 2.293930
v -0.229919 0.045299 2.437554
v -0.234194 0.006944 2.437126
v -0.386109 0.006627 2.405882
v -0.392275 0.045299 2.405298
v -0.392275 0.006426 2.366426
v -0.399005 0.045299 2.366426
v -0.386109 0.006448 2.327483
v -0.392275 0.045299 2.327553
v -0.337938 0.006627 2.274951
v -0.339919 0.045299 2.275198
v -0.301047 0.006426 2.269042
v -0.301047 0.045299 2.268468
v -0.264156 0.006627 2.274951
v -0.262174 0.045299 2.275198
v -0.215984 0.006448 2.327483
v -0.209818 0.045299 2.327553
v -0.209818 0.006426 2.366426
v -0.203088 0.045299 2.366426
v -0.215984 0.006627 2.405882
v -0.209818 0.045299 2.405298
v -0.264156 0.006627 2.457900
v -0.262174 0.045299 2.457654
v -0.301047 0.006426 2.463296
v -0.301047 0.045299 2.464384
v -0.337938 0.006627 2.457900
v -0.339919 0.045299 2.457654
v -0.251189 0.045299 2.314663
v -0.301047 0.045299 2.310347
v -0.350905 0.045299 2.314663
v -0.247511 0.045299 2.366426
v -0.301047 0.045299 2.366426
v -0.354583 0.045299 2.366426
v -0.251189 0.045299 2.418189
v -0.301047 0.045299 2.422505
v -0.350905 0.045299 2.418189
v -0.254107 0.006034 2.315978
v -0.301047 0.005728 2.312055
v -0.347986 0.006034 2.315978
v -0.250705 0.005851 2.367651
v -0.301047 0.005501 2.367301
v -0.351388 0.005851 2.367651
v -0.254107 0.006127 2.419670
v -0.301047 0.005826 2.422940
v -0.347986 0.006127 2.419670
v 1.771634 0.006944 0.862010
v 1.767359 0.045299 0.862437
v 1.767359 0.045299 0.720181
v 1.771634 0.006766 0.718814
v 1.909614 0.045299 0.720181
v 1.905340 0.006766 0.718814
v 1.909614 0.045299 0.862437
v 1.905340 0.006944 0.862010
v 1.753424 0.006627 0.830765
v 1.747258 0.045299 0.830182
v 1.747258 0.006426 0.791309
v 1.740528 0.045299 0.791309
v 1.753424 0.006448 0.752367
v 1.747258 0.045299 0.752437
v 1.801596 0.006627 0.699835
v 1.799614 0.045299 0.700081
v 1.838487 0.006426 0.693926
v 1.838487 0.045299 0.693351
v 1.875378 0.006627 0.699835
v 1.877359 0.045299 0.700081
v 1.923549 0.006448 0.752367
v 1.929715 0.045299 0.752437
v 1.929715 0.006426 0.791309
v 1.936445 0.045299 0.791309
v 1.923549 0.006627 0.830765
v 1.929715 0.045299 0.830182
v 1.875378 0.006627 0.882784
v 1.877359 0.045299 0.882538
v 1.838487 0.006426 0.888180
v 1.838487 0.045299 0.889268
v 1.801596 0.006627 0.882784
v 1.799614 0.045299 0.882538
v 1.888345 0.045299 0.739546
v 1.838487 0.045299 0.735230
v 1.788629 0.045299 0.739546
v 1.892023 0.045299 0.791309
v 1.838487 0.045299 0.791309
v 1.784950 0.045299 0.791309
v 1.888345 0.045299 0.843072
v 1.838487 0.045299 0.847388
v 1.788629 0.045299 0.843072
v 1.885426 0.006034 0.740862
v 1.838487 0.005728 0.736939
v 1.791547 0.006034 0.740862
v 1.888828 0.005851 0.792534
v 1.838487 0.005501 0.792185
v 1.788145 0.005851 0.792534
v 1.885426 0.006127 0.844553
v 1.838487 0.005826 0.847824
v 1.791547 0.006127 0.844553
v 1.266284 0.006944 -0.247135
v 1.262009 0.045299 -0.246707
v 1.262009 0.045299 -0.388963
v 1.266284 0.006766 -0.390331
v 1.404264 0.045299 -0.388963
v 1.399990 0.006766 -0.390331
v 1.404264 0.045299 -0.246707
v 1.399990 0.006944 -0.247135
v 1.248074 0.006627 -0.278379
v 1.241909 0.045299 -0.278962
v 1.241909 0.006426 -0.317835
v 1.235178 0.045299 -0.317835
v 1.248074 0.006448 -0.356778
v 1.241909 0.045299 -0.356708
v 1.296246 0.006627 -0.409310
v 1.294264 0.045299 -0.409063
v 1.333137 0.006426 -0.415219
v 1.333137 0.045299 -0.415793
v 1.370028 0.006627 -0.409310
v 1.372010 0.045299 -0.409063
v 1.418199 0.006448 -0.356778
v 1.424365 0.045299 -0.356708
v 1.424365 0.006426 -0.317835
v 1.431095 0.045299 -0.317835
v 1.418199 0.006627 -0.278379
v 1.424365 0.045299 -0.278962
v 1.370028 0.006627 -0.226361
v 1.372010 0.045299 -0.226607
v 1.333137 0.006426 -0.220965
v 1.333137 0.045299 -0.219877
v 1.296246 0.006627 -0.226361
v 1.294264 0.045299 -0.226607
v 1.382995 0.045299 -0.369598
v 1.333137 0.045299 -0.373914
v 1.283279 0.045299 -0.369598
v 1.386673 0.045299 -0.317835
v 1.333137 0.045299 -0.317835
v 1.279601 0.045299 -0.317835
v 1.382995 0.045299 -0.266072
v 1.333137 0.045299 -0.261756
v 1.283279 0.045299 -0.266072
v 1.380076 0.006034 -0.368283
v 1.333137 0.005728 -0.372206
v 1.286197 0.006034 -0.368283
v 1.383478 0.005851 -0.316610
v 1.333137 0.005501 -0.316960
v 1.282795 0.005851 -0.316610
v 1.380076 0.006127 -0.264591
v 1.333137 0.005826 -0.261320
v 1.286197 0.006127 -0.264591
v -2.225224 0.006944 -1.218457
v -2.229499 0.045299 -1.218029
v -2.229499 0.045299 -1.360285
v -2.225224 0.006766 -1.361652
v -2.087244 0.045299 -1.360285
v -2.091518 0.006766 -1.361652
v -2.087244 0.045299 -1.218029
v -2.091518 0.006944 -1.218457
v -2.243434 0.006627 -1.249701
v -2.249600 0.045299 -1.250284
v -2.249600 0.006426 -1.289157
v -2.256330 0.045299 -1.289157
v -2.243434 0.006448 -1.328100
v -2.249600 0.045299 -1.328030
v -2.195262 0.006627 -1.380632
v -2.197244 0.045299 -1.380385
v -2.158371 0.006426 -1.386541
v -2.158371 0.045299 -1.387115
v -2.121480 0.006627 -1.380632
v -2.119499 0.045299 -1.380385
v -2.073309 0.006448 -1.328100
v -2.067143 0.045299 -1.328030
v -2.067143 0.006426 -1.289157
v -2.060413 0.045299 -1.289157
v -2.073309 0.006627 -1.249701
v -2.067143 0.045299 -1.250284
v -2.121480 0.006627 -1.197682
v -2.119499 0.045299 -1.197929
v -2.158371 0.006426 -1.192287
v -2.158371 0.045299 -1.191198
v -2.195262 0.006627 -1.197682
v -2.197244 0.045299 -1.197929
v -2.108514 0.045299 -1.340920
v -2.158371 0.045299 -1.345236
v -2.208230 0.045299 -1.340920
v -2.104836 0.045299 -1.289157
v -2.158371 0.045299 -1.289157
v -2.211908 0.045299 -1.289157
v -2.108514 0.045299 -1.237394
v -2.158371 0.045299 -1.233078
v -2.208230 0.045299 -1.237394
v -2.111432 0.006034 -1.339604
v -2.158371 0.005728 -1.343527
v -2.205311 0.006034 -1.339604
v -2.108030 0.005851 -1.287932
v -2.158371 0.005501 -1.288282
v -2.208713 0.005851 -1.287932
v -2.111432 0.006127 -1.235913
v -2.158371 0.005826 -1.232642
v -2.205311 0.006127 -1.235913
v -2.232644 0.044042 -1.218457
v -2.236919 0.082397 -1.218029
v -2.236919 0.082397 -1.360285
v -2.232644 0.043864 -1.361652
v -2.094664 0.082397 -1.360285
v -2.098938 0.043864 -1.361652
v -2.094664 0.082397 -1.218029
v -2.098938 0.044042 -1.218457
v -2.250854 0.043725 -1.249701
v -2.257020 0.082397 -1.250284
v -2.257020 0.043524 -1.289157
v -2.263750 0.082397 -1.289157
v -2.250854 0.043547 -1.328100
v -2.257020 0.082397 -1.328030
v -2.202682 0.043725 -1.380632
v -2.204664 0.082397 -1.380385
v -2.165791 0.043524 -1.386541
v -2.165791 0.082397 -1.387115
v -2.128900 0.043725 -1.380632
v -2.126919 0.082397 -1.380385
v -2.080729 0.043547 -1.328100
v -2.074563 0.082397 -1.328030
v -2.074563 0.043524 -1.289157
v -2.067833 0.082397 -1.289157
v -2.080729 0.043725 -1.249701
v -2.074563 0.082397 -1.250284
v -2.128900 0.043725 -1.197682
v -2.126919 0.082397 -1.197929
v -2.165791 0.043524 -1.192287
v -2.165791 0.082397 -1.191198
v -2.202682 0.043725 -1.197682
v -2.204664 0.082397 -1.197929
v -2.115933 0.082397 -1.340920
v -2.165791 0.082397 -1.345236
v -2.215649 0.082397 -1.340920
v -2.112255 0.082397 -1.289157
v -2.165791 0.082397 -1.289157
v -2.219327 0.082397 -1.289157
v -2.115933 0.082397 -1.237394
v -2.165791 0.082397 -1.233078
v -2.215649 0.082397 -1.237394
v -2.118852 0.043133 -1.339604
v -2.165791 0.042827 -1.343527
v -2.212731 0.043133 -1.339604
v -2.115450 0.042950 -1.287932
v -2.165791 0.042600 -1.288282
v -2.216133 0.042950 -1.287932
v -2.118852 0.043225 -1.235913
v -2.165791 0.042925 -1.232642
v -2.212731 0.043225 -1.235913
v -2.222045 0.085381 -1.218457
v -2.226320 0.123735 -1.218029
v -2.226320 0.123735 -1.360285
v -2.222045 0.085202 -1.361652
v -2.084064 0.123735 -1.360285
v -2.088339 0.085202 -1.361652
v -2.084064 0.123735 -1.218029
v -2.088339 0.085381 -1.218457
v -2.240254 0.085063 -1.249701
v -2.246420 0.123735 -1.250284
v -2.246420 0.084863 -1.289157
v -2.253150 0.123735 -1.289157
v -2.240254 0.084885 -1.328100
v -2.246420 0.123735 -1.328030
v -2.192083 0.085063 -1.380632
v -2.194064 0.123735 -1.380385
v -2.155192 0.084863 -1.386541
v -2.155192 0.123735 -1.387115
v -2.118301 0.085063 -1.380632
v -2.116319 0.123735 -1.380385
v -2.070129 0.084885 -1.328100
v -2.063963 0.123735 -1.328030
v -2.063963 0.084863 -1.289157
v -2.057233 0.123735 -1.289157
v -2.070129 0.085063 -1.249701
v -2.063963 0.123735 -1.250284
v -2.118301 0.085063 -1.197682
v -2.116319 0.123735 -1.197929
v -2.155192 0.084863 -1.192287
v -2.155192 0.123735 -1.191198
v -2.192083 0.085063 -1.197682
v -2.194064 0.123735 -1.197929
v -2.105334 0.123736 -1.340920
v -2.155192 0.123735 -1.345236
v -2.205050 0.123735 -1.340920
v -2.101656 0.123735 -1.289157
v -2.155192 0.123735 -1.289157
v -2.208728 0.123735 -1.289157
v -2.105334 0.123735 -1.237394
v -2.155192 0.123735 -1.233078
v -2.205050 0.123735 -1.237394
v -2.108252 0.084471 -1.339604
v -2.155192 0.084165 -1.343527
v -2.202131 0.084471 -1.339604
v -2.104850 0.084288 -1.287932
v -2.155192 0.083938 -1.288282
v -2.205534 0.084288 -1.287932
v -2.108252 0.084563 -1.235913
v -2.155192 0.084263 -1.232642
v -2.202131 0.084563 -1.235913
v -2.219925 0.134139 -1.218457
v -2.224200 0.172494 -1.218029
v -2.224200 0.172494 -1.360285
v -2.219925 0.133961 -1.361652
v -2.081944 0.172494 -1.360285
v -2.086219 0.133961 -1.361652
v -2.081944 0.172494 -1.218029
v -2.086219 0.134139 -1.218457
v -2.238134 0.133822 -1.249701
v -2.244300 0.172494 -1.250284
v -2.244300 0.133621 -1.289157
v -2.251030 0.172494 -1.289157
v -2.238134 0.133643 -1.328100
v -2.244300 0.172494 -1.328030
v -2.189963 0.133822 -1.380632
v -2.191944 0.172494 -1.380385
v -2.153072 0.133621 -1.386541
v -2.153072 0.172494 -1.387115
v -2.116181 0.133822 -1.380632
v -2.114199 0.172494 -1.380385
v -2.068009 0.133643 -1.328100
v -2.061843 0.172494 -1.328030
v -2.061843 0.133621 -1.289157
v -2.055113 0.172494 -1.289157
v -2.068009 0.133822 -1.249701
v -2.061843 0.172494 -1.250284
v -2.116181 0.133822 -1.197682
v -2.114199 0.172494 -1.197929
v -2.153072 0.133621 -1.192287
v -2.153072 0.172494 -1.191198
v -2.189963 0.133822 -1.197682
v -2.191944 0.172494 -1.197929
v -2.103214 0.172494 -1.340920
v -2.153072 0.172494 -1.345236
v -2.202930 0.172494 -1.340920
v -2.099536 0.172494 -1.289157
v -2.153072 0.172494 -1.289157
v -2.206608 0.172494 -1.289157
v -2.103214 0.172494 -1.237394
v -2.153072 0.172494 -1.233078
v -2.202930 0.172494 -1.237394
v -2.106132 0.133229 -1.339604
v -2.153072 0.132923 -1.343527
v -2.200011 0.133229 -1.339604
v -2.102730 0.133046 -1.287932
v -2.153072 0.132696 -1.288282
v -2.203413 0.133046 -1.287932
v -2.106132 0.133321 -1.235913
v -2.153072 0.133021 -1.232642
v -2.200011 0.133321 -1.235913
v -2.229464 0.175477 -1.218457
v -2.233739 0.213832 -1.218029
v -2.233739 0.213832 -1.360285
v -2.229464 0.175299 -1.361652
v -2.091484 0.213832 -1.360285
v -2.095758 0.175299 -1.361652
v -2.091484 0.213832 -1.218029
v -2.095758 0.175477 -1.218457
v -2.247674 0.175160 -1.249701
v -2.253839 0.213832 -1.250284
v -2.253839 0.174959 -1.289157
v -2.260570 0.213832 -1.289157
v -2.247674 0.174982 -1.328100
v -2.253839 0.213832 -1.328030
v -2.199502 0.175160 -1.380632
v -2.201484 0.213832 -1.380385
v -2.162611 0.174959 -1.386541
v -2.162611 0.213832 -1.387115
v -2.125720 0.175160 -1.380632
v -2.123739 0.213832 -1.380385
v -2.077549 0.174982 -1.328100
v -2.071383 0.213832 -1.328030
v -2.071383 0.174959 -1.289157
v -2.064653 0.213832 -1.289157
v -2.077549 0.175160 -1.249701
v -2.071383 0.213832 -1.250284
v -2.125720 0.175160 -1.197682
v -2.123739 0.213832 -1.197929
v -2.162611 0.174959 -1.192287
v -2.162611 0.213832 -1.191198
v -2.199502 0.175160 -1.197682
v -2.201484 0.213832 -1.197929
v -2.112753 0.213832 -1.340920
v -2.162611 0.213832 -1.345236
v -2.212469 0.213832 -1.340920
v -2.109075 0.213832 -1.289157
v -2.162611 0.213832 -1.289157
v -2.216147 0.213832 -1.289157
v -2.112753 0.213832 -1.237394
v -2.162611 0.213832 -1.233078
v -2.212469 0.213832 -1.237394
v -2.115672 0.174568 -1.339604
v -2.162611 0.174261 -1.343527
v -2.209551 0.174568 -1.339604
v -2.112270 0.174385 -1.287932
v -2.162611 0.174034 -1.288282
v -2.212953 0.174385 -1.287932
v -2.115672 0.174660 -1.235913
v -2.162611 0.174359 -1.232642
v -2.209551 0.174660 -1.235913
v -2.259143 0.216815 -1.218457
v -2.263418 0.255170 -1.218029
v -2.263418 0.255170 -1.360285
v -2.259143 0.216637 -1.361652
v -2.121162 0.255170 -1.360285
v -2.125437 0.216637 -1.361652
v -2.121162 0.255170 -1.218029
v -2.125437 0.216815 -1.218457
v -2.277353 0.216498 -1.249701
v -2.283518 0.255170 -1.250284
v -2.283518 0.216298 -1.289157
v -2.290248 0.255170 -1.289157
v -2.277353 0.216320 -1.328100
v -2.283518 0.255170 -1.328030
v -2.229181 0.216498 -1.380632
v -2.231163 0.255170 -1.380385
v -2.192290 0.216298 -1.386541
v -2.192290 0.255170 -1.387115
v -2.155399 0.216498 -1.380632
v -2.153417 0.255170 -1.380385
v -2.107228 0.216320 -1.328100
v -2.101062 0.255170 -1.328030
v -2.101062 0.216298 -1.289157
v -2.094332 0.255170 -1.289157
v -2.107228 0.216498 -1.249701
v -2.101062 0.255170 -1.250284
v -2.155399 0.216498 -1.197682
v -2.153417 0.255170 -1.197929
v -2.192290 0.216298 -1.192287
v -2.192290 0.255170 -1.191198
v -2.229181 0.216498 -1.197682
v -2.231163 0.255170 -1.197929
v -2.142432 0.255170 -1.340920
v -2.192290 0.255170 -1.345236
v -2.242148 0.255170 -1.340920
v -2.138754 0.255170 -1.289157
v -2.192290 0.255170 -1.289157
v -2.245826 0.255170 -1.289157
v -2.142432 0.255170 -1.237394
v -2.192290 0.255170 -1.233078
v -2.242148 0.255170 -1.237394
v -2.145351 0.215906 -1.339604
v -2.192290 0.215600 -1.343527
v -2.239230 0.215906 -1.339604
v -2.141948 0.215723 -1.287932
v -2.192290 0.215373 -1.288282
v -2.242632 0.215723 -1.287932
v -2.145351 0.215998 -1.235913
v -2.192290 0.215698 -1.232642
v -2.239230 0.215998 -1.235913
v -2.022773 0.008428 -1.218457
v -2.027047 0.046783 -1.218029
v -2.027047 0.046783 -1.360285
v -2.022773 0.008249 -1.361652
v -1.884792 0.046783 -1.360285
v -1.889066 0.008249 -1.361652
v -1.884792 0.046783 -1.218029
v -1.889066 0.008428 -1.218457
v -2.040982 0.008110 -1.249701
v -2.047148 0.046783 -1.250284
v -2.047148 0.007910 -1.289157
v -2.053878 0.046783 -1.289157
v -2.040982 0.007932 -1.328100
v -2.047148 0.046783 -1.328030
v -1.992810 0.008110 -1.380632
v -1.994792 0.046783 -1.380385
v -1.955920 0.007910 -1.386541
v -1.955920 0.046783 -1.387115
v -1.919029 0.008110 -1.380632
v -1.917047 0.046783 -1.380385
v -1.870857 0.007932 -1.328100
v -1.864691 0.046783 -1.328030
v -1.864691 0.007910 -1.289157
v -1.857961 0.046783 -1.289157
v -1.870857 0.008110 -1.249701
v -1.864691 0.046783 -1.250284
v -1.919029 0.008110 -1.197682
v -1.917047 0.046783 -1.197929
v -1.955920 0.007910 -1.192287
v -1.955920 0.046783 -1.191198
v -1.992810 0.008110 -1.197682
v -1.994792 0.046783 -1.197929
v -1.906062 0.046783 -1.340920
v -1.955920 0.046783 -1.345236
v -2.005778 0.046782 -1.340920
v -1.902384 0.046783 -1.289157
v -1.955920 0.046783 -1.289157
v -2.009456 0.046783 -1.289157
v -1.906062 0.046783 -1.237394
v -1.955920 0.046783 -1.233078
v -2.005778 0.046783 -1.237394
v -1.908980 0.007518 -1.339604
v -1.955920 0.007212 -1.343527
v -2.002859 0.007518 -1.339604
v -1.905578 0.007335 -1.287932
v -1.955920 0.006985 -1.288282
v -2.006261 0.007335 -1.287932
v -1.908980 0.007610 -1.235913
v -1.955920 0.007310 -1.232642
v -2.002859 0.007610 -1.235913
v -2.026588 0.045314 -1.218457
v -2.030863 0.083669 -1.218029
v -2.030863 0.083669 -1.360285
v -2.026588 0.045136 -1.361652
v -1.888608 0.083669 -1.360285
v -1.892882 0.045136 -1.361652
v -1.888608 0.083669 -1.218029
v -1.892882 0.045314 -1.218457
v -2.044798 0.044997 -1.249701
v -2.050964 0.083669 -1.250284
v -2.050964 0.044796 -1.289157
v -2.057694 0.083669 -1.289157
v -2.044798 0.044819 -1.328100
v -2.050964 0.083669 -1.328030
v -1.996626 0.044997 -1.380632
v -1.998608 0.083669 -1.380385
v -1.959735 0.044796 -1.386541
v -1.959735 0.083669 -1.387115
v -1.922844 0.044997 -1.380632
v -1.920863 0.083669 -1.380385
v -1.874673 0.044819 -1.328100
v -1.868507 0.083669 -1.328030
v -1.868507 0.044796 -1.289157
v -1.861777 0.083669 -1.289157
v -1.874673 0.044997 -1.249701
v -1.868507 0.083669 -1.250284
v -1.922844 0.044997 -1.197682
v -1.920863 0.083669 -1.197929
v -1.959735 0.044796 -1.192287
v -1.959735 0.083669 -1.191198
v -1.996626 0.044997 -1.197682
v -1.998608 0.083669 -1.197929
v -1.909878 0.083669 -1.340920
v -1.959735 0.083669 -1.345236
v -2.009593 0.083669 -1.340920
v -1.906199 0.083669 -1.289157
v -1.959735 0.083669 -1.289157
v -2.013272 0.083669 -1.289157
v -1.909878 0.083669 -1.237394
v -1.959735 0.083669 -1.233078
v -2.009593 0.083669 -1.237394
v -1.912796 0.044405 -1.339604
v -1.959735 0.044099 -1.343527
v -2.006675 0.044405 -1.339604
v -1.909394 0.044222 -1.287932
v -1.959735 0.043872 -1.288282
v -2.010077 0.044222 -1.287932
v -1.912796 0.044497 -1.235913
v -1.959735 0.044197 -1.232642
v -2.006675 0.044497 -1.235913
v -1.242220 0.606878 0.088764
v -1.246495 0.645233 0.089192
v -1.246495 0.645233 -0.053064
v -1.242220 0.606700 -0.054432
v -1.104240 0.645233 -0.053064
v -1.108514 0.606700 -0.054432
v -1.104240 0.645233 0.089192
v -1.108514 0.606878 0.088764
v -1.260430 0.606561 0.057520
v -1.266596 0.645233 0.056936
v -1.266596 0.606361 0.018064
v -1.273326 0.645233 0.018064
v -1.260430 0.606383 -0.020879
v -1.266596 0.645233 -0.020809
v -1.212258 0.606561 -0.073411
v -1.214240 0.645233 -0.073164
v -1.175367 0.606361 -0.079320
v -1.175367 0.645233 -0.079894
v -1.138476 0.606561 -0.073411
v -1.136495 0.645233 -0.073164
v -1.090305 0.606383 -0.020879
v -1.084139 0.645233 -0.020809
v -1.084139 0.606361 0.018064
v -1.077409 0.645233 0.018064
v -1.090305 0.606561 0.057520
v -1.084139 0.645233 0.056936
v -1.138476 0.606561 0.109538
v -1.136495 0.645233 0.109292
v -1.175367 0.606361 0.114934
v -1.175367 0.645233 0.116022
v -1.212258 0.606561 0.109538
v -1.214240 0.645233 0.109292
v -1.125510 0.645233 -0.033699
v -1.175367 0.645233 -0.038015
v -1.225225 0.645233 -0.033699
v -1.121831 0.645233 0.018064
v -1.175367 0.645233 0.018064
v -1.228904 0.645233 0.018064
v -1.125510 0.645233 0.069827
v -1.175367 0.645233 0.074143
v -1.225225 0.645233 0.069827
v -1.128428 0.605969 -0.032384
v -1.175367 0.605663 -0.036307
v -1.222307 0.605969 -0.032384
v -1.125026 0.605786 0.019289
v -1.175367 0.605436 0.018939
v -1.225709 0.605786 0.019289
v -1.128428 0.606061 0.071308
v -1.175367 0.605761 0.074578
v -1.222307 0.606061 0.071308
v -0.430641 0.402565 -0.410087
v -0.446279 0.435884 -0.398473
v -0.471299 0.469685 -0.534371
v -0.455772 0.436428 -0.546933
v -0.338170 0.518251 -0.546801
v -0.330643 0.482075 -0.558617
v -0.313150 0.484449 -0.410904
v -0.305513 0.448212 -0.421771
v -0.453081 0.403484 -0.438433
v -0.470763 0.436685 -0.427530
v -0.465729 0.410572 -0.475644
v -0.483898 0.443624 -0.464078
v -0.466815 0.421950 -0.513378
v -0.484437 0.455159 -0.501801
v -0.431028 0.451040 -0.567721
v -0.444648 0.485473 -0.556391
v -0.397481 0.464856 -0.576646
v -0.409453 0.500343 -0.566217
v -0.361979 0.476229 -0.574168
v -0.371890 0.512015 -0.563185
v -0.307604 0.480031 -0.528244
v -0.313685 0.517449 -0.517744
v -0.294978 0.472862 -0.491587
v -0.300550 0.510510 -0.481197
v -0.293870 0.461564 -0.453299
v -0.300012 0.498976 -0.443474
v -0.329802 0.432759 -0.399396
v -0.339800 0.468661 -0.388883
v -0.363316 0.418699 -0.391075
v -0.374996 0.453791 -0.379057
v -0.398851 0.407569 -0.392949
v -0.412558 0.442119 -0.382090
v -0.354669 0.506388 -0.526443
v -0.402087 0.490392 -0.526210
v -0.447988 0.472345 -0.517730
v -0.342123 0.495344 -0.477315
v -0.392224 0.477067 -0.472637
v -0.442326 0.458790 -0.467959
v -0.336461 0.481789 -0.427544
v -0.382361 0.463742 -0.419065
v -0.429780 0.447746 -0.418831
v -0.345179 0.469373 -0.536020
v -0.389703 0.454001 -0.535753
v -0.433035 0.437323 -0.527817
v -0.332851 0.458090 -0.487006
v -0.379917 0.440668 -0.483040
v -0.427075 0.423717 -0.478209
v -0.326970 0.444818 -0.436937
v -0.370231 0.427743 -0.429796
v -0.414826 0.412768 -0.428734
v -0.558335 0.483571 1.184380
v -0.561221 0.519769 1.171305
v -0.557410 0.470240 1.038004
v -0.554505 0.433548 1.050261
v -0.415300 0.466711 1.043378
v -0.420936 0.430232 1.055311
v -0.419110 0.516240 1.176679
v -0.424765 0.480254 1.189431
v -0.575700 0.472848 1.154525
v -0.580436 0.509037 1.140321
v -0.580810 0.459075 1.117390
v -0.586118 0.495670 1.103641
v -0.573607 0.445385 1.081123
v -0.578354 0.481969 1.067469
v -0.524071 0.426067 1.033656
v -0.524649 0.462442 1.020388
v -0.487066 0.422906 1.029583
v -0.485636 0.459134 1.015550
v -0.450364 0.424237 1.036443
v -0.446983 0.460513 1.023324
v -0.403655 0.441165 1.087550
v -0.396084 0.477443 1.074362
v -0.398540 0.454549 1.124282
v -0.390402 0.490810 1.111042
v -0.405749 0.468627 1.160951
v -0.398166 0.504511 1.147213
v -0.455265 0.487933 1.207876
v -0.451871 0.524038 1.194295
v -0.492270 0.490539 1.211608
v -0.490884 0.527346 1.199133
v -0.528971 0.489764 1.205089
v -0.529537 0.525967 1.191359
v -0.437067 0.473981 1.060720
v -0.486758 0.473715 1.054793
v -0.536681 0.476455 1.056953
v -0.434779 0.491912 1.109364
v -0.488260 0.493240 1.107341
v -0.541742 0.494568 1.105319
v -0.439840 0.510025 1.157729
v -0.489762 0.512765 1.159890
v -0.539454 0.512499 1.153963
v -0.441446 0.437717 1.075473
v -0.488244 0.437228 1.070130
v -0.535230 0.440046 1.071927
v -0.439438 0.455451 1.124085
v -0.489732 0.456250 1.121977
v -0.540019 0.457949 1.120282
v -0.444221 0.473905 1.172605
v -0.491211 0.475927 1.174001
v -0.538004 0.476234 1.169059
v 0.920901 0.297657 1.607969
v 0.917830 0.330387 1.628189
v 0.903444 0.402434 1.506373
v 0.906415 0.370026 1.485258
v 1.044907 0.406107 1.491839
v 1.039376 0.373479 1.471597
v 1.059294 0.334061 1.613655
v 1.053863 0.301110 1.594308
v 0.899624 0.312738 1.582914
v 0.894580 0.346204 1.602622
v 0.889497 0.332388 1.549655
v 0.883956 0.365718 1.570022
v 0.891690 0.352290 1.515690
v 0.886717 0.385579 1.536047
v 0.934287 0.380292 1.465875
v 0.933487 0.413447 1.485866
v 0.970369 0.384064 1.456944
v 0.971462 0.417859 1.476131
v 1.007658 0.382197 1.458336
v 1.010799 0.415454 1.477923
v 1.060868 0.356683 1.498308
v 1.068158 0.390290 1.517406
v 1.070937 0.337099 1.531014
v 1.078782 0.370777 1.550006
v 1.068802 0.317131 1.565532
v 1.076020 0.350916 1.583980
v 1.026159 0.289541 1.614998
v 1.029251 0.323048 1.634163
v 0.990013 0.285683 1.623286
v 0.991275 0.318635 1.643897
v 0.952788 0.287636 1.622536
v 0.951938 0.321040 1.642106
v 1.025714 0.395750 1.510595
v 0.975698 0.396649 1.511993
v 0.926554 0.393176 1.520782
v 1.034607 0.369630 1.554544
v 0.981369 0.368247 1.560014
v 0.928131 0.366865 1.565484
v 1.036184 0.343319 1.599245
v 0.987040 0.339846 1.608035
v 0.937023 0.340744 1.609434
v 1.021782 0.361168 1.492142
v 0.974698 0.361679 1.493423
v 0.928425 0.358744 1.501733
v 1.030385 0.334928 1.535949
v 0.980278 0.333503 1.540616
v 0.930262 0.332328 1.546236
v 1.032271 0.308732 1.580981
v 0.985914 0.305605 1.588426
v 0.938914 0.306308 1.590573
vn 0.0457 0.1594 0.9862
vn -0.0869 0.6584 0.7477
vn -0.0954 0.9172 0.3869
vn -0.9234 0.3818 -0.0402
vn -0.6730 0.7395 -0.0128
vn -0.4513 0.8907 0.0543
vn -0.9000 0.1832 -0.3955
vn -0.8123 0.4746 -0.3390
vn -0.6913 0.6769 -0.2528
vn -0.8548 0.0648 -0.5149
vn -0.8296 0.2869 -0.4791
vn -0.7697 0.4851 -0.4151
vn -0.8708 -0.0327 -0.4906
vn -0.8781 0.1854 -0.4411
vn -0.8399 0.4015 -0.3651
vn -0.9358 -0.1245 -0.3299
vn -0.9506 0.0890 -0.2975
vn -0.8315 0.4478 -0.3287
vn -0.7094 -0.1466 0.6894
vn -0.4151 0.6149 0.6705
vn -0.0704 0.9497 0.3050
vn -0.0892 0.9214 0.3782
vn -0.0423 0.9486 0.3136
vn -0.2397 0.9623 0.1285
vn -0.4857 0.8645 -0.1295
vn -0.6398 0.7034 -0.3098
vn -0.7124 0.6508 -0.2625
vn -0.6381 0.6499 -0.4129
vn -0.2062 0.7451 -0.6343
vn -0.4982 0.4764 -0.7245
vn -0.6138 -0.0305 -0.7889
vn -0.5491 -0.3672 -0.7508
vn 0.1351 -0.1140 -0.9842
vn 0.2042 0.6092 -0.7663
vn 0.0833 0.9180 -0.3878
vn 0.4128 0.2484 -0.8763
vn 0.3989 0.7882 -0.4686
vn 0.2914 0.9283 -0.2311
vn 0.8686 0.4003 -0.2921
vn 0.6532 0.7204 -0.2331
vn 0.3517 0.9140 -0.2021
vn 0.8737 0.4562 -0.1689
vn 0.8087 0.5553 -0.1939
vn 0.5364 0.7938 -0.2865
vn 0.1543 0.6379 -0.7545
vn 0.1292 0.6209 -0.7732
vn -0.0007 0.5908 -0.8068
vn -0.1302 0.5781 -0.8055
vn -0.1214 0.5221 -0.8442
vn -0.1227 0.4382 -0.8905
vn 0.0502 -0.3501 -0.9354
vn 0.1318 0.3120 -0.9409
vn 0.2062 0.7884 -0.5795
vn 0.3863 0.6972 -0.6039
vn 0.2126 0.9136 -0.3466
vn 0.2766 0.9383 -0.2073
vn 0.3238 0.9042 -0.2784
vn 0.3275 0.8113 -0.4843
vn -0.1152 0.5488 -0.8280
vn -0.1381 0.4437 -0.8855
vn 0.0788 0.4075 -0.9098
vn 0.0825 0.4869 -0.8696
vn 0.0909 0.5884 -0.8034
vn 0.1096 0.6503 -0.7517
vn 0.7856 0.4719 -0.4003
vn 0.6719 0.5748 -0.4672
vn 0.5080 0.7002 -0.5017
vn 0.3619 0.3847 -0.8492
vn 0.3286 0.4804 -0.8131
vn 0.4000 0.7194 -0.5678
vn 0.3073 0.2342 -0.9223
vn 0.1754 0.3856 -0.9059
vn 0.0905 0.5563 -0.8260
vn 0.9491 0.1316 -0.2862
vn 0.7747 0.5403 -0.3284
vn 0.4779 0.8335 -0.2771
vn 0.9163 0.1952 0.3498
vn 0.8042 0.4467 0.3921
vn 0.5957 0.7621 0.2536
vn 0.9506 0.3059 0.0531
vn 0.7777 0.6218 0.0919
vn 0.6328 0.7534 0.1787
vn -0.0499 0.5568 -0.8292
vn -0.0982 0.4981 -0.8616
vn -0.1065 0.4344 -0.8944
vn 0.0277 0.6406 -0.7674
vn 0.2378 0.8774 -0.4167
vn 0.3103 0.9198 -0.2402
vn 0.1197 0.8213 -0.5577
vn 0.2352 0.9635 -0.1275
vn 0.3208 0.9362 0.1434
vn 0.3657 0.9191 0.1464
vn 0.3980 0.9073 0.1357
vn 0.5475 0.8353 0.0508
vn 0.9207 0.3582 0.1550
vn 0.7113 0.6701 0.2120
vn -0.2601 0.4868 0.8339
vn -0.0369 0.9472 0.3186
vn 0.0850 0.9804 0.1778
vn -0.3512 0.4288 0.8323
vn -0.0781 0.9141 0.3980
vn 0.0254 0.9792 0.2014
vn -0.2403 0.4582 0.8558
vn -0.1335 0.8595 0.4935
vn -0.0206 0.9745 0.2235
vn 0.4152 0.5345 0.7362
vn 0.0928 0.8792 0.4673
vn 0.0123 0.9625 0.2710
vn 0.5496 0.5658 0.6147
vn 0.2242 0.9170 0.3299
vn 0.1758 0.9445 0.2775
vn 0.4443 0.5938 0.6708
vn 0.1994 0.9294 0.3107
vn 0.0514 0.9500 0.3078
vn 0.5324 0.6894 0.4911
vn 0.4991 0.7866 0.3636
vn 0.1905 0.9729 0.1311
vn 0.3107 0.9377 0.1554
vn 0.1562 0.9659 0.2065
vn 0.0275 0.9475 0.3186
vn -0.0022 0.9241 0.3822
vn 0.0199 0.9396 0.3417
vn 0.2317 0.9181 0.3217
vn -0.0484 0.9567 0.2870
vn -0.3215 0.9004 0.2932
vn -0.3738 0.8114 0.4494
vn -0.1961 0.8646 0.4626
vn -0.0389 0.7305 0.6818
vn 0.0458 0.9988 -0.0182
vn 0.0048 0.9741 -0.2260
vn 0.1948 0.9200 -0.3402
vn 0.2812 0.9209 -0.2698
vn 0.2423 0.9394 -0.2424
vn 0.1887 0.9469 -0.2603
vn 0.0949 0.9948 -0.0367
vn 0.0983 0.9720 -0.2132
vn 0.1343 0.9522 -0.2745
vn 0.1500 0.9689 -0.1967
vn 0.0195 0.9861 -0.1651
vn 0.0713 0.9887 -0.1321
vn 0.0847 0.9698 -0.2285
vn 0.1277 0.9719 -0.1979
vn 0.0616 0.9912 -0.1176
vn -0.0291 0.9973 -0.0679
vn -0.2009 0.9785 -0.0461
vn 0.0014 0.9995 -0.0322
vn 0.1240 0.9902 0.0648
vn 0.1473 0.9844 0.0962
vn -0.0040 0.9805 0.1967
vn -0.2559 0.9403 0.2246
vn -0.2947 0.9495 0.1076
vn -0.0177 0.9985 0.0523
vn 0.1329 0.9817 0.1366
vn 0.1345 0.9770 0.1652
vn -0.0226 0.9286 0.3705
vn -0.2581 0.8903 0.3753
vn -0.1679 0.9769 0.1322
vn -0.0198 0.9950 0.0976
vn 0.1414 0.9787 0.1487
vn 0.1152 0.9732 0.1989
vn -0.0261 0.9099 0.4140
vn -0.1309 0.9226 0.3628
vn -0.0396 0.9889 0.1433
vn -0.0464 0.9934 0.1046
vn 0.1685 0.8392 -0.5171
vn -0.0594 0.8741 -0.4821
vn -0.0959 0.8669 -0.4892
vn 0.2266 0.8652 -0.4472
vn 0.4481 0.8035 -0.3919
vn 0.5122 0.7978 -0.3179
vn 0.4015 0.8409 -0.3629
vn 0.1773 0.8601 -0.4783
vn -0.0722 0.9220 -0.3805
vn -0.1319 0.9810 -0.1424
vn -0.0913 0.9944 -0.0535
vn -0.0325 0.9986 0.0412
vn -0.0051 0.9911 0.1332
vn -0.0688 0.9770 0.2019
vn -0.2033 0.9543 0.2189
vn -0.0379 0.9842 0.1732
vn 0.0972 0.9712 0.2177
vn -0.0278 0.9356 0.3520
vn -0.0153 0.9054 0.4242
vn 0.0827 0.9538 0.2889
vn 0.1522 0.9709 0.1852
vn 0.2089 0.9645 0.1613
vn 0.1734 0.9716 0.1607
vn 0.1441 0.9776 0.1533
vn 0.1088 0.9931 0.0442
vn 0.0480 0.9808 -0.1891
vn 0.1071 0.9942 0.0064
vn 0.1505 0.9801 -0.1291
vn -0.9738 -0.1607 0.1607
vn -0.9736 -0.1614 -0.1614
vn -0.8504 -0.1142 0.5136
vn -0.8591 -0.1066 -0.5006
vn -0.1646 -0.0084 -0.9863
vn 0.1646 -0.0084 -0.9863
vn -0.5318 -0.0254 -0.8465
vn 0.5318 -0.0254 -0.8465
vn 0.9736 -0.1614 -0.1614
vn 0.9738 -0.1607 0.1607
vn 0.8591 -0.1066 -0.5006
vn 0.8504 -0.1142 0.5136
vn 0.1581 -0.0148 0.9873
vn -0.1581 -0.0148 0.9873
vn 0.5486 -0.0465 0.8348
vn -0.5486 -0.0465 0.8348
vn -0.0000 1.0000 -0.0000
vn 0.0164 -0.9997 -0.0184
vn 0.0130 -0.9999 -0.0036
vn 0.0149 -0.9999 0.0068
vn 0.0226 -0.9995 0.0210
vn 0.0080 -0.9998 -0.0163
vn 0.0069 -1.0000 -0.0041
vn 0.0069 -1.0000 0.0058
vn 0.0075 -0.9999 0.0150
vn -0.0080 -0.9998 -0.0163
vn -0.0069 -1.0000 -0.0041
vn -0.0069 -1.0000 0.0058
vn -0.0075 -0.9999 0.0150
vn -0.0164 -0.9997 -0.0184
vn -0.0130 -0.9999 -0.0036
vn -0.0149 -0.9999 0.0068
vn -0.0226 -0.9995 0.0210
vn 0.5487 -0.0465 0.8348
vn -0.5487 -0.0465 0.8348
vn 0.0163 -0.9997 -0.0184
vn -0.0163 -0.9997 -0.0184
vn -0.8340 -0.5168 0.1933
vn -0.8902 -0.4408 -0.1147
vn -0.6706 -0.5162 0.5327
vn -0.8595 -0.2713 -0.4333
vn -0.3249 0.1706 -0.9302
vn -0.0169 0.2829 -0.9590
vn -0.6388 -0.0035 -0.7694
vn 0.3565 0.3596 -0.8623
vn 0.9320 0.2240 -0.2848
vn 0.9887 0.1481 0.0231
vn 0.7485 0.3153 -0.5834
vn 0.9210 0.0644 0.3841
vn 0.3261 -0.1941 0.9252
vn 0.0302 -0.3020 0.9528
vn 0.6745 -0.0534 0.7364
vn -0.3524 -0.4280 0.8322
vn -0.3054 0.9094 0.2824
vn 0.3174 -0.8992 -0.3013
vn 0.3169 -0.9040 -0.2870
vn 0.3205 -0.9058 -0.2772
vn 0.3301 -0.9062 -0.2642
vn 0.3099 -0.9026 -0.2986
vn 0.3111 -0.9060 -0.2869
vn 0.3128 -0.9084 -0.2775
vn 0.3150 -0.9102 -0.2687
vn 0.2950 -0.9081 -0.2972
vn 0.2982 -0.9108 -0.2857
vn 0.3000 -0.9131 -0.2763
vn 0.3009 -0.9154 -0.2674
vn 0.2867 -0.9103 -0.2985
vn 0.2926 -0.9129 -0.2847
vn 0.2926 -0.9160 -0.2746
vn 0.2877 -0.9217 -0.2603
vn -0.9830 -0.0705 0.1696
vn -0.9742 -0.1833 -0.1320
vn -0.8674 0.0929 0.4888
vn -0.8487 -0.2529 -0.4646
vn -0.1383 -0.3472 -0.9276
vn 0.1905 -0.3553 -0.9151
vn -0.5095 -0.3053 -0.8045
vn 0.5530 -0.3317 -0.7643
vn 0.9711 -0.2316 -0.0584
vn 0.9627 -0.1188 0.2432
vn 0.8677 -0.2955 -0.3997
vn 0.8316 0.0507 0.5531
vn 0.1309 0.3260 0.9363
vn -0.1849 0.3338 0.9243
vn 0.5240 0.2334 0.8191
vn -0.5721 0.2606 0.7776
vn 0.0364 0.9371 -0.3471
vn -0.0196 -0.9436 0.3304
vn -0.0233 -0.9386 0.3442
vn -0.0217 -0.9350 0.3540
vn -0.0143 -0.9299 0.3675
vn -0.0280 -0.9428 0.3321
vn -0.0294 -0.9387 0.3436
vn -0.0297 -0.9352 0.3528
vn -0.0293 -0.9320 0.3614
vn -0.0439 -0.9424 0.3315
vn -0.0432 -0.9383 0.3431
vn -0.0434 -0.9349 0.3523
vn -0.0443 -0.9316 0.3608
vn -0.0522 -0.9428 0.3292
vn -0.0493 -0.9380 0.3432
vn -0.0514 -0.9343 0.3529
vn -0.0596 -0.9288 0.3658
vn -0.9569 -0.2451 0.1558
vn -0.9893 -0.0825 -0.1204
vn -0.7971 -0.3805 0.4689
vn -0.9081 0.1395 -0.3949
vn -0.2636 0.4881 -0.8320
vn 0.0637 0.4966 -0.8657
vn -0.6152 0.3931 -0.6834
vn 0.4424 0.4206 -0.7921
vn 0.9471 -0.0322 -0.3194
vn 0.9799 -0.1948 -0.0432
vn 0.8005 0.1839 -0.5704
vn 0.8942 -0.3366 0.2951
vn 0.2566 -0.5087 0.8218
vn -0.0578 -0.5168 0.8541
vn 0.6286 -0.4487 0.6352
vn -0.4626 -0.4770 0.7473
vn 0.0296 0.8619 0.5063
vn 0.0296 0.8619 0.5062
vn -0.0152 -0.8519 -0.5235
vn -0.0171 -0.8596 -0.5106
vn -0.0141 -0.8648 -0.5019
vn -0.0050 -0.8715 -0.4904
vn -0.0234 -0.8533 -0.5209
vn -0.0232 -0.8596 -0.5104
vn -0.0222 -0.8646 -0.5020
vn -0.0206 -0.8691 -0.4941
vn -0.0392 -0.8537 -0.5193
vn -0.0369 -0.8600 -0.5090
vn -0.0359 -0.8650 -0.5006
vn -0.0356 -0.8695 -0.4926
vn -0.0477 -0.8527 -0.5202
vn -0.0429 -0.8603 -0.5080
vn -0.0437 -0.8656 -0.4989
vn -0.0500 -0.8727 -0.4857
vt 0.024211 0.728989
vt 0.071964 0.764365
vt 0.083674 0.921783
vt 0.048470 0.945122
vt 0.111217 0.817046
vt 0.130884 0.888592
vt 0.175821 0.785685
vt 0.195058 0.846828
vt 0.178076 0.953532
vt 0.146996 0.987570
vt 0.225932 0.917105
vt 0.281515 0.877715
vt 0.315444 0.962219
vt 0.290348 0.999908
vt 0.351890 0.924361
vt 0.393261 0.886160
vt 0.460821 0.956487
vt 0.438158 0.994789
vt 0.485342 0.919118
vt 0.510051 0.883313
vt 0.596525 0.943080
vt 0.590033 0.979488
vt 0.597310 0.911128
vt 0.598124 0.882866
vt 0.667148 0.924605
vt 0.673623 0.956540
vt 0.658875 0.899840
vt 0.659365 0.876562
vt 0.000092 0.463616
vt 0.044253 0.501512
vt 0.108513 0.631698
vt 0.187600 0.721657
vt 0.209728 0.700052
vt 0.237108 0.737396
vt 0.260722 0.802456
vt 0.344228 0.837200
vt 0.447280 0.847397
vt 0.545655 0.849506
vt 0.609700 0.859086
vt 0.666078 0.856420
vt 0.699525 0.837511
vt 0.704866 0.856347
vt 0.715350 0.870140
vt 0.731741 0.882751
vt 0.754857 0.906371
vt 0.813350 0.831540
vt 0.781377 0.818751
vt 0.807632 0.762831
vt 0.842729 0.767186
vt 0.752328 0.807680
vt 0.766715 0.755494
vt 0.719408 0.790801
vt 0.711023 0.737276
vt 0.814627 0.717913
vt 0.852724 0.717840
vt 0.754109 0.696327
vt 0.673012 0.664315
vt 0.784664 0.647447
vt 0.831434 0.646537
vt 0.721687 0.630596
vt 0.649133 0.600883
vt 0.731742 0.556999
vt 0.784023 0.557210
vt 0.683706 0.550808
vt 0.644896 0.541449
vt 0.747548 0.493805
vt 0.799718 0.491490
vt 0.703973 0.490868
vt 0.672439 0.482729
vt 0.776285 0.434725
vt 0.827367 0.430142
vt 0.732901 0.435695
vt 0.700139 0.432804
vt 0.699920 0.788243
vt 0.671240 0.726625
vt 0.629951 0.655165
vt 0.607131 0.593656
vt 0.614457 0.538151
vt 0.649603 0.473364
vt 0.678933 0.425499
vt 0.693498 0.399213
vt 0.714324 0.394118
vt 0.747323 0.390179
vt 0.788409 0.385751
vt 0.836300 0.379958
vt 0.852724 0.313394
vt 0.808213 0.319810
vt 0.784137 0.272496
vt 0.824225 0.260222
vt 0.766953 0.330521
vt 0.747907 0.289440
vt 0.729250 0.348621
vt 0.715285 0.316286
vt 0.774787 0.225920
vt 0.810690 0.209553
vt 0.740483 0.250346
vt 0.700703 0.287526
vt 0.763310 0.186841
vt 0.791546 0.166257
vt 0.738627 0.212193
vt 0.705761 0.251368
vt 0.744475 0.167937
vt 0.765454 0.140284
vt 0.725623 0.194537
vt 0.697298 0.232463
vt 0.712616 0.153848
vt 0.730754 0.120713
vt 0.697006 0.185557
vt 0.672768 0.221676
vt 0.576862 0.095667
vt 0.530100 0.043406
vt 0.643494 0.166659
vt 0.635442 0.203202
vt 0.685474 0.381324
vt 0.677313 0.356560
vt 0.664354 0.332800
vt 0.662036 0.305744
vt 0.657509 0.283158
vt 0.639280 0.261372
vt 0.613127 0.233888
vt 0.586137 0.211407
vt 0.582208 0.182845
vt 0.484393 0.099612
vt 0.411817 0.057217
vt 0.368076 0.000092
vt 0.317421 0.028235
vt 0.349907 0.050764
vt 0.322445 0.104330
vt 0.283323 0.093609
vt 0.427499 0.110309
vt 0.406451 0.153129
vt 0.527821 0.175881
vt 0.491515 0.203413
vt 0.290749 0.201496
vt 0.248688 0.195586
vt 0.365299 0.216847
vt 0.469548 0.273575
vt 0.251355 0.314009
vt 0.208281 0.291977
vt 0.321427 0.335389
vt 0.415745 0.375209
vt 0.187227 0.369662
vt 0.145440 0.337203
vt 0.268677 0.422733
vt 0.336989 0.479215
vt 0.120055 0.402449
vt 0.081446 0.373216
vt 0.203980 0.461121
vt 0.183058 0.543535
vt 0.074112 0.431411
vt 0.032898 0.407911
vt 0.108086 0.506462
vt 0.151106 0.629404
vt 0.556782 0.223737
vt 0.524209 0.263077
vt 0.493229 0.337517
vt 0.450682 0.428773
vt 0.398384 0.501963
vt 0.261634 0.558225
vt 0.198586 0.635005
vt 0.658757 0.417829
vt 0.626311 0.469210
vt 0.599743 0.464657
vt 0.632186 0.409415
vt 0.585644 0.535580
vt 0.562827 0.525936
vt 0.580737 0.595751
vt 0.555769 0.591439
vt 0.607956 0.661963
vt 0.586870 0.664638
vt 0.653147 0.734854
vt 0.630208 0.737661
vt 0.684168 0.810389
vt 0.647331 0.826152
vt 0.577356 0.452900
vt 0.614796 0.393915
vt 0.544851 0.510390
vt 0.531826 0.578691
vt 0.559694 0.656466
vt 0.597268 0.729668
vt 0.601037 0.807610
vt 0.567635 0.431353
vt 0.611755 0.368180
vt 0.530366 0.491333
vt 0.511894 0.557865
vt 0.528496 0.634706
vt 0.547709 0.700922
vt 0.524887 0.788852
vt 0.558449 0.405803
vt 0.608139 0.340662
vt 0.518199 0.471346
vt 0.495861 0.535310
vt 0.499343 0.605752
vt 0.492346 0.672081
vt 0.419260 0.773049
vt 0.550738 0.364196
vt 0.596664 0.305663
vt 0.509336 0.438130
vt 0.483075 0.511422
vt 0.470731 0.568941
vt 0.409449 0.630908
vt 0.328848 0.725775
vt 0.542360 0.315008
vt 0.580175 0.265385
vt 0.503432 0.390901
vt 0.470278 0.477424
vt 0.439107 0.530882
vt 0.329331 0.588510
vt 0.255796 0.666410
vt 0.873630 0.753108
vt 0.849777 0.749564
vt 0.857286 0.723227
vt 0.878937 0.732794
vt 0.871700 0.699905
vt 0.890851 0.715581
vt 0.876037 0.771323
vt 0.852443 0.777179
vt 0.893465 0.682335
vt 0.906908 0.703267
vt 0.924734 0.699463
vt 0.921785 0.673857
vt 0.953819 0.677919
vt 0.943455 0.703588
vt 0.979605 0.697288
vt 0.959644 0.713525
vt 0.993796 0.723235
vt 0.969480 0.728253
vt 0.971744 0.748306
vt 0.996345 0.751421
vt 0.988972 0.778138
vt 0.967253 0.768679
vt 0.974402 0.801510
vt 0.955513 0.786007
vt 0.952098 0.818386
vt 0.939961 0.796794
vt 0.921340 0.800345
vt 0.923846 0.825912
vt 0.892271 0.821431
vt 0.902642 0.795866
vt 0.866586 0.802502
vt 0.886156 0.786316
vt 0.912376 0.987675
vt 0.928158 0.970222
vt 0.952723 0.974228
vt 0.934110 0.985635
vt 0.943345 0.944574
vt 0.966166 0.955986
vt 0.954752 0.917037
vt 0.972695 0.934287
vt 0.959247 0.893940
vt 0.970654 0.912552
vt 0.890676 0.981147
vt 0.901435 0.959632
vt 0.915841 0.930821
vt 0.930247 0.902011
vt 0.941005 0.880496
vt 0.872435 0.967703
vt 0.876929 0.944606
vt 0.888337 0.917069
vt 0.903524 0.891421
vt 0.919306 0.873968
vt 0.861028 0.949091
vt 0.858987 0.927357
vt 0.865516 0.905657
vt 0.878959 0.887416
vt 0.897572 0.876008
s 0
usemtl Material
f 49/1/1 50/2/1 54/3/1 53/4/1
f 50/2/2 51/5/2 55/6/2 54/3/2
f 51/5/3 52/7/3 56/8/3 55/6/3
f 53/4/4 54/3/4 58/9/4 57/10/4
f 54/3/5 55/6/5 59/11/5 58/9/5
f 55/6/6 56/8/6 60/12/6 59/11/6
f 57/10/7 58/9/7 62/13/7 61/14/7
f 58/9/8 59/11/8 63/15/8 62/13/8
f 59/11/9 60/12/9 64/16/9 63/15/9
f 61/14/10 62/13/10 66/17/10 65/18/10
f 62/13/11 63/15/11 67/19/11 66/17/11
f 63/15/12 64/16/12 68/20/12 67/19/12
f 65/18/13 66/17/13 70/21/13 69/22/13
f 66/17/14 67/19/14 71/23/14 70/21/14
f 67/19/15 68/20/15 72/24/15 71/23/15
f 69/22/16 70/21/16 74/25/16 73/26/16
f 70/21/17 71/23/17 75/27/17 74/25/17
f 71/23/18 72/24/18 76/28/18 75/27/18
f 5/29/19 6/30/19 50/2/19 49/1/19
f 6/30/20 7/31/20 51/5/20 50/2/20
f 7/31/21 8/32/21 52/7/21 51/5/21
f 8/32/22 1/33/22 9/34/22 52/7/22
f 52/7/23 9/34/23 10/35/23 56/8/23
f 56/8/24 10/35/24 11/36/24 60/12/24
f 60/12/25 11/36/25 12/37/25 64/16/25
f 64/16/26 12/37/26 13/38/26 68/20/26
f 68/20/27 13/38/27 14/39/27 72/24/27
f 72/24/28 14/39/28 15/40/28 76/28/28
f 76/28/29 15/40/29 2/41/29 16/42/29
f 75/27/30 76/28/30 16/42/30 17/43/30
f 74/25/31 75/27/31 17/43/31 18/44/31
f 73/26/32 74/25/32 18/44/32 19/45/32
f 77/46/33 78/47/33 82/48/33 81/49/33
f 78/47/34 79/50/34 83/51/34 82/48/34
f 79/50/35 80/52/35 84/53/35 83/51/35
f 81/49/36 82/48/36 86/54/36 85/55/36
f 82/48/37 83/51/37 87/56/37 86/54/37
f 83/51/38 84/53/38 88/57/38 87/56/38
f 85/55/39 86/54/39 90/58/39 89/59/39
f 86/54/40 87/56/40 91/60/40 90/58/40
f 87/56/41 88/57/41 92/61/41 91/60/41
f 89/59/42 90/58/42 94/62/42 93/63/42
f 90/58/43 91/60/43 95/64/43 94/62/43
f 91/60/44 92/61/44 96/65/44 95/64/44
f 93/63/45 94/62/45 98/66/45 97/67/45
f 94/62/46 95/64/46 99/68/46 98/66/46
f 95/64/47 96/65/47 100/69/47 99/68/47
f 97/67/48 98/66/48 102/70/48 101/71/48
f 98/66/49 99/68/49 103/72/49 102/70/49
f 99/68/50 100/69/50 104/73/50 103/72/50
f 19/45/51 18/44/51 78/47/51 77/46/51
f 18/44/52 17/43/52 79/50/52 78/47/52
f 17/43/53 16/42/53 80/52/53 79/50/53
f 16/42/54 2/41/54 20/74/54 80/52/54
f 80/52/55 20/74/55 21/75/55 84/53/55
f 84/53/56 21/75/56 22/76/56 88/57/56
f 88/57/57 22/76/57 23/77/57 92/61/57
f 92/61/58 23/77/58 24/78/58 96/65/58
f 96/65/59 24/78/59 25/79/59 100/69/59
f 100/69/60 25/79/60 26/80/60 104/73/60
f 104/73/61 26/80/61 4/81/61 27/82/61
f 103/72/62 104/73/62 27/82/62 28/83/62
f 102/70/63 103/72/63 28/83/63 29/84/63
f 101/71/64 102/70/64 29/84/64 30/85/64
f 105/86/65 106/87/65 110/88/65 109/89/65
f 106/87/66 107/90/66 111/91/66 110/88/66
f 107/90/67 108/92/67 112/93/67 111/91/67
f 109/89/68 110/88/68 114/94/68 113/95/68
f 110/88/69 111/91/69 115/96/69 114/94/69
f 111/91/70 112/93/70 116/97/70 115/96/70
f 113/95/71 114/94/71 118/98/71 117/99/71
f 114/94/72 115/96/72 119/100/72 118/98/72
f 115/96/73 116/97/73 120/101/73 119/100/73
f 117/99/74 118/98/74 122/102/74 121/103/74
f 118/98/75 119/100/75 123/104/75 122/102/75
f 119/100/76 120/101/76 124/105/76 123/104/76
f 121/103/77 122/102/77 126/106/77 125/107/77
f 122/102/78 123/104/78 127/108/78 126/106/78
f 123/104/79 124/105/79 128/109/79 127/108/79
f 125/107/80 126/106/80 130/110/80 129/111/80
f 126/106/81 127/108/81 131/112/81 130/110/81
f 127/108/82 128/109/82 132/113/82 131/112/82
f 30/85/83 29/84/83 106/87/83 105/86/83
f 29/84/84 28/83/84 107/90/84 106/87/84
f 28/83/85 27/82/85 108/92/85 107/90/85
f 27/82/86 4/81/86 31/114/86 108/92/86
f 108/92/87 31/114/87 32/115/87 112/93/87
f 112/93/88 32/115/88 33/116/88 116/97/88
f 116/97/89 33/116/89 34/117/89 120/101/89
f 120/101/90 34/117/90 35/118/90 124/105/90
f 124/105/91 35/118/91 36/119/91 128/109/91
f 128/109/92 36/119/92 37/120/92 132/113/92
f 132/113/93 37/120/93 3/121/93 38/122/93
f 131/112/94 132/113/94 38/122/94 39/123/94
f 130/110/95 131/112/95 39/123/95 40/124/95
f 129/111/96 130/110/96 40/124/96 41/125/96
f 133/126/97 134/127/97 138/128/97 137/129/97
f 134/127/98 135/130/98 139/131/98 138/128/98
f 135/130/99 136/132/99 140/133/99 139/131/99
f 137/129/100 138/128/100 142/134/100 141/135/100
f 138/128/101 139/131/101 143/136/101 142/134/101
f 139/131/102 140/133/102 144/137/102 143/136/102
f 141/135/103 142/134/103 146/138/103 145/139/103
f 142/134/104 143/136/104 147/140/104 146/138/104
f 143/136/105 144/137/105 148/141/105 147/140/105
f 145/139/106 146/138/106 150/142/106 149/143/106
f 146/138/107 147/140/107 151/144/107 150/142/107
f 147/140/108 148/141/108 152/145/108 151/144/108
f 149/143/109 150/142/109 154/146/109 153/147/109
f 150/142/110 151/144/110 155/148/110 154/146/110
f 151/144/111 152/145/111 156/149/111 155/148/111
f 153/147/112 154/146/112 158/150/112 157/151/112
f 154/146/113 155/148/113 159/152/113 158/150/113
f 155/148/114 156/149/114 160/153/114 159/152/114
f 41/125/115 40/124/115 134/127/115 133/126/115
f 40/124/116 39/123/116 135/130/116 134/127/116
f 39/123/117 38/122/117 136/132/117 135/130/117
f 38/122/118 3/121/118 42/154/118 136/132/118
f 136/132/119 42/154/119 43/155/119 140/133/119
f 140/133/120 43/155/120 44/156/120 144/137/120
f 144/137/121 44/156/121 45/157/121 148/141/121
f 148/141/122 45/157/122 46/158/122 152/145/122
f 152/145/123 46/158/123 47/159/123 156/149/123
f 156/149/124 47/159/124 48/160/124 160/153/124
f 160/153/125 48/160/125 1/33/125 8/32/125
f 159/152/126 160/153/126 8/32/126 7/31/126
f 158/150/127 159/152/127 7/31/127 6/30/127
f 157/151/128 158/150/128 6/30/128 5/29/128
f 161/161/129 162/162/129 169/163/129 168/164/129
f 162/162/130 163/165/130 170/166/130 169/163/130
f 163/165/131 164/167/131 171/168/131 170/166/131
f 164/167/132 165/169/132 172/170/132 171/168/132
f 165/169/133 166/171/133 173/172/133 172/170/133
f 166/171/134 167/173/134 174/174/134 173/172/134
f 168/164/135 169/163/135 176/175/135 175/176/135
f 169/163/136 170/166/136 177/177/136 176/175/136
f 170/166/137 171/168/137 178/178/137 177/177/137
f 171/168/138 172/170/138 179/179/138 178/178/138
f 172/170/139 173/172/139 180/180/139 179/179/139
f 173/172/140 174/174/140 181/181/140 180/180/140
f 175/176/141 176/175/141 183/182/141 182/183/141
f 176/175/142 177/177/142 184/184/142 183/182/142
f 177/177/143 178/178/143 185/185/143 184/184/143
f 178/178/144 179/179/144 186/186/144 185/185/144
f 179/179/145 180/180/145 187/187/145 186/186/145
f 180/180/146 181/181/146 188/188/146 187/187/146
f 182/183/147 183/182/147 190/189/147 189/190/147
f 183/182/148 184/184/148 191/191/148 190/189/148
f 184/184/149 185/185/149 192/192/149 191/191/149
f 185/185/150 186/186/150 193/193/150 192/192/150
f 186/186/151 187/187/151 194/194/151 193/193/151
f 187/187/152 188/188/152 195/195/152 194/194/152
f 189/190/153 190/189/153 197/196/153 196/197/153
f 190/189/154 191/191/154 198/198/154 197/196/154
f 191/191/155 192/192/155 199/199/155 198/198/155
f 192/192/156 193/193/156 200/200/156 199/199/156
f 193/193/157 194/194/157 201/201/157 200/200/157
f 194/194/158 195/195/158 202/202/158 201/201/158
f 196/197/159 197/196/159 204/203/159 203/204/159
f 197/196/160 198/198/160 205/205/160 204/203/160
f 198/198/161 199/199/161 206/206/161 205/205/161
f 199/199/162 200/200/162 207/207/162 206/206/162
f 200/200/163 201/201/163 208/208/163 207/207/163
f 201/201/164 202/202/164 209/209/164 208/208/164
f 4/81/165 26/80/165 161/161/165 31/114/165
f 26/80/166 25/79/166 162/162/166 161/161/166
f 25/79/167 24/78/167 163/165/167 162/162/167
f 24/78/168 23/77/168 164/167/168 163/165/168
f 23/77/169 22/76/169 165/169/169 164/167/169
f 22/76/170 21/75/170 166/171/170 165/169/170
f 21/75/171 20/74/171 167/173/171 166/171/171
f 20/74/172 2/41/172 15/40/172 167/173/172
f 167/173/173 15/40/173 14/39/173 174/174/173
f 174/174/174 14/39/174 13/38/174 181/181/174
f 181/181/175 13/38/175 12/37/175 188/188/175
f 188/188/176 12/37/176 11/36/176 195/195/176
f 195/195/177 11/36/177 10/35/177 202/202/177
f 202/202/178 10/35/178 9/34/178 209/209/178
f 209/209/179 9/34/179 1/33/179 48/160/179
f 208/208/180 209/209/180 48/160/180 47/159/180
f 207/207/181 208/208/181 47/159/181 46/158/181
f 206/206/182 207/207/182 46/158/182 45/157/182
f 205/205/183 206/206/183 45/157/183 44/156/183
f 204/203/184 205/205/184 44/156/184 43/155/184
f 203/204/185 204/203/185 43/155/185 42/154/185
f 37/120/186 203/204/186 42/154/186 3/121/186
f 36/119/187 196/197/187 203/204/187 37/120/187
f 35/118/188 189/190/188 196/197/188 36/119/188
f 34/117/189 182/183/189 189/190/189 35/118/189
f 33/116/190 175/176/190 182/183/190 34/117/190
f 32/115/191 168/164/191 175/176/191 33/116/191
f 31/114/192 161/161/192 168/164/192 32/115/192
f 218/210/193 219/211/193 221/212/193 220/213/193
f 220/213/194 221/212/194 223/214/194 222/215/194
f 210/216/195 211/217/195 219/211/195 218/210/195
f 222/215/196 223/214/196 212/218/196 213/219/196
f 224/220/197 225/221/197 227/222/197 226/223/197
f 226/223/198 227/222/198 229/224/198 228/225/198
f 213/219/199 212/218/199 225/221/199 224/220/199
f 228/225/200 229/224/200 214/226/200 215/227/200
f 230/228/201 231/229/201 233/230/201 232/231/201
f 232/231/202 233/230/202 235/232/202 234/233/202
f 215/227/203 214/226/203 231/229/203 230/228/203
f 234/233/204 235/232/204 216/234/204 217/235/204
f 236/236/205 237/237/205 239/238/205 238/239/205
f 238/239/206 239/238/206 241/240/206 240/241/206
f 217/235/207 216/234/207 237/237/207 236/236/207
f 240/241/208 241/240/208 211/217/208 210/216/208
f 229/242/209 242/243/209 231/244/209 214/245/209
f 242/243/209 245/246/209 233/247/209 231/244/209
f 245/246/209 248/248/209 235/249/209 233/247/209
f 248/248/209 237/250/209 216/251/209 235/249/209
f 227/252/209 243/253/209 242/243/209 229/242/209
f 243/253/209 246/254/209 245/246/209 242/243/209
f 246/254/209 249/255/209 248/248/209 245/246/209
f 249/255/209 239/256/209 237/250/209 248/248/209
f 225/257/209 244/258/209 243/253/209 227/252/209
f 244/258/209 247/259/209 246/254/209 243/253/209
f 247/259/209 250/260/209 249/255/209 246/254/209
f 250/260/209 241/261/209 239/256/209 249/255/209
f 212/262/209 223/263/209 244/258/209 225/257/209
f 223/263/209 221/264/209 247/259/209 244/258/209
f 221/264/209 219/265/209 250/260/209 247/259/209
f 219/265/209 211/266/209 241/261/209 250/260/209
f 215/245/210 230/242/210 251/243/210 228/244/210
f 230/242/211 232/252/211 254/253/211 251/243/211
f 232/252/212 234/257/212 257/258/212 254/253/212
f 234/257/213 217/262/213 236/263/213 257/258/213
f 228/244/214 251/243/214 252/246/214 226/247/214
f 251/243/215 254/253/215 255/254/215 252/246/215
f 254/253/216 257/258/216 258/259/216 255/254/216
f 257/258/217 236/263/217 238/264/217 258/259/217
f 226/247/218 252/246/218 253/248/218 224/249/218
f 252/246/219 255/254/219 256/255/219 253/248/219
f 255/254/220 258/259/220 259/260/220 256/255/220
f 258/259/221 238/264/221 240/265/221 259/260/221
f 224/249/222 253/248/222 222/250/222 213/251/222
f 253/248/223 256/255/223 220/256/223 222/250/223
f 256/255/224 259/260/224 218/261/224 220/256/224
f 259/260/225 240/265/225 210/266/225 218/261/225
f 268/210/193 269/211/193 271/212/193 270/213/193
f 270/213/194 271/212/194 273/214/194 272/215/194
f 260/216/195 261/217/195 269/211/195 268/210/195
f 272/215/196 273/214/196 262/218/196 263/219/196
f 274/220/197 275/221/197 277/222/197 276/223/197
f 276/223/198 277/222/198 279/224/198 278/225/198
f 263/219/199 262/218/199 275/221/199 274/220/199
f 278/225/200 279/224/200 264/226/200 265/227/200
f 280/228/201 281/229/201 283/230/201 282/231/201
f 282/231/202 283/230/202 285/232/202 284/233/202
f 265/227/203 264/226/203 281/229/203 280/228/203
f 284/233/204 285/232/204 266/234/204 267/235/204
f 286/236/205 287/237/205 289/238/205 288/239/205
f 288/239/206 289/238/206 291/240/206 290/241/206
f 267/235/207 266/234/207 287/237/207 286/236/207
f 290/241/208 291/240/208 261/217/208 260/216/208
f 279/242/209 292/243/209 281/244/209 264/245/209
f 292/243/209 295/246/209 283/247/209 281/244/209
f 295/246/209 298/248/209 285/249/209 283/247/209
f 298/248/209 287/250/209 266/251/209 285/249/209
f 277/252/209 293/253/209 292/243/209 279/242/209
f 293/253/209 296/254/209 295/246/209 292/243/209
f 296/254/209 299/255/209 298/248/209 295/246/209
f 299/255/209 289/256/209 287/250/209 298/248/209
f 275/257/209 294/258/209 293/253/209 277/252/209
f 294/258/209 297/259/209 296/254/209 293/253/209
f 297/259/209 300/260/209 299/255/209 296/254/209
f 300/260/209 291/261/209 289/256/209 299/255/209
f 262/262/209 273/263/209 294/258/209 275/257/209
f 273/263/209 271/264/209 297/259/209 294/258/209
f 271/264/209 269/265/209 300/260/209 297/259/209
f 269/265/209 261/266/209 291/261/209 300/260/209
f 265/245/210 280/242/210 301/243/210 278/244/210
f 280/242/211 282/252/211 304/253/211 301/243/211
f 282/252/212 284/257/212 307/258/212 304/253/212
f 284/257/213 267/262/213 286/263/213 307/258/213
f 278/244/214 301/243/214 302/246/214 276/247/214
f 301/243/215 304/253/215 305/254/215 302/246/215
f 304/253/216 307/258/216 308/259/216 305/254/216
f 307/258/217 286/263/217 288/264/217 308/259/217
f 276/247/218 302/246/218 303/248/218 274/249/218
f 302/246/219 305/254/219 306/255/219 303/248/219
f 305/254/220 308/259/220 309/260/220 306/255/220
f 308/259/221 288/264/221 290/265/221 309/260/221
f 274/249/222 303/248/222 272/250/222 263/251/222
f 303/248/223 306/255/223 270/256/223 272/250/223
f 306/255/224 309/260/224 268/261/224 270/256/224
f 309/260/225 290/265/225 260/266/225 268/261/225
f 318/210/193 319/211/193 321/212/193 320/213/193
f 320/213/194 321/212/194 323/214/194 322/215/194
f 310/216/195 311/217/195 319/211/195 318/210/195
f 322/215/196 323/214/196 312/218/196 313/219/196
f 324/220/197 325/221/197 327/222/197 326/223/197
f 326/223/198 327/222/198 329/224/198 328/225/198
f 313/219/199 312/218/199 325/221/199 324/220/199
f 328/225/200 329/224/200 314/226/200 315/227/200
f 330/228/201 331/229/201 333/230/201 332/231/201
f 332/231/202 333/230/202 335/232/202 334/233/202
f 315/227/203 314/226/203 331/229/203 330/228/203
f 334/233/204 335/232/204 316/234/204 317/235/204
f 336/236/205 337/237/205 339/238/205 338/239/205
f 338/239/206 339/238/206 341/240/206 340/241/206
f 317/235/207 316/234/207 337/237/207 336/236/207
f 340/241/208 341/240/208 311/217/208 310/216/208
f 329/242/209 342/243/209 331/244/209 314/245/209
f 342/243/209 345/246/209 333/247/209 331/244/209
f 345/246/209 348/248/209 335/249/209 333/247/209
f 348/248/209 337/250/209 316/251/209 335/249/209
f 327/252/209 343/253/209 342/243/209 329/242/209
f 343/253/209 346/254/209 345/246/209 342/243/209
f 346/254/209 349/255/209 348/248/209 345/246/209
f 349/255/209 339/256/209 337/250/209 348/248/209
f 325/257/209 344/258/209 343/253/209 327/252/209
f 344/258/209 347/259/209 346/254/209 343/253/209
f 347/259/209 350/260/209 349/255/209 346/254/209
f 350/260/209 341/261/209 339/256/209 349/255/209
f 312/262/209 323/263/209 344/258/209 325/257/209
f 323/263/209 321/264/209 347/259/209 344/258/209
f 321/264/209 319/265/209 350/260/209 347/259/209
f 319/265/209 311/266/209 341/261/209 350/260/209
f 315/245/210 330/242/210 351/243/210 328/244/210
f 330/242/211 332/252/211 354/253/211 351/243/211
f 332/252/212 334/257/212 357/258/212 354/253/212
f 334/257/213 317/262/213 336/263/213 357/258/213
f 328/244/214 351/243/214 352/246/214 326/247/214
f 351/243/215 354/253/215 355/254/215 352/246/215
f 354/253/216 357/258/216 358/259/216 355/254/216
f 357/258/217 336/263/217 338/264/217 358/259/217
f 326/247/218 352/246/218 353/248/218 324/249/218
f 352/246/219 355/254/219 356/255/219 353/248/219
f 355/254/220 358/259/220 359/260/220 356/255/220
f 358/259/221 338/264/221 340/265/221 359/260/221
f 324/249/222 353/248/222 322/250/222 313/251/222
f 353/248/223 356/255/223 320/256/223 322/250/223
f 356/255/224 359/260/224 318/261/224 320/256/224
f 359/260/225 340/265/225 310/266/225 318/261/225
f 368/210/193 369/211/193 371/212/193 370/213/193
f 370/213/194 371/212/194 373/214/194 372/215/194
f 360/216/195 361/217/195 369/211/195 368/210/195
f 372/215/196 373/214/196 362/218/196 363/219/196
f 374/220/197 375/221/197 377/222/197 376/223/197
f 376/223/198 377/222/198 379/224/198 378/225/198
f 363/219/199 362/218/199 375/221/199 374/220/199
f 378/225/200 379/224/200 364/226/200 365/227/200
f 380/228/201 381/229/201 383/230/201 382/231/201
f 382/231/202 383/230/202 385/232/202 384/233/202
f 365/227/203 364/226/203 381/229/203 380/228/203
f 384/233/204 385/232/204 366/234/204 367/235/204
f 386/236/205 387/237/205 389/238/205 388/239/205
f 388/239/206 389/238/206 391/240/206 390/241/206
f 367/235/207 366/234/207 387/237/207 386/236/207
f 390/241/208 391/240/208 361/217/208 360/216/208
f 379/242/209 392/243/209 381/244/209 364/245/209
f 392/243/209 395/246/209 383/247/209 381/244/209
f 395/246/209 398/248/209 385/249/209 383/247/209
f 398/248/209 387/250/209 366/251/209 385/249/209
f 377/252/209 393/253/209 392/243/209 379/242/209
f 393/253/209 396/254/209 395/246/209 392/243/209
f 396/254/209 399/255/209 398/248/209 395/246/209
f 399/255/209 389/256/209 387/250/209 398/248/209
f 375/257/209 394/258/209 393/253/209 377/252/209
f 394/258/209 397/259/209 396/254/209 393/253/209
f 397/259/209 400/260/209 399/255/209 396/254/209
f 400/260/209 391/261/209 389/256/209 399/255/209
f 362/262/209 373/263/209 394/258/209 375/257/209
f 373/263/209 371/264/209 397/259/209 394/258/209
f 371/264/209 369/265/209 400/260/209 397/259/209
f 369/265/209 361/266/209 391/261/209 400/260/209
f 365/245/210 380/242/210 401/243/210 378/244/210
f 380/242/211 382/252/211 404/253/211 401/243/211
f 382/252/212 384/257/212 407/258/212 404/253/212
f 384/257/213 367/262/213 386/263/213 407/258/213
f 378/244/214 401/243/214 402/246/214 376/247/214
f 401/243/215 404/253/215 405/254/215 402/246/215
f 404/253/216 407/258/216 408/259/216 405/254/216
f 407/258/217 386/263/217 388/264/217 408/259/217
f 376/247/218 402/246/218 403/248/218 374/249/218
f 402/246/219 405/254/219 406/255/219 403/248/219
f 405/254/220 408/259/220 409/260/220 406/255/220
f 408/259/221 388/264/221 390/265/221 409/260/221
f 374/249/222 403/248/222 372/250/222 363/251/222
f 403/248/223 406/255/223 370/256/223 372/250/223
f 406/255/224 409/260/224 368/261/224 370/256/224
f 409/260/225 390/265/225 360/266/225 368/261/225
f 418/210/193 419/211/193 421/212/193 420/213/193
f 420/213/194 421/212/194 423/214/194 422/215/194
f 410/216/195 411/217/195 419/211/195 418/210/195
f 422/215/196 423/214/196 412/218/196 413/219/196
f 424/220/197 425/221/197 427/222/197 426/223/197
f 426/223/198 427/222/198 429/224/198 428/225/198
f 413/219/199 412/218/199 425/221/199 424/220/199
f 428/225/200 429/224/200 414/226/200 415/227/200
f 430/228/201 431/229/201 433/230/201 432/231/201
f 432/231/202 433/230/202 435/232/202 434/233/202
f 415/227/203 414/226/203 431/229/203 430/228/203
f 434/233/204 435/232/204 416/234/204 417/235/204
f 436/236/205 437/237/205 439/238/205 438/239/205
f 438/239/206 439/238/206 441/240/206 440/241/206
f 417/235/226 416/234/226 437/237/226 436/236/226
f 440/241/208 441/240/208 411/217/208 410/216/208
f 429/242/209 442/243/209 431/244/209 414/245/209
f 442/243/209 445/246/209 433/247/209 431/244/209
f 445/246/209 448/248/209 435/249/209 433/247/209
f 448/248/209 437/250/209 416/251/209 435/249/209
f 427/252/209 443/253/209 442/243/209 429/242/209
f 443/253/209 446/254/209 445/246/209 442/243/209
f 446/254/209 449/255/209 448/248/209 445/246/209
f 449/255/209 439/256/209 437/250/209 448/248/209
f 425/257/209 444/258/209 443/253/209 427/252/209
f 444/258/209 447/259/209 446/254/209 443/253/209
f 447/259/209 450/260/209 449/255/209 446/254/209
f 450/260/209 441/261/209 439/256/209 449/255/209
f 412/262/209 423/263/209 444/258/209 425/257/209
f 423/263/209 421/264/209 447/259/209 444/258/209
f 421/264/209 419/265/209 450/260/209 447/259/209
f 419/265/209 411/266/209 441/261/209 450/260/209
f 415/245/210 430/242/210 451/243/210 428/244/210
f 430/242/211 432/252/211 454/253/211 451/243/211
f 432/252/212 434/257/212 457/258/212 454/253/212
f 434/257/213 417/262/213 436/263/213 457/258/213
f 428/244/214 451/243/214 452/246/214 426/247/214
f 451/243/215 454/253/215 455/254/215 452/246/215
f 454/253/216 457/258/216 458/259/216 455/254/216
f 457/258/217 436/263/217 438/264/217 458/259/217
f 426/247/218 452/246/218 453/248/218 424/249/218
f 452/246/219 455/254/219 456/255/219 453/248/219
f 455/254/220 458/259/220 459/260/220 456/255/220
f 458/259/221 438/264/221 440/265/221 459/260/221
f 424/249/222 453/248/222 422/250/222 413/251/222
f 453/248/223 456/255/223 420/256/223 422/250/223
f 456/255/224 459/260/224 418/261/224 420/256/224
f 459/260/225 440/265/225 410/266/225 418/261/225
f 468/210/193 469/211/193 471/212/193 470/213/193
f 470/213/194 471/212/194 473/214/194 472/215/194
f 460/216/195 461/217/195 469/211/195 468/210/195
f 472/215/196 473/214/196 462/218/196 463/219/196
f 474/220/197 475/221/197 477/222/197 476/223/197
f 476/223/198 477/222/198 479/224/198 478/225/198
f 463/219/199 462/218/199 475/221/199 474/220/199
f 478/225/200 479/224/200 464/226/200 465/227/200
f 480/228/201 481/229/201 483/230/201 482/231/201
f 482/231/202 483/230/202 485/232/202 484/233/202
f 465/227/203 464/226/203 481/229/203 480/228/203
f 484/233/204 485/232/204 466/234/204 467/235/204
f 486/236/205 487/237/205 489/238/205 488/239/205
f 488/239/206 489/238/206 491/240/206 490/241/206
f 467/235/226 466/234/226 487/237/226 486/236/226
f 490/241/208 491/240/208 461/217/208 460/216/208
f 479/242/209 492/243/209 481/244/209 464/245/209
f 492/243/209 495/246/209 483/247/209 481/244/209
f 495/246/209 498/248/209 485/249/209 483/247/209
f 498/248/209 487/250/209 466/251/209 485/249/209
f 477/252/209 493/253/209 492/243/209 479/242/209
f 493/253/209 496/254/209 495/246/209 492/243/209
f 496/254/209 499/255/209 498/248/209 495/246/209
f 499/255/209 489/256/209 487/250/209 498/248/209
f 475/257/209 494/258/209 493/253/209 477/252/209
f 494/258/209 497/259/209 496/254/209 493/253/209
f 497/259/209 500/260/209 499/255/209 496/254/209
f 500/260/209 491/261/209 489/256/209 499/255/209
f 462/262/209 473/263/209 494/258/209 475/257/209
f 473/263/209 471/264/209 497/259/209 494/258/209
f 471/264/209 469/265/209 500/260/209 497/259/209
f 469/265/209 461/266/209 491/261/209 500/260/209
f 465/245/210 480/242/210 501/243/210 478/244/210
f 480/242/211 482/252/211 504/253/211 501/243/211
f 482/252/212 484/257/212 507/258/212 504/253/212
f 484/257/213 467/262/213 486/263/213 507/258/213
f 478/244/214 501/243/214 502/246/214 476/247/214
f 501/243/215 504/253/215 505/254/215 502/246/215
f 504/253/216 507/258/216 508/259/216 505/254/216
f 507/258/217 486/263/217 488/264/217 508/259/217
f 476/247/218 502/246/218 503/248/218 474/249/218
f 502/246/219 505/254/219 506/255/219 503/248/219
f 505/254/220 508/259/220 509/260/220 506/255/220
f 508/259/221 488/264/221 490/265/221 509/260/221
f 474/249/222 503/248/222 472/250/222 463/251/222
f 503/248/223 506/255/223 470/256/223 472/250/223
f 506/255/224 509/260/224 468/261/224 470/256/224
f 509/260/225 490/265/225 460/266/225 468/261/225
f 518/210/193 519/211/193 521/212/193 520/213/193
f 520/213/194 521/212/194 523/214/194 522/215/194
f 510/216/195 511/217/195 519/211/195 518/210/195
f 522/215/196 523/214/196 512/218/196 513/219/196
f 524/220/197 525/221/197 527/222/197 526/223/197
f 526/223/198 527/222/198 529/224/198 528/225/198
f 513/219/199 512/218/199 525/221/199 524/220/199
f 528/225/200 529/224/200 514/226/200 515/227/200
f 530/228/201 531/229/201 533/230/201 532/231/201
f 532/231/202 533/230/202 535/232/202 534/233/202
f 515/227/203 514/226/203 531/229/203 530/228/203
f 534/233/204 535/232/204 516/234/204 517/235/204
f 536/236/205 537/237/205 539/238/205 538/239/205
f 538/239/206 539/238/206 541/240/206 540/241/206
f 517/235/207 516/234/207 537/237/207 536/236/207
f 540/241/208 541/240/208 511/217/208 510/216/208
f 529/242/209 542/243/209 531/244/209 514/245/209
f 542/243/209 545/246/209 533/247/209 531/244/209
f 545/246/209 548/248/209 535/249/209 533/247/209
f 548/248/209 537/250/209 516/251/209 535/249/209
f 527/252/209 543/253/209 542/243/209 529/242/209
f 543/253/209 546/254/209 545/246/209 542/243/209
f 546/254/209 549/255/209 548/248/209 545/246/209
f 549/255/209 539/256/209 537/250/209 548/248/209
f 525/257/209 544/258/209 543/253/209 527/252/209
f 544/258/209 547/259/209 546/254/209 543/253/209
f 547/259/209 550/260/209 549/255/209 546/254/209
f 550/260/209 541/261/209 539/256/209 549/255/209
f 512/262/209 523/263/209 544/258/209 525/257/209
f 523/263/209 521/264/209 547/259/209 544/258/209
f 521/264/209 519/265/209 550/260/209 547/259/209
f 519/265/209 511/266/209 541/261/209 550/260/209
f 515/245/210 530/242/210 551/243/210 528/244/210
f 530/242/211 532/252/211 554/253/211 551/243/211
f 532/252/212 534/257/212 557/258/212 554/253/212
f 534/257/213 517/262/213 536/263/213 557/258/213
f 528/244/214 551/243/214 552/246/214 526/247/214
f 551/243/215 554/253/215 555/254/215 552/246/215
f 554/253/216 557/258/216 558/259/216 555/254/216
f 557/258/217 536/263/217 538/264/217 558/259/217
f 526/247/218 552/246/218 553/248/218 524/249/218
f 552/246/219 555/254/219 556/255/219 553/248/219
f 555/254/220 558/259/220 559/260/220 556/255/220
f 558/259/221 538/264/221 540/265/221 559/260/221
f 524/249/222 553/248/222 522/250/222 513/251/222
f 553/248/223 556/255/223 520/256/223 522/250/223
f 556/255/224 559/260/224 518/261/224 520/256/224
f 559/260/225 540/265/225 510/266/225 518/261/225
f 568/210/193 569/211/193 571/212/193 570/213/193
f 570/213/194 571/212/194 573/214/194 572/215/194
f 560/216/195 561/217/195 569/211/195 568/210/195
f 572/215/196 573/214/196 562/218/196 563/219/196
f 574/220/197 575/221/197 577/222/197 576/223/197
f 576/223/198 577/222/198 579/224/198 578/225/198
f 563/219/199 562/218/199 575/221/199 574/220/199
f 578/225/200 579/224/200 564/226/200 565/227/200
f 580/228/201 581/229/201 583/230/201 582/231/201
f 582/231/202 583/230/202 585/232/202 584/233/202
f 565/227/203 564/226/203 581/229/203 580/228/203
f 584/233/204 585/232/204 566/234/204 567/235/204
f 586/236/205 587/237/205 589/238/205 588/239/205
f 588/239/206 589/238/206 591/240/206 590/241/206
f 567/235/207 566/234/207 587/237/207 586/236/207
f 590/241/208 591/240/208 561/217/208 560/216/208
f 579/242/209 592/243/209 581/244/209 564/245/209
f 592/243/209 595/246/209 583/247/209 581/244/209
f 595/246/209 598/248/209 585/249/209 583/247/209
f 598/248/209 587/250/209 566/251/209 585/249/209
f 577/252/209 593/253/209 592/243/209 579/242/209
f 593/253/209 596/254/209 595/246/209 592/243/209
f 596/254/209 599/255/209 598/248/209 595/246/209
f 599/255/209 589/256/209 587/250/209 598/248/209
f 575/257/209 594/258/209 593/253/209 577/252/209
f 594/258/209 597/259/209 596/254/209 593/253/209
f 597/259/209 600/260/209 599/255/209 596/254/209
f 600/260/209 591/261/209 589/256/209 599/255/209
f 562/262/209 573/263/209 594/258/209 575/257/209
f 573/263/209 571/264/209 597/259/209 594/258/209
f 571/264/209 569/265/209 600/260/209 597/259/209
f 569/265/209 561/266/209 591/261/209 600/260/209
f 565/245/210 580/242/210 601/243/210 578/244/210
f 580/242/211 582/252/211 604/253/211 601/243/211
f 582/252/212 584/257/212 607/258/212 604/253/212
f 584/257/213 567/262/213 586/263/213 607/258/213
f 578/244/214 601/243/214 602/246/214 576/247/214
f 601/243/215 604/253/215 605/254/215 602/246/215
f 604/253/216 607/258/216 608/259/216 605/254/216
f 607/258/217 586/263/217 588/264/217 608/259/217
f 576/247/218 602/246/218 603/248/218 574/249/218
f 602/246/219 605/254/219 606/255/219 603/248/219
f 605/254/220 608/259/220 609/260/220 606/255/220
f 608/259/221 588/264/221 590/265/221 609/260/221
f 574/249/222 603/248/222 572/250/222 563/251/222
f 603/248/223 606/255/223 570/256/223 572/250/223
f 606/255/224 609/260/224 568/261/224 570/256/224
f 609/260/225 590/265/225 560/266/225 568/261/225
f 618/210/193 619/211/193 621/212/193 620/213/193
f 620/213/194 621/212/194 623/214/194 622/215/194
f 610/216/195 611/217/195 619/211/195 618/210/195
f 622/215/196 623/214/196 612/218/196 613/219/196
f 624/220/197 625/221/197 627/222/197 626/223/197
f 626/223/198 627/222/198 629/224/198 628/225/198
f 613/219/199 612/218/199 625/221/199 624/220/199
f 628/225/200 629/224/200 614/226/200 615/227/200
f 630/228/201 631/229/201 633/230/201 632/231/201
f 632/231/202 633/230/202 635/232/202 634/233/202
f 615/227/203 614/226/203 631/229/203 630/228/203
f 634/233/204 635/232/204 616/234/204 617/235/204
f 636/236/205 637/237/205 639/238/205 638/239/205
f 638/239/206 639/238/206 641/240/206 640/241/206
f 617/235/207 616/234/207 637/237/207 636/236/207
f 640/241/227 641/240/227 611/217/227 610/216/227
f 629/242/209 642/243/209 631/244/209 614/245/209
f 642/243/209 645/246/209 633/247/209 631/244/209
f 645/246/209 648/248/209 635/249/209 633/247/209
f 648/248/209 637/250/209 616/251/209 635/249/209
f 627/252/209 643/253/209 642/243/209 629/242/209
f 643/253/209 646/254/209 645/246/209 642/243/209
f 646/254/209 649/255/209 648/248/209 645/246/209
f 649/255/209 639/256/209 637/250/209 648/248/209
f 625/257/209 644/258/209 643/253/209 627/252/209
f 644/258/209 647/259/209 646/254/209 643/253/209
f 647/259/209 650/260/209 649/255/209 646/254/209
f 650/260/209 641/261/209 639/256/209 649/255/209
f 612/262/209 623/263/209 644/258/209 625/257/209
f 623/263/209 621/264/209 647/259/209 644/258/209
f 621/264/209 619/265/209 650/260/209 647/259/209
f 619/265/209 611/266/209 641/261/209 650/260/209
f 615/245/210 630/242/210 651/243/210 628/244/210
f 630/242/211 632/252/211 654/253/211 651/243/211
f 632/252/212 634/257/212 657/258/212 654/253/212
f 634/257/213 617/262/213 636/263/213 657/258/213
f 628/244/214 651/243/214 652/246/214 626/247/214
f 651/243/215 654/253/215 655/254/215 652/246/215
f 654/253/216 657/258/216 658/259/216 655/254/216
f 657/258/217 636/263/217 638/264/217 658/259/217
f 626/247/218 652/246/218 653/248/218 624/249/218
f 652/246/219 655/254/219 656/255/219 653/248/219
f 655/254/220 658/259/220 659/260/220 656/255/220
f 658/259/221 638/264/221 640/265/221 659/260/221
f 624/249/222 653/248/222 622/250/222 613/251/222
f 653/248/223 656/255/223 620/256/223 622/250/223
f 656/255/224 659/260/224 618/261/224 620/256/224
f 659/260/225 640/265/225 610/266/225 618/261/225
f 668/210/193 669/211/193 671/212/193 670/213/193
f 670/213/194 671/212/194 673/214/194 672/215/194
f 660/216/195 661/217/195 669/211/195 668/210/195
f 672/215/196 673/214/196 662/218/196 663/219/196
f 674/220/197 675/221/197 677/222/197 676/223/197
f 676/223/198 677/222/198 679/224/198 678/225/198
f 663/219/199 662/218/199 675/221/199 674/220/199
f 678/225/200 679/224/200 664/226/200 665/227/200
f 680/228/201 681/229/201 683/230/201 682/231/201
f 682/231/202 683/230/202 685/232/202 684/233/202
f 665/227/203 664/226/203 681/229/203 680/228/203
f 684/233/204 685/232/204 666/234/204 667/235/204
f 686/236/205 687/237/205 689/238/205 688/239/205
f 688/239/206 689/238/206 691/240/206 690/241/206
f 667/235/226 666/234/226 687/237/226 686/236/226
f 690/241/227 691/240/227 661/217/227 660/216/227
f 679/242/209 692/243/209 681/244/209 664/245/209
f 692/243/209 695/246/209 683/247/209 681/244/209
f 695/246/209 698/248/209 685/249/209 683/247/209
f 698/248/209 687/250/209 666/251/209 685/249/209
f 677/252/209 693/253/209 692/243/209 679/242/209
f 693/253/209 696/254/209 695/246/209 692/243/209
f 696/254/209 699/255/209 698/248/209 695/246/209
f 699/255/209 689/256/209 687/250/209 698/248/209
f 675/257/209 694/258/209 693/253/209 677/252/209
f 694/258/209 697/259/209 696/254/209 693/253/209
f 697/259/209 700/260/209 699/255/209 696/254/209
f 700/260/209 691/261/209 689/256/209 699/255/209
f 662/262/209 673/263/209 694/258/209 675/257/209
f 673/263/209 671/264/209 697/259/209 694/258/209
f 671/264/209 669/265/209 700/260/209 697/259/209
f 669/265/209 661/266/209 691/261/209 700/260/209
f 665/245/210 680/242/210 701/243/210 678/244/210
f 680/242/211 682/252/211 704/253/211 701/243/211
f 682/252/212 684/257/212 707/258/212 704/253/212
f 684/257/213 667/262/213 686/263/213 707/258/213
f 678/244/214 701/243/214 702/246/214 676/247/214
f 701/243/215 704/253/215 705/254/215 702/246/215
f 704/253/216 707/258/216 708/259/216 705/254/216
f 707/258/217 686/263/217 688/264/217 708/259/217
f 676/247/218 702/246/218 703/248/218 674/249/218
f 702/246/219 705/254/219 706/255/219 703/248/219
f 705/254/220 708/259/220 709/260/220 706/255/220
f 708/259/221 688/264/221 690/265/221 709/260/221
f 674/249/222 703/248/222 672/250/222 663/251/222
f 703/248/223 706/255/223 670/256/223 672/250/223
f 706/255/224 709/260/224 668/261/224 670/256/224
f 709/260/225 690/265/225 660/266/225 668/261/225
f 718/210/193 719/211/193 721/212/193 720/213/193
f 720/213/194 721/212/194 723/214/194 722/215/194
f 710/216/195 711/217/195 719/211/195 718/210/195
f 722/215/196 723/214/196 712/218/196 713/219/196
f 724/220/197 725/221/197 727/222/197 726/223/197
f 726/223/198 727/222/198 729/224/198 728/225/198
f 713/219/199 712/218/199 725/221/199 724/220/199
f 728/225/200 729/224/200 714/226/200 715/227/200
f 730/228/201 731/229/201 733/230/201 732/231/201
f 732/231/202 733/230/202 735/232/202 734/233/202
f 715/227/203 714/226/203 731/229/203 730/228/203
f 734/233/204 735/232/204 716/234/204 717/235/204
f 736/236/205 737/237/205 739/238/205 738/239/205
f 738/239/206 739/238/206 741/240/206 740/241/206
f 717/235/207 716/234/207 737/237/207 736/236/207
f 740/241/208 741/240/208 711/217/208 710/216/208
f 729/242/209 742/243/209 731/244/209 714/245/209
f 742/243/209 745/246/209 733/247/209 731/244/209
f 745/246/209 748/248/209 735/249/209 733/247/209
f 748/248/209 737/250/209 716/251/209 735/249/209
f 727/252/209 743/253/209 742/243/209 729/242/209
f 743/253/209 746/254/209 745/246/209 742/243/209
f 746/254/209 749/255/209 748/248/209 745/246/209
f 749/255/209 739/256/209 737/250/209 748/248/209
f 725/257/209 744/258/209 743/253/209 727/252/209
f 744/258/209 747/259/209 746/254/209 743/253/209
f 747/259/209 750/260/209 749/255/209 746/254/209
f 750/260/209 741/261/209 739/256/209 749/255/209
f 712/262/209 723/263/209 744/258/209 725/257/209
f 723/263/209 721/264/209 747/259/209 744/258/209
f 721/264/209 719/265/209 750/260/209 747/259/209
f 719/265/209 711/266/209 741/261/209 750/260/209
f 715/245/210 730/242/210 751/243/210 728/244/210
f 730/242/211 732/252/211 754/253/211 751/243/211
f 732/252/212 734/257/212 757/258/212 754/253/212
f 734/257/213 717/262/213 736/263/213 757/258/213
f 728/244/214 751/243/214 752/246/214 726/247/214
f 751/243/215 754/253/215 755/254/215 752/246/215
f 754/253/216 757/258/216 758/259/216 755/254/216
f 757/258/217 736/263/217 738/264/217 758/259/217
f 726/247/218 752/246/218 753/248/218 724/249/218
f 752/246/219 755/254/219 756/255/219 753/248/219
f 755/254/220 758/259/220 759/260/220 756/255/220
f 758/259/221 738/264/221 740/265/221 759/260/221
f 724/249/222 753/248/222 722/250/222 713/251/222
f 753/248/223 756/255/223 720/256/223 722/250/223
f 756/255/224 759/260/224 718/261/224 720/256/224
f 759/260/225 740/265/225 710/266/225 718/261/225
f 768/210/193 769/211/193 771/212/193 770/213/193
f 770/213/194 771/212/194 773/214/194 772/215/194
f 760/216/195 761/217/195 769/211/195 768/210/195
f 772/215/196 773/214/196 762/218/196 763/219/196
f 774/220/197 775/221/197 777/222/197 776/223/197
f 776/223/198 777/222/198 779/224/198 778/225/198
f 763/219/199 762/218/199 775/221/199 774/220/199
f 778/225/200 779/224/200 764/226/200 765/227/200
f 780/228/201 781/229/201 783/230/201 782/231/201
f 782/231/202 783/230/202 785/232/202 784/233/202
f 765/227/203 764/226/203 781/229/203 780/228/203
f 784/233/204 785/232/204 766/234/204 767/235/204
f 786/236/205 787/237/205 789/238/205 788/239/205
f 788/239/206 789/238/206 791/240/206 790/241/206
f 767/235/207 766/234/207 787/237/207 786/236/207
f 790/241/208 791/240/208 761/217/208 760/216/208
f 779/242/209 792/243/209 781/244/209 764/245/209
f 792/243/209 795/246/209 783/247/209 781/244/209
f 795/246/209 798/248/209 785/249/209 783/247/209
f 798/248/209 787/250/209 766/251/209 785/249/209
f 777/252/209 793/253/209 792/243/209 779/242/209
f 793/253/209 796/254/209 795/246/209 792/243/209
f 796/254/209 799/255/209 798/248/209 795/246/209
f 799/255/209 789/256/209 787/250/209 798/248/209
f 775/257/209 794/258/209 793/253/209 777/252/209
f 794/258/209 797/259/209 796/254/209 793/253/209
f 797/259/209 800/260/209 799/255/209 796/254/209
f 800/260/209 791/261/209 789/256/209 799/255/209
f 762/262/209 773/263/209 794/258/209 775/257/209
f 773/263/209 771/264/209 797/259/209 794/258/209
f 771/264/209 769/265/209 800/260/209 797/259/209
f 769/265/209 761/266/209 791/261/209 800/260/209
f 765/245/210 780/242/210 801/243/210 778/244/210
f 780/242/211 782/252/211 804/253/211 801/243/211
f 782/252/212 784/257/212 807/258/212 804/253/212
f 784/257/213 767/262/213 786/263/213 807/258/213
f 778/244/214 801/243/214 802/246/214 776/247/214
f 801/243/215 804/253/215 805/254/215 802/246/215
f 804/253/216 807/258/216 808/259/216 805/254/216
f 807/258/217 786/263/217 788/264/217 808/259/217
f 776/247/218 802/246/218 803/248/218 774/249/218
f 802/246/219 805/254/219 806/255/219 803/248/219
f 805/254/220 808/259/220 809/260/220 806/255/220
f 808/259/221 788/264/221 790/265/221 809/260/221
f 774/249/222 803/248/222 772/250/222 763/251/222
f 803/248/223 806/255/223 770/256/223 772/250/223
f 806/255/224 809/260/224 768/261/224 770/256/224
f 809/260/225 790/265/225 760/266/225 768/261/225
f 818/210/193 819/211/193 821/212/193 820/213/193
f 820/213/194 821/212/194 823/214/194 822/215/194
f 810/216/195 811/217/195 819/211/195 818/210/195
f 822/215/196 823/214/196 812/218/196 813/219/196
f 824/220/197 825/221/197 827/222/197 826/223/197
f 826/223/198 827/222/198 829/224/198 828/225/198
f 813/219/199 812/218/199 825/221/199 824/220/199
f 828/225/200 829/224/200 814/226/200 815/227/200
f 830/228/201 831/229/201 833/230/201 832/231/201
f 832/231/202 833/230/202 835/232/202 834/233/202
f 815/227/203 814/226/203 831/229/203 830/228/203
f 834/233/204 835/232/204 816/234/204 817/235/204
f 836/236/205 837/237/205 839/238/205 838/239/205
f 838/239/206 839/238/206 841/240/206 840/241/206
f 817/235/226 816/234/226 837/237/226 836/236/226
f 840/241/208 841/240/208 811/217/208 810/216/208
f 829/242/209 842/243/209 831/244/209 814/245/209
f 842/243/209 845/246/209 833/247/209 831/244/209
f 845/246/209 848/248/209 835/249/209 833/247/209
f 848/248/209 837/250/209 816/251/209 835/249/209
f 827/252/209 843/253/209 842/243/209 829/242/209
f 843/253/209 846/254/209 845/246/209 842/243/209
f 846/254/209 849/255/209 848/248/209 845/246/209
f 849/255/209 839/256/209 837/250/209 848/248/209
f 825/257/209 844/258/209 843/253/209 827/252/209
f 844/258/209 847/259/209 846/254/209 843/253/209
f 847/259/209 850/260/209 849/255/209 846/254/209
f 850/260/209 841/261/209 839/256/209 849/255/209
f 812/262/209 823/263/209 844/258/209 825/257/209
f 823/263/209 821/264/209 847/259/209 844/258/209
f 821/264/209 819/265/209 850/260/209 847/259/209
f 819/265/209 811/266/209 841/261/209 850/260/209
f 815/245/210 830/242/210 851/243/210 828/244/210
f 830/242/211 832/252/211 854/253/211 851/243/211
f 832/252/212 834/257/212 857/258/212 854/253/212
f 834/257/213 817/262/213 836/263/213 857/258/213
f 828/244/214 851/243/214 852/246/214 826/247/214
f 851/243/215 854/253/215 855/254/215 852/246/215
f 854/253/216 857/258/216 858/259/216 855/254/216
f 857/258/217 836/263/217 838/264/217 858/259/217
f 826/247/218 852/246/218 853/248/218 824/249/218
f 852/246/219 855/254/219 856/255/219 853/248/219
f 855/254/220 858/259/220 859/260/220 856/255/220
f 858/259/221 838/264/221 840/265/221 859/260/221
f 824/249/222 853/248/222 822/250/222 813/251/222
f 853/248/223 856/255/223 820/256/223 822/250/223
f 856/255/224 859/260/224 818/261/224 820/256/224
f 859/260/225 840/265/225 810/266/225 818/261/225
f 868/210/193 869/211/193 871/212/193 870/213/193
f 870/213/194 871/212/194 873/214/194 872/215/194
f 860/216/195 861/217/195 869/211/195 868/210/195
f 872/215/196 873/214/196 862/218/196 863/219/196
f 874/220/197 875/221/197 877/222/197 876/223/197
f 876/223/198 877/222/198 879/224/198 878/225/198
f 863/219/199 862/218/199 875/221/199 874/220/199
f 878/225/200 879/224/200 864/226/200 865/227/200
f 880/228/201 881/229/201 883/230/201 882/231/201
f 882/231/202 883/230/202 885/232/202 884/233/202
f 865/227/203 864/226/203 881/229/203 880/228/203
f 884/233/204 885/232/204 866/234/204 867/235/204
f 886/236/205 887/237/205 889/238/205 888/239/205
f 888/239/206 889/238/206 891/240/206 890/241/206
f 867/235/226 866/234/226 887/237/226 886/236/226
f 890/241/208 891/240/208 861/217/208 860/216/208
f 879/242/209 892/243/209 881/244/209 864/245/209
f 892/243/209 895/246/209 883/247/209 881/244/209
f 895/246/209 898/248/209 885/249/209 883/247/209
f 898/248/209 887/250/209 866/251/209 885/249/209
f 877/252/209 893/253/209 892/243/209 879/242/209
f 893/253/209 896/254/209 895/246/209 892/243/209
f 896/254/209 899/255/209 898/248/209 895/246/209
f 899/255/209 889/256/209 887/250/209 898/248/209
f 875/257/209 894/258/209 893/253/209 877/252/209
f 894/258/209 897/259/209 896/254/209 893/253/209
f 897/259/209 900/260/209 899/255/209 896/254/209
f 900/260/209 891/261/209 889/256/209 899/255/209
f 862/262/209 873/263/209 894/258/209 875/257/209
f 873/263/209 871/264/209 897/259/209 894/258/209
f 871/264/209 869/265/209 900/260/209 897/259/209
f 869/265/209 861/266/209 891/261/209 900/260/209
f 865/245/228 880/242/228 901/243/228 878/244/228
f 880/242/211 882/252/211 904/253/211 901/243/211
f 882/252/212 884/257/212 907/258/212 904/253/212
f 884/257/213 867/262/213 886/263/213 907/258/213
f 878/244/214 901/243/214 902/246/214 876/247/214
f 901/243/215 904/253/215 905/254/215 902/246/215
f 904/253/216 907/258/216 908/259/216 905/254/216
f 907/258/217 886/263/217 888/264/217 908/259/217
f 876/247/218 902/246/218 903/248/218 874/249/218
f 902/246/219 905/254/219 906/255/219 903/248/219
f 905/254/220 908/259/220 909/260/220 906/255/220
f 908/259/221 888/264/221 890/265/221 909/260/221
f 874/249/229 903/248/229 872/250/229 863/251/229
f 903/248/223 906/255/223 870/256/223 872/250/223
f 906/255/224 909/260/224 868/261/224 870/256/224
f 909/260/225 890/265/225 860/266/225 868/261/225
f 918/210/230 919/211/230 921/212/230 920/213/230
f 920/213/231 921/212/231 923/214/231 922/215/231
f 910/216/232 911/217/232 919/211/232 918/210/232
f 922/215/233 923/214/233 912/218/233 913/219/233
f 924/220/234 925/221/234 927/222/234 926/223/234
f 926/223/235 927/222/235 929/224/235 928/225/235
f 913/219/236 912/218/236 925/221/236 924/220/236
f 928/225/237 929/224/237 914/226/237 915/227/237
f 930/228/238 931/229/238 933/230/238 932/231/238
f 932/231/239 933/230/239 935/232/239 934/233/239
f 915/227/240 914/226/240 931/229/240 930/228/240
f 934/233/241 935/232/241 916/234/241 917/235/241
f 936/236/242 937/237/242 939/238/242 938/239/242
f 938/239/243 939/238/243 941/240/243 940/241/243
f 917/235/244 916/234/244 937/237/244 936/236/244
f 940/241/245 941/240/245 911/217/245 910/216/245
f 929/242/246 942/243/246 931/244/246 914/245/246
f 942/243/246 945/246/246 933/247/246 931/244/246
f 945/246/246 948/248/246 935/249/246 933/247/246
f 948/248/246 937/250/246 916/251/246 935/249/246
f 927/252/246 943/253/246 942/243/246 929/242/246
f 943/253/246 946/254/246 945/246/246 942/243/246
f 946/254/246 949/255/246 948/248/246 945/246/246
f 949/255/246 939/256/246 937/250/246 948/248/246
f 925/257/246 944/258/246 943/253/246 927/252/246
f 944/258/246 947/259/246 946/254/246 943/253/246
f 947/259/246 950/260/246 949/255/246 946/254/246
f 950/260/246 941/261/246 939/256/246 949/255/246
f 912/262/246 923/263/246 944/258/246 925/257/246
f 923/263/246 921/264/246 947/259/246 944/258/246
f 921/264/246 919/265/246 950/260/246 947/259/246
f 919/265/246 911/266/246 941/261/246 950/260/246
f 915/245/247 930/242/247 951/243/247 928/244/247
f 930/242/248 932/252/248 954/253/248 951/243/248
f 932/252/249 934/257/249 957/258/249 954/253/249
f 934/257/250 917/262/250 936/263/250 957/258/250
f 928/244/251 951/243/251 952/246/251 926/247/251
f 951/243/252 954/253/252 955/254/252 952/246/252
f 954/253/253 957/258/253 958/259/253 955/254/253
f 957/258/254 936/263/254 938/264/254 958/259/254
f 926/247/255 952/246/255 953/248/255 924/249/255
f 952/246/256 955/254/256 956/255/256 953/248/256
f 955/254/257 958/259/257 959/260/257 956/255/257
f 958/259/258 938/264/258 940/265/258 959/260/258
f 924/249/259 953/248/259 922/250/259 913/251/259
f 953/248/260 956/255/260 920/256/260 922/250/260
f 956/255/261 959/260/261 918/261/261 920/256/261
f 959/260/262 940/265/262 910/266/262 918/261/262
f 968/210/263 969/211/263 971/212/263 970/213/263
f 970/213/264 971/212/264 973/214/264 972/215/264
f 960/216/265 961/217/265 969/211/265 968/210/265
f 972/215/266 973/214/266 962/218/266 963/219/266
f 974/220/267 975/221/267 977/222/267 976/223/267
f 976/223/268 977/222/268 979/224/268 978/225/268
f 963/219/269 962/218/269 975/221/269 974/220/269
f 978/225/270 979/224/270 964/226/270 965/227/270
f 980/228/271 981/229/271 983/230/271 982/231/271
f 982/231/272 983/230/272 985/232/272 984/233/272
f 965/227/273 964/226/273 981/229/273 980/228/273
f 984/233/274 985/232/274 966/234/274 967/235/274
f 986/236/275 987/237/275 989/238/275 988/239/275
f 988/239/276 989/238/276 991/240/276 990/241/276
f 967/235/277 966/234/277 987/237/277 986/236/277
f 990/241/278 991/240/278 961/217/278 960/216/278
f 979/242/279 992/243/279 981/244/279 964/245/279
f 992/243/279 995/246/279 983/247/279 981/244/279
f 995/246/279 998/248/279 985/249/279 983/247/279
f 998/248/279 987/250/279 966/251/279 985/249/279
f 977/252/279 993/253/279 992/243/279 979/242/279
f 993/253/279 996/254/279 995/246/279 992/243/279
f 996/254/279 999/255/279 998/248/279 995/246/279
f 999/255/279 989/256/279 987/250/279 998/248/279
f 975/257/279 994/258/279 993/253/279 977/252/279
f 994/258/279 997/259/279 996/254/279 993/253/279
f 997/259/279 1000/260/279 999/255/279 996/254/279
f 1000/260/279 991/261/279 989/256/279 999/255/279
f 962/262/279 973/263/279 994/258/279 975/257/279
f 973/263/279 971/264/279 997/259/279 994/258/279
f 971/264/279 969/265/279 1000/260/279 997/259/279
f 969/265/279 961/266/279 991/261/279 1000/260/279
f 965/245/280 980/242/280 1001/243/280 978/244/280
f 980/242/281 982/252/281 1004/253/281 1001/243/281
f 982/252/282 984/257/282 1007/258/282 1004/253/282
f 984/257/283 967/262/283 986/263/283 1007/258/283
f 978/244/284 1001/243/284 1002/246/284 976/247/284
f 1001/243/285 1004/253/285 1005/254/285 1002/246/285
f 1004/253/286 1007/258/286 1008/259/286 1005/254/286
f 1007/258/287 986/263/287 988/264/287 1008/259/287
f 976/247/288 1002/246/288 1003/248/288 974/249/288
f 1002/246/289 1005/254/289 1006/255/289 1003/248/289
f 1005/254/290 1008/259/290 1009/260/290 1006/255/290
f 1008/259/291 988/264/291 990/265/291 1009/260/291
f 974/249/292 1003/248/292 972/250/292 963/251/292
f 1003/248/293 1006/255/293 970/256/293 972/250/293
f 1006/255/294 1009/260/294 968/261/294 970/256/294
f 1009/260/295 990/265/295 960/266/295 968/261/295
f 1018/210/296 1019/211/296 1021/212/296 1020/213/296
f 1020/213/297 1021/212/297 1023/214/297 1022/215/297
f 1010/216/298 1011/217/298 1019/211/298 1018/210/298
f 1022/215/299 1023/214/299 1012/218/299 1013/219/299
f 1024/220/300 1025/221/300 1027/222/300 1026/223/300
f 1026/223/301 1027/222/301 1029/224/301 1028/225/301
f 1013/219/302 1012/218/302 1025/221/302 1024/220/302
f 1028/225/303 1029/224/303 1014/226/303 1015/227/303
f 1030/228/304 1031/229/304 1033/230/304 1032/231/304
f 1032/231/305 1033/230/305 1035/232/305 1034/233/305
f 1015/227/306 1014/226/306 1031/229/306 1030/228/306
f 1034/233/307 1035/232/307 1016/234/307 1017/235/307
f 1036/236/308 1037/237/308 1039/238/308 1038/239/308
f 1038/239/309 1039/238/309 1041/240/309 1040/241/309
f 1017/235/310 1016/234/310 1037/237/310 1036/236/310
f 1040/241/311 1041/240/311 1011/217/311 1010/216/311
f 1029/242/312 1042/243/312 1031/244/312 1014/245/312
f 1042/243/312 1045/246/312 1033/247/312 1031/244/312
f 1045/246/313 1048/248/313 1035/249/313 1033/247/313
f 1048/248/312 1037/250/312 1016/251/312 1035/249/312
f 1027/252/313 1043/253/313 1042/243/313 1029/242/313
f 1043/253/313 1046/254/313 1045/246/313 1042/243/313
f 1046/254/313 1049/255/313 1048/248/313 1045/246/313
f 1049/255/312 1039/256/312 1037/250/312 1048/248/312
f 1025/257/313 1044/258/313 1043/253/313 1027/252/313
f 1044/258/312 1047/259/312 1046/254/312 1043/253/312
f 1047/259/313 1050/260/313 1049/255/313 1046/254/313
f 1050/260/313 1041/261/313 1039/256/313 1049/255/313
f 1012/262/313 1023/263/313 1044/258/313 1025/257/313
f 1023/263/312 1021/264/312 1047/259/312 1044/258/312
f 1021/264/313 1019/265/313 1050/260/313 1047/259/313
f 1019/265/313 1011/266/313 1041/261/313 1050/260/313
f 1015/245/314 1030/242/314 1051/243/314 1028/244/314
f 1030/242/315 1032/252/315 1054/253/315 1051/243/315
f 1032/252/316 1034/257/316 1057/258/316 1054/253/316
f 1034/257/317 1017/262/317 1036/263/317 1057/258/317
f 1028/244/318 1051/243/318 1052/246/318 1026/247/318
f 1051/243/319 1054/253/319 1055/254/319 1052/246/319
f 1054/253/320 1057/258/320 1058/259/320 1055/254/320
f 1057/258/321 1036/263/321 1038/264/321 1058/259/321
f 1026/247/322 1052/246/322 1053/248/322 1024/249/322
f 1052/246/323 1055/254/323 1056/255/323 1053/248/323
f 1055/254/324 1058/259/324 1059/260/324 1056/255/324
f 1058/259/325 1038/264/325 1040/265/325 1059/260/325
f 1024/249/326 1053/248/326 1022/250/326 1013/251/326
f 1053/248/327 1056/255/327 1020/256/327 1022/250/327
f 1056/255/328 1059/260/328 1018/261/328 1020/256/328
f 1059/260/329 1040/265/329 1010/266/329 1018/261/329
